<?xml version="1.0" encoding="utf-8"?>
<!-- Generator: Adobe Illustrator 27.7.0, SVG Export Plug-In . SVG Version: 6.00 Build 0)  -->
<svg version="1.1" id="Ebene_1" xmlns="http://www.w3.org/2000/svg" xmlns:xlink="http://www.w3.org/1999/xlink" x="0px" y="0px"
	 viewBox="0 0 767.26 767.26" style="enable-background:new 0 0 767.26 767.26;" xml:space="preserve">
<style type="text/css">
	.st0{fill:#FB6A55;}
	.st1{fill:#969696;}
	.st2{fill:#2B454E;}
	.st3{fill:#1A2E35;}
	.st4{fill:#FFABA1;}
	.st5{fill:#ECECEC;}
	.st6{fill:#DCDCDC;}
	.st7{fill:#A8A8A8;}
	.st8{fill:#4D6FB4;}
	.st9{fill:#375A64;}
	.st10{fill:#C8C8C8;}
	.st11{fill:#FFFFFF;}
	.st12{fill:#F7DFC4;}
	.st13{fill:#F2F2F2;}
	.st14{opacity:0.1;}
	.st15{opacity:0.3;fill:#1A2E35;}
	.st16{fill:#97BEDB;}
	.st17{fill:#771137;}
	.st18{fill:#FF9ABD;}
	.st19{fill:#F39C8C;}
	.st20{fill:#F4B3CC;}
	.st21{fill:#864240;}
	.st22{fill:#C26358;}
	.st23{fill:none;stroke:#1A2E35;stroke-miterlimit:10;}
	.st24{opacity:0.1;fill:#010000;}
	.st25{opacity:0.4;}
	.st26{opacity:0.2;}
	.st27{fill:#010000;}
	.st28{fill:#F4B85A;}
	.st29{fill:#FFC5C1;}
	.st30{fill:#BD5324;}
	.st31{fill:#D95000;}
	.st32{opacity:0.6;}
	.st33{clip-path:url(#SVGID_00000039840452341871992940000008044968368733469089_);}
	.st34{clip-path:url(#SVGID_00000067223805263068919110000004711541572963248776_);}
	.st35{fill:url(#SVGID_00000157996353972764499320000001449952767251066516_);}
	.st36{clip-path:url(#SVGID_00000099643509089868268490000007349389621429495428_);}
	.st37{clip-path:url(#SVGID_00000135685827089039281630000011540445175770333864_);}
	.st38{opacity:0.5;}
	.st39{fill:#334F7C;}
	.st40{clip-path:url(#SVGID_00000116917522656273018270000000452011860068861585_);}
	.st41{fill:none;stroke:#44555B;stroke-width:0.05;stroke-miterlimit:10;}
	.st42{fill:none;}
	.st43{clip-path:url(#SVGID_00000060724424443972012370000005057964309891464352_);}
	.st44{fill:#919191;}
	.st45{fill:#CCCCCC;}
	.st46{fill:#AFAFAF;}
	.st47{fill:#F4DFCE;}
	.st48{fill:#35271C;}
	.st49{fill:#DDC6B6;}
	.st50{clip-path:url(#SVGID_00000093144758491268141600000014373789154464594840_);}
	.st51{clip-path:url(#SVGID_00000134962770161047981780000014570737353532087738_);}
	.st52{clip-path:url(#SVGID_00000132046761164925489590000009438951562137530510_);}
	.st53{opacity:0.2;fill:#1A2E35;}
	.st54{fill:#D8BCA0;}
</style>
<g>
	<circle class="st1" cx="383.63" cy="383.63" r="383.63"/>
	<g>
		<defs>
			<circle id="SVGID_00000134947612947114233960000016011634560899194292_" cx="383.63" cy="383.63" r="383.63"/>
		</defs>
		<clipPath id="SVGID_00000081629601510472957200000007314231789196434851_">
			<use xlink:href="#SVGID_00000134947612947114233960000016011634560899194292_"  style="overflow:visible;"/>
		</clipPath>
		<g style="clip-path:url(#SVGID_00000081629601510472957200000007314231789196434851_);">
			<path class="st44" d="M350.36,645.13c0,0,19.94,19.42-19.42,36.21c-39.36,16.8-54.58,23.09-45.14,28.34
				c9.45,5.25,18.44-7.87,23.13-5.25c4.69,2.62,7.84,11.43,30.41,6.5c22.57-4.93,15.75,5.05,35.69-3.88
				c19.94-8.92,114.94-12.07,107.07-40.41C474.22,638.3,350.36,645.13,350.36,645.13z"/>
			<path class="st44" d="M475.27,651.42c0,0,13.65,32.54-23.09,44.61c-36.74,12.07-51.43,14.7-46.71,19.94
				c4.72,5.25,26.24,7.35,29.92,3.67c3.67-3.67,12.07,7.35,31.49-0.52c19.42-7.87,14.17,5.97,38.31-6.72
				c24.14-12.7,64.03,0.95,70.85-53.11S475.27,651.42,475.27,651.42z"/>
			<path class="st11" d="M814.85,648.18c-14.16,6.37-29.43,11.91-45.86,16.54c-1.67,0.48-3.35,0.94-5.05,1.4
				c-9.65,2.58-19.87,4.92-30.57,7.01c-26.64,5.22-56.26,8.89-87.55,10.91c-188.2,12.18-436.88-35.46-460.32-168.73
				c-0.4-2.18-0.72-4.41-0.99-6.64c-1.71-14.58-2.57-28.89-2.73-42.86c-1.69-148.97,77.36-259.89,77.36-259.89
				s44.31-34.11,109.94-68.84c7.84-4.15,15.98-8.3,24.38-12.41c0,0,0,0,0.01,0c76.99-37.61,176.23-71.16,267.67-56.81
				c10.95,1.71,21.78,4.11,32.46,7.28c0,0,47.2,11.46,101.68,40.33c61.88,32.78,133.15,88.04,155.18,174.46
				c0.48,1.87,0.93,3.75,1.36,5.65c7.23,31.95,11.43,63.49,12.22,93.92C966.96,501.88,923.41,599.36,814.85,648.18z"/>
			<path class="st45" d="M814.85,648.18c-14.16,6.37-29.43,11.91-45.86,16.54c-1.67,0.48-3.35,0.94-5.05,1.4
				c-9.65,2.58-19.87,4.92-30.57,7.01c-26.64,5.22-56.26,8.89-87.55,10.91c-188.2,12.18-436.88-35.46-460.32-168.73
				c-0.4-2.18-0.72-4.41-0.99-6.64c-1.71-14.58-2.57-28.89-2.73-42.86c26.1-14.82,47.16-26.68,47.16-26.68l186.97,65.47
				c0,0,110.21,23.22,286.54-22.49c176.35-45.7,192.97,65.71,253.93-75.81c2.49-5.78,5.05-11.38,7.66-16.79
				C966.96,501.88,923.41,599.36,814.85,648.18z"/>
			<path class="st46" d="M675.69,619.55c-8.17,19.86-18.05,41.28-29.87,64.48c-188.2,12.18-436.88-35.46-460.32-168.73l17.6,14.45
				c20.75,17.04,44.84,29.51,70.72,36.63C349.61,587.23,519.1,627.39,675.69,619.55z"/>
			<path class="st8" d="M489.97,507.62c-36.86,58.98-108.43,59.44-183.41,46.86c-31.76-5.33-64.15-13.01-94.76-19.57
				c-102.87-22.04-137.51-71.38-59.83-215.19c42.14-78.03,100.99-115.27,146.49-132.84c38.37-14.81,67.25-15.65,68.69-15.17
				c0,0,24.14,94.47,62.98,129.11C468.97,335.47,542.45,423.64,489.97,507.62z"/>
			<path class="st11" d="M308.93,552.05c-0.79,0.82-1.57,1.64-2.37,2.42c-31.76-5.33-64.15-13.01-94.76-19.57
				c-102.87-22.04-137.51-71.38-59.83-215.19c42.14-78.03,100.99-115.27,146.49-132.84c6.88,2.28,12.55,8.47,0.81,25.07
				c-20.29,28.7-94.47,80.48-64.38,139.26C264.99,410,405.36,451.28,308.93,552.05z"/>
			<path class="st8" d="M153.02,453.03c0,0-10.85,26.59,17.84,45.84c28.69,19.24,50.38,10.15,50.38,10.15s-51.71-14-39.5-54.58
				L153.02,453.03z"/>
			<path class="st8" d="M186.14,459.16c-13.48,4.05-28.53,1.87-39.56-6.88c-11.45-9.08-26.52-26.22,0.84-40.89
				C189.33,388.93,225.98,447.2,186.14,459.16z"/>
			<path class="st39" d="M191.05,435.78c0.97,2.88-2.7,6.72-8.19,8.57c-5.5,1.85-10.74,1-11.71-1.88c-0.97-2.89,2.7-6.72,8.19-8.57
				S190.08,432.9,191.05,435.78z"/>
			
				<ellipse transform="matrix(0.8258 -0.5639 0.5639 0.8258 -219.7822 155.7891)" class="st39" cx="142.32" cy="433.71" rx="5.05" ry="9.62"/>
			
				<ellipse transform="matrix(0.9239 -0.3827 0.3827 0.9239 -101.5811 145.3474)" class="st47" cx="314.57" cy="328.02" rx="27.71" ry="27.71"/>
			<ellipse transform="matrix(0.7071 -0.7071 0.7071 0.7071 -139.0018 317.3011)" cx="313.52" cy="326.44" rx="24.07" ry="24.07"/>
			<path class="st11" d="M314.57,316.24c0,4.51-3.66,8.17-8.17,8.17c-4.51,0-8.17-3.66-8.17-8.17c0-4.51,3.66-8.17,8.17-8.17
				C310.91,308.07,314.57,311.73,314.57,316.24z"/>
			<path class="st8" d="M194.5,258.93c0,0,26.48-24.67-13.41-47.06c-39.89-22.39,121.21-107.77,205.75-61.58
				c77.09,42.12,94.83,57.08,94.38,62.49c-0.45,5.41-85.81,6.63-68.1,101.63C413.12,314.41,391.35,76.95,194.5,258.93z"/>
			<path class="st48" d="M495.09,215.57c0,0-34.45-29.39-48.12-36.22c-13.68-6.82-26.27,11.02-42.55,11.55
				c-16.27,0.52-50.91,60.82-1.05,111.5C453.23,353.08,495.09,215.57,495.09,215.57z"/>
			<g>
				<path class="st39" d="M455.85,322.35c0,0-8.31,2.99-19,2.06c-10.79-0.96-24-5.91-33.49-22c-18.89-32.02-4.92-46.62-4.92-46.62
					s56.88-61.5,99.92-49.43c0,0,0.87,0.55,2.09,1.78C507.49,215.24,526.08,244.96,455.85,322.35z"/>
				<path class="st8" d="M500.45,208.14c-7.91,4.05-19.27,9.85-34.63,17.63c-35.16,17.84-15.22,46.19-22.04,83.45
					c-1.18,6.45-3.65,11.4-6.93,15.18c-10.79-0.96-24-5.91-33.49-22c-18.89-32.02-4.92-46.62-4.92-46.62s56.88-61.5,99.92-49.43
					C498.36,206.36,499.24,206.9,500.45,208.14z"/>
			</g>
			<path class="st39" d="M192.58,511.38c-1.03-0.41-0.75-1.95,0.36-1.98c9.37-0.22,30.25-1.06,34.83-4.29
				C233.41,501.13,218.3,521.56,192.58,511.38z"/>
			<path class="st39" d="M261.14,339.71c-0.68-5.57,6.75-7.99,9.54-3.12c9.18,16.08,34.43,37.65,101.91,9.69
				c97.82-40.54,98.69,105.49,5.34,77.15C303.32,400.78,264.2,364.79,261.14,339.71z"/>
			<path class="st8" d="M777.11,603.89c-32.23,9.03-66.45,13.92-101.42,15.66c90.92-220.94-30.91-248-77.14-373.85
				c-50.14-136.47-203.57-121.2-205.07-121.04c60.62-29.61,135.03-56.7,208.57-59.88c37.09-1.61,72.79,14.23,96.96,42.39
				c32.98,38.41,66.82,89.59,96.34,157.52C855.32,402.65,816.89,527.07,777.11,603.89z"/>
			<path class="st39" d="M777.11,603.89c-2.96,5.72-5.92,11.17-8.86,16.34c-19.68,34.71-55.01,57.59-94.71,61.53
				c-2.27,0.22-4.55,0.44-6.83,0.65c-2.15,0.19-4.3,0.38-6.47,0.56c-0.27,0.03-0.56,0.05-0.85,0.07c-1.79,0.15-3.6,0.28-5.41,0.42
				c-2.71,0.2-5.43,0.39-8.17,0.57c11.82-23.2,21.71-44.62,29.87-64.48C710.67,617.81,744.88,612.92,777.11,603.89z"/>
			<path class="st46" d="M814.85,648.18c-14.16,6.37-29.43,11.91-45.86,16.54c-1.67,0.48-3.35,0.94-5.05,1.4
				c-9.65,2.58-19.87,4.92-30.57,7.01c-18.63,3.65-38.72,6.54-59.83,8.64c39.7-3.95,75.03-26.82,94.71-61.53
				c2.94-5.17,5.9-10.62,8.86-16.34c57.9-16.21,109.38-45.77,147.34-94.47c0,0,50.58-41.77,26.01-219.49
				c0.48,1.87,0.93,3.75,1.36,5.65C985.78,445.52,952.81,586.13,814.85,648.18z"/>
			<path class="st49" d="M-54.16,439.73c-0.2,0-0.4-0.12-0.48-0.32c-0.12-0.27,0.01-0.58,0.27-0.69
				c54.06-23.47,117.1-26.14,172.96-7.33c0.27,0.09,0.42,0.39,0.33,0.66c-0.09,0.27-0.39,0.42-0.66,0.33
				c-55.61-18.73-118.38-16.07-172.21,7.29C-54.02,439.72-54.09,439.73-54.16,439.73z"/>
			<path class="st49" d="M-26.62,488.8c-0.13,0-0.27-0.05-0.37-0.15c-0.2-0.21-0.2-0.54,0-0.74
				c37.28-37.05,92.77-55.47,144.81-48.09c0.29,0.04,0.49,0.31,0.45,0.59c-0.04,0.29-0.31,0.49-0.59,0.45
				c-51.72-7.34-106.87,10.97-143.92,47.79C-26.35,488.75-26.49,488.8-26.62,488.8z"/>
			<path class="st49" d="M236.24,440.53c-0.25,0-0.46-0.19-0.49-0.44c-0.03-0.27,0.17-0.51,0.43-0.54
				c95.31-10.37,192.13-13.21,287.78-8.44c0.27,0.01,0.48,0.24,0.46,0.51c-0.01,0.27-0.23,0.48-0.51,0.46
				c-95.59-4.77-192.37-1.93-287.63,8.44C236.28,440.53,236.26,440.53,236.24,440.53z"/>
			<path class="st49" d="M439.83,547.25c-0.09,0-0.19-0.02-0.27-0.08c-59.52-36.35-126.97-77.55-200.39-91.64
				c-0.28-0.05-0.47-0.33-0.42-0.61c0.05-0.28,0.33-0.47,0.61-0.42c73.6,14.13,141.14,55.38,200.74,91.78
				c0.25,0.15,0.33,0.47,0.17,0.72C440.18,547.16,440.01,547.25,439.83,547.25z"/>
			<path class="st49" d="M118.42,422.75c-0.09,0-0.18-0.02-0.27-0.07C80.03,400.19,34.68,389-9.54,391.15
				c-0.29,0.01-0.54-0.21-0.55-0.5c-0.01-0.29,0.21-0.54,0.5-0.55c44.41-2.16,89.98,9.09,128.28,31.68
				c0.25,0.15,0.33,0.47,0.19,0.72C118.78,422.66,118.6,422.75,118.42,422.75z"/>
			<path class="st49" d="M437.37,477.22c-0.09,0-0.19-0.03-0.28-0.08c-26.38-16.3-59.28-26.35-97.79-29.86
				c-34.37-3.14-69.37-0.92-103.22,1.22c-0.29,0.01-0.54-0.2-0.56-0.49c-0.02-0.29,0.2-0.54,0.49-0.56
				c33.89-2.14,68.93-4.36,103.38-1.22c38.67,3.53,71.72,13.63,98.24,30.02c0.25,0.15,0.32,0.48,0.17,0.72
				C437.72,477.13,437.55,477.22,437.37,477.22z"/>
		</g>
	</g>
</g>
</svg>
