<?xml version="1.0" encoding="utf-8"?>
<!-- Generator: Adobe Illustrator 27.7.0, SVG Export Plug-In . SVG Version: 6.00 Build 0)  -->
<svg version="1.1" id="Ebene_1" xmlns="http://www.w3.org/2000/svg" xmlns:xlink="http://www.w3.org/1999/xlink" x="0px" y="0px"
	 viewBox="0 0 1171.83 1835.33" style="enable-background:new 0 0 1171.83 1835.33;" xml:space="preserve">
<style type="text/css">
	.st0{fill:#FB6A55;}
	.st1{fill:#969696;}
	.st2{fill:#2B454E;}
	.st3{fill:#1A2E35;}
	.st4{fill:#FFABA1;}
	.st5{fill:#ECECEC;}
	.st6{fill:#DCDCDC;}
	.st7{fill:#A8A8A8;}
	.st8{fill:#4D6FB4;}
	.st9{fill:#375A64;}
	.st10{fill:#C8C8C8;}
	.st11{fill:#FFFFFF;}
	.st12{fill:#F7DFC4;}
	.st13{fill:#F2F2F2;}
	.st14{opacity:0.1;}
	.st15{opacity:0.3;fill:#1A2E35;}
	.st16{fill:#97BEDB;}
	.st17{fill:#771137;}
	.st18{fill:#FF9ABD;}
	.st19{fill:#F39C8C;}
	.st20{fill:#F4B3CC;}
	.st21{fill:#864240;}
	.st22{fill:#C26358;}
	.st23{fill:none;stroke:#1A2E35;stroke-miterlimit:10;}
	.st24{opacity:0.1;fill:#010000;}
	.st25{opacity:0.4;}
	.st26{opacity:0.2;}
	.st27{fill:#010000;}
	.st28{fill:#F4B85A;}
	.st29{fill:#FFC5C1;}
	.st30{fill:#BD5324;}
	.st31{fill:#D95000;}
	.st32{opacity:0.6;}
	.st33{clip-path:url(#SVGID_00000176041613920854595860000012825425907167674028_);}
	.st34{clip-path:url(#SVGID_00000142890813890237346670000006030293866337377669_);}
	.st35{fill:url(#SVGID_00000125605301428939982240000013164302505402546055_);}
	.st36{clip-path:url(#SVGID_00000047060262137362583410000017892232289165500309_);}
	.st37{clip-path:url(#SVGID_00000160152078148365731950000002497175517212886434_);}
	.st38{opacity:0.5;}
	.st39{fill:#334F7C;}
	.st40{clip-path:url(#SVGID_00000175323443914390684180000016551421048744233116_);}
	.st41{fill:none;stroke:#44555B;stroke-width:0.05;stroke-miterlimit:10;}
	.st42{fill:none;}
	.st43{clip-path:url(#SVGID_00000170987837989897800830000006665201145032161431_);}
	.st44{fill:#919191;}
	.st45{fill:#CCCCCC;}
	.st46{fill:#AFAFAF;}
	.st47{fill:#F4DFCE;}
	.st48{fill:#35271C;}
	.st49{fill:#DDC6B6;}
	.st50{clip-path:url(#SVGID_00000075140271440660944710000017035982666488372625_);}
	.st51{clip-path:url(#SVGID_00000070811797114579016760000003484181019467435402_);}
	.st52{clip-path:url(#SVGID_00000012446197609877368220000015595514942917379004_);}
	.st53{opacity:0.2;fill:#1A2E35;}
	.st54{fill:#D8BCA0;}
</style>
<g>
	<g>
		<g>
			<g>
				<g>
					<path class="st0" d="M928.51,1789.85c-11.11,3.69-328.07,2.76-340.15-4.9c-4.56-2.86-7.13-49.08-8.63-104.94
						c-0.34-12.07-0.78-206.59-0.78-206.59H785.3l-1.21,206.59c0,0,121.19,54.66,133.51,64.5
						C929.87,1754.3,939.57,1786.21,928.51,1789.85z"/>
					<path class="st1" d="M580.47,1704.49c1.58,44.32,4.03,78.04,7.91,80.48c12.04,7.65,329.02,8.57,340.14,4.9
						c11.07-3.67,1.33-35.55-10.91-45.34c-6.78-5.41-46.46-24.38-80.79-40.34c11.99,7.45,27.29,18,25.91,24.28
						C860.07,1740.76,702.22,1748.77,580.47,1704.49z"/>
					<path class="st2" d="M580.47,1704.49c1.58,44.32,4.03,78.04,7.91,80.48c12.04,7.65,329.02,8.57,340.14,4.9
						c11.07-3.67,1.33-35.55-10.91-45.34c-6.78-5.41-46.46-24.38-80.79-40.34c11.99,7.45,27.29,18,25.91,24.28
						C860.07,1740.76,702.22,1748.77,580.47,1704.49z"/>
				</g>
				<g>
					<path class="st2" d="M503.18,594.06c0,0,55.77,551.59,57.08,558.57c0.19,0.92,0.58,11.54,1.12,28.85
						c3.01,94.95,6.42,418.85,6.42,418.85h227.54c0,0-10.83-378.5-19.36-460.32c-10.86-104.36-79.78-545.96-79.78-545.96H503.18z"/>
					<g>
						<path class="st3" d="M587.4,1172.08c-7.02-119.51-17.48-238.81-31.65-357.69c-7.99-67.02-17.6-133.8-27.16-200.61
							c-0.08-0.58-1-0.56-0.91,0.02c17.61,118.9,30.09,238.73,40.83,358.43c3.8,42.3,10.99,115.14,14.82,200.03
							c6.99,155.06,9.94,340.56,11.36,384.48c0.05,1.62,2.56,1.56,2.51-0.06C593.98,1435.54,594.51,1293.06,587.4,1172.08z"/>
						<path class="st3" d="M779.71,1562.6c-103.69-3.26-193.43-0.95-201.18-0.35c-6.43,0.5-2.85,1.17,0.35,1.36
							c88.03,5.27,197.41,0.33,200.86-0.11C780.33,1563.44,780.29,1562.62,779.71,1562.6z"/>
					</g>
				</g>
				<path class="st3" d="M503.18,594.06c0,0,55.77,551.59,57.08,558.57c0.19,0.92,0.58,11.54,1.12,28.85l107.27-587.43H503.18z"/>
			</g>
			<g>
				<g>
					<path class="st0" d="M568.98,1817.34c-11.52,2.01-331-47.2-341.82-56.57c-4.12-3.5,52.69-306,52.69-306l208.48,30.76
						l-38.35,207.05c0,0,104.1,66.74,114.84,78.25C575.51,1782.34,580.45,1815.33,568.98,1817.34z"/>
					<path class="st1" d="M227.18,1760.75c10.81,9.39,330.3,58.6,341.82,56.61c11.48-2.04,6.53-35.04-4.18-46.52
						c-6.22-6.68-43.66-31.77-74.11-51.82c10.81,9.38,26.01,23.67,23.51,29.99c-4.64,11.73-162.24-6.89-274.86-71.2
						C231.36,1724.18,225.8,1759.58,227.18,1760.75z"/>
					<path class="st2" d="M227.18,1760.75c10.81,9.39,330.3,58.6,341.82,56.61c11.48-2.04,6.53-35.04-4.18-46.52
						c-6.22-6.68-43.66-31.77-74.11-51.82c10.81,9.38,26.01,23.67,23.51,29.99c-4.64,11.73-162.24-6.89-274.86-71.2
						C231.36,1724.18,225.8,1759.58,227.18,1760.75z"/>
				</g>
				<g>
					<path class="st2" d="M696.19,594.06c0,0-6.72,56.16-38.96,96.66c-7.71,9.69-31.38,18.72-43.63,27.65
						c0,0-45.77,420.55-59.72,468.2c-15.48,52.9-75.92,414.71-75.92,414.71l-234.52-32.34c0,0,68.2-339.45,85.16-427.42
						c3.78-19.64,54.69-389.77,53.54-398.33c-13.67-101.91,35.9-149.12,35.9-149.12H696.19z"/>
					<g>
						<path class="st3" d="M517.05,598.07c-4.46,20.08-15.1,37.75-28.33,50.38c-14.86,14.19-33.3,24-51.48,26.02
							c-3.08,0.34-2.67,2.4,0.54,2.39c37.12-0.16,74.9-30.27,80.78-78.5C518.7,597.26,517.28,597.03,517.05,598.07z"/>
						<path class="st3" d="M661.65,689.02c-13.64,4.86-26.07,12.75-38.33,20.34c-12.74,7.88-24.5,17.11-36.8,25.63
							c-0.47,0.33-0.08,1.1,0.45,0.8c12.89-7.42,26.32-13.86,39.08-21.52c12.39-7.45,25.25-14.66,36.15-24.24
							C662.64,689.65,662.22,688.82,661.65,689.02z"/>
						<path class="st3" d="M666.87,611.68c-1.98,8.5-4.45,16.89-6.69,25.32c-2.1,7.91-3.75,16.01-6.23,23.82
							c-2.4,7.57-5.98,14.45-12.12,19.65c-3.27,2.77-6.84,5.19-10.31,7.71c-1.87,1.36-3.88,2.65-5.82,4.02
							c0.3-1.12,0.54-2.26,0.8-3.42c0.72-3.22,1.42-6.45,2.11-9.68c1.54-7.16,3.03-14.34,4.46-21.53
							c2.82-14.12,5.48-28.4,9.09-42.35c0.15-0.57-0.71-0.83-0.88-0.26c-4.18,13.79-8.72,27.41-12.45,41.34
							c-1.83,6.83-8.78,40.66-9.13,43.06c-0.36,2.48-0.68,4.97-0.88,7.46c-0.2,2.46-0.82,5.2-0.36,7.65
							c0.12,0.63,0.87,0.56,1.15,0.15c0.01,0.01,0.02,0.02,0.03,0.03c1.34-2.11,1.78-4.93,2.51-7.31c0.74-2.4,1.4-4.84,1.95-7.3
							c0.2-0.88,0.37-1.79,0.53-2.7c3.45-1.89,6.7-4.44,9.94-6.57c3.49-2.29,7.05-4.52,10.37-7.07
							c6.36-4.88,10.48-11.02,13.11-18.56c2.73-7.82,3.84-16.16,5.13-24.3c1.52-9.63,2.76-19.33,4.55-28.91
							C667.85,611.37,667.01,611.1,666.87,611.68z"/>
						<path class="st3" d="M467.07,1555c-102.23-17.68-191.41-27.89-199.17-28.37c-6.44-0.4-2.99,0.76,0.16,1.4
							c86.44,17.48,195.44,27.82,198.92,27.87C467.57,1555.91,467.64,1555.09,467.07,1555z"/>
						<path class="st3" d="M314.2,1322.73c13.43-58.82,25.59-117.8,35.54-177.32c9.91-59.24,17.94-118.77,25.61-178.34
							c7.73-60.07,15.35-120.15,23.08-180.22c1.88-14.59,4.94-29.59,4.23-44.35c-0.69-14.4-5.6-28.27-7-42.62
							c-2.69-27.76,2.56-55.95,11.78-82.1c2.35-6.66,4.95-13.19,7.8-19.65c0.37-0.84,1.71-0.48,1.41,0.44
							c-8.99,27.19-17.31,55.1-17.73,83.97c-0.21,14.94,2.56,29.01,5.6,43.55c3,14.3,2.56,27.82,0.76,42.25
							c-7.46,59.83-15.2,119.62-22.88,179.42c-7.66,59.56-15.47,119.12-24.88,178.44c-9.39,59.16-20.55,117.88-33.92,176.28
							c-13.46,58.84-27.22,117.64-41.95,176.18c-1.83,7.27-3.64,14.53-5.55,21.78c-0.23,0.85-1.46,0.43-1.29-0.4
							C286.68,1440.68,300.73,1381.74,314.2,1322.73z"/>
					</g>
				</g>
			</g>
		</g>
		<g>
			<path class="st4" d="M596.35,367.5c21.7,53.89,107.94,228.04,164.58,240.32c37.17,8.06,187.36-6.48,213.22-42.01
				c11.27-15.48-7.78-123.44-27.81-119.15c-20.02,4.29-140.44,20.2-155.23,15.9c-14.7-4.27-125.63-131.91-167.03-163.6
				C552.68,244.33,584.66,338.48,596.35,367.5z"/>
			<g>
				<g>
					<path class="st5" d="M900.89,438.89l3.19,162.2c0,0-119.02,21.71-169.92,2.05c-61.81-23.87-146.4-220.97-157.8-253.28
						c-18.7-53.04-11.86-84.5,17.03-75.7c11.23,3.32,25.81,12.79,43.5,29.54c18.52,17.45,124.39,130.18,158.29,151.97
						C814.15,467.86,900.89,438.89,900.89,438.89z"/>
					<path class="st3" d="M873.93,594.23c-1.19-23.96-2.48-122.16-1.32-143.4c0.08-1.47,1.03-1.78,1.15-0.24
						c5.29,71.7,1.15,120,1.12,143.56C874.87,594.74,873.96,594.84,873.93,594.23z"/>
				</g>
				<path class="st7" d="M853.68,608.05c-38.71,4.04-90.34,6.37-119.54-4.9c-61.79-23.88-146.38-220.97-157.77-253.28
					c-18.72-53.05-11.88-84.5,17.02-75.71c0.89,0.25,1.79,0.56,2.71,0.92L853.68,608.05z"/>
			</g>
		</g>
		<path class="st8" d="M686.79,503.86l22.64,155.71c0,0-253.76,3.74-316.75-0.7c0,0,51.38-291.09,119.11-364.63
			c33.88-36.78,73.65-34.03,99-8.32c6.42,6.51,82.95,107.66,91.02,146.3C708.85,466.33,686.79,503.86,686.79,503.86z"/>
		<g>
			<path class="st5" d="M539.89,272.68c0,0,22.02,836.18,1.05,872.12c-12.8,21.92-224.19-30.59-224.19-30.59
				s54.65-495.51,117.44-671.82C492.39,278.94,539.89,272.68,539.89,272.68z"/>
			<path class="st7" d="M380.76,823.09c-1.08,34.69,0.51,73.95,7.89,81.17c13.83,13.52,50.65,12.37,62.19,12.28
				c11.45-0.09,52.81-0.13,62.48-21.39c4.27-9.38,5.4-57.81,5.28-74.96c-0.05-6.96-1.62-41.21-2.13-45.04
				c-0.12-0.9-2.58-0.8-2.67-0.2c-0.58,3.92-0.21,18.14-0.41,20.84c-66.39,8.53-107.48,1.4-128.78-2.71c0.02-6.4,0-11.39-0.11-17.79
				c9.13,2.29,39.86,5.96,62.88,5.96c23.02,0,57.67-3.45,68.96-4.9c0.53-0.07,0.14-2.62-0.66-2.61c-8.64,0.12-38.64,3.06-68.84,3.06
				c-29.22,0-64.46-5.04-64.57-5.03C381.3,772.07,381.28,806.47,380.76,823.09z M392.68,900.3c-7.33-8.42-8.23-32.66-8.22-47.12
				c0.01-19.96,0.08-35.91,0.14-55.86c51.11,11.88,107.36,6.04,128.69,1.72c-0.06,0.85,0.39,42.96,0,56.38
				c-0.5,17.13-1.05,32.63-7.62,41.52c-5.64,7.63-21.55,15.29-58.13,15.25C421.1,912.15,398.81,907.34,392.68,900.3z"/>
		</g>
		<g>
			<path class="st5" d="M705.7,1129.17c8.66,10.51,78.37-23.82,78.37-23.82l-95.91-604.34c0,0,20.33-30.1,13.73-68.13
				c-6.6-38.02-86.15-148.18-99-153.88c0,0,18.17,71.15,27.59,172.76C652.56,689.83,693.38,1114.22,705.7,1129.17z"/>
			<path class="st3" d="M676.83,381.44c-7.07-11.29-14.35-22.46-21.31-33.83c-0.19-0.32,0.3-0.7,0.54-0.39
				c7.1,9.3,14.01,18.76,20.88,28.24c-2.27-5.08-4.48-10.18-6.53-15.37c-0.23-0.58,0.6-1.08,0.88-0.49c3.15,6.67,6,13.46,8.8,20.28
				c6.03,8.54,11.63,17.4,16.21,26.8c9.67,19.86,13.83,41.59,8.6,63.33c-1.45,6.01-3.55,11.79-6.32,17.31
				c-1.89,3.76-7.98,11.9-7.94,12.13c3.96,22.2,6.95,44.65,10.08,66.98c3.17,22.6,6.38,45.19,9.01,67.86
				c1.49,12.83,2.45,25.77,4.32,38.55c0.07,0.47-0.65,0.65-0.72,0.18c-1.62-11.14-4.04-22.16-6.01-33.25
				c-1.98-11.1-3.85-22.21-5.64-33.34c-3.62-22.49-6.83-45.05-10.09-67.59c-1.84-12.75-3.86-25.5-5.31-38.3
				c-0.16-1.4,5.61-10.5,7.31-13.99c2.29-4.69,4.14-9.65,5.57-14.66c2.9-10.17,3.88-21,2.68-31.52
				C699.35,418.77,688.17,399.54,676.83,381.44z"/>
			<path class="st7" d="M603.51,281.51c7.47,11.31,15.05,22.55,22.77,33.69c7.77,11.1,15.36,22.32,23.28,33.31l0.17-2.63
				l-19.02,19.93l-1.57,1.65l1.67,1.62c8,7.76,16.15,15.36,24.27,23l-0.68-1.98c-2.94,20.65-6.1,41.26-8.72,61.95
				c-2.79,20.67-5.4,41.36-7.69,62.11c3.93-20.5,7.53-41.04,10.97-61.61c3.6-20.55,6.66-41.17,9.93-61.77l0.18-1.15l-0.86-0.83
				c-8.04-7.72-16.05-15.47-24.21-23.07l0.09,3.26l18.66-20.26l1.16-1.26l-1-1.37c-7.99-10.94-16.3-21.64-24.44-32.47
				C620.28,302.81,611.95,292.12,603.51,281.51z"/>
		</g>
		<g>
			<g>
				<path class="st4" d="M471.03,322.67c-99.87,93.66-217.32,256-175.87,295.79c27.53,26.43,165.52-150.04,163.1-149.59
					c-5.19,0.97,24.74-57.66,61.44-128.71C560.62,260.91,528.12,269.13,471.03,322.67z"/>
				<path class="st5" d="M519.74,281.8c-69.51,34.46-260.82,257.46-235.8,326.04c25.02,68.58,182.94-137.95,181.33-140.94
					c-1.61-3,38.47-81.43,54.8-113.33C536.4,321.66,556.75,263.45,519.74,281.8z"/>
				<path class="st3" d="M510.28,390.79c-3.83,4.06-7.6,8.14-11.22,12.39c-0.67,0.79-1.28,1.61-1.94,2.41
					c1.09-2.26,2.17-4.51,3.27-6.76c3.81-7.87,8.22-15.71,11.13-23.95c0.14-0.38-0.42-0.6-0.64-0.28
					c-5.21,7.51-9.14,16.02-13.48,24.04c-4.26,7.88-8.57,15.75-12.67,23.72c-4.1,7.98-8.31,15.91-12.26,23.97
					c-3.86,7.87-8.14,15.82-10.8,24.17c-0.16,0.49,0.52,0.74,0.8,0.35c5.44-7.36,9.54-15.79,13.81-23.84
					c4.2-7.93,8.18-15.98,12.26-23.97c1.71-3.35,3.36-6.72,5.01-10.1c0.65-0.74,1.29-1.49,1.93-2.21c1.81-2.02,3.51-4.13,5.18-6.27
					c3.43-4.4,6.67-8.92,9.87-13.48C510.63,390.84,510.4,390.66,510.28,390.79z"/>
				<path class="st7" d="M539.49,282.23c-5.21,12.17-10.52,24.28-15.98,36.3c-5.51,11.99-10.84,24.09-16.5,36l-0.52-2.58
					l20.13,17.26l1.66,1.43l-1.29,1.82c-6.19,8.72-12.54,17.31-18.86,25.92l0.34-2.05c5.59,20.06,11.38,40.05,16.69,60.2
					c5.46,20.1,10.76,40.25,15.77,60.49c-6.47-19.78-12.66-39.65-18.68-59.57c-6.18-19.87-11.88-39.9-17.77-59.86l-0.33-1.12
					l0.67-0.93c6.23-8.69,12.43-17.4,18.79-25.98l0.37,3.24l-19.85-17.64l-1.24-1.1l0.72-1.48c5.73-11.87,11.79-23.54,17.67-35.32
					C527.23,305.5,533.31,293.84,539.49,282.23z"/>
			</g>
			<g>
				<path class="st9" d="M529.23,301.44c-1.66-24.95,18.7-33.82,37.38-36.35c22.14-3,36.87-1.13,47.47,20.35
					c11.17,22.64,17.01,48.92,21.37,73.69c0.81,4.62,8.02,3.48,7.21-1.15c-5.02-28.55-12.22-81.79-40.61-97.33
					c-26.13-14.31-82.84-0.32-80.02,41.95C522.33,307.28,529.54,306.09,529.23,301.44L529.23,301.44z"/>
				<g>
					<path class="st3" d="M657.79,369.53c1.46,9.14-4.76,17.74-13.91,19.21c-9.14,1.46-17.74-4.76-19.21-13.91
						c-1.46-9.14,4.76-17.74,13.91-19.21C647.73,354.15,656.33,360.38,657.79,369.53z"/>
					<path class="st5" d="M651.2,370.58c0.88,5.5-2.87,10.68-8.37,11.56c-5.5,0.88-10.68-2.87-11.56-8.37
						c-0.88-5.5,2.87-10.68,8.37-11.56C645.15,361.33,650.32,365.08,651.2,370.58z"/>
				</g>
				<g>
					<g>
						<g>
							<path class="st10" d="M554.44,379.62c18.33,70.1,15.45,87.21,9.61,95.26c-6.15,8.48-16.05,13.05-16.47,13.24l-2.11-4.63
								l1.06,2.31l-1.06-2.31c0.09-0.04,9.12-4.24,14.46-11.61c4.22-5.82,7.73-21.58-10.42-90.99L554.44,379.62z"/>
							<path class="st3" d="M551.32,478.17l4.16,7.54c0.3,0.54,0.1,1.22-0.44,1.51l-13.48,7.42c-0.54,0.3-1.22,0.1-1.51-0.44
								l-4.16-7.54c-0.3-0.54-0.1-1.22,0.44-1.51l13.48-7.42C550.35,477.43,551.03,477.63,551.32,478.17z"/>
						</g>
						<g>
							<path class="st10" d="M508.7,381.29c-14,52.78-17.41,81.68-10.73,90.95c5.35,7.42,14.33,11.61,14.42,11.65l-2.13,4.62
								c-0.42-0.19-10.3-4.8-16.42-13.3c-7.95-11.03-5.07-38.62,9.94-95.23L508.7,381.29z"/>
							<path class="st3" d="M504.52,482.2l-0.11,0.2c-1.42,2.55-0.49,5.8,2.06,7.21l6.13,3.4c2.55,1.42,5.8,0.49,7.21-2.06l0.11-0.2
								c1.42-2.55,0.49-5.8-2.06-7.21l-6.13-3.4C509.18,478.72,505.93,479.65,504.52,482.2z"/>
						</g>
					</g>
					<path class="st3" d="M502.04,377.77c1.46-7.3,5.71-25.42,9.15-34.51c2.82-7.46,10.22-12.49,10.22-12.49
						c1.01-0.1,0.58-8.99,0.08-16.26c-0.45-6.41-1.11-13.87,0.42-15.93c1.49-1.99,5.36-2.12,6.98-0.35
						c1.75,1.89,1.83,9.38,2.04,15.81c0.23,7.28,0.71,16.17,1.73,16.16c0,0,7.39,4.6,10.84,11.55c3.85,7.75,10.77,28.45,12.08,34.5
						c1.62,7.51-0.85,8.44-3,9.17c-3.05,1.03-4.98-1.05-7.36-9.36c-3.77-13.17-8.51-35.34-17.67-35.29l0-0.02
						c-9.1,0.91-12.82,24.37-15.77,37.45c-1.84,8.19-3.57,8.98-6.72,8.26C502.85,385.97,500.58,385.03,502.04,377.77z"/>
				</g>
			</g>
			<g>
				<g>
					<g>
						<path class="st9" d="M588.58,386.43c0,0-17.63-26.42,1.36-36.98c18.99-10.56,32.13,18.36,32.13,18.36L588.58,386.43z"/>
						<g>
							<path class="st9" d="M730,561.88l0,0.03l0.79,31.07l0.32,10.25l-8.62-5.61l-25.99-17.09l-0.03,0l-0.01-0.05L587.96,385.33
								l33.5-18.62l108.51,195.18C730,561.88,730,561.88,730,561.88z"/>
							<polygon class="st2" points="730.8,592.98 731.1,603.23 722.48,597.61 							"/>
						</g>
						
							<rect x="583.92" y="374.42" transform="matrix(0.874 -0.486 0.486 0.874 -107.7076 342.3824)" class="st3" width="44.74" height="8.88"/>
						
							<rect x="588.68" y="383" transform="matrix(0.874 -0.486 0.486 0.874 -111.2758 345.8102)" class="st3" width="44.74" height="8.88"/>
						<polygon class="st3" points="593.66,402.19 606.27,395.17 638.58,469.64 633.78,471.96 						"/>
					</g>
					<path class="st4" d="M295.16,618.46c37.63,36.56,187.6,16.95,283.21-11.7c18.2-5.45-40.57-167.31-59.32-159.49
						c-32.89,13.72-58.37,21.15-60.8,21.6C453.06,469.84,253.95,578.42,295.16,618.46z"/>
					<g>
						<path class="st0" d="M745.17,454.03c-1.39,18.14-45.82,10.92-45.82,10.92s10.13,7.44,12.12,19.34
							c2.28,13.64-18.1,23.2-18.1,23.2s8.7,9.65,9.54,22.44c0.87,13.27-18.32,25.85-18.32,25.85s3.16,13.44-4.04,25.02
							c-12.32,19.79-48.1,17.3-70.55,20.13c-24.05,3.03-59.54,12.08-74.29,17.15l-27.72-166.26c0,0,100.4-49.02,127.06-45.56
							C657.48,409.17,747.29,426.31,745.17,454.03z"/>
						<g>
							<path class="st3" d="M699.01,464.41c-23.13-8.83-48.33-12.1-72.68-14.99c-0.54-0.06-0.64,0.79-0.09,0.84
								c24.25,2.59,48.39,11.74,72.49,15.29C699.39,465.65,699.63,464.65,699.01,464.41z"/>
							<path class="st3" d="M692.86,505.61c-5.29-1.84-11.18-1.93-16.72-2.31c-5.97-0.41-11.94-0.71-17.92-0.92
								c-11.97-0.42-23.95-0.57-35.92-0.37c-0.53,0.01-0.65,0.82-0.09,0.84c11.93,0.44,23.84,1.06,35.74,2.01
								c5.95,0.47,11.9,1,17.85,1.56c5.53,0.52,11.32,1.54,16.87,0.82C693.5,507.13,693.66,505.88,692.86,505.61z"/>
							<path class="st3" d="M684.07,555.76c-4.54-1.78-10.35-1.2-15.16-1.27c-5.46-0.08-10.91-0.19-16.37-0.33
								c-10.91-0.28-21.82-0.57-32.71-1.23c-0.54-0.03-0.64,0.81-0.09,0.84c11.06,0.73,22.12,1.6,33.19,2.23
								c5.44,0.31,10.87,0.59,16.31,0.84c4.62,0.21,10.38,1,14.84-0.54C684.33,556.22,684.3,555.85,684.07,555.76z"/>
						</g>
					</g>
				</g>
				<g>
					<path class="st5" d="M283.94,607.83c25.02,68.58,243.8,15.96,243.8,15.96l-2.18-180.09c0,0-58.67,26.18-60.28,23.19
						C463.67,463.89,258.92,539.26,283.94,607.83z"/>
					<g>
						<path class="st3" d="M501.82,611.2c-1.74-23.92-5.27-122.07-4.6-143.33c0.05-1.47,0.99-1.8,1.14-0.26
							c6.93,71.56,3.9,119.95,4.4,143.49C502.77,611.68,501.86,611.81,501.82,611.2z"/>
						<path class="st3" d="M524.23,443.75c-6.36,1.4-12.63,4.2-18.68,6.57c-5.48,2.14-10.97,4.28-16.43,6.5
							c-11.86,4.83-23.59,9.91-35.3,15.1c-11.69,5.18-23.32,10.47-34.88,15.95c-11.55,5.47-22.77,11.59-34.3,17.08
							c-0.53,0.25-0.09,1.03,0.44,0.79c11.7-5.28,23.76-9.78,35.58-14.78c11.59-4.9,23.17-9.81,34.77-14.7
							c11.58-4.88,23.19-9.7,34.76-14.61c5.66-2.41,11.3-4.87,16.96-7.29c5.99-2.56,12.43-4.91,18-8.3
							C526.35,445.32,525.64,443.44,524.23,443.75z"/>
						<path class="st3" d="M528.5,619.91c-0.01-1.2-0.6-1.51-0.92-0.24c-0.18,0.69-0.38,1.96-0.56,2.65
							c-7.42,1.26-34.57,6.88-41.19,8.19c-13.91,2.75-27.61,6.13-41.68,7.9c-14.11,1.77-44.73,4.64-58.85,4.24
							c-0.57-0.02-0.6,0.86-0.03,0.89c14.41,0.6,45.01-0.04,59.02-1.65c14.28-1.64,28.54-3.94,42.62-6.83
							c7.05-1.45,14.05-3.1,21.03-4.85c6.58-1.66,13.65-2.96,19.78-5.93c0.46-0.22,0.8-0.77,0.79-1.27
							C528.51,621.96,528.5,620.94,528.5,619.91z"/>
					</g>
				</g>
			</g>
		</g>
		<g>
			<g>
				<polygon class="st11" points="876.73,617.66 688.13,621.69 771.02,377.85 959.63,373.82 				"/>
				<polygon class="st2" points="889.64,617.38 701.04,621.41 783.93,377.58 972.54,373.55 				"/>
				<g>
					<path class="st10" d="M803.97,377.17c-1.03,3.83-3.82,7.8-7.87,10.02c-1.78,1-2.31-1.34-0.55-2.29
						c2.57-1.45,4.41-3.9,5.34-6.33c0.15-0.43,0.31-0.92,0.41-1.35c0.44-1.62,0.57-3.23,0.19-4.61c-0.19-0.69-0.54-1.22-1.09-1.64
						c0,0-0.09-0.05-0.12-0.1c-0.09-0.05-0.2-0.05-0.23-0.1c-0.11,0-0.36-0.05-0.36-0.05c-0.45-0.1-0.84-0.04-1.32,0.14
						c-0.77,0.23-1.49,0.78-2.14,1.44c-0.83,0.87-1.28,1.58-1.83,2.56c-0.31,0.44-0.53,0.92-0.8,1.41l-0.11,0.32
						c-0.11,0.16-0.16,0.32-0.22,0.49c-0.04,0.11-0.13,0.22-0.11,0.32l-2.68,0.06c0.53-1.57,1.4-3.19,2.45-4.71
						c1.81-2.5,4.32-4.59,7.15-4.76c2.53-0.11,3.89,1.68,4.3,3.76C804.72,373.41,804.56,375.29,803.97,377.17z"/>
					<path class="st10" d="M818.73,376.86c-1.03,3.82-3.82,7.79-7.87,10.02c-1.78,1-2.31-1.34-0.55-2.29
						c2.57-1.45,4.41-3.9,5.34-6.33c0.15-0.43,0.31-0.92,0.4-1.35c0.44-1.62,0.57-3.23,0.19-4.61c-0.19-0.69-0.54-1.22-1.09-1.64
						c0,0-0.09-0.05-0.12-0.11c-0.09-0.05-0.2-0.05-0.23-0.1c-0.11,0-0.36-0.05-0.36-0.05c-0.44-0.1-0.84-0.03-1.32,0.14
						c-0.77,0.23-1.49,0.78-2.14,1.44c-0.83,0.87-1.28,1.58-1.83,2.56c-0.31,0.44-0.53,0.92-0.8,1.41l-0.11,0.32
						c-0.11,0.16-0.16,0.32-0.22,0.49c-0.04,0.11-0.13,0.22-0.11,0.32l-2.68,0.06c0.53-1.56,1.4-3.19,2.45-4.71
						c1.81-2.5,4.33-4.59,7.15-4.76c2.53-0.11,3.89,1.68,4.3,3.76C819.48,373.09,819.32,374.97,818.73,376.86z"/>
					<path class="st10" d="M833.49,376.54c-1.03,3.82-3.82,7.79-7.87,10.02c-1.78,1-2.31-1.34-0.55-2.29
						c2.57-1.45,4.41-3.9,5.34-6.33c0.15-0.43,0.31-0.92,0.41-1.35c0.44-1.62,0.56-3.23,0.18-4.61c-0.19-0.69-0.54-1.22-1.09-1.64
						c0,0-0.09-0.05-0.12-0.1c-0.09-0.05-0.2-0.05-0.23-0.1c-0.11,0-0.36-0.05-0.36-0.05c-0.44-0.1-0.84-0.04-1.32,0.14
						c-0.77,0.23-1.49,0.78-2.14,1.44c-0.83,0.87-1.28,1.58-1.83,2.56c-0.31,0.43-0.53,0.92-0.8,1.41l-0.11,0.32
						c-0.11,0.16-0.16,0.33-0.22,0.49c-0.04,0.11-0.13,0.22-0.11,0.32l-2.68,0.06c0.53-1.57,1.4-3.19,2.45-4.71
						c1.81-2.5,4.33-4.59,7.15-4.76c2.54-0.11,3.89,1.68,4.3,3.76C834.24,372.78,834.08,374.66,833.49,376.54z"/>
					<path class="st10" d="M848.26,376.23c-1.03,3.83-3.82,7.79-7.87,10.02c-1.78,1-2.31-1.34-0.55-2.29
						c2.56-1.45,4.41-3.9,5.34-6.33c0.15-0.43,0.31-0.92,0.41-1.35c0.44-1.62,0.57-3.23,0.19-4.61c-0.19-0.69-0.54-1.22-1.09-1.64
						c0,0-0.09-0.05-0.12-0.11c-0.09-0.05-0.2-0.05-0.23-0.1c-0.11,0-0.36-0.05-0.36-0.05c-0.45-0.1-0.84-0.04-1.32,0.14
						c-0.77,0.23-1.49,0.78-2.14,1.44c-0.83,0.87-1.28,1.58-1.82,2.56c-0.31,0.44-0.53,0.92-0.8,1.41l-0.11,0.32
						c-0.11,0.16-0.16,0.32-0.22,0.49c-0.04,0.11-0.13,0.22-0.11,0.32l-2.68,0.06c0.53-1.56,1.4-3.19,2.45-4.71
						c1.81-2.5,4.32-4.59,7.15-4.76c2.53-0.11,3.89,1.68,4.3,3.76C849,372.46,848.84,374.34,848.26,376.23z"/>
					<path class="st10" d="M863.02,375.91c-1.04,3.82-3.82,7.79-7.87,10.02c-1.78,1-2.31-1.34-0.55-2.29
						c2.57-1.45,4.41-3.9,5.34-6.33c0.15-0.43,0.31-0.92,0.41-1.35c0.44-1.62,0.57-3.23,0.18-4.61c-0.19-0.69-0.54-1.22-1.09-1.64
						c0,0-0.09-0.05-0.12-0.11c-0.09-0.05-0.2-0.05-0.23-0.1c-0.11,0-0.36-0.05-0.36-0.05c-0.44-0.1-0.84-0.04-1.32,0.14
						c-0.77,0.23-1.49,0.78-2.14,1.44c-0.83,0.87-1.28,1.58-1.83,2.56c-0.31,0.44-0.53,0.92-0.8,1.41l-0.11,0.32
						c-0.11,0.16-0.16,0.32-0.22,0.49c-0.04,0.11-0.13,0.22-0.11,0.32l-2.68,0.06c0.53-1.56,1.4-3.19,2.45-4.71
						c1.81-2.5,4.33-4.59,7.15-4.76c2.54-0.11,3.89,1.68,4.3,3.76C863.77,372.15,863.61,374.02,863.02,375.91z"/>
					<path class="st10" d="M877.78,375.6c-1.03,3.83-3.82,7.79-7.87,10.02c-1.78,1-2.31-1.34-0.55-2.29
						c2.57-1.45,4.41-3.9,5.34-6.33c0.15-0.43,0.31-0.92,0.41-1.35c0.44-1.62,0.57-3.23,0.19-4.61c-0.19-0.69-0.54-1.22-1.09-1.64
						c0,0-0.09-0.05-0.12-0.1c-0.09-0.05-0.19-0.05-0.23-0.1c-0.11,0-0.36-0.05-0.36-0.05c-0.45-0.1-0.84-0.03-1.32,0.14
						c-0.77,0.23-1.49,0.78-2.14,1.44c-0.83,0.87-1.28,1.58-1.83,2.56c-0.31,0.44-0.53,0.92-0.8,1.41l-0.11,0.32
						c-0.11,0.16-0.16,0.33-0.22,0.49c-0.04,0.11-0.13,0.22-0.11,0.32l-2.68,0.06c0.53-1.56,1.4-3.19,2.45-4.71
						c1.81-2.5,4.33-4.59,7.15-4.76c2.53-0.11,3.89,1.68,4.3,3.76C878.53,371.83,878.37,373.71,877.78,375.6z"/>
					<path class="st10" d="M892.54,375.28c-1.03,3.83-3.82,7.8-7.87,10.02c-1.78,1-2.31-1.34-0.55-2.29
						c2.57-1.45,4.41-3.9,5.34-6.33c0.15-0.43,0.31-0.92,0.41-1.35c0.44-1.62,0.57-3.23,0.19-4.61c-0.19-0.69-0.54-1.22-1.09-1.64
						c0,0-0.09-0.05-0.12-0.1c-0.09-0.05-0.19-0.05-0.23-0.1c-0.11,0-0.36-0.05-0.36-0.05c-0.44-0.1-0.84-0.04-1.32,0.13
						c-0.77,0.23-1.49,0.78-2.14,1.44c-0.83,0.87-1.28,1.58-1.83,2.56c-0.31,0.43-0.53,0.92-0.8,1.41l-0.11,0.32
						c-0.11,0.16-0.16,0.32-0.22,0.49c-0.04,0.11-0.13,0.22-0.11,0.32l-2.68,0.06c0.53-1.57,1.4-3.19,2.45-4.71
						c1.81-2.5,4.32-4.59,7.15-4.76c2.53-0.11,3.89,1.68,4.3,3.76C893.29,371.52,893.13,373.39,892.54,375.28z"/>
					<path class="st10" d="M907.3,374.96c-1.03,3.83-3.82,7.8-7.87,10.02c-1.78,1-2.31-1.34-0.55-2.29c2.56-1.45,4.41-3.9,5.34-6.33
						c0.15-0.43,0.31-0.92,0.41-1.35c0.44-1.62,0.56-3.23,0.19-4.61c-0.19-0.69-0.54-1.22-1.09-1.64c0,0-0.09-0.05-0.12-0.1
						c-0.09-0.05-0.2-0.05-0.23-0.1c-0.11,0-0.36-0.05-0.36-0.05c-0.45-0.1-0.84-0.04-1.32,0.14c-0.77,0.23-1.49,0.78-2.14,1.44
						c-0.83,0.87-1.28,1.58-1.83,2.56c-0.31,0.43-0.53,0.92-0.8,1.41l-0.11,0.32c-0.11,0.16-0.16,0.32-0.22,0.49
						c-0.04,0.11-0.13,0.22-0.11,0.32l-2.68,0.06c0.53-1.56,1.4-3.19,2.45-4.71c1.81-2.5,4.32-4.59,7.15-4.76
						c2.53-0.11,3.89,1.68,4.3,3.76C908.05,371.2,907.89,373.08,907.3,374.96z"/>
					<path class="st10" d="M922.06,374.65c-1.03,3.82-3.82,7.79-7.87,10.02c-1.78,1-2.31-1.34-0.55-2.29
						c2.57-1.45,4.41-3.9,5.34-6.33c0.15-0.43,0.31-0.92,0.4-1.35c0.44-1.62,0.57-3.23,0.19-4.61c-0.19-0.69-0.54-1.22-1.09-1.64
						c0,0-0.09-0.05-0.12-0.1c-0.09-0.05-0.2-0.05-0.23-0.1c-0.11,0-0.36-0.05-0.36-0.05c-0.45-0.1-0.84-0.03-1.32,0.14
						c-0.77,0.23-1.49,0.78-2.14,1.44c-0.83,0.88-1.28,1.58-1.83,2.56c-0.31,0.43-0.53,0.92-0.8,1.41l-0.11,0.32
						c-0.11,0.16-0.16,0.32-0.22,0.49c-0.04,0.11-0.13,0.22-0.11,0.32l-2.68,0.06c0.53-1.56,1.4-3.19,2.45-4.71
						c1.81-2.5,4.33-4.59,7.15-4.76c2.53-0.11,3.89,1.68,4.3,3.76C922.81,370.88,922.65,372.76,922.06,374.65z"/>
					<path class="st10" d="M936.83,374.33c-1.03,3.82-3.82,7.8-7.87,10.02c-1.78,1-2.31-1.34-0.55-2.29
						c2.56-1.45,4.41-3.9,5.34-6.33c0.15-0.43,0.31-0.92,0.4-1.35c0.44-1.62,0.57-3.23,0.19-4.61c-0.19-0.69-0.54-1.22-1.09-1.64
						c0,0-0.09-0.05-0.12-0.1c-0.09-0.05-0.2-0.05-0.23-0.1c-0.11,0-0.36-0.05-0.36-0.05c-0.45-0.1-0.84-0.04-1.32,0.13
						c-0.77,0.23-1.49,0.78-2.14,1.44c-0.83,0.87-1.28,1.58-1.83,2.56c-0.31,0.43-0.53,0.92-0.8,1.41l-0.11,0.32
						c-0.11,0.16-0.16,0.32-0.22,0.49c-0.04,0.11-0.13,0.22-0.11,0.32l-2.68,0.06c0.53-1.57,1.4-3.19,2.45-4.71
						c1.81-2.5,4.32-4.59,7.15-4.76c2.53-0.11,3.89,1.68,4.3,3.76C937.57,370.57,937.41,372.45,936.83,374.33z"/>
					<path class="st10" d="M951.59,374.02c-1.03,3.83-3.82,7.8-7.87,10.02c-1.78,1-2.31-1.34-0.55-2.29
						c2.56-1.45,4.41-3.9,5.34-6.33c0.15-0.43,0.31-0.92,0.41-1.35c0.44-1.62,0.57-3.23,0.18-4.61c-0.19-0.69-0.54-1.22-1.09-1.64
						c0,0-0.09-0.05-0.12-0.1c-0.09-0.05-0.2-0.05-0.23-0.1c-0.11,0-0.36-0.05-0.36-0.05c-0.45-0.1-0.84-0.04-1.32,0.14
						c-0.77,0.23-1.49,0.78-2.14,1.44c-0.83,0.88-1.28,1.58-1.83,2.56c-0.31,0.44-0.53,0.92-0.8,1.41l-0.11,0.32
						c-0.11,0.16-0.16,0.33-0.22,0.49c-0.04,0.11-0.13,0.22-0.11,0.32l-2.68,0.06c0.53-1.56,1.4-3.19,2.45-4.71
						c1.81-2.5,4.33-4.59,7.15-4.76c2.54-0.11,3.89,1.69,4.3,3.76C952.34,370.25,952.18,372.13,951.59,374.02z"/>
					<path class="st10" d="M966.35,373.7c-1.03,3.82-3.82,7.79-7.87,10.02c-1.78,1-2.31-1.34-0.55-2.29
						c2.57-1.45,4.41-3.9,5.34-6.33c0.15-0.43,0.31-0.92,0.41-1.35c0.44-1.62,0.57-3.23,0.18-4.61c-0.19-0.69-0.54-1.22-1.09-1.64
						c0,0-0.09-0.05-0.12-0.1c-0.09-0.05-0.2-0.05-0.23-0.1c-0.11,0-0.36-0.05-0.36-0.05c-0.45-0.1-0.84-0.04-1.32,0.14
						c-0.77,0.23-1.49,0.78-2.14,1.44c-0.83,0.87-1.28,1.58-1.83,2.56c-0.31,0.44-0.53,0.92-0.8,1.41l-0.11,0.32
						c-0.11,0.16-0.16,0.32-0.22,0.49c-0.04,0.11-0.13,0.22-0.11,0.32l-2.68,0.06c0.53-1.56,1.4-3.19,2.45-4.71
						c1.81-2.5,4.33-4.59,7.15-4.76c2.53-0.11,3.89,1.68,4.3,3.76C967.1,369.94,966.94,371.82,966.35,373.7z"/>
				</g>
			</g>
			<g>
				<g>
					<path class="st0" d="M960.45,428.71c8.91,20.85,32.37,47.23,33.71,64.03c1.22,15.17-11.53,19.98-11.53,19.98
						s16.35,8.98,15.06,24.42c-0.66,7.95-13.95,13.87-13.95,13.87s12.79,7.77,10.8,21.43c-1.59,10.89-14.66,15.19-14.66,15.19
						s8.8,13.17,3.62,23.74c-10.5,21.44-104.87,17.71-118.07-17.63c-6.16-16.47,16.85-14.31,16.85-14.31s-32.33-11.1-32.06-30.57
						c0.27-19.47,29.99-14.86,29.99-14.86s-31.23-11.03-28.91-31.19c2.41-20.99,31.35-11.29,31.35-11.29s-20.42-15.05-15.11-30.08
						c8.77-24.82,47.25,8.35,68.19,4.24l12.8-33.75L960.45,428.71z"/>
					<path class="st0" d="M978.19,459.19c-6.71-20.48,19.27-44.41,15.67-64.91c-4.87-27.74-36.89-2-45.35,37.67l-1.15,31.95
						L978.19,459.19z"/>
					<g>
						<path class="st3" d="M977.91,588.62c0.31-0.01,0.39,0.43,0.08,0.49c-31.34,6.34-67.72,3.7-96.99-9.63
							c-0.96-0.44-0.67-2.19,0.48-1.91C914.28,585.54,944.02,589.99,977.91,588.62z"/>
						<path class="st3" d="M984.19,551.23c0.37-0.02,0.4,0.59,0.01,0.67c-32.33,6.35-73.22,2.25-105.15-17.09
							c-1.1-0.66-1.41-2.36-0.09-1.69C901.17,544.38,953.69,552.63,984.19,551.23z"/>
						<path class="st3" d="M880.75,489.39c31.33,17.36,65.08,22.93,100.57,23.66c0.46,0.01,0.4,0.66,0.01,0.76
							c-17.46,4.37-40.03,1.54-57.4-2.14c-16.64-3.53-30.95-10.06-43.79-21.18C879.64,490.05,880.08,489.02,880.75,489.39z"/>
					</g>
				</g>
			</g>
		</g>
		<g>
			<g>
				<path class="st0" d="M546.35,289.96c1.27,5.11,26.23,38.06,49.65,36.62c7.63-0.48,6.87-42.24,6.87-42.24l0.65-3.09l9.05-43.34
					l-51.21-31.84l-7.39-4.21c0,0-1.69,12.02-3.65,27.01c-0.09,0.69-0.19,1.39-0.28,2.13c-0.13,0.85-0.27,1.64-0.36,2.44
					c-0.32,2.23-0.64,4.52-0.91,6.8c-0.21,1.73-0.43,3.42-0.58,5.25c-0.2,1.83-0.36,3.61-0.57,5.45
					C545.99,269.05,545.84,287.78,546.35,289.96z"/>
				<path class="st3" d="M550.31,228.87c12.86,34.21,40.53,47.83,53.21,52.37l9.05-43.34l-51.21-31.84l-7.39-4.21
					C553.96,201.87,552.27,213.89,550.31,228.87z"/>
			</g>
			<g>
				<path class="st0" d="M663.39,154.34c16.56,75.91-27.04,94.4-43.41,97.95c-14.86,3.22-65.88,12.32-90.19-61.48
					c-24.31-73.79,5.75-105.49,39.35-114.66C602.74,66.98,646.83,78.43,663.39,154.34z"/>
				<g>
					<path class="st3" d="M639.97,143.29c-1.83,0.14-3.54-0.03-5.37-0.08c-2.06-0.05-3.7,0.12-5.46-1.13
						c-0.94-0.67-1.2-2.34-0.64-3.31c1.31-2.27,3.84-2.83,6.32-2.87c2.69-0.04,4.78,0.62,6.88,2.28
						C643.76,139.8,642.39,143.1,639.97,143.29z"/>
					<path class="st3" d="M587.3,153.87c1.75-0.56,3.27-1.36,4.94-2.09c1.89-0.82,3.48-1.29,4.63-3.09
						c0.62-0.97,0.23-2.62-0.65-3.31c-2.06-1.61-4.62-1.18-6.94-0.28c-2.51,0.98-4.19,2.37-5.52,4.71
						C582.48,152.06,584.99,154.6,587.3,153.87z"/>
					<g>
						<g>
							<path class="st3" d="M597.23,165.84c-8.45,1.19-5.44,18,2.39,16.9C607.32,181.65,604.32,164.84,597.23,165.84z"/>
						</g>
					</g>
					<g>
						<g>
							<path class="st3" d="M636.95,156.95c8.28-2.07,11.81,14.64,4.14,16.56C633.54,175.39,630.01,158.69,636.95,156.95z"/>
						</g>
					</g>
				</g>
				<path class="st3" d="M537.26,192.17c12.42-1.51,10.08-27.72,10.08-27.72s24.88-4.92,25.9-42.31c0,0,2.8,16.75-5.07,31.77
					c0,0,42.9-13.45,53.99-53.83c0,0-3.61,20.16-9.18,28.19c0,0,17.36-8.82,23.33-25.55c0,0,11.92,19.63,19.01,24.29
					c0,0-6.52-102.5-97.86-50.49c0,0-40.32,7.84-49.23,46.27C499.32,161.21,537.26,192.17,537.26,192.17z"/>
				<g>
					<g>
						<path class="st0" d="M535.75,218.83c1.34,0.32,2.55,0.46,3.69,0.46c1.35,0.07,2.56-0.09,3.64-0.37
							c1.71-0.39,3.12-1.12,4.26-2.01c1.06-0.77,1.93-1.71,2.62-2.62c1.77-2.38,2.37-4.7,2.37-4.7l-6.92-20.04
							c0,0-19.94-21.88-30.05-14.47C505.19,182.49,522.31,215.73,535.75,218.83z"/>
					</g>
					<path class="st11" d="M536.4,215.45c0.64,1.88,2.68,2.89,4.56,2.25c1.88-0.64,2.89-2.68,2.25-4.57
						c-0.64-1.88-2.68-2.89-4.56-2.25C536.77,211.52,535.76,213.57,536.4,215.45z"/>
					<path class="st11" d="M528.37,211.01c0.45,1.33,1.9,2.04,3.23,1.59c1.33-0.45,2.04-1.9,1.59-3.23
						c-0.45-1.33-1.9-2.04-3.23-1.59C528.63,208.23,527.92,209.68,528.37,211.01z"/>
				</g>
				<g>
					<path class="st3" d="M575.27,91c14.72-10.82,21.34-54.81,3.69-77.18c-24.31-30.8-86.81-6.48-79.72,37.09
						C506.34,94.55,563.9,99.35,575.27,91z"/>
				</g>
			</g>
		</g>
		<path class="st3" d="M624.11,197.01c-2.73,0-5.35-1.35-6.82-2.48l2.9-3.78c0.82,0.62,3.58,2.18,5.23,1.14
			c0.18-0.11,0.61-0.41,0.66-0.67c0.15-0.73-1.01-2.39-1.64-3.28c-0.47-0.67-0.88-1.28-1.13-1.79c-3.03-6,0.92-12.38,1.09-12.64
			l4.03,2.55l-2.01-1.27l2.02,1.26c-0.03,0.04-2.67,4.39-0.87,7.96c0.17,0.34,0.47,0.75,0.79,1.21c1.24,1.78,2.95,4.23,2.4,6.95
			c-0.3,1.52-1.24,2.78-2.78,3.76C626.75,196.71,625.42,197.01,624.11,197.01z"/>
		<path class="st3" d="M624.34,215.09c-12.56,0-22.61-6.32-23.22-6.72l2.57-4.01c0.2,0.13,20.02,12.52,37.2,0.94l2.66,3.95
			C637.09,213.61,630.42,215.09,624.34,215.09z"/>
		<path class="st3" d="M541.98,210.58c-0.19-0.37-4.78-9.12-13.6-8.56l-0.31-4.76c3.38-0.22,6.28,0.52,8.7,1.71
			c-3.32-5.5-8.35-11.26-15.35-12.74l0.99-4.66c17.05,3.6,23.72,26.31,24,27.28L541.98,210.58z"/>
	</g>
</g>
</svg>
