<?xml version="1.0" encoding="utf-8"?>
<!-- Generator: Adobe Illustrator 27.7.0, SVG Export Plug-In . SVG Version: 6.00 Build 0)  -->
<svg version="1.1" id="Ebene_1" xmlns="http://www.w3.org/2000/svg" xmlns:xlink="http://www.w3.org/1999/xlink" x="0px" y="0px"
	 viewBox="0 0 1128.47 1873.74" style="enable-background:new 0 0 1128.47 1873.74;" xml:space="preserve">
<style type="text/css">
	.st0{fill:#FB6A55;}
	.st1{fill:#969696;}
	.st2{fill:#2B454E;}
	.st3{fill:#1A2E35;}
	.st4{fill:#FFABA1;}
	.st5{fill:#ECECEC;}
	.st6{fill:#DCDCDC;}
	.st7{fill:#A8A8A8;}
	.st8{fill:#4D6FB4;}
	.st9{fill:#375A64;}
	.st10{fill:#C8C8C8;}
	.st11{fill:#FFFFFF;}
	.st12{fill:#F7DFC4;}
	.st13{fill:#F2F2F2;}
	.st14{opacity:0.1;}
	.st15{opacity:0.3;fill:#1A2E35;}
	.st16{fill:#97BEDB;}
	.st17{fill:#771137;}
	.st18{fill:#FF9ABD;}
	.st19{fill:#F39C8C;}
	.st20{fill:#F4B3CC;}
	.st21{fill:#864240;}
	.st22{fill:#C26358;}
	.st23{fill:none;stroke:#1A2E35;stroke-miterlimit:10;}
	.st24{opacity:0.1;fill:#010000;}
	.st25{opacity:0.4;}
	.st26{opacity:0.2;}
	.st27{fill:#010000;}
	.st28{fill:#F4B85A;}
	.st29{fill:#FFC5C1;}
	.st30{fill:#BD5324;}
	.st31{fill:#D95000;}
	.st32{opacity:0.6;}
	.st33{clip-path:url(#SVGID_00000181067366885683386750000014011871263747607980_);}
	.st34{clip-path:url(#SVGID_00000183217398607739067930000009541579059529223337_);}
	.st35{fill:url(#SVGID_00000018936688141267164190000000694172784301012903_);}
	.st36{clip-path:url(#SVGID_00000000217678208566494690000005992082698106421410_);}
	.st37{clip-path:url(#SVGID_00000072275230549583177380000007848123576346336690_);}
	.st38{opacity:0.5;}
	.st39{fill:#334F7C;}
	.st40{clip-path:url(#SVGID_00000107549685571991730250000013576348686387375535_);}
	.st41{fill:none;stroke:#44555B;stroke-width:0.05;stroke-miterlimit:10;}
	.st42{fill:none;}
	.st43{clip-path:url(#SVGID_00000024723568831177423240000004999506590502402461_);}
	.st44{fill:#919191;}
	.st45{fill:#CCCCCC;}
	.st46{fill:#AFAFAF;}
	.st47{fill:#F4DFCE;}
	.st48{fill:#35271C;}
	.st49{fill:#DDC6B6;}
	.st50{clip-path:url(#SVGID_00000120547594713957685220000000522450480211483823_);}
	.st51{clip-path:url(#SVGID_00000165211721708165496520000004922723313499142041_);}
	.st52{clip-path:url(#SVGID_00000096776927751337305880000003616080100778251435_);}
	.st53{opacity:0.2;fill:#1A2E35;}
	.st54{fill:#D8BCA0;}
</style>
<path class="st12" d="M529.43,294.86c5.2,58.43,46.6,241.13,77.6,261.15c32.26,20.83,180.18,62.85,211.27,62.48
	c19.34-0.23,24.73-134.59,4.13-136.3c-20.6-1.72-136.74-39.81-149.77-48.29c-12.96-8.43-62.81-123.41-93.55-166.15
	C526.11,194.05,526.63,263.39,529.43,294.86z"/>
<path class="st13" d="M854.17,556.34c-10.89,0.41-21.91-0.4-32.87-2.58c-5.03-1-9.95-2.27-14.78-3.76
	c-6.95,7.02-14.67,13.32-23.02,18.8c21.81,8.85,45.36,13.34,68.95,13.01c17.97-0.25,35.96-3.3,53.21-9.37
	c38.43-13.54,70.66-39.55,91.98-74.29c4.28-6.98,1.04-13.75-4.37-17.09c-5.5-3.4-13.23-3.25-17.58,3.84
	c-19.22,31.32-49.42,54.23-83.59,64.89c-9.73,3.03-19.77,5.07-29.98,6.03C859.48,556.06,856.83,556.24,854.17,556.34z"/>
<path class="st12" d="M814.56,511.05c15.33,13.99,4.89,46.36,17.62,61.84c17.23,20.94,31.88-15.8,20.17-53.07l-14.17-27.33
	L814.56,511.05z"/>
<g>
	<g>
		<g>
			<g>
				<path class="st12" d="M894.86,1836.59c-11.87,3.71-349.11-3.69-361.76-12.14c-4.86-3.12-6.65-52.33-7.1-111.84
					c0-0.62,0-1.24,0-1.87c-0.12-12.26-0.17-24.89-0.07-37.69c0.01-1.76,0.02-3.52-0.02-5.28l17.94-174.83l217.72,4.21
					l-15.94,173.21l-0.32,6.86l-1.68,35.87l-0.16,3.69c0,0,127.82,60.57,140.76,71.32C897.07,1798.82,906.73,1832.93,894.86,1836.59
					z"/>
				<path class="st5" d="M894.86,1836.59c-11.87,3.71-349.11-3.69-361.76-12.14c-4.86-3.12-6.65-52.33-7.1-111.84
					c0-0.62,0-1.24,0-1.87c-0.12-12.26-0.17-24.89-0.07-37.69c0.01-1.76,0.02-3.52-0.02-5.28l219.72,2.59l-0.32,6.86l-1.68,35.87
					l-0.16,3.69c0,0,127.82,60.57,140.76,71.32C897.07,1798.82,906.73,1832.93,894.86,1836.59z"/>
				<g>
					<path class="st1" d="M894.9,1836.57c-6.11,1.91-97.74,0.88-187.29-1.73c-18-0.52-35.9-1.1-52.98-1.71
						c-63.86-2.33-116.62-5.43-121.49-8.68c-4.82-3.09-6.61-50.94-7.07-109.35c0.01-0.83-0.04-1.65-0.03-2.48
						c0.01-0.62,0.01-1.29-0.03-1.91l0.26,0l217.37,2.36l-0.14,3.71c0,0,127.84,60.54,140.74,71.29
						C897.09,1798.81,906.74,1832.91,894.9,1836.57z"/>
					<path class="st7" d="M894.9,1836.57c-6.11,1.91-97.74,0.88-187.29-1.73c-18-0.52-35.9-1.1-52.98-1.71
						c-63.86-2.33-116.62-5.43-121.49-8.68c-4.82-3.09-6.61-50.94-7.07-109.35c0.01-0.83-0.04-1.65-0.03-2.48
						c0.01-0.62,0.01-1.29-0.03-1.91l0.26,0l217.37,2.36l-0.14,3.71c0,0,127.84,60.54,140.74,71.29
						C897.09,1798.81,906.74,1832.91,894.9,1836.57z"/>
					<g>
						<g>
							<path class="st3" d="M891.33,1823.43c-56.82-2.64-286.24-7.94-342.6-6.24c-0.46,0.01-0.47,0.33-0.01,0.36
								c56.26,3.85,285.71,7.29,342.59,6.81C892.52,1824.35,892.53,1823.49,891.33,1823.43z"/>
							<path class="st3" d="M767.84,1714.25c-22.28-4.67-49.71-1.83-67.16,13.73c-0.68,0.6,0.19,1.55,0.92,1.34
								c22.22-6.47,42.93-10.49,66.09-12.25C769.32,1716.95,769.44,1714.58,767.84,1714.25z"/>
							<path class="st3" d="M783.77,1724.33c-22.28-4.67-49.72-1.83-67.16,13.73c-0.68,0.6,0.19,1.55,0.92,1.34
								c22.22-6.47,42.93-10.48,66.09-12.25C785.25,1727.03,785.37,1724.67,783.77,1724.33z"/>
							<path class="st3" d="M799.71,1734.42c-22.28-4.67-49.72-1.83-67.16,13.73c-0.68,0.6,0.19,1.55,0.92,1.34
								c22.22-6.47,42.93-10.49,66.09-12.25C801.19,1737.12,801.3,1734.75,799.71,1734.42z"/>
						</g>
					</g>
					<path class="st14" d="M707.6,1834.83c-18-0.52-35.9-1.1-52.98-1.71c-63.86-2.33-116.62-5.43-121.49-8.68
						c-4.82-3.09-6.61-50.94-7.07-109.35c0.01-0.83-0.04-1.65-0.03-2.48c0.01-0.62,0.01-1.29-0.03-1.91l0.26,0
						C555.84,1731.87,660.16,1802.67,707.6,1834.83z"/>
				</g>
			</g>
			<g>
				<path class="st2" d="M756.62,1713.96l-242.91-2.18c0,0,54.01-566.91,52.19-576.83c-2.31-12.71-16.14-70.27-34.56-145.46
					c-5.78-23.53-12-48.77-18.47-74.93c-17.48-70.75-36.75-148.06-53.54-215.34c-25.2-100.8-45.13-152.8-45.13-152.8l205.87,1.85
					c0,0,164.77,486.09,170.59,586.28C795.74,1221.92,756.62,1713.96,756.62,1713.96z"/>
				<g>
					<g>
						<path class="st3" d="M746.23,1672.42c-37.09-1.11-26.43-1.31-63.53-2c-18.16-0.34-137.47-2.45-154.45,0.21
							c-0.38,0.06-0.38,0.69-0.01,0.76c16.94,2.96,136.26,2.99,154.42,2.98c37.11-0.02,26.45-0.42,63.56-0.86
							C746.92,1673.49,746.93,1672.44,746.23,1672.42z"/>
					</g>
					<path class="st3" d="M611.91,1100.68c-7.65-35.19-19.24-69.71-29.29-104.26c-20.42-70.22-41.02-140.4-61.66-210.56
						c-10.32-35.08-58.5-166.4-63.22-183.84c-1.92-7.09-3.04-3.22-0.58,5.79c4.96,18.16,86.97,278.4,107.65,349.68
						c10.37,35.74,20.81,71.45,31.19,107.19c4.96,17.07,9.82,34.25,12.67,51.83c2.97,18.34,2.97,36.85,1.65,55.34
						c-2.66,37.14-7.3,74.21-11.07,111.26c-3.77,37.12-7.54,74.25-11.32,111.37c-7.51,73.88-15.02,147.76-22.34,221.67
						c-0.93,9.37-1.83,18.73-2.64,28.11c-0.27,3.14,4.48,2.94,4.84-0.08c8.66-73.04,15.45-146.35,22.97-219.52
						c7.49-72.81,14.97-145.62,22.44-218.43c1.87-18.28,3.99-36.59,4.16-54.99C617.54,1134.19,615.53,1117.35,611.91,1100.68z"/>
				</g>
				<path class="st3" d="M596.7,548.05c-15.28,110.44-44.15,291.22-65.36,441.44C486.54,806.83,414.2,546.41,414.2,546.41
					L596.7,548.05z"/>
			</g>
		</g>
		<g>
			<g>
				<path class="st12" d="M643.63,1837.58c-11.85,3.76-349.12-2.42-361.8-10.81c-4.88-3.11-6.84-52.3-7.51-111.82
					c0-0.62,0-1.24,0-1.86c-0.16-12.26-0.26-24.89-0.21-37.69c0-1.76,0.01-3.52-0.04-5.28c-0.02-85.88,6.98-174.93,6.98-174.93
					l220.46,3.42l-7.71,173.3l-0.29,6.86l-1.55,35.87l-0.15,3.69c0,0,128.04,60.1,141.02,70.81
					C645.69,1799.8,655.49,1833.88,643.63,1837.58z"/>
				<path class="st5" d="M643.63,1837.58c-11.85,3.76-349.12-2.42-361.8-10.81c-4.88-3.11-6.84-52.3-7.51-111.82
					c0-0.62,0-1.24,0-1.86c-0.16-12.26-0.26-24.89-0.21-37.69c0-1.76,0.01-3.52-0.04-5.28l219.73,1.79l-0.29,6.86l-1.55,35.87
					l-0.15,3.69c0,0,128.04,60.1,141.02,70.81C645.69,1799.8,655.49,1833.88,643.63,1837.58z"/>
				<g>
					<path class="st1" d="M643.63,1837.58c-11.85,3.76-349.12-2.42-361.8-10.81c-4.88-3.11-6.84-52.3-7.51-111.82
						c0-0.62,0-1.24,0-1.86l217.64,1.55l-0.15,3.69c0,0,128.04,60.1,141.02,70.81C645.69,1799.8,655.49,1833.88,643.63,1837.58z"/>
					<path class="st7" d="M643.63,1837.58c-11.85,3.76-349.12-2.42-361.8-10.81c-4.88-3.11-6.84-52.3-7.51-111.82
						c0-0.62,0-1.24,0-1.86l217.64,1.55l-0.15,3.69c0,0,128.04,60.1,141.02,70.81C645.69,1799.8,655.49,1833.88,643.63,1837.58z"/>
					<g>
						<g>
							<path class="st3" d="M640.05,1824.44c-56.83-2.43-286.26-6.9-342.62-4.99c-0.46,0.02-0.46,0.33,0,0.36
								c56.27,3.64,285.74,6.25,342.61,5.56C641.24,1825.35,641.25,1824.49,640.05,1824.44z"/>
							<path class="st3" d="M516.16,1715.7c-22.29-4.58-49.72-1.65-67.11,13.98c-0.67,0.61,0.2,1.55,0.93,1.34
								c22.2-6.55,42.89-10.64,66.04-12.49C517.65,1718.4,517.76,1716.03,516.16,1715.7z"/>
							<path class="st3" d="M532.13,1725.73c-22.3-4.59-49.72-1.65-67.11,13.97c-0.67,0.61,0.2,1.56,0.92,1.34
								c22.2-6.55,42.89-10.64,66.04-12.49C533.62,1728.43,533.73,1726.06,532.13,1725.73z"/>
							<path class="st3" d="M548.1,1735.76c-22.3-4.58-49.72-1.65-67.11,13.98c-0.67,0.61,0.2,1.55,0.93,1.34
								c22.2-6.55,42.89-10.64,66.04-12.49C549.59,1738.46,549.7,1736.09,548.1,1735.76z"/>
						</g>
					</g>
				</g>
			</g>
			<g>
				<path class="st2" d="M618.67,548.25c0,0-5.39,72.16-28.64,149.97c-1.86,6.43-3.88,12.76-6.05,18.83c0,0-18.29,8.35-54.35,30.01
					c0,0-3.08,79.23-6.25,167.59c-3.52,98.78-7.24,208.97-6.88,232.34c1.28,87.47-16.04,568.23-16.04,568.23l-242.87-1.2
					c0,0,48.73-536.61,48.71-568.66c0-51.5,12.9-258.13,23.83-424.03c0,0-11.05-38.17-10.18-50.58
					c5.33-75.75,23.46-124.98,23.46-124.98L618.67,548.25z"/>
				<g>
					<path class="st3" d="M492.52,1671.95c-37.1-0.95-26.44-1.2-63.54-1.73c-18.16-0.26-137.47-1.87-154.45,0.86
						c-0.38,0.06-0.38,0.69,0,0.76c16.95,2.89,136.28,2.41,154.44,2.32c37.11-0.18,26.45-0.53,63.55-1.13
						C493.21,1673.02,493.22,1671.97,492.52,1671.95z"/>
					<path class="st3" d="M363.5,581.15c-5.69,135.46-11.4,244.63-18.67,380.01c-7.3,135.85-16.71,271.62-29.3,407.09
						c-7.03,75.68-13.98,182.17-22.83,257.66c-0.06,0.51,0.71,0.7,0.79,0.18c18.89-134.25,30.24-300.35,40.15-435.54
						c9.91-135.16,17.02-270.57,22.85-405.97c3.3-76.59,5.74-126.91,8.72-203.51C365.23,579.99,363.54,580.07,363.5,581.15z"/>
					<path class="st3" d="M372.03,669.28c5.99-1.48,12.38-1.91,18.49-2.81c4.93-0.74,9.84-1.56,14.72-2.59
						c9.18-1.94,18.5-4.89,26.04-10.68c12.2-9.38,26.54-57.19,28.26-60.24c2.96-5.22,3.79-0.6,3.79-0.11
						c-0.03,5.57-13.18,47.44-18.18,55.24c-9.14,14.26-25.31,19.89-41.43,21.78c-4.62,0.54-9.28,0.83-13.93,1.05
						c-5.75,0.27-11.87,0.73-17.6-0.03C371.32,670.77,371.08,669.51,372.03,669.28z"/>
					<g>
						<path class="st3" d="M583.19,718.2c-23.76,7.93-46.72,19.3-68.69,31.23c-0.86,0.47-0.31,1.8,0.62,1.41
							c23.13-9.68,46.72-18.93,69.29-29.88C586.18,720.1,585.01,717.59,583.19,718.2z"/>
						<path class="st3" d="M591.58,560.43c-0.05-0.8-1.45-0.99-1.45-0.13c-0.07,27.36-2.03,51.41-4.57,76.95
							c-1.18,11.86-11.33,77.36-31.87,72.39c-3.44-0.83-5.17-4.24-5.66-9.44c-0.59-6.25,1.83-13.89,2.92-20.09
							c2.41-13.71,4.37-27.47,5.68-41.33c2.44-25.87,2.79-51.76-0.12-77.6c-0.1-0.85-1.32-0.8-1.33,0.06
							c-0.3,35.84-1.57,71.61-7.25,107.06c-2.73,17.04-11.56,42.64,6.26,45.43c18.15,2.84,30.3-40.07,32.63-51.82
							C593.29,629.14,593.87,593.69,591.58,560.43z"/>
						<path class="st3" d="M554.21,711.42c-1.9,4.39-3.44,8.96-4.75,13.55c-1.02,3.57-2.4,7.42-2.03,11.16
							c0.07,0.73,1.03,0.8,1.42,0.32c2.44-3.04,3.5-7.21,4.88-10.83c1.6-4.19,3.3-8.35,4.78-12.58
							C559.5,710.23,555.38,708.72,554.21,711.42z"/>
					</g>
				</g>
			</g>
		</g>
	</g>
</g>
<g>
	<path class="st8" d="M786.04,466.81l-18.82,161.17c0,0-136.2-40.4-168.74-68.74c-32.54-28.34-69.7-207.47-73.12-280.69
		c-3.42-73.22,22.22-71.54,60.27-9.41c38.05,62.14,85.3,159.55,93.7,163.85C687.73,437.29,786.04,466.81,786.04,466.81z"/>
	<path class="st3" d="M737,534.98c1.49-12.11,7.79-60.52,10.28-72.42c0.04-0.19,0.36-0.19,0.36,0.02
		c-0.15,11.82-4.97,59.77-6.44,71.91c-2.93,24.19-5.38,48.59-10.96,72.35c-0.1,0.42-0.81,0.43-0.79-0.05
		C730.35,582.73,734.06,558.85,737,534.98z"/>
	<path class="st8" d="M726.23,614.94c-42.9-14.22-106.8-37.44-127.75-55.71c-32.54-28.35-69.69-207.48-73.13-280.7
		c-1.65-35.46,3.53-53.35,13.61-55.38L726.23,614.94z"/>
</g>
<g>
	<g>
		<path class="st8" d="M636.11,578.31l-307.17,4.84c0,0-2.27-25.1,1.6-40.43c18.38-72.85,79.85-270.82,128.07-322.23
			c20.12-21.46,60.38-19.76,80.34-2c22.88,20.36,94.24,263.14,104.34,327.29C646.24,564.54,636.11,578.31,636.11,578.31z"/>
	</g>
</g>
<g>
	<g>
		<path class="st12" d="M526.56,261.98c-16.13,1.11-50.12-27.67-57.53-51.69c-0.5-1.65,13.35-51.94,15.78-63.8
			c0.49-2.44,70.71,33.29,70.71,33.29s-12.4,23.37-16.5,44.09c-0.32,1.73-0.48,3.38-0.48,4.97c-0.02,0.23-0.01,0.51-0.06,0.83
			C538.09,239.22,543.82,260.79,526.56,261.98z"/>
	</g>
	<path class="st3" d="M538.56,228.84c-0.04,0.24-0.04,0.54-0.09,0.82c-2.39-0.16-4.94-0.54-7.7-1.16
		c-43.6-9.92-43.95-67.11-43.34-81.45c12.83,4.6,68.09,32.73,68.09,32.73s-12.41,23.4-16.52,44.11
		C538.71,225.61,538.53,227.26,538.56,228.84z"/>
</g>
<g>
	<path class="st12" d="M481.53,61.69c-10.98,25.93-4.95,104.78,12.29,124.03c24.99,27.91,69.96,35.04,94.69,4.07
		c23.97-30.02,14.29-132.65-5.34-150.55C554.25,12.85,497.75,23.39,481.53,61.69z"/>
</g>
<path class="st15" d="M588.52,189.8c-24.72,30.95-69.69,23.83-94.69-4.1c-6.97-7.79-12.12-25.41-15.06-45.3l19.78-28.99
	c0,0,6.49,24.26,16.5,31.29c13.72,9.68,40.83,13.8,50.85-1.09l9.23-0.07c0,0,18.36,12.73,27.12-1.66
	C600.97,160.82,596.73,179.55,588.52,189.8z"/>
<g>
	<path class="st3" d="M544.82,110.14c-8.59-0.04-8.04,17.15-0.07,17.19C552.58,127.36,552.02,110.17,544.82,110.14z"/>
</g>
<g>
	<path class="st3" d="M584.7,109.28c8.54-0.93,9.77,16.22,1.86,17.08C578.77,127.21,577.54,110.06,584.7,109.28z"/>
</g>
<path class="st3" d="M537.78,102.5c2.32-0.66,4.35-1.66,6.58-2.56c2.51-1.01,4.62-1.56,6.21-3.89c0.85-1.25,0.41-3.44-0.73-4.38
	c-2.65-2.2-6.04-1.73-9.11-0.63c-3.34,1.19-5.61,2.95-7.44,5.97C531.51,99.94,534.72,103.38,537.78,102.5z"/>
<path class="st3" d="M591.07,100.41c-2.39-0.31-4.55-1-6.89-1.55c-2.64-0.62-4.8-0.85-6.72-2.92c-1.03-1.11-0.92-3.34,0.07-4.44
	c2.29-2.57,5.71-2.61,8.92-1.99c3.48,0.67,5.98,2.08,8.25,4.8C596.89,96.94,594.23,100.82,591.07,100.41z"/>
<path class="st16" d="M750.8,589.82c1.68,6.11,3.64,12.11,5.86,17.98L750.8,589.82z"/>
<path class="st17" d="M778.93,70.97c0.09,0.06,0.18,0.12,0.26,0.18C779.1,71.09,779.02,71.03,778.93,70.97z"/>
<path class="st17" d="M792.21,70.35c0.13-0.2,0.21-0.44,0.32-0.66c-0.07-0.09-0.12-0.19-0.15-0.26l-0.03-0.28
	c-0.01-0.04-0.04-0.12-0.06-0.17c-0.37,1.19-0.8,2.17-1.32,2.95C791.41,71.48,791.82,70.96,792.21,70.35z"/>
<path d="M788.82,74.5l0.19-0.05l0.02-0.06C788.96,74.42,788.89,74.47,788.82,74.5L788.82,74.5z"/>
<g>
	<path class="st3" d="M584.75,152.07c0,0-5.91,8.28-16.26,13c-3.81,1.75-8.12,3.03-13.01,3.27c-10.04,0.51-12.06-4.66-11.84-9.5
		c0.16-3.97,1.93-7.74,1.93-7.74S562.15,155.95,584.75,152.07z"/>
	<path class="st18" d="M568.49,165.07c-3.81,1.75-8.12,3.03-13.01,3.27c-10.04,0.51-12.06-4.66-11.84-9.5
		C554.07,157.31,565.6,159.33,568.49,165.07z"/>
</g>
<g>
	<g>
		<path class="st5" d="M540.18,218.69l-15.7,39.36l-53.1-58.55l-15.47,19.13c0,0,50.64,89.2,51.08,85.25l19.02-37.13l25.25,26.89
			l-0.3-65.77L540.18,218.69z"/>
		<path class="st3" d="M552.96,261.12c-0.41-10.86-0.53-21.8-1.44-32.63c-0.03-0.39-0.63-0.57-0.73-0.12
			c-2.46,10.41-0.66,51.92-0.98,61.85c-0.04-0.04-0.08-0.08-0.11-0.12c-1.05-1.16-23.43-23.69-23.67-23.35
			c-4.06,5.86-18.02,32.9-18.99,35.37c-8.01-14.17-38.77-65.72-48.34-79.17c-0.27-0.39-0.87-0.09-0.66,0.36
			c7.01,14.92,47.68,84.32,48.34,84.15c0.44,0.36,17.77-32.94,19.91-39.26c3.76,4.88,26.28,30.23,26.4,28.62
			C553.51,285.95,553.37,271.99,552.96,261.12z"/>
	</g>
</g>
<path class="st3" d="M568.12,141.97c-3.09,0-5.93-1-6.4-1.17l1.64-4.47c1.62,0.59,5.53,1.44,7.29,0.34
	c0.45-1.21-1.45-3.68-2.26-4.74c-0.68-0.89-1.24-1.66-1.52-2.21c-2.94-5.83,0.89-12,1.06-12.26l4.03,2.55l-2.01-1.27l2.02,1.26
	c-0.03,0.04-2.55,4.19-0.84,7.58c0.18,0.36,0.59,0.86,1.05,1.45c1.68,2.19,3.98,5.2,3.45,8.21c-0.17,0.98-0.74,2.38-2.42,3.45
	C571.68,141.65,569.86,141.97,568.12,141.97z"/>
<path class="st16" d="M626.39,583.06l2.35-0.45c-0.58-0.24-1.16-0.49-1.72-0.73C626.81,582.27,626.6,582.66,626.39,583.06z"/>
<path class="st13" d="M712.24,471.27c-0.08,0.69-0.12,1.19-0.14,1.43c0.24,0.01,0.46,0.06,0.72,0.05
	c5.93-0.31,12.09-7.69,16.33-14.05C722.79,466.91,717.17,471.62,712.24,471.27z"/>
<path class="st13" d="M782.56,338.26l-25.58,5.71c3.74,0.12,7.51,1.05,11.07,2.92c11.55,6.09,15.64,20.64,8.98,31.87
	c-0.57,0.97-1.15,1.94-1.71,2.9l39.13-11.42c-0.58-0.77-1.19-1.53-1.79-2.29C804.09,357.05,794.01,347.03,782.56,338.26z"/>
<path class="st13" d="M806.52,550c14.86-15,26.23-33.32,32.66-54.37c0.4-1.3,0.72-2.6,1.07-3.9c5.38-19.8,5.91-39.96,2.21-59.43
	l-102.4,17.07c-0.46,0.08-0.92,0.1-1.38,0.15c-0.61,0.11-1.21,0.22-1.83,0.33c0.04,0.25,0.03,0.51-0.09,0.76
	c-0.48,0.98-11.93,23.99-23.81,24.61l-0.56,0.01c-11.86,0-13.18-19.92-13.23-20.77c0,0,0-0.01,0-0.01
	c-9.33,0.47-15.32-0.02-15.57-1.61c-0.29-1.77,6.62-4.5,17.55-7.31c0.15-0.9,0.32-1.82,0.52-2.77c-19.49,2.45-33.95,2.63-34.36,0.13
	c-0.43-2.69,15.64-7.58,37.29-11.59c0.17-0.59,0.35-1.18,0.53-1.77c-0.25,0.04-0.5,0.09-0.76,0.13c-26,4.2-47.47,5.14-47.96,2.09
	c-0.49-3.05,20.18-8.92,46.18-13.13c1.95-0.32,3.86-0.61,5.76-0.88c0.09-0.57,0.2-1.13,0.33-1.69c-0.46,0.08-0.9,0.15-1.36,0.23
	c-17.5,2.83-32.92,4.17-41.3,3.82c-11.73,13.45-21.59,25.01-29.76,33.33c-0.34,1.29-0.54,2.02-0.55,2.07
	c-0.15,0.55-0.65,0.92-1.2,0.92l-0.32-0.04c-0.03-0.01-0.05-0.03-0.07-0.04c-2.04,5.9-4.29,11.64-6.64,17.23
	c-7.08,16.83-15.01,32.2-20.52,45.99c6.62-12.69,22.46-17.63,35.14-10.57c11.41,6.35,15.17,20.98,8.25,32.06
	c-8.02,12.84-15.83,26.93-23.3,40.81c0.56,0.25,1.14,0.49,1.72,0.73c3.61,1.51,7.59,2.95,12.02,4.3c4.56,1.39,9.12,2.55,13.68,3.57
	c3.36,0.75,6.72,1.43,10.07,1.99c3.8,0.63,7.59,1.1,11.37,1.48c0.01-0.08,0-0.15,0.02-0.22c1.43-4.54,35.68-111.08,87.56-104.49
	c0.68,0.09,1.16,0.71,1.07,1.39c-0.09,0.68-0.7,1.17-1.39,1.07c-32.82-4.18-59.1,41.32-73.3,73.15
	c7.23-11.04,21.93-15.02,33.86-8.38c11.41,6.35,15.17,20.98,8.25,32.06c-0.49,0.78-0.98,1.57-1.46,2.36
	c1.33-0.29,2.66-0.58,3.98-0.9c0.81-0.2,1.6-0.41,2.41-0.62c8.68-2.27,17.08-5.22,25.1-8.8c7.54-3.37,14.74-7.29,21.53-11.75
	C791.85,563.32,799.57,557.02,806.52,550z"/>
<path class="st13" d="M704.42,465.36c-0.08,0.07-0.17,0.13-0.27,0.17c1.2,2.9,2.96,5.51,5.5,6.63c0.03-0.35,0.08-0.86,0.16-1.51
	C707.9,469.8,706.11,468.06,704.42,465.36z"/>
<path class="st13" d="M693.35,358.19l6.94-20.1c-7.52,0.75-15.49,0.66-23.66-0.42c-8.32-1.1-16.17-3.12-23.33-5.88
	c-1.37,9.35-2.48,20.9-3.94,34.88c9.16-7.07,22.38-7.31,31.86,0.45c7,5.73,9.68,14.7,7.76,22.9c4.96-0.2,15.13,1.37,27.73,4.29
	c0.02-0.07,0.01-0.14,0.04-0.21l15.28-36.4c0.27-0.63,0.99-0.93,1.62-0.66c0.03,0.01,0.05,0.04,0.09,0.06
	c2.55-4.59,6.35-8.09,10.76-10.34L693.35,358.19z"/>
<path class="st13" d="M687.8,393.61c-0.97,2.34-2.34,4.56-4.13,6.55c-3.71,4.09-7.25,8.08-10.67,11.96
	c8.32-2.33,19.76-4.79,32.5-6.85c2.58-0.42,5.09-0.79,7.57-1.14C701.02,400.13,691.77,396.29,687.8,393.61z"/>
<path class="st13" d="M749.76,219.55c1.18-0.52,2.42,0.58,2.05,1.81l-5.32,17.53c2.24,2.37,4.29,4.89,6.11,7.54l7.89-29.49
	c1.2-4.48-3.25-8.4-7.55-6.63l-30.39,12.49c3.33,1.31,6.5,2.86,9.51,4.62L749.76,219.55z"/>
<path class="st19" d="M749.76,219.55l-17.7,7.87c5.41,3.18,10.27,7.05,14.43,11.46l5.32-17.53
	C752.19,220.13,750.94,219.02,749.76,219.55z"/>
<path class="st13" d="M653.93,233.52l-2.91-16.4c-0.2-1.11,1-1.94,1.97-1.36l14.73,8.78c2.66-1.28,5.42-2.38,8.28-3.31l-24.83-13.85
	c-3.55-1.98-7.83,0.96-7.25,4.99l3.91,27.2C649.71,237.42,651.75,235.4,653.93,233.52z"/>
<path class="st19" d="M652.99,215.76c-0.97-0.58-2.17,0.25-1.97,1.36l2.91,16.4c4.13-3.55,8.77-6.57,13.79-8.98L652.99,215.76z"/>
<path class="st13" d="M700.29,338.1l0.5-1.46c-3.34,0.04-6.73-0.14-10.15-0.6c-31.23-4.12-54.49-28.17-56.45-56.14l-2.27-0.07
	c-0.68-0.02-1.22-0.59-1.2-1.28c0.02-0.68,0.53-1.22,1.28-1.2l2.07,0.06c-0.07-2.82,0.07-5.67,0.45-8.55
	c0.87-6.56,2.88-12.7,5.82-18.3c-15.19,6.65-25.65,17.75-27.45,31.4c-2.66,20.14,14.33,39.83,40.41,49.84
	c7.17,2.75,15.01,4.78,23.33,5.88C684.8,338.76,692.77,338.85,700.29,338.1z"/>
<path class="st13" d="M634.52,268.87c-0.38,2.87-0.52,5.73-0.45,8.55l9.36,0.28c0.69,0.02,1.22,0.59,1.2,1.28
	c-0.02,0.67-0.57,1.2-1.24,1.2h-0.04l-9.16-0.28c1.96,27.97,25.22,52.01,56.45,56.14c3.42,0.45,6.81,0.64,10.15,0.6l5.69-16.49
	l55.78-34.42c1.87-14.2-1.89-27.94-9.66-39.3c-1.82-2.66-3.87-5.17-6.11-7.54c-4.17-4.41-9.02-8.28-14.43-11.46
	c-3.01-1.77-6.18-3.32-9.51-4.62c-5.15-2.02-10.64-3.48-16.41-4.24c-10.56-1.39-20.82-0.34-30.14,2.68
	c-2.86,0.92-5.62,2.03-8.28,3.31c-5.02,2.42-9.67,5.43-13.79,8.98c-2.18,1.88-4.22,3.9-6.1,6.05c-2.92,3.35-5.44,7.04-7.5,10.99
	C637.4,256.17,635.38,262.31,634.52,268.87z"/>
<path class="st13" d="M670.59,291.98c-0.37-0.5-0.66-1.02-0.91-1.55c-0.28,0.51-0.61,1.02-1,1.49c-1.93,2.33-4.87,3.52-8.75,3.56
	h-0.01c-0.68,0-1.23-0.55-1.24-1.23c0-0.68,0.55-1.24,1.23-1.25c3.1-0.03,5.41-0.92,6.85-2.65c1.58-1.9,1.87-4.48,1.85-6.16
	c-4.25-0.64-7.43-3.23-7.34-6.26c0.1-3.39,4.26-6.02,9.29-5.87c5.03,0.15,9.02,3.02,8.92,6.42c-0.1,3.18-3.77,5.66-8.37,5.83
	c-0.11,1.68,0.03,4.23,1.48,6.21c1.33,1.81,3.58,2.84,6.68,3.06c0.68,0.05,1.2,0.64,1.15,1.32c-0.05,0.65-0.59,1.16-1.24,1.16
	l-0.09,0C675.24,295.79,672.38,294.41,670.59,291.98z"/>
<path class="st13" d="M647.32,262.92c-1.15-0.03-2.03-1.67-1.97-3.65c0.06-1.98,1.04-3.56,2.18-3.53c1.15,0.04,2.03,1.67,1.97,3.65
	C649.45,261.38,648.47,262.96,647.32,262.92z"/>
<path class="st13" d="M646.76,284.86l-10.38,1.49l-0.18,0.01c-0.61,0-1.14-0.44-1.23-1.06c-0.1-0.68,0.37-1.31,1.05-1.4l10.38-1.49
	c0.67-0.1,1.31,0.37,1.4,1.05C647.9,284.14,647.43,284.77,646.76,284.86z"/>
<path class="st13" d="M700.86,284.04l10.27,2.11c0.67,0.14,1.1,0.79,0.96,1.46c-0.12,0.59-0.64,0.99-1.21,0.99l-0.25-0.02
	l-10.27-2.11c-0.67-0.14-1.1-0.79-0.97-1.47C699.54,284.34,700.2,283.91,700.86,284.04z"/>
<path class="st13" d="M699.55,275.81c-0.1-0.68,0.37-1.31,1.05-1.4l10.38-1.49c0.67-0.1,1.31,0.37,1.4,1.05
	c0.1,0.68-0.37,1.31-1.05,1.4l-10.38,1.49l-0.18,0.01C700.17,276.87,699.64,276.43,699.55,275.81z"/>
<path class="st13" d="M704.04,282c-0.69-0.02-1.22-0.59-1.2-1.28c0.02-0.68,0.46-1.26,1.28-1.2l11.42,0.34
	c0.69,0.02,1.22,0.59,1.2,1.28c-0.02,0.67-0.57,1.2-1.24,1.2h-0.04L704.04,282z"/>
<path class="st13" d="M701.45,257.36c1.15,0.04,2.03,1.67,1.97,3.65c-0.06,1.98-1.04,3.56-2.18,3.53c-1.15-0.03-2.03-1.67-1.97-3.65
	C699.33,258.9,700.3,257.32,701.45,257.36z"/>
<path d="M701.23,264.54c1.15,0.04,2.12-1.54,2.18-3.53c0.06-1.98-0.82-3.62-1.97-3.65c-1.14-0.03-2.12,1.55-2.18,3.53
	C699.21,262.87,700.09,264.51,701.23,264.54z"/>
<path d="M647.54,255.74c-1.15-0.03-2.12,1.55-2.18,3.53c-0.06,1.98,0.82,3.62,1.97,3.65c1.15,0.04,2.12-1.54,2.18-3.53
	C649.56,257.41,648.68,255.78,647.54,255.74z"/>
<path d="M670.56,272.06c-5.03-0.15-9.19,2.48-9.29,5.87c-0.09,3.03,3.08,5.62,7.34,6.26c0-0.01,0-0.02,0-0.03
	c0.22,0.07,0.44,0.14,0.66,0.18c0.33,0.05,0.68,0.04,1.01,0.04c0.14,0,0.29-0.01,0.43-0.03c0.15-0.01,0.27-0.1,0.41-0.14
	c0,0.03,0,0.08,0,0.11c4.6-0.18,8.28-2.66,8.37-5.83C679.59,275.08,675.59,272.21,670.56,272.06z"/>
<path d="M665.49,275.6c0.03-1.06,1.38-1.89,3-1.84c1.63,0.05,2.92,0.95,2.89,2.01c-0.03,1.06-1.38,1.89-3,1.84
	C666.75,277.57,665.46,276.67,665.49,275.6z"/>
<path class="st11" d="M671.38,275.78c0.03-1.06-1.26-1.96-2.89-2.01c-1.63-0.05-2.97,0.77-3,1.84c-0.03,1.06,1.26,1.96,2.89,2.01
	C670,277.67,671.34,276.84,671.38,275.78z"/>
<path class="st13" d="M650.33,541.06c6.92-11.08,3.16-25.71-8.25-32.06c-12.68-7.06-28.52-2.12-35.14,10.57
	c-0.24,0.46-0.5,0.91-0.71,1.39c-1.97,4.39-4.2,9.59-6.58,15.34c-6.65,16.07-14.48,36.48-21.09,55.83
	c-9.45,27.67-16.4,53.15-13.76,60.52c0.34,0.96,0.7,1.82,1.07,2.63c-0.01-0.08-0.03-0.16-0.03-0.24c0.05-0.53,1.21-13.07,7.38-26.34
	c0.29-0.62,1.02-0.89,1.65-0.6c0.62,0.29,0.89,1.03,0.6,1.65c-6,12.88-7.15,25.38-7.16,25.51c-0.06,0.65-0.6,1.13-1.23,1.13l-0.11,0
	c-0.31-0.03-0.57-0.17-0.77-0.38c1.97,3.99,4.26,5.88,6.84,6.05c0.49-3.79,2.21-14.06,7.21-24.81c0.29-0.62,1.02-0.9,1.65-0.6
	c0.62,0.29,0.89,1.03,0.6,1.65c-4.55,9.77-6.31,19.33-6.9,23.42c12.33-4.04,30.24-40.41,50.79-78.65c0.21-0.39,0.42-0.79,0.64-1.18
	C634.5,567.99,642.31,553.9,650.33,541.06z"/>
<path class="st13" d="M723.71,556.47c-11.92-6.64-26.63-2.66-33.86,8.38c-7.34,16.46-11.46,29.26-11.58,29.63
	c-0.17,0.53-0.66,0.87-1.18,0.87l-0.37-0.06c-0.03-0.01-0.05-0.03-0.08-0.04c-13.15,33.46-26.08,73.65-22.11,84.75
	c0.35,0.99,0.72,1.89,1.08,2.74c-0.02-0.11-0.05-0.23-0.04-0.35c0.05-0.53,1.21-13.07,7.38-26.34c0.29-0.62,1.02-0.89,1.65-0.6
	c0.62,0.29,0.89,1.03,0.6,1.65c-5.98,12.86-7.15,25.39-7.16,25.51c-0.06,0.65-0.6,1.13-1.24,1.13l-0.11,0
	c-0.37-0.03-0.67-0.23-0.88-0.5c2.03,4.51,4.29,6.98,6.78,7.74c0-0.02-0.01-0.03-0.01-0.05c0.05-0.53,1.21-13.07,7.38-26.34
	c0.29-0.62,1.02-0.89,1.65-0.6c0.62,0.29,0.89,1.03,0.6,1.65c-6,12.88-7.15,25.38-7.16,25.51c0,0.01-0.01,0.02-0.01,0.03
	c14.59-1.71,36.24-52.97,65.43-100.28c0.49-0.79,0.97-1.57,1.46-2.36C738.88,577.45,735.12,562.82,723.71,556.47z"/>
<path d="M677.09,595.34c0.53,0,1.02-0.34,1.18-0.87c0.12-0.37,4.23-13.17,11.58-29.63c14.2-31.82,40.48-77.33,73.3-73.15
	c0.69,0.09,1.3-0.39,1.39-1.07c0.09-0.68-0.39-1.3-1.07-1.39c-51.88-6.59-86.13,99.95-87.56,104.49c-0.02,0.07-0.01,0.15-0.02,0.22
	c-0.07,0.55,0.23,1.08,0.76,1.29c0.03,0.01,0.05,0.03,0.08,0.04L677.09,595.34z"/>
<path d="M672.23,665.62c0.29-0.62,0.02-1.36-0.6-1.65c-0.63-0.29-1.36-0.02-1.65,0.6c-6.18,13.27-7.34,25.81-7.38,26.34
	c0,0.02,0.01,0.03,0.01,0.05c-0.03,0.66,0.46,1.24,1.12,1.3l0.11,0c0.62,0,1.15-0.47,1.22-1.1c0-0.01,0.01-0.02,0.01-0.03
	C665.08,691,666.24,678.5,672.23,665.62z"/>
<path class="st12" d="M826.74,592.32c6.85,16.79-11.53,39.62-24.94,46.23c-12.11,5.97-20.25-2.97-20.25-2.97
	s-2.05,16.42-15.21,20.42c-6.77,2.05-16-6.96-16-6.96s-2.22,13.09-14.14,15.92c-9.5,2.25-17.33-7.12-17.33-7.12
	s-7.98,11.57-18.39,10.76c-21.12-1.64-48.94-80.69-24.12-103.15c11.57-10.47,17.32,9.21,17.32,9.21s-1.43-30.29,14.72-36.45
	c16.15-6.15,22.08,19.87,22.08,19.87s-1.13-29.37,16.26-34.06c18.1-4.88,19.57,22.16,19.57,22.16s5.73-21.77,19.86-22.31
	c23.34-0.9,8.59,41.7,18.83,57.63C811.71,591.03,815.42,590.14,826.74,592.32L826.74,592.32z"/>
<path class="st12" d="M826.74,592.32c6.85,16.79-11.53,39.62-24.94,46.23c-12.11,5.97-20.25-2.97-20.25-2.97
	s-2.05,16.42-15.21,20.42c-6.77,2.05-16-6.96-16-6.96s-2.22,13.09-14.14,15.92c-9.5,2.25-17.33-7.12-17.33-7.12
	s-7.98,11.57-18.39,10.76c-21.12-1.64-48.94-80.69-24.12-103.15c11.57-10.47,17.32,9.21,17.32,9.21s-1.43-30.29,14.72-36.45
	c16.15-6.15,22.08,19.87,22.08,19.87s-1.13-29.37,16.26-34.06c18.1-4.88,19.57,22.16,19.57,22.16s5.73-21.77,19.86-22.31
	c23.34-0.9,8.59,41.7,18.83,57.63C811.71,591.03,815.42,590.14,826.74,592.32L826.74,592.32z"/>
<path class="st13" d="M782.58,338.26c-19.12-17.05-20.31-52.53-20.31-52.53l-55.78,34.42l-5.69,16.49l-0.5,1.46l-6.94,20.1
	l51.14-11.42c3.84-1.96,8.14-2.93,12.5-2.79l25.58-5.71L782.58,338.26z"/>
<path class="st20" d="M709.7,415.89c-0.35,0.06-0.7,0.12-1.05,0.18c-0.12,0.56-0.24,1.12-0.33,1.69c0.25-0.04,0.5-0.07,0.74-0.11
	C709.27,417.06,709.48,416.47,709.7,415.89z"/>
<path class="st20" d="M738.67,449.53c0.46-0.05,0.92-0.08,1.38-0.15c1.01-0.16,2-0.39,2.97-0.66
	C741.6,448.99,740.15,449.26,738.67,449.53z"/>
<path d="M704.86,464.5c0.01-0.13,0.89-12.67,6.58-25.67c0.27-0.63-0.01-1.36-0.64-1.63c-0.62-0.27-1.36,0.01-1.63,0.64
	c-4.17,9.53-5.82,18.6-6.43,23.26c0.36,1.44,0.81,2.97,1.41,4.43c0.1-0.05,0.19-0.1,0.27-0.17
	C704.67,465.15,704.84,464.85,704.86,464.5z"/>
<path d="M718.66,447.21c0.27-0.63-0.01-1.36-0.64-1.63c-0.62-0.27-1.36,0.01-1.63,0.64c-4.56,10.41-6.1,20.28-6.58,24.44
	c-0.08,0.65-0.13,1.16-0.16,1.51c0.74,0.33,1.56,0.49,2.44,0.54c0.02-0.24,0.07-0.74,0.14-1.43
	C712.67,467.49,714.15,457.5,718.66,447.21z"/>
<path d="M732.02,357.71l-15.28,36.4c-0.03,0.07-0.03,0.14-0.04,0.21c-0.13,0.58,0.14,1.18,0.71,1.41l0.02,0l0.46,0.09
	c0.48,0,0.94-0.29,1.14-0.76l15.28-36.4c0.25-0.6-0.01-1.27-0.58-1.57c-0.03-0.02-0.05-0.04-0.09-0.06
	C733.01,356.79,732.29,357.08,732.02,357.71z"/>
<path d="M736.19,448.96c-0.05-0.02-0.1-0.02-0.15-0.04c-0.58-0.2-1.24,0.04-1.51,0.6c-0.05,0.1-2.16,4.34-5.38,9.18
	c-4.24,6.36-10.4,13.74-16.33,14.05c-0.25,0.01-0.47-0.04-0.72-0.05c-0.88-0.04-1.7-0.21-2.44-0.54c-2.54-1.12-4.31-3.73-5.5-6.63
	c-0.6-1.46-1.06-2.98-1.41-4.43c-0.89-3.62-1.11-6.71-1.11-6.79c-0.04-0.65-0.59-1.13-1.22-1.15c-0.03,0-0.06-0.02-0.09-0.01
	c-0.68,0.04-1.2,0.62-1.16,1.3c0,0,0,0.01,0,0.01c0.05,0.86,1.37,20.77,13.23,20.77l0.56-0.01c11.88-0.61,23.33-23.63,23.81-24.61
	c0.12-0.25,0.13-0.51,0.09-0.76C736.77,449.48,736.56,449.14,736.19,448.96z"/>
<path class="st13" d="M812.65,367.96c0,0,27.66,31.46,29.8,64.35s-35.81,25.13-35.81,25.13l-72.12-7.92l40.79-67.85L812.65,367.96z"
	/>
<polygon class="st13" points="717.89,395.84 700.4,453.17 677.51,459.08 644.46,437.1 650.92,394.32 693.03,376.4 "/>
<path class="st13" d="M687.15,385.86c3.77-6.57,3.77-15-0.78-21.74c-6.17-9.13-17.63-12.33-27.35-8.6c-2.22,0.85-4.34,2.06-6.3,3.64
	c-12.48,10.11-24.73,20.42-34.36,29.92c-8.32,8.21-14.62,15.8-17.39,22.14c-0.06,0.1-0.15,0.19-0.21,0.29
	c-3.17,5.22-4.4,12.42-1.4,18.02c0.73,1.37,1.49,2.45,2.85,3.27c1.04,0.63,2.3,1.04,3.56,1.03c3.6,0.31,8.59-1.34,14.94-4.51
	c0.55-0.01,6.9-3.43,7.67-4.14c8.64-4.96,47.34-29.41,51.59-31.99c2.06-1.25,3.81-2.81,5.25-4.58c-1.05-1.28-1.5-2.23-1.19-2.72
	C684.35,385.41,685.46,385.43,687.15,385.86z"/>
<path d="M670.93,282.03c-0.09-0.5-0.47-0.88-0.94-0.99c-0.16-0.04-0.33-0.04-0.5-0.01c-0.67,0.12-1.12,0.76-1,1.44
	c0,0.02,0.12,0.71,0.13,1.72c0.01,1.68-0.27,4.25-1.85,6.16c-1.44,1.73-3.75,2.62-6.85,2.65c-0.68,0.01-1.23,0.57-1.23,1.25
	c0.01,0.68,0.56,1.23,1.24,1.23h0.01c3.87-0.03,6.82-1.23,8.75-3.56c0.39-0.48,0.72-0.98,1-1.49
	C671.72,286.67,670.96,282.24,670.93,282.03z"/>
<rect x="638.65" y="263.13" transform="matrix(0.2256 -0.9742 0.9742 0.2256 231.846 833.8714)" width="3.57" height="15.95"/>
<rect x="633.66" y="269.38" transform="matrix(0.043 -0.9991 0.9991 0.043 329.7946 901.451)" width="3.57" height="18.39"/>
<rect x="631.77" y="284.58" transform="matrix(0.9865 -0.164 0.164 0.9865 -38.2884 108.8925)" width="17.32" height="3.58"/>
<rect x="694.47" y="270.28" transform="matrix(0.9743 -0.2253 0.2253 0.9743 -43.2408 165.2821)" width="15.95" height="3.57"/>
<rect x="698.24" y="277.76" transform="matrix(0.9991 -0.043 0.043 0.9991 -11.3622 30.6674)" width="18.39" height="3.57"/>
<rect x="700.66" y="278.67" transform="matrix(0.1645 -0.9864 0.9864 0.1645 303.4563 932.926)" width="3.58" height="17.32"/>
<path d="M658.98,296.04c-0.11,0-0.22,0-0.33,0l0.05-3.57c3.47,0.1,6.24-0.85,7.9-2.67c2.42-2.67,2.01-6.6,2.01-6.64l3.55-0.42
	c0.03,0.22,0.63,5.53-2.88,9.43C666.97,294.73,663.5,296.04,658.98,296.04z"/>
<path d="M680.39,296.69c-4.12-0.09-7.26-1.41-9.33-3.91c-3.41-4.12-2.48-9.89-2.44-10.13l3.52,0.59c-0.01,0.04-0.69,4.43,1.68,7.28
	c1.38,1.66,3.62,2.54,6.64,2.6L680.39,296.69z"/>
<path d="M599.11,426.51l-2.93-2.05c2.92-4.18,12.73-17.93,16.51-19.39l1.28,3.34C612.09,409.14,604.79,418.37,599.11,426.51z"/>
<path d="M605.48,434.89l-2.74-2.3c1.3-1.55,12.79-15.2,16.55-17.92l2.1,2.89C618.51,419.65,608.93,430.77,605.48,434.89z"/>
<path d="M567.99,656.01l-3.57,0c0.01-8.56,8.47-27.81,8.82-28.62l3.27,1.44C576.42,629.02,568,648.2,567.99,656.01z"/>
<path d="M577.39,661.71h-3.57c0-4.5,5.72-23.45,6.37-25.59l3.42,1.04C581.11,645.38,577.39,658.7,577.39,661.71z"/>
<path d="M658.47,683.99l-3.53-0.53c1.03-6.86,6.08-27,6.29-27.85l3.47,0.87C664.64,656.68,659.47,677.29,658.47,683.99z"/>
<path d="M662.06,692.42c-0.92-10.17,7.6-28.43,7.96-29.21l3.23,1.52c-0.08,0.18-8.46,18.16-7.63,27.37L662.06,692.42z"/>
<path class="st3" d="M479.63,112.57c19.15,1.74,29.64-20.92,25.53-39.41c0,0,50.85,7.83,54.15-33.06c0,0,9.65,17.98,32.77,19.07
	l5.39,15.21c5.26-1.4,11.14-16.15-1.42-28.08c0,0-0.46-20.43-15.25-32.99c-14.79-12.56-29.9-4.82-29.9-4.82s-11.75-10.23-30.59-8.22
	c-18.84,2.01-26.93,18.99-26.93,18.99s-25.36,4.3-30.04,22.16c-4.67,17.86,4.35,30.08,4.35,30.08s-6.48,6.92-3.58,22.3
	C465.98,103.67,473.89,112.04,479.63,112.57z"/>
<g>
	<path class="st12" d="M496.05,125.22c0,0-15.41-26.55-27.31-21.26c-11.9,5.29-1.8,42.74,11.14,48.84
		c12.93,6.1,18.82-5.76,18.82-5.76L496.05,125.22z"/>
</g>
<path class="st3" d="M488.82,144.52c-0.18-0.36-4.49-8.78-13.01-8.19l-0.31-4.76c3.14-0.19,5.86,0.45,8.15,1.53
	c-3.18-5.2-7.97-10.58-14.57-11.97l0.99-4.66c16.47,3.48,22.91,25.4,23.18,26.33L488.82,144.52z"/>
<g>
	<path class="st54" d="M695.59,556.03C695.6,555.96,695.62,555.88,695.59,556.03L695.59,556.03z"/>
	<path class="st54" d="M695.59,556.03c0,0.01-0.01,0.02-0.01,0.03C695.58,556.05,695.58,556.04,695.59,556.03z"/>
	<path class="st54" d="M771.62,559.13c11.36-3.44,19.82-11.77,28.53-19.63c-1.22-9.24-4.53-16-14-15.64
		c-14.13,0.54-19.86,22.31-19.86,22.31s-1.47-27.04-19.57-22.16c-12.55,3.39-15.45,19.63-16.1,28.4
		C743.68,558.16,757.4,563.43,771.62,559.13z"/>
	<path class="st54" d="M721.49,548.4c2.23,0.96,4.49,1.96,6.76,2.97c-2.98-7.24-9.19-17.23-19.86-13.16
		c-2.27,0.86-4.19,2.2-5.81,3.87C709.09,543.36,715.38,545.79,721.49,548.4z"/>
	<path class="st54" d="M695.58,556.06c0,0.01,0,0.02-0.01,0.03C695.57,556.1,695.57,556.08,695.58,556.06z"/>
</g>
<g>
	<g>
		<path class="st12" d="M427.87,257.86c-20.21,70.51-61.01,229.61-24.84,250.05c59.46,33.6,177.32,39.48,212.92,37.6
			c15.36-0.81,28.93-119.42,12.88-123.03c-19.26-4.33-133.93-7.83-136.16-12.52c-2.46-5.15-8.33-80.87-21.63-137.52
			C454.52,202.13,436.3,228.45,427.87,257.86z"/>
		<g>
			<g>
				<path class="st12" d="M605.09,423.02c0,0,50.63-0.05,81.32-3.72c17.12-2.05,46.79-2.94,60.05,1.31
					c19.84,6.36,98.77,45.61,89.67,64.95c-8.24,17.51-71.77-24.83-71.77-24.83s67.88,37.05,54.08,56.31
					c-13.8,19.26-79.22-38.12-79.22-38.12s68.89,39.63,51.52,57.24c-13.13,13.31-75.31-35.32-75.31-35.32s58.98,34.48,46.07,48.74
					c-14.27,15.76-74.48-25.52-74.48-25.52c-38.93,30.74-80.58,20.39-102.6,16.84C579.1,540.05,605.09,423.02,605.09,423.02z"/>
				<g>
					<path class="st3" d="M745.73,448.57c30.48,14.84,57.54,36.87,66.92,47.59c1.14,1.31,2.12,2.5,2.01,2.42
						c-14.61-10.91-61.4-44.96-69.12-49.73C745.34,448.74,745.53,448.48,745.73,448.57z"/>
					<path class="st3" d="M723.97,474.06c24.68,7.91,49.05,29.62,58.47,36.34c0.73,0.52,0.21,0.74-0.54,0.25
						c-9.68-6.34-48.15-30.52-58.09-36.36C723.66,474.2,723.8,474.01,723.97,474.06z"/>
					<path class="st3" d="M706.99,496.54c23.5,9.15,37.78,23.87,41.92,27.98c0.63,0.62,0,0.75-0.75,0.24
						c-14.59-10.07-23.44-16.59-41.45-27.66C706.44,496.93,706.64,496.41,706.99,496.54z"/>
				</g>
			</g>
		</g>
	</g>
	<g>
		<path class="st8" d="M628.38,415.8l-14.01,147.48c0,0-196.38-28.77-218.81-59.3c-22.42-30.54,15.54-213.62,32.43-254.25
			c16.89-40.63,30.44-31.31,42.17,3.95c11.73,35.26,23.27,154.1,24.67,155.89C496.23,411.36,628.38,415.8,628.38,415.8z"/>
		<g>
			<path class="st3" d="M629.79,414.08c0.06-0.8-126.8-5.63-134.96-6.32c-1-18.03-3.37-36.05-5.81-53.93
				c-0.79-5.77-1.68-11.53-2.55-17.3c0.12-2.84,0.22-5.68,0.15-8.53c-0.12-4.92-0.51-9.79-1.1-14.68c-0.03-0.22-0.34-0.2-0.34,0.02
				c0.02,4.91,0.02,9.82,0.09,14.73c0,0.16,0.01,0.33,0.02,0.49c-0.09-0.57-0.16-1.14-0.25-1.7c-0.68-4.31-1.39-8.61-2.19-12.89
				c-0.39-2.09-0.78-4.18-1.2-6.27c-0.28-1.38-0.59-2.71-0.72-4.11c-0.17-1.87-0.32-0.8-0.89-3.14c-0.06-0.24-0.45-0.16-0.43,0.08
				c0.32,3.8-0.29,0.42,0.41,4.23c0.19,1.04,0.22,2.13,0.35,3.17c0.26,2.11,0.53,4.23,0.79,6.34c0.56,4.59,1.21,9.16,1.83,13.74
				c1.21,8.81,2.35,17.64,3.44,26.47c2.23,18.03,3.93,36.13,6.44,54.12c0.06,0.46,0.38,0.69,0.72,0.8c0.13,0.18,0.32,0.33,0.62,0.36
				c8.1,0.88,126.75,6.26,133.85,6.76c-0.05,0.38-0.17,2.2-0.18,2.74c-0.01,1.08-0.05,2.16-0.11,3.24
				c-0.02,0.43,0.63,0.56,0.68,0.11c0.12-1.1,0.22-2.21,0.29-3.32C628.8,418.76,629.6,416.46,629.79,414.08z"/>
			<path class="st3" d="M586.79,486.92c1.08-10.25,5.7-51.23,7.63-61.32c0.03-0.16,0.3-0.17,0.3,0.01
				c0.04,9.99-3.33,50.56-4.39,60.83c-2.12,20.48-3.84,41.12-8.2,61.27c-0.08,0.35-0.68,0.38-0.67-0.03
				C581.87,527.35,584.65,507.13,586.79,486.92z"/>
			<path class="st3" d="M615.95,545.51c-0.19-0.04-1.35,17.81-1.57,17.77c-18.44-3.48-157.32-33.38-163.16-33.67
				c-0.46-0.02-0.68,0.6-0.24,0.74c46.22,14.4,158.23,33.57,164.47,34.55C616.01,564.99,616.64,545.63,615.95,545.51z"/>
		</g>
	</g>
</g>
<path class="st13" d="M768.05,346.9c-3.55-1.87-7.33-2.8-11.07-2.92c-4.36-0.14-8.66,0.83-12.5,2.79
	c-4.41,2.25-8.21,5.76-10.76,10.34c0.56,0.3,0.83,0.97,0.58,1.57l-15.28,36.4c-0.2,0.47-0.66,0.76-1.14,0.76l-0.46-0.09
	c-1.17,2.9-2.31,5.8-3.43,8.67c-1.51,3.89-2.95,7.73-4.3,11.47c-0.21,0.59-0.42,1.17-0.63,1.75c-1.46,4.12-2.8,8.11-3.96,11.9
	c-0.18,0.6-0.36,1.19-0.53,1.77c-0.96,3.25-1.74,6.27-2.4,9.15c-1.02,3.71-1.2,5.1-1.19,5.36c-0.28,4.15-1.36,8.19-0.92,12.39
	c0.53,5.06,3.47,10.46,8.51,12.23c1.2,0.42,2.44,0.61,3.68,0.67c-0.01,0.04-0.01,0.11-0.02,0.15c0.87,0.06,1.77-0.09,2.68-0.33
	c0.94-0.18,1.86-0.43,2.75-0.86c2.1-1.02,3.87-2.38,5.59-3.93c2.96-2.66,5.72-5.55,8.06-8.77c2.22-3.05,4.08-6.38,5.62-9.84
	c1.96-3.03,3.98-6.26,6.06-9.72c0.6-1,1.21-2.02,1.83-3.06c1.68-2.83,3.4-5.79,5.16-8.84c3.15-5.47,6.43-11.26,9.83-17.26
	c4.9-8.64,10.07-17.73,15.51-26.98c0.57-0.97,1.14-1.93,1.71-2.9C783.7,367.53,779.61,352.99,768.05,346.9z"/>
<path d="M706.3,431.76l-3.46-0.89c2.93-11.43,26.52-71.27,27.52-73.81l3.32,1.31C733.44,358.99,709.18,420.54,706.3,431.76z"/>
<path d="M705.92,465.71l-3.55-0.35c0.88-9.06,6.48-27.87,6.72-28.67l3.42,1.02C712.46,437.91,706.77,456.99,705.92,465.71z"/>
<path d="M715.12,472.57l-3.55-0.34c0.88-9.06,6.48-27.87,6.72-28.67l3.42,1.02C721.65,444.78,715.97,463.86,715.12,472.57z"/>
<g>
	<path class="st3" d="M717.41,656.54c0.11,0.26-0.22,0.46-0.38,0.22c-15.49-23.77-25.22-54.64-23.81-83.15
		c0.05-0.94,1.59-1.27,1.73-0.23C699.12,603.06,705.18,629.05,717.41,656.54z"/>
	<path class="st3" d="M750.3,649.49c0.13,0.3-0.36,0.52-0.55,0.23c-15.83-24.58-25.83-59.65-20.33-92.32
		c0.19-1.12,1.48-1.94,1.36-0.63C728.77,578.77,739.17,624.79,750.3,649.49z"/>
	<path class="st3" d="M767.44,543.92c-4.06,31.53,2.4,61.18,13.41,90.69c0.14,0.38-0.41,0.55-0.62,0.26
		c-9.32-12.97-14.38-32.51-17.03-48.04c-2.54-14.88-1.84-28.82,3.14-43.05C766.53,543.23,767.53,543.25,767.44,543.92z"/>
</g>
</svg>
