<?xml version="1.0" encoding="utf-8"?>
<!-- Generator: Adobe Illustrator 27.7.0, SVG Export Plug-In . SVG Version: 6.00 Build 0)  -->
<svg version="1.1" id="Ebene_1" xmlns="http://www.w3.org/2000/svg" xmlns:xlink="http://www.w3.org/1999/xlink" x="0px" y="0px"
	 viewBox="0 0 767.26 767.26" style="enable-background:new 0 0 767.26 767.26;" xml:space="preserve">
<style type="text/css">
	.st0{fill:#FB6A55;}
	.st1{fill:#969696;}
	.st2{fill:#2B454E;}
	.st3{fill:#1A2E35;}
	.st4{fill:#FFABA1;}
	.st5{fill:#ECECEC;}
	.st6{fill:#DCDCDC;}
	.st7{fill:#A8A8A8;}
	.st8{fill:#4D6FB4;}
	.st9{fill:#375A64;}
	.st10{fill:#C8C8C8;}
	.st11{fill:#FFFFFF;}
	.st12{fill:#F7DFC4;}
	.st13{fill:#F2F2F2;}
	.st14{opacity:0.1;}
	.st15{opacity:0.3;fill:#1A2E35;}
	.st16{fill:#97BEDB;}
	.st17{fill:#771137;}
	.st18{fill:#FF9ABD;}
	.st19{fill:#F39C8C;}
	.st20{fill:#F4B3CC;}
	.st21{fill:#864240;}
	.st22{fill:#C26358;}
	.st23{fill:none;stroke:#1A2E35;stroke-miterlimit:10;}
	.st24{opacity:0.1;fill:#010000;}
	.st25{opacity:0.4;}
	.st26{opacity:0.2;}
	.st27{fill:#010000;}
	.st28{fill:#F4B85A;}
	.st29{fill:#FFC5C1;}
	.st30{fill:#BD5324;}
	.st31{fill:#D95000;}
	.st32{opacity:0.6;}
	.st33{clip-path:url(#SVGID_00000089568862482514222150000011766624856764669336_);}
	.st34{clip-path:url(#SVGID_00000183970752701500904880000008116856481294830737_);}
	.st35{fill:url(#SVGID_00000067217386130892048280000006308165464276645016_);}
	.st36{clip-path:url(#SVGID_00000065067058290179270240000000675962945145680266_);}
	.st37{clip-path:url(#SVGID_00000152947901443747952390000017978545792151730367_);}
	.st38{opacity:0.5;}
	.st39{fill:#334F7C;}
	.st40{clip-path:url(#SVGID_00000044876685968016898720000001438482689128086424_);}
	.st41{fill:none;stroke:#44555B;stroke-width:0.05;stroke-miterlimit:10;}
	.st42{fill:none;}
	.st43{clip-path:url(#SVGID_00000062881968029265527110000007311617723591245756_);}
	.st44{fill:#919191;}
	.st45{fill:#CCCCCC;}
	.st46{fill:#AFAFAF;}
	.st47{fill:#F4DFCE;}
	.st48{fill:#35271C;}
	.st49{fill:#DDC6B6;}
	.st50{clip-path:url(#SVGID_00000047061175953011802290000003601976947212847002_);}
	.st51{clip-path:url(#SVGID_00000033371198109600759410000017121389511337874845_);}
	.st52{clip-path:url(#SVGID_00000060017160424251918760000011069260657006761898_);}
	.st53{opacity:0.2;fill:#1A2E35;}
	.st54{fill:#D8BCA0;}
</style>
<g>
	<circle class="st1" cx="383.63" cy="383.63" r="383.63"/>
	<g>
		<defs>
			<circle id="SVGID_00000157990905286732680350000014172774583431154571_" cx="383.63" cy="383.63" r="383.63"/>
		</defs>
		<clipPath id="SVGID_00000165211292608018254350000010968313311158330756_">
			<use xlink:href="#SVGID_00000157990905286732680350000014172774583431154571_"  style="overflow:visible;"/>
		</clipPath>
		<g style="clip-path:url(#SVGID_00000165211292608018254350000010968313311158330756_);">
			<g>
				<path class="st8" d="M354.92,301.43c-6.47,0-158.5-76.74-309.83,31.23c-151.33,107.97-115.75,266.47-17.1,350.57
					c0,0-9.7,14.56,24.26,30.73c33.96,16.17,101.91,44.48,148.79,37.2c46.88-7.28,71.16-25.88,71.16-25.88
					s131.73,80.95,175.84,70.58c33.7-7.92,31.59-18.93,24.71-44.71c0,0,111.59,25.88,97.04-16.17
					c-14.56-42.05-67.93-50.14-67.93-50.14s38.81-9.7,51.75-54.99c12.94-45.28,22.64-25.88-22.64-132.62
					C485.69,390.49,354.92,301.43,354.92,301.43z"/>
			</g>
			<g class="st38">
				<g>
					<path class="st11" d="M269.57,708.85c-2.97-10.44-11.21-21.77-21.84-23.95c-13.01-2.67-23.31,9.99-32.9,19.17
						c-24.39,23.36-61.54,29.25-94.78,23.28c-33.24-5.97-63.61-22.24-93.2-38.53l-0.13-0.01c0.2,5.7,4.45,15.11,25.53,25.14
						c33.96,16.17,101.91,44.48,148.79,37.2c11.4-1.77,21.44-4.22,30.15-6.89l0.47,0.36c-0.07-0.15-0.15-0.29-0.22-0.43
						c21.34-6.6,34.43-14.6,38.95-17.64C269.76,720.61,271.17,714.46,269.57,708.85z"/>
				</g>
			</g>
			<g>
				<g>
					<path class="st3" d="M554.6,550.61l-221.22-67.56c-4.18,11.35,7.49,41.31,15.78,50.11c8.3,8.8,16.76,18.13,27.88,22.87
						c58.7,25,122.65,31.41,186.11,24.83C560.22,567.86,557.54,563.6,554.6,550.61z"/>
				</g>
			</g>
			<g>
				<g>
					<path class="st3" d="M152.58,492.63c0.06-0.11,1.09,0.39,2.99,1.44c1.93,1,4.62,2.75,8.01,5.11
						c6.64,4.86,15.89,12.78,24.46,24.97c8.46,12.1,16.46,28.54,18.95,48.2c2.58,19.52-0.36,41.93-10.41,62.41
						c-4.82,10.08-11.23,19.07-18.37,26.8l-1.26-3.02c18.61,0.67,36.28,2.63,51.39,7.78c15.19,4.77,27.39,13.47,34.27,23.22
						c7.08,9.75,8.56,19.5,9.6,25.77c0.22,6.47,0.23,9.96,0,9.96c-0.22,0-0.66-3.49-1.26-9.8c-1.4-6.11-3.22-15.45-10.23-24.55
						c-6.82-9.1-18.52-17.17-33.36-21.62c-14.72-4.8-32.09-6.6-50.52-7.18l-3.91-0.12l2.65-2.9c6.86-7.5,13.03-16.2,17.7-25.95
						c9.73-19.82,12.67-41.49,10.36-60.39c-2.22-19.04-9.73-35.14-17.74-47.15C169.32,501.43,151.86,493.34,152.58,492.63z"/>
				</g>
			</g>
			<g>
				<path class="st8" d="M346.52,303.94c34.71-14.61,127.82-7.88,160.43,1.85c32.61,9.73,63.37,32.09,74.2,64.35
					c5.28,15.72,5.56,32.68,9.76,48.72c4.26,16.27,12.44,31.22,18.08,47.06c5.64,15.84,8.63,33.69,2.31,49.27
					c-6.32,15.59-24.54,27.14-40.31,21.3c0.69,5.84-3.13,11.49-8.12,14.61c-4.99,3.12-10.96,4.17-16.79,4.95
					c-24.43,3.27-49.18,2.8-73.81,2.33c-13.8-0.26-27.62-0.53-41.37-1.8c-26.73-2.47-54.27-9.33-74.36-27.12
					c-20.1-17.79-30.31-48.78-17.8-72.53"/>
			</g>
			<g>
				<path class="st3" d="M589.35,494.67c-19.17,0-33.19,2.01-50.77,3.71c-3.64,0.35-8.03,1.28-9.17,4.75
					c-1.06,3.25,1.51,6.48,3.96,8.87c6.45,6.3,13.41,12.08,20.78,17.27c3.22,2.27,6.95,4.52,10.83,3.86
					c3.06-0.52,5.51-2.74,7.73-4.91c5.75-5.62,11.23-11.52,16.4-17.68c2.08-2.47,4.18-5.15,4.68-8.34
					C594.28,499.01,592.52,495.23,589.35,494.67z"/>
			</g>
			<g>
				<path class="st8" d="M441.19,299.32c2.43-56.64,22.29-112.41,56.2-157.85c7.85-10.52,16.95-20.88,29.17-25.7
					c12.22-4.81,28.23-2.28,35.2,8.85c5.02,8.02,4.35,18.24,3.15,27.62c-7.14,56.02-26.91,110.39-57.44,157.91"/>
			</g>
			<g>
				<path class="st3" d="M405.65,408.99c0.3,15.07,7.74,29.85,19.68,39.07c11.93,9.22,28.11,12.69,42.77,9.17
					c1.08-15.16-0.34-33.77-12.34-43.1C443.77,404.8,420.08,404.21,405.65,408.99"/>
			</g>
			<g>
				<path class="st3" d="M601.99,449.93c0,0.04-0.1-0.93-0.13-1.3c-0.05-0.3-0.12-0.74-0.13-0.82c-0.04-0.22-0.1-0.43-0.15-0.65
					c-0.24-0.91-0.47-1.82-0.75-2.72c-0.63-1.99-1.37-3.93-2.01-5.92c-0.18-0.56-0.27-1.15-0.43-1.72
					c-0.11-0.26-0.22-0.56-0.31-0.78c-0.1-0.25-0.32-0.76-0.35-0.84c-0.2-0.47-0.41-0.94-0.61-1.4c-0.82-1.86-1.66-3.71-2.47-5.57
					c-2.72-6.2-5.2-12.56-6.1-19.22c-3.83,1.27-7.32,2.94-10.13,5.12c-12,9.33-13.41,27.94-12.34,43.1
					c12.22,2.93,25.47,0.95,36.46-5.12C602.3,451.39,602.05,450.68,601.99,449.93z"/>
			</g>
			<g>
				<g>
					<path class="st3" d="M338.74,456.94c0.63,0.13-4.77,7.48-4.8,22.8c0.03,7.54,1.84,16.89,6.54,26.64
						c4.6,9.78,12.41,19.81,23.71,27.65c11.18,7.99,25.47,13.75,41.43,17.28c7.99,1.77,16.41,2.97,25.16,3.78
						c8.81,0.36,17.89,0.73,27.23,1.11c18.65,0.93,38.5,1.11,59.03,0.5c10.26-0.4,20.75-1.19,31.26-2.73
						c5.18-0.79,10.35-2.04,14.47-4.91c4.01-2.83,7.03-7.62,6.46-12.34l-0.36-2.94l2.77,1.05c11.01,4.16,24.02-1.29,31.87-10.46
						c8.23-9.2,10.49-22.59,9.15-35.21c-2.69-26.36-19.05-48.53-24.42-73.8c-2.77-12.51-3.68-24.94-6.45-36.59
						c-2.68-11.64-7.79-22.33-14.71-31.4c-13.81-18.28-33.2-30.13-52.17-37.28c-9.54-3.69-19.2-5.73-28.62-7.33
						c-9.4-1.63-18.5-2.76-27.21-3.64c-34.85-3.38-63.35-3.21-82.79-1.09c-9.76,0.89-17.18,2.55-22.19,3.71
						c-2.29,0.71-4.14,1.27-5.59,1.72c-1.27,0.38-1.93,0.54-1.96,0.48c-0.02-0.06,0.59-0.34,1.82-0.83
						c1.24-0.48,3.07-1.23,5.53-2.09c4.99-1.4,12.44-3.3,22.23-4.42c19.54-2.56,48.15-3.14,83.21-0.07
						c8.76,0.8,17.93,1.86,27.43,3.43c9.47,1.52,19.43,3.56,29.2,7.27c19.44,7.2,39.4,19.19,53.81,38.1
						c7.2,9.34,12.62,20.59,15.42,32.62c2.88,12.01,3.82,24.46,6.55,36.62c5.08,24.34,21.6,46.52,24.56,74.21
						c1.41,13.21-0.93,27.76-10.05,37.98c-4.41,5.03-9.99,9-16.26,11.25c-6.26,2.26-13.32,2.49-19.6,0.18l2.41-1.9
						c0.7,6.57-3.22,12.29-7.97,15.67c-4.93,3.41-10.63,4.67-15.99,5.48c-10.73,1.54-21.3,2.3-31.66,2.66
						c-20.74,0.54-40.5,0.26-59.29-0.78c-9.39-0.44-18.51-0.87-27.37-1.29c-8.84-0.88-17.38-2.16-25.49-4.03
						c-16.2-3.72-30.78-9.75-42.18-18.09c-11.51-8.18-19.48-18.68-24.01-28.77c-4.66-10.08-6.31-19.7-6.15-27.42
						c0.17-7.75,1.79-13.62,3.33-17.33C337.57,458.69,338.74,456.94,338.74,456.94z"/>
				</g>
			</g>
			<g>
				<path class="st8" d="M348.74,158.42c-9.53-15.08-23.25-31-41.07-30.17c-11.45,0.53-21.62,8.38-27.58,18.16
					c-5.96,9.79-8.32,21.33-9.77,32.69c-9.47,74.05,17.32,151.89,70.36,204.42l61.65-61.05
					C398.38,264.49,379.78,207.56,348.74,158.42z"/>
			</g>
			<g>
				<g>
					<path class="st3" d="M518.49,678.98c0.56,0.85-16.62,11.55-40.14,19.11c-23.42,7.76-43.32,10.31-43.45,9.39
						c-0.21-1.07,19.19-5.21,42.3-12.87C500.4,687.16,517.99,678.1,518.49,678.98z"/>
				</g>
			</g>
			<g>
				<g>
					<path class="st3" d="M231.66,744.61c-1,0.59-7.96-14.69-23.94-26.66c-15.79-12.23-32.37-14.88-32.06-16
						c0.06-0.43,4.26-0.39,10.78,1.35c6.51,1.71,15.24,5.47,23.5,11.73c8.23,6.29,14.17,13.72,17.55,19.54
						C230.91,740.4,232.06,744.44,231.66,744.61z"/>
				</g>
			</g>
			<g class="st38">
				<g>
					<path class="st11" d="M361.81,350.22c-2.21-58.39-11.69-127.14-44.59-175.43c-3.76-5.52-8.31-11.33-14.86-12.64
						c-8.11-1.62-16.13,4.78-19.07,12.5c-2.94,7.73-2,16.34-0.65,24.5C292.11,256.19,320.3,309.96,361.81,350.22"/>
				</g>
			</g>
			<g>
				<g>
					<path class="st3" d="M334.51,379.61c-0.36,0.29-5.37-5.11-12.54-14.6c-7.17-9.48-16.35-23.17-25-39.15
						c-8.62-16-15.04-31.18-19.03-42.38c-4-11.2-5.77-18.35-5.34-18.49c0.52-0.17,3.16,6.67,7.75,17.55
						c4.58,10.88,11.3,25.74,19.84,41.58c8.56,15.82,17.3,29.59,23.88,39.39C330.67,373.31,334.94,379.26,334.51,379.61z"/>
				</g>
			</g>
			<g>
				<g>
					<path class="st3" d="M374.79,203.55c0.38-0.29,4.56,5.58,8.45,16.22c4.03,10.56,8.44,25.53,12.21,42.31
						c3.7,16.8,6.05,32.23,6.83,43.51c0.95,11.3-0.48,18.38-0.95,18.27c-0.54-0.09-0.04-6.93-1.63-18.01
						c-1.43-11.07-4.15-26.29-7.83-42.97c-3.75-16.65-7.73-31.6-11.08-42.25C377.57,209.9,374.34,203.84,374.79,203.55z"/>
				</g>
			</g>
			<g>
				<g>
					<path class="st42" d="M481.35,404.31c-4.38,3.06-10.22,2.99-16.07,1.62c-5.9-1.44-11.9-4.18-17.71-8.15
						c-5.83-3.93-10.59-8.51-14.11-13.46c-3.44-4.93-5.65-10.33-4.43-15.53c1.2-5.11,6.09-9.03,13.65-10.03
						c7.48-1.04,17.51,1.14,26.47,7.22c8.95,6.08,14.68,14.6,16.47,21.94C487.5,395.32,485.66,401.31,481.35,404.31z"/>
				</g>
			</g>
			<g>
				<g class="st38">
					<g>
						<path class="st11" d="M330,756.47c-2.92-1.9-5.96-3.23-9.14-3.7C323.9,754,326.94,755.25,330,756.47z"/>
					</g>
				</g>
				<g class="st38">
					<g>
						<path class="st11" d="M448.04,795.85c30.52-7.17,31.64-16.93,26.47-37.85c-3.31-8.98-7.93-17.59-12.63-25.96
							c-8.36,25.5-36.8,39.99-63.63,40.6c-23.55,0.53-46.25-7.37-68.25-16.17c1.52,0.98,3,2.14,4.45,3.4
							C374.84,780.41,424.21,801.45,448.04,795.85z"/>
					</g>
				</g>
				<g class="st38">
					<g>
						<path class="st11" d="M569.59,748.06c1.82-3.37,2.08-7.65,0.2-13.08c-4.91-14.19-14.26-24.45-24.47-31.9
							c-0.33,13.15-5.48,26.23-14.84,35.51c-13.57,13.46-35.04,18.26-53.05,11.88l3.4,2.38c20.71,4.08,75.08,12.99,87.64-3.05"/>
					</g>
				</g>
			</g>
			<g>
				<g>
					<path class="st3" d="M387.9,692.32c-0.01-0.36,6.59-0.91,17.01,1.16c10.38,2.01,24.43,7.32,37.47,17.08
						c13,9.82,22,21.85,26.81,31.26c4.87,9.44,6.17,15.93,5.83,16.02c-0.61,0.22-2.78-5.9-8.09-14.75
						c-5.26-8.84-14.22-20.13-26.75-29.61c-12.58-9.41-25.91-14.89-35.86-17.49C394.35,693.36,387.86,692.97,387.9,692.32z"/>
				</g>
			</g>
			<g>
				<g>
					<path class="st3" d="M455.19,791.74c-1.08,0.3-3.31-13.6-14.68-25.6c-11.12-12.24-24.82-15.48-24.44-16.54
						c0.08-0.42,3.61-0.27,8.94,1.68c5.3,1.92,12.24,5.99,18.18,12.36c5.91,6.39,9.45,13.62,10.97,19.05
						C455.73,788.16,455.62,791.69,455.19,791.74z"/>
				</g>
			</g>
			<g>
				<g>
					<path class="st3" d="M571.08,749.61c-0.84,0.75-10.04-9.75-24.66-18.2c-14.52-8.62-28.18-11.51-27.94-12.61
						c0.02-0.91,14.58,0.45,29.79,9.44C563.56,737.11,571.86,749.14,571.08,749.61z"/>
				</g>
			</g>
		</g>
	</g>
</g>
<g>
	<g>
		<defs>
			<circle id="SVGID_00000134947612947114233960000016011634560899194292_" cx="-557.29" cy="383.63" r="383.63"/>
		</defs>
		<clipPath id="SVGID_00000176006042860164719360000013566381625910910624_">
			<use xlink:href="#SVGID_00000134947612947114233960000016011634560899194292_"  style="overflow:visible;"/>
		</clipPath>
		<g style="clip-path:url(#SVGID_00000176006042860164719360000013566381625910910624_);">
			<path class="st44" d="M-90.91,633.04c0,0-100.25,40.95-77.15,48.3c0,0,4.72,0,12.07,0c0,0,4.2,7.35,15.75,0
				c11.55-7.35,2.1-2.93,2.1-2.93s13.65,9.23,38.31,2.41c24.67-6.82,171.62,0.52,145.38-50.38
				C19.31,579.52-90.91,633.04-90.91,633.04z"/>
			<path class="st39" d="M-119.6,137.08c0,0,93.07,30.09,152.55,149.06c59.48,118.96,28.69,328.9,12.6,344.3
				c-16.1,15.4-137.16,33.59-189.64-9.1c-52.48-42.69,18.19-429.67,18.19-433.17C-125.9,184.66-119.6,137.08-119.6,137.08z"/>
			<path class="st11" d="M-126.07,648.18c-14.16,6.37-29.43,11.91-45.86,16.54c-1.67,0.48-3.35,0.94-5.05,1.4
				c-9.65,2.58-19.87,4.92-30.57,7.01c-26.64,5.22-56.26,8.89-87.55,10.91c-188.2,12.18-436.88-35.46-460.32-168.73
				c-0.4-2.18-0.72-4.41-0.99-6.64c-1.71-14.58-2.57-28.89-2.73-42.86c-1.69-148.97,77.36-259.89,77.36-259.89
				s44.31-34.11,109.94-68.84c7.84-4.15,15.98-8.3,24.38-12.41c0,0,0,0,0.01,0c76.99-37.61,176.23-71.16,267.67-56.81
				c10.95,1.71,21.78,4.11,32.46,7.28c0,0,47.2,11.46,101.68,40.33c61.88,32.78,133.15,88.04,155.18,174.46
				c0.48,1.87,0.93,3.75,1.36,5.65c7.23,31.95,11.43,63.49,12.22,93.92C26.04,501.88-17.52,599.36-126.07,648.18z"/>
			<path class="st45" d="M-126.07,648.18c-14.16,6.37-29.43,11.91-45.86,16.54c-1.67,0.48-3.35,0.94-5.05,1.4
				c-9.65,2.58-19.87,4.92-30.57,7.01c-26.64,5.22-56.26,8.89-87.55,10.91c-188.2,12.18-436.88-35.46-460.32-168.73
				c-0.4-2.18-0.72-4.41-0.99-6.64c-1.71-14.58-2.57-28.89-2.73-42.86c26.1-14.82,47.16-26.68,47.16-26.68l186.97,65.47
				c0,0,110.21,23.22,286.54-22.49c176.35-45.7,192.97,65.71,253.93-75.81c2.49-5.78,5.05-11.38,7.66-16.79
				C26.04,501.88-17.52,599.36-126.07,648.18z"/>
			<path class="st46" d="M-126.07,648.18c-14.16,6.37-29.43,11.91-45.86,16.54c-1.67,0.48-3.35,0.94-5.05,1.4
				c-9.65,2.58-19.87,4.92-30.57,7.01c-18.63,3.65-38.72,6.54-59.83,8.64c39.7-3.95,75.03-26.82,94.71-61.53
				c2.94-5.17,5.9-10.62,8.86-16.34c57.9-16.21,109.38-45.77,147.34-94.47c0,0,50.58-41.77,26.01-219.49
				c0.48,1.87,0.93,3.75,1.36,5.65C44.86,445.52,11.89,586.13-126.07,648.18z"/>
		</g>
	</g>
</g>
<g>
	<g>
		<defs>
			<circle id="SVGID_00000018922063268543750380000003667240032931079853_" cx="1326.24" cy="383.63" r="383.63"/>
		</defs>
		<clipPath id="SVGID_00000177467954573441829840000009244182121660646316_">
			<use xlink:href="#SVGID_00000018922063268543750380000003667240032931079853_"  style="overflow:visible;"/>
		</clipPath>
		<g style="clip-path:url(#SVGID_00000177467954573441829840000009244182121660646316_);">
			<g>
				<path class="st8" d="M631.51,640.79c0,0-249.37,253.81-243.45,259.73c5.92,5.92,148.74,8.14,202.01-51.06
					c53.28-59.2,85.84-199.79,85.84-199.79L631.51,640.79z"/>
				<path class="st11" d="M631.51,640.79c0,0-249.37,253.81-243.45,259.73c5.92,5.92,148.74,8.14,202.01-51.06
					c53.28-59.2,85.84-199.79,85.84-199.79L631.51,640.79z"/>
				<g>
					<path class="st14" d="M625.14,768.19c-16.66-12.6-32.46,24.87-23.78,31.44C610.04,806.2,634.53,775.29,625.14,768.19z"/>
				</g>
			</g>
			<g>
				<path class="st8" d="M725.68,655.61c0,0-128.39,261.21-123.76,264.17c4.63,2.96,104.53-11.84,135.6-50.32
					s29.6-213.11,25.9-213.85C759.72,654.87,728.15,650.57,725.68,655.61z"/>
				<path class="st11" d="M725.68,655.61c0,0-128.39,261.21-123.76,264.17c4.63,2.96,104.53-11.84,135.6-50.32
					s29.6-213.11,25.9-213.85C759.72,654.87,728.15,650.57,725.68,655.61z"/>
				<g>
					<path class="st14" d="M739.68,776.73c19.13,5.04,19.49-33.48,9.52-36.1C739.22,738,728.9,773.89,739.68,776.73z"/>
					<path class="st14" d="M714.86,771.92c10.55,2.78,12.67-15.97,4.76-18.05C711.71,751.78,706.95,769.83,714.86,771.92z"/>
				</g>
			</g>
			<g>
				<path class="st8" d="M1566.66,252.13c-3.52,2.78-27.75-2.39-38.09,2.4c-9.1,4.17-15.58,9.28-17.09,10.48
					c-0.04,0-0.04,0-0.04,0.04c-0.18,0.13-0.27,0.22-0.27,0.22s-0.13,0.62-0.44,1.69c-1.86,7.15-9.81,35.25-21.4,49.73
					c-13.32,16.65-47.73,36.63-59.54,41.42c-11.85,4.84-60.12,19.05-86.76,42.93c-26.64,23.89-159.3,177.06-202.01,199.26
					c-42.76,22.2-151.89,63.45-213.34,70.82c-61.4,7.41-301.39-17.77-333.93-31.09c-10.7-4.4,446.44-125.01,498.21-156.09
					c51.81-31.08,145.05-125.83,153.93-146.52c8.88-20.73,8.88-124.32,27.39-159.13c18.47-34.76,100.61-92.48,136.88-82.85
					c36.27,9.59,104.74,66.32,124.32,88.87C1556.4,209.59,1572.22,247.75,1566.66,252.13z"/>
				<path class="st11" d="M1566.66,252.13c-3.52,2.78-27.75-2.39-38.09,2.4c-9.1,4.17-15.58,9.28-17.09,10.48
					c-0.04,0-0.04,0-0.04,0.04c-0.18,0.13-0.27,0.22-0.27,0.22s-0.13,0.62-0.44,1.69c-1.86,7.15-9.81,35.25-21.4,49.73
					c-13.32,16.65-47.73,36.63-59.54,41.42c-11.85,4.84-60.12,19.05-86.76,42.93c-26.64,23.89-159.3,177.06-202.01,199.26
					c-42.76,22.2-151.89,63.45-213.34,70.82c-61.4,7.41-301.39-17.77-333.93-31.09c-10.7-4.4,446.44-125.01,498.21-156.09
					c51.81-31.08,145.05-125.83,153.93-146.52c8.88-20.73,8.88-124.32,27.39-159.13c18.47-34.76,100.61-92.48,136.88-82.85
					c36.27,9.59,104.74,66.32,124.32,88.87C1556.4,209.59,1572.22,247.75,1566.66,252.13z"/>
			</g>
			<g>
				<path class="st8" d="M1232.56,351.11c4.51,7.73-104.34,128.76-122.1,143.19c-17.76,14.43-142.08,120.99-207.56,135.42
					c-65.49,14.43-324.96,11.43-333.84,9.21c-8.88-2.22,77.44-206.78,106.3-245.63c28.86-38.85,233.09-136.53,303.02-125.43
					C1048.31,278.96,1224.79,337.79,1232.56,351.11z"/>
				<path class="st3" d="M1232.56,351.11c4.51,7.73-104.34,128.76-122.1,143.19c-17.76,14.43-142.08,120.99-207.56,135.42
					c-65.49,14.43-324.96,11.43-333.84,9.21c-8.88-2.22,77.44-206.78,106.3-245.63c28.86-38.85,233.09-136.53,303.02-125.43
					C1048.31,278.96,1224.79,337.79,1232.56,351.11z"/>
			</g>
			<g>
				<path class="st8" d="M679.5,388.5c4.18,5.34,54.68,17,68.56,15.33c13.87-1.66,147.63-56.05,154.84-62.71
					c7.22-6.66,51.67-72.67,45.51-74.13c-24.42-5.79-83.8,8.64-95.46,11.42c-11.65,2.77-106,47.73-113.22,51.61
					C732.52,333.9,674.29,381.84,679.5,388.5z"/>
				<path class="st8" d="M665,404.06c5.53-2,68.91,12.63,73.35,17.81c4.44,5.18-4.53,149.38-10.45,159
					c-5.92,9.62-135.8,0.97-145.25-4.22C573.19,571.46,646.5,410.75,665,404.06z"/>
				<path class="st8" d="M756.11,424.09c-0.66,8.98-8.41,151.59-2.31,156.78c13.69,11.65,132.44-3.7,130.98-15.54
					c-1.85-14.98-26.75-111.44-52.54-170.2C828.52,386.69,756.85,414.09,756.11,424.09z"/>
				<path class="st8" d="M576.17,593.1c-6.24,4.1-20.47,43.93-15.58,48.48c2.43,2.27,38.92,9.42,77.45,11.45
					c38.94,2.05,79.94-1.05,85.01-3.16c10.09-4.2,9.39-44.74,3.86-45.99c-2.92-0.66-42.93,0.56-80.98-2.66
					C611.98,598.36,579.62,590.83,576.17,593.1z"/>
				<path class="st8" d="M748.06,602.52c-1.75,4.93-4.13,43.13,0.87,47.57c2.53,2.25,38.04,5.07,76.03,3.11
					c36.95-1.91,73.84-10.77,77.95-13.77c8.33-6.09-4.16-45-8.6-47.73c-2.2-1.35-38.94,7.02-74.37,9.43
					C783.76,603.59,748.9,600.15,748.06,602.52z"/>
			</g>
		</g>
	</g>
</g>
</svg>
