<?xml version="1.0" encoding="utf-8"?>
<!-- Generator: Adobe Illustrator 27.7.0, SVG Export Plug-In . SVG Version: 6.00 Build 0)  -->
<svg version="1.1" id="Ebene_1" xmlns="http://www.w3.org/2000/svg" xmlns:xlink="http://www.w3.org/1999/xlink" x="0px" y="0px"
	 viewBox="0 0 764.08 769.83" style="enable-background:new 0 0 764.08 769.83;" xml:space="preserve">
<style type="text/css">
	.st0{fill:#FB6A55;}
	.st1{fill:#969696;}
	.st2{fill:#2B454E;}
	.st3{fill:#1A2E35;}
	.st4{fill:#FFABA1;}
	.st5{fill:#ECECEC;}
	.st6{fill:#DCDCDC;}
	.st7{fill:#A8A8A8;}
	.st8{fill:#4D6FB4;}
	.st9{fill:#375A64;}
	.st10{fill:#C8C8C8;}
	.st11{fill:#FFFFFF;}
	.st12{fill:#F7DFC4;}
	.st13{fill:#F2F2F2;}
	.st14{opacity:0.1;}
	.st15{opacity:0.3;fill:#1A2E35;}
	.st16{fill:#97BEDB;}
	.st17{fill:#771137;}
	.st18{fill:#FF9ABD;}
	.st19{fill:#F39C8C;}
	.st20{fill:#F4B3CC;}
	.st21{fill:#864240;}
	.st22{fill:#C26358;}
	.st23{fill:none;stroke:#1A2E35;stroke-miterlimit:10;}
	.st24{opacity:0.1;fill:#010000;}
	.st25{opacity:0.4;}
	.st26{opacity:0.2;}
	.st27{fill:#010000;}
	.st28{fill:#F4B85A;}
	.st29{fill:#FFC5C1;}
	.st30{fill:#BD5324;}
	.st31{fill:#D95000;}
	.st32{opacity:0.6;}
	.st33{clip-path:url(#SVGID_00000137117807839232607680000017094722661388271027_);}
	.st34{clip-path:url(#SVGID_00000179634305340461723550000018332160949595559600_);}
	.st35{fill:url(#SVGID_00000021830907373047183020000012906363558792333491_);}
	.st36{clip-path:url(#SVGID_00000096755022628922806810000016337115904268414128_);}
	.st37{clip-path:url(#SVGID_00000002378213744533826470000015362993545278526887_);}
	.st38{opacity:0.5;}
	.st39{fill:#334F7C;}
	.st40{clip-path:url(#SVGID_00000086651475914869075230000014863620900758818176_);}
	.st41{fill:none;stroke:#44555B;stroke-width:0.05;stroke-miterlimit:10;}
	.st42{fill:none;}
	.st43{clip-path:url(#SVGID_00000018934238940446081530000012788058259487595656_);}
	.st44{fill:#919191;}
	.st45{fill:#CCCCCC;}
	.st46{fill:#AFAFAF;}
	.st47{fill:#F4DFCE;}
	.st48{fill:#35271C;}
	.st49{fill:#DDC6B6;}
	.st50{clip-path:url(#SVGID_00000132056747191531626350000007238647352036822413_);}
	.st51{clip-path:url(#SVGID_00000131364991666909572670000004293226070049382054_);}
	.st52{clip-path:url(#SVGID_00000136403787488476874310000010179969419255740081_);}
	.st53{opacity:0.2;fill:#1A2E35;}
	.st54{fill:#D8BCA0;}
</style>
<g>
	<g>
		<defs>
			<circle id="SVGID_00000160181930360259158650000005489175166120866218_" cx="-653.63" cy="383.63" r="383.63"/>
		</defs>
		<clipPath id="SVGID_00000028283397232598440770000002742178008054438828_">
			<use xlink:href="#SVGID_00000160181930360259158650000005489175166120866218_"  style="overflow:visible;"/>
		</clipPath>
		<g style="clip-path:url(#SVGID_00000028283397232598440770000002742178008054438828_);">
		</g>
	</g>
</g>
<g>
	<circle class="st1" cx="383.63" cy="383.63" r="383.63"/>
	<g>
		<defs>
			<circle id="SVGID_00000168830108722718282030000015276219555181337261_" cx="383.63" cy="383.63" r="383.63"/>
		</defs>
		<clipPath id="SVGID_00000046336670893414571390000005932833389234881929_">
			<use xlink:href="#SVGID_00000168830108722718282030000015276219555181337261_"  style="overflow:visible;"/>
		</clipPath>
		<g style="clip-path:url(#SVGID_00000046336670893414571390000005932833389234881929_);">
			<path class="st9" d="M354.95,256.43c-2.95-14.15-26.12-62.29-47.49-81.46c-21.36-19.17-94.04-59.24-102.08-58.15
				c-8.04,1.09,39.77,65.56,32.72,109.37C235.01,245.38,354.95,256.43,354.95,256.43z"/>
			<path class="st2" d="M548.94,697.43c16.75,28.76-24.44,135.59-26.44,146.97c-2,11.38,39.4,44.25,31.82,58.16
				c-7.59,13.91-48.04,20.86-65.11,13.91c-17.07-6.95-44.88-51.83-48.04-68.27c-3.16-16.44-1.26-41.09,0-46.14
				s-58.91-94.14-56.89-113.78C386.29,668.62,528.75,662.77,548.94,697.43z"/>
			<path class="st2" d="M855.07,718.28c1.59,10.69-19.45,97.02-34.47,121.92c-15.02,24.91-76.99,69.84-91.16,72.63
				s-49.76,12.96-55.66,4.26c-5.9-8.69,1.95-30.29,7.2-33.69c5.25-3.4,24.97-17.94,29.08-19c4.1-1.06,22.71-48.8,22.05-54.76
				s-53.67-66.42-42.12-96.27C701.55,683.53,855.07,718.28,855.07,718.28z"/>
			<path class="st9" d="M147.58,432.88c30.34,17.07,109.99,36.94,110.9,41.72c0.91,4.78,30.34,201.02,77.75,239.93
				c47.41,38.84,161.19,76.77,218.08,86.25c56.89,9.48,147.01-17.07,172.57-18.96c25.56-1.9,64.48,4.78,64.48,4.78
				s31.33,45.51,36.94,58.71c5.77,13.35,53.1,56.89,55.07,72.06c1.82,15.17-16.16,22.76-22.76,32.31
				c-6.68,9.41,5.61,19.87,15.17,23.67c9.41,3.79,49.31-8.5,57.8-18.05c8.5-9.41,6.68-135.55,0.91-167.79
				c-5.61-32.24-43.54-234.24-74.87-260.79c-31.33-26.55-118.56-19.87-181.07-34.13c-62.66-14.18-176.44-87.23-196.31-116.59
				c-19.87-29.36-19.57-99.9-29.74-118.87c-10.09-18.96-83.74-70.92-120.69-72.21c-3.94-0.15-8.57,0.45-13.58,1.52
				c-30.57,6.75-76.69,33.45-90.12,46.88c-13.2,13.2-27.84,61.14-53.33,78.66c-4.55,3.19-9.56,5.39-14.94,6.14
				c-35.05,5.23-54.99-11.38-63.04-4.7C88.86,320.09,117.23,415.82,147.58,432.88z"/>
			<path class="st9" d="M535.03,749.87c-5.57,32.89-93.87,111.33-122.32,128.4c-28.45,17.07-69.22,52.15-80.6,59.74
				c-11.38,7.59-82.49,0-91.03-13.28c-8.53-13.27,7.59-36.03,17.07-40.77c9.48-4.74,30.34-9.66,39.82-16.68
				c9.48-7.02,40.77-59.17,38.88-68.66c-1.9-9.48-27.92-88.01-29.61-128.87C305.57,628.9,540.72,716.29,535.03,749.87z"/>
			<path class="st9" d="M456.55,269.11c1.05-17.02-10.33-78.96-28.66-107.41S310.94,75.1,301.46,73.84s53.26,76.9,31.61,124.53
				C323.59,219.23,456.55,269.11,456.55,269.11z"/>
			<path class="st2" d="M174.81,311.97c23.59,58.1,90.5,103.01,150.27,73.43c40.28-19.87,55.15-77.75,52.04-119.32
				c-2.5-33.45-27.31-66.07-58.86-79.65c-30.57,6.75-76.69,33.45-90.12,46.88C214.94,246.51,200.3,294.45,174.81,311.97z"/>
			<path class="st3" d="M261.22,307.34c22.67,2.07,17.11,44.46-3.89,42.54C236.65,347.99,242.21,305.6,261.22,307.34z"/>
			<path class="st3" d="M118.85,354.09c-9.28,0.8-35.56-31.29-33.19-44.56c2.37-13.27,72.54-2.37,76.8,8.06
				C166.73,328.01,128.97,353.22,118.85,354.09z"/>
			<path class="st11" d="M257.63,472.44c14.04-2.13,76.68-4.24,120.24-19.58c43.56-15.34,98.24-76.7,101.71-81.3
				c3.47-4.59,21.93,15.22,23.8,20.2c1.87,4.98-60,78.42-116.3,93.15s-127.18,19.84-130.34,16.64
				C253.57,498.38,250.91,473.46,257.63,472.44z"/>
			<path class="st2" d="M514.61,486.21c27.8-21.69,123.13-1.01,150.95,38.17c27.81,39.18-44.91,111.14-103.25,104.96
				C503.97,623.16,476.25,516.15,514.61,486.21z"/>
			<path class="st2" d="M715.35,550.03c-14.44,12.67-10.6,54.97,15.89,66.23c26.49,11.26,57.61-3.31,62.25-33.11
				C798.13,553.34,747.81,521.55,715.35,550.03z"/>
			<path class="st2" d="M527,450.04c-0.38-9.75-18.31-21.76-31.22-14.9c-12.91,6.86-17.12,23.8-6.83,35.16
				C499.23,481.66,527.86,471.96,527,450.04z"/>
		</g>
	</g>
</g>
</svg>
