<?xml version="1.0" encoding="utf-8"?>
<!-- Generator: Adobe Illustrator 27.7.0, SVG Export Plug-In . SVG Version: 6.00 Build 0)  -->
<svg version="1.1" id="Ebene_1" xmlns="http://www.w3.org/2000/svg" xmlns:xlink="http://www.w3.org/1999/xlink" x="0px" y="0px"
	 viewBox="0 0 2226.27 1740.12" style="enable-background:new 0 0 2226.27 1740.12;" xml:space="preserve">
<style type="text/css">
	.st0{fill:#FB6A55;}
	.st1{fill:#969696;}
	.st2{fill:#2B454E;}
	.st3{fill:#1A2E35;}
	.st4{fill:#FFABA1;}
	.st5{fill:#ECECEC;}
	.st6{fill:#DCDCDC;}
	.st7{fill:#A8A8A8;}
	.st8{fill:#4D6FB4;}
	.st9{fill:#375A64;}
	.st10{fill:#C8C8C8;}
	.st11{fill:#FFFFFF;}
	.st12{fill:#F7DFC4;}
	.st13{fill:#F2F2F2;}
	.st14{opacity:0.1;}
	.st15{opacity:0.3;fill:#1A2E35;}
	.st16{fill:#97BEDB;}
	.st17{fill:#771137;}
	.st18{fill:#FF9ABD;}
	.st19{fill:#F39C8C;}
	.st20{fill:#F4B3CC;}
	.st21{fill:#864240;}
	.st22{fill:#C26358;}
	.st23{fill:none;stroke:#1A2E35;stroke-miterlimit:10;}
	.st24{opacity:0.1;fill:#010000;}
	.st25{opacity:0.4;}
	.st26{opacity:0.2;}
	.st27{fill:#010000;}
	.st28{fill:#F4B85A;}
	.st29{fill:#FFC5C1;}
	.st30{fill:#BD5324;}
	.st31{fill:#D95000;}
	.st32{opacity:0.6;}
	.st33{clip-path:url(#SVGID_00000126322877089981532370000005086973748999532934_);}
	.st34{clip-path:url(#SVGID_00000041267639737388414560000007935033003183657129_);}
	.st35{fill:url(#SVGID_00000097475896440131775810000014371566305961854882_);}
	.st36{clip-path:url(#SVGID_00000126282160043659789630000010369314307925254047_);}
	.st37{clip-path:url(#SVGID_00000161594732673551999120000017106976677924902563_);}
	.st38{opacity:0.5;}
	.st39{fill:#334F7C;}
	.st40{clip-path:url(#SVGID_00000117662533394643955040000004172901785131889305_);}
	.st41{fill:none;stroke:#44555B;stroke-width:0.05;stroke-miterlimit:10;}
	.st42{fill:none;}
	.st43{clip-path:url(#SVGID_00000104675140754764575910000005312238941379661233_);}
	.st44{fill:#919191;}
	.st45{fill:#CCCCCC;}
	.st46{fill:#AFAFAF;}
	.st47{fill:#F4DFCE;}
	.st48{fill:#35271C;}
	.st49{fill:#DDC6B6;}
	.st50{clip-path:url(#SVGID_00000065043031145384281580000001603208498476617105_);}
	.st51{clip-path:url(#SVGID_00000033343378961630342530000005033787342654802363_);}
	.st52{clip-path:url(#SVGID_00000062909023863210328490000000215338532821886629_);}
	.st53{opacity:0.2;fill:#1A2E35;}
	.st54{fill:#D8BCA0;}
</style>
<g>
	<path class="st3" d="M1384.55,533.36c-2.86-20.03-5.87-40.04-7.99-60.17c-1.2-11.43-2.47-22.87-3.57-34.32
		c-0.04-0.43,0.69-0.55,0.77-0.12c3.66,20,7.28,40.07,10.02,60.22c2.74,20.05,5.64,40.08,8.11,60.17
		c1.41,11.42,2.47,22.84,3.19,34.32c0.01,0.23-0.35,0.29-0.4,0.06C1390.37,573.63,1387.43,553.53,1384.55,533.36z"/>
	<g>
		<path class="st12" d="M1645.48,301.05c-36.55,106.28-91.14,225.86-115.49,244.72c-30.79,23.84-189.18,53.79-198.52,53.8
			c-23.1-0.11-33.31-143.21-19.86-144.37c40.4-3.47,140.91-20.33,149.86-27.76c9.29-7.78,56.14-68.48,123.17-143.28
			C1630.9,232.47,1668.16,235.1,1645.48,301.05z"/>
		<g>
			<g>
				<path class="st12" d="M1344.28,598.14c-16.7,4.37-106.73,28.93-129.34,27.74c-22.61-1.18-87.43-9.3-88.28-26.7
					c-0.85-17.41,18.31-16.55,18.31-16.55s-26.83-7.76-26.09-25.36c0.74-17.6,30.51-15.28,30.51-15.28s-26.97-9.98-24.98-27.48
					c1.99-17.5,31.54-10.16,31.54-10.16s-25.08-7.97-17.37-21.7c9.27-16.51,53.86,3.41,78.91,2.84
					c5.69-0.13,115.15-10.83,115.15-10.83L1344.28,598.14z"/>
				<g>
					<path class="st3" d="M1153.41,503.77c32.82,14.57,49.7,15.27,84.68,10.16c0.68-0.1,0.99,0.89,0.28,1.06
						c-33.8,8.13-55.1,10.3-85.75-9.67C1151.13,504.35,1151.85,503.08,1153.41,503.77z"/>
					<path class="st3" d="M1146.81,540.79c35.41,12.16,53.71,13.08,90.74,10.42c0.52-0.04,0.64,0.84,0.12,0.93
						c-36.11,5.65-57.41,7.33-91.19-9.46C1144.95,541.91,1145.19,540.23,1146.81,540.79z"/>
					<path class="st3" d="M1146.86,582.44c35.14,9.3,55.16,11.17,90.78,3.97c0.84-0.17,1.17,1.04,0.34,1.29
						c-35.61,10.87-60.61,8.72-91.28-4.17C1144.6,582.66,1144.65,581.86,1146.86,582.44z"/>
				</g>
			</g>
			<g>
				<path class="st12" d="M1353.05,454.7c0,0-40.03-20.54-59.61-25.68c-19.58-5.14-99.6,2.54-98.92,19.92
					c0.88,22.43,47.94,27.1,71.29,26.37c0,0,1.98,51.9,35.03,62.56C1333.9,548.51,1353.05,454.7,1353.05,454.7z"/>
				<path class="st3" d="M1196.79,455.02c15.56,19.88,46.15,16.95,68.85,17.94c1.73,0.07,2.27,1.49,1.96,2.8
					c2.28,21.7,11.82,51.64,31.99,62.75c0.59,0.32,0.21,1.21-0.43,0.96c-23.25-8.98-35.02-37.63-36-61.56
					c-23.3-0.65-54.11,0.95-66.57-22.75C1196.52,455.02,1196.69,454.89,1196.79,455.02z"/>
			</g>
		</g>
	</g>
	<path class="st8" d="M1331.32,429.75l28.23,185.28c0,0,142.14-33.18,173.5-60.56c31.36-27.38,88.88-173.11,112.21-247.47
		c23.33-74.36-15.29-76.55-55.67-32.38c-40.38,44.16-129.54,145.44-134.72,147.44C1449.69,424.06,1331.32,429.75,1331.32,429.75z"/>
	<path class="st24" d="M1645.25,307c-23.34,74.36-80.82,220.11-112.21,247.48c-31.33,27.36-173.5,60.57-173.5,60.57l-1.32-8.77
		l277.38-360.9h0.06C1651.65,245.44,1658.66,264.36,1645.25,307z"/>
	<g>
		<path class="st12" d="M1345.53,1155.52c0,0-41.93,259.6-41.96,259.78c-9.88,49.34-19.42,92.41-26.44,114.23
			c-0.02,0.12-0.04,0.24-0.12,0.35c-2.64,8.24-4.9,13.38-6.69,14.51c-0.14,0.1-0.22,0.21-0.35,0.25
			c-16.68,7-413.24-60.46-426.27-67.47c-13.11-6.96,5.91-44.72,23.39-54.38c17.6-9.64,180.92-51.73,180.92-51.73l44.35-258.99
			L1345.53,1155.52z"/>
		<path class="st5" d="M1312.18,1362.01c0,0-8.58,53.12-8.61,53.3c-9.88,49.34-19.42,92.41-26.44,114.23
			c-0.02,0.12-0.04,0.24-0.12,0.35c-3.1,8.04-5.5,13.28-6.69,14.51c-0.14,0.1-0.22,0.21-0.35,0.25
			c-16.68,7-413.24-60.46-426.27-67.47c-13.11-6.96,5.91-44.72,23.39-54.38c17.6-9.64,180.92-51.73,180.92-51.73l9.25-54.03
			L1312.18,1362.01z"/>
		<g>
			<path class="st1" d="M843.58,1476.66c13.27,6.87,414.07,68.44,430.81,61.08c6.41-2.68,18.78-60.56,31.73-130.92
				c0.13-0.74,0.26-1.47,0.38-2.21L1048.37,1362l-0.57,4.4c0,0-163.95,45.05-181.52,55.08
				C848.85,1431.49,830.29,1469.86,843.58,1476.66z"/>
			<g>
				<path class="st11" d="M850.5,1461.82c67.82,8.72,340.52,50.29,406.9,64.06c0.54,0.11,0.48,0.48-0.07,0.43
					c-67.41-7.18-339.77-50.95-407.01-63.38C848.91,1462.67,849.07,1461.64,850.5,1461.82z"/>
				<path class="st3" d="M1025.95,1363.85c27.35-0.88,59.24,8.2,76.64,30.26c0.68,0.86-0.55,1.8-1.37,1.4
					c-24.96-12.3-48.64-21.37-75.69-28.29C1023.64,1366.73,1023.99,1363.91,1025.95,1363.85z"/>
				<path class="st3" d="M1004.99,1372.47c27.35-0.88,59.24,8.2,76.64,30.26c0.68,0.85-0.55,1.8-1.37,1.4
					c-24.96-12.3-48.64-21.37-75.68-28.28C1002.67,1375.35,1003.03,1372.53,1004.99,1372.47z"/>
				<path class="st3" d="M984.02,1381.08c27.35-0.88,59.24,8.2,76.64,30.26c0.68,0.85-0.55,1.8-1.37,1.4
					c-24.96-12.3-48.64-21.37-75.68-28.28C981.7,1383.97,982.06,1381.14,984.02,1381.08z"/>
			</g>
			<path class="st1" d="M839.67,1461.36c-7.6,1.66-9.75,25.99-4.87,28.72c4.88,2.73,442.18,67.93,449.87,67.4
				c7.69-0.52,9.05-27.59,0.63-30.28C1276.89,1524.5,839.67,1461.36,839.67,1461.36z"/>
			<path class="st25" d="M839.67,1461.36c-7.6,1.66-9.75,25.99-4.87,28.72c4.88,2.73,442.18,67.93,449.87,67.4
				c7.69-0.52,9.05-27.59,0.63-30.28C1276.89,1524.5,839.67,1461.36,839.67,1461.36z"/>
			<path class="st11" d="M1233.43,1439.33c31.29-10.07,46.98,38.54,15.64,48.62C1217.79,1498.03,1202.09,1449.42,1233.43,1439.33z"
				/>
		</g>
	</g>
	<g>
		<g>
			<g>
				<g>
					<polygon class="st6" points="1399.67,937.44 1384.81,1026.57 1284.12,1632.98 1267.88,1632.98 1341.1,1026.57 1351.92,937.44 
											"/>
				</g>
			</g>
			<polygon class="st7" points="1351.92,937.44 1399.67,937.44 1384.81,1026.57 1341.1,1026.57 			"/>
		</g>
		<g>
			<g>
				<g>
					<polygon class="st6" points="1715.88,1632.98 1699.64,1632.98 1598.95,1026.57 1584.09,937.44 1631.84,937.44 1642.66,1026.57 
											"/>
				</g>
			</g>
			<polygon class="st7" points="1631.84,937.44 1642.66,1026.57 1598.95,1026.57 1584.09,937.44 			"/>
		</g>
		<g>
			<g>
				<g>
					<polygon class="st6" points="2017.9,1632.98 2001.67,1632.98 1900.98,1026.57 1886.11,937.44 1933.86,937.44 1944.68,1026.57 
											"/>
				</g>
			</g>
			<polygon class="st7" points="1944.68,1026.57 1900.98,1026.57 1886.11,937.44 1933.86,937.44 			"/>
		</g>
		<polygon class="st6" points="1992.16,979.32 1254.32,979.32 1254.32,901.57 1530.53,901.57 1623.36,361.48 1964.03,361.48 		"/>
		<polygon class="st7" points="1992.16,979.32 1951.94,979.32 1925.72,361.48 1964.03,361.48 		"/>
	</g>
	<g>
		<path class="st12" d="M1607.6,1443.79c-10.05-13.07-19.18-25.74-25.61-40.99c-9.39-22.29-15.95-45.52-25.46-67.77
			c-13.99-32.74-30.28-66.02-38.12-101.06l-179.77-0.52l13.38,260.64c0,0-154.05,68.65-169.81,81.08
			c-15.63,12.43-28.1,52.83-14.03,57.51c14.02,4.74,416.28,5.35,431.56-4.33c0.12-0.06,0.18-0.19,0.3-0.31
			c1.58-1.42,2.95-6.86,4.19-15.42c0.06-0.12,0.06-0.25,0.06-0.37c3.29-22.69,5.54-66.75,7.08-117.04c0-0.05-1.26-20.77-3.07-50.5
			C1608.08,1444.41,1607.84,1444.1,1607.6,1443.79z"/>
		<path class="st5" d="M1607.6,1443.79c-2.52-3.28-4.99-6.54-7.37-9.82l-251.54,5.83l3.32,54.29c0,0-148.31,70-164,82.42
			c-15.69,12.42-28.11,52.81-14.04,57.54c14.01,4.71,410.52,3.98,425.76-5.68c0.15-0.09,0.24-0.2,0.33-0.31
			c1.6-1.41,2.94-6.9,4.21-15.4c0.04-0.18,0.06-0.24,0.02-0.38c3.29-22.69,5.54-66.77,7.13-117.06c0.01-0.05-1.36-30.25-2.8-50.12
			C1608.27,1444.66,1607.93,1444.22,1607.6,1443.79z"/>
		<g>
			<path class="st1" d="M1170.18,1626.72c14.27,4.46,419.67-4.39,434.87-14.54c5.85-3.75,8-62.9,8.55-134.44c0-0.75,0-1.5,0-2.24
				l-261.61,2.79l0.2,4.44c0,0-153.66,72.79-169.22,85.72C1167.54,1581.31,1155.91,1622.32,1170.18,1626.72z"/>
			<g>
				<path class="st11" d="M1174.43,1610.9c68.3-3.17,344.08-9.51,411.84-7.45c0.55,0.02,0.56,0.39,0.01,0.43
					c-67.63,4.62-343.46,8.73-411.83,8.14C1173.01,1612.01,1172.99,1610.97,1174.43,1610.9z"/>
				<path class="st3" d="M1330.23,1483.99c26.78-5.6,59.76-2.2,80.73,16.52c0.81,0.72-0.23,1.87-1.11,1.61
					c-26.71-7.78-51.61-12.61-79.44-14.73C1328.45,1487.24,1328.31,1484.39,1330.23,1483.99z"/>
				<path class="st3" d="M1311.08,1496.11c26.78-5.61,59.76-2.2,80.73,16.52c0.81,0.72-0.23,1.87-1.11,1.61
					c-26.72-7.78-51.61-12.61-79.44-14.73C1309.3,1499.36,1309.16,1496.52,1311.08,1496.11z"/>
				<path class="st3" d="M1291.92,1508.24c26.78-5.61,59.76-2.2,80.73,16.52c0.81,0.72-0.23,1.87-1.11,1.61
					c-26.71-7.78-51.61-12.61-79.44-14.73C1290.14,1511.48,1290.01,1508.64,1291.92,1508.24z"/>
			</g>
			<path class="st11" d="M1547.66,1522.36c29.07-15.34,52.95,29.81,23.84,45.18C1542.43,1582.88,1518.54,1537.73,1547.66,1522.36z"
				/>
			<path class="st1" d="M1163.68,1612.32c-7.2,2.96-5.09,27.29,0.18,29.13c5.28,1.84,447.26-9.76,454.74-11.61
				c7.48-1.85,4.12-28.74-4.63-29.93C1605.22,1598.71,1163.68,1612.32,1163.68,1612.32z"/>
			<path class="st25" d="M1163.68,1612.32c-7.2,2.96-5.09,27.29,0.18,29.13c5.28,1.84,447.26-9.76,454.74-11.61
				c7.48-1.85,4.12-28.74-4.63-29.93C1605.22,1598.71,1163.68,1612.32,1163.68,1612.32z"/>
		</g>
	</g>
	<g>
		<g>
			<g>
				<path class="st2" d="M1816.52,861.71c-80.21,89.35-349.71,18.78-365.82,54.34c-14.19,31.36,169.71,534.97,169.71,534.97
					l-294.29,31.72c0,0-254.04-556.18-163.23-716.88c49.05-86.79,265.19-52.19,395.62-68.07c39.34-4.79,57.82-85.93,57.82-85.93
					h233.07C1849.39,611.86,1908.2,759.58,1816.52,861.71z"/>
				<path class="st3" d="M1244.69,716.07l247.13,189.11c82.08-1.74,261.71,26.69,324.67-43.49c91.71-102.14,32.9-249.81,32.9-249.81
					h-233.07c0,0-18.48,81.13-57.81,85.92C1466.97,708.91,1333.3,695.22,1244.69,716.07z"/>
				<path class="st3" d="M1314.87,1417.08c8.13-2.54,84.44-11.05,101.26-12.87c33.69-3.64,139.75-13.55,158.96-13.5
					c0.51,0,0.59,0.79,0.09,0.9c-16.69,3.5-84.38,11.4-101.2,13.13c-33.74,3.47-149.61,14.71-158.97,13.78
					C1314.2,1418.43,1314.08,1417.33,1314.87,1417.08z"/>
				<path class="st3" d="M1415,886.55c18.92-9.41,162.36-4.76,265.28-14.39c33.54-3.14,67.17-10.29,92.77-32.27
					c23.05-19.79,37.87-47.21,45.82-75.45c9.89-35.16,8.87-71.84,7.18-107.86c-0.41-8.86-1.03-17.72-1.59-26.58
					c-0.03-0.51,0.88-0.61,0.94-0.1c7.83,64.52,13.81,136.6-28.15,192.52c-18.44,24.58-44.4,41.15-75.03,49.21
					c-62.08,16.33-295.45,12.29-303.68,18.58c-9.81,7.5,141.07,466.85,144.06,475.6c0.56,1.65-2.32,2.76-3.01,1.12
					C1544.71,1331.68,1398.53,894.74,1415,886.55z"/>
				<path class="st3" d="M1152.33,781.4c13.88-35.22,45.52-57.15,92.09-65.54c0.78-0.14,0.73,1.01-0.03,1.23
					c-40.63,11.88-69.67,28.22-85.65,62.51c-7.46,16.01-11.33,38.5-13.26,68.66c-9.64,150.39,121.59,491.8,124.26,497.74
					c0.24,0.54-0.5,0.94-0.8,0.44C1250.44,1315.3,1095.04,926.79,1152.33,781.4z"/>
			</g>
		</g>
		<g>
			<g>
				<path class="st2" d="M1045.94,1297.36l222.84,47.39c0,0-175.81-524.7-93.23-592.4c22.89-18.76,72.79-25.32,132.09,0.29
					c88.54,38.23,191.03,116.22,287.64,144.73c90.49,26.7,197.9,2.14,234.87-38.55c77.66-85.48,19.24-247.03,19.24-247.03
					l-303.91-12.03c0,0,4.78,3.89-10.5,17.45c0,0-204.93-42.71-286.77,7.29C1100.55,714.71,1045.94,1297.36,1045.94,1297.36z"/>
				<g>
					<path class="st3" d="M1710.93,630.53c0.21-0.62,1.09-0.46,1.11,0.18c0.46,12.14-0.08,23.99,2.78,35.94
						c2.71,11.35,7.88,21.53,16.12,29.86c17.57,17.77,42.77,23.82,65.81,31.08c1.22,0.38,0.99,2.53-0.37,2.32
						c-25.55-3.93-52.43-10.4-71.11-29.58c-8.57-8.8-14.33-20.08-16.53-32.16C1706.53,656.04,1706.88,642.26,1710.93,630.53z"/>
					<path class="st3" d="M1181.07,742.34c34.27-21.5,87.82-5.17,113.46,4.65c0.54,0.21,0.29,1.07-0.26,0.87
						c-23.58-8.48-82.28-21.33-113.66,0.9c-72.51,51.37,24.53,402.65,88.17,595.99c0.99,3.02-1.41,2.22-2.74-0.69
						c-10.49-22.92-92.52-267.22-113.92-428.84C1148.83,890.37,1131.67,773.33,1181.07,742.34z"/>
					<path class="st3" d="M1071.34,1238.11c6.73-0.17,64.49,12.56,77.2,15.42c25.45,5.73,84.43,21,98.19,26.26
						c0.37,0.14,0.14,0.9-0.26,0.86c-13.22-1.26-43.97-8-56.65-10.95c-25.43-5.91-112.52-26.81-118.9-30.21
						C1070.36,1239.19,1070.68,1238.12,1071.34,1238.11z"/>
					<path class="st3" d="M1191.97,733.22c23.06-12.61,50.5-14.66,76.09-11.51c27.13,3.34,52.93,12.98,77.75,24.32
						c52.13,23.84,101.78,52.96,153.98,76.67c51.9,23.57,107.3,42.02,164.49,43.78c48.89,1.5,110.76-7.1,142.2-51.09
						c48.43-67.76,20.22-184.58,19.66-192.13c-0.04-0.59,0.74-0.55,0.89,0.01c37.57,143.61-10.77,199.36-43.4,222.82
						c-25.91,18.62-63.14,23.32-87.73,25.4c-56.9,4.81-113.93-9.12-166.66-30.13c-54.05-21.53-104.73-50.51-156.51-76.99
						c-49.65-25.4-104.99-51.59-161.69-37.04c-6.41,1.64-12.74,3.91-18.86,6.45C1191.88,733.89,1191.68,733.37,1191.97,733.22z"/>
				</g>
			</g>
		</g>
	</g>
	<path class="st7" d="M1527.72,615.07l20.87-127.84c0,0,56.17-210.77,79.28-234.7c23.69-24.55,63.34-21.94,88.68,11.14
		c64.73,84.48,128.47,225.43,151.41,379.71L1527.72,615.07z"/>
	<path class="st8" d="M1864.11,645.07l-167.95-13.96l-11.72-1h-0.05l-160.51-13.34l20.87-127.83c0,0,63.13-217.97,79.28-234.74
		c23.68-24.54,63.32-21.92,88.67,11.15c11.43,14.91,22.82,31.59,33.92,49.79c0.05,0,0.05,0.05,0.05,0.05
		c0.48,0.71,0.91,1.48,1.29,2.19l0.05,0.05C1799.46,402.13,1845.39,519.14,1864.11,645.07z"/>
	<g>
		<path class="st3" d="M1589.26,468.49c13.52,0.5,27.12,1.45,40.44,3.94c6.63,1.24,13.15,2.78,19.68,4.46
			c3.25,0.84,6.51,1.57,9.8,2.28c3.37,0.73,6.97,1.38,10.44,1.26c0.31-0.01,0.33,0.45,0.02,0.48c-3.35,0.31-6.56,0.61-9.94,0.47
			c-3.21-0.13-6.42-0.6-9.58-1.16c-6.73-1.19-13.41-2.7-20.13-3.96c-13.56-2.55-27.11-5.09-40.82-6.65
			C1588.54,469.54,1588.62,468.46,1589.26,468.49z"/>
		<path class="st3" d="M1556.74,482.62c10.97-1.85,22.2-3.21,33.32-3.81c5.59-0.3,11.16-0.28,16.75-0.11
			c2.67,0.08,5.34,0.21,8.01,0.37c2.94,0.18,5.85,0.75,8.79,0.89c0.31,0.01,0.34,0.49,0.02,0.48c-2.77-0.05-5.56,0.37-8.34,0.49
			c-2.79,0.12-5.57,0.21-8.35,0.33c-5.58,0.23-11.14,0.53-16.72,0.7c-11.17,0.36-22.28,0.83-33.43,1.57
			C1556.19,483.58,1556.18,482.72,1556.74,482.62z"/>
	</g>
	<g>
		<path class="st12" d="M1729.7,282.61c59.23,82.93,132.34,227.52,120.72,257.69c-29.1,75.59-109.49,160.78-148.11,190.26
			c-22.54,17.2-119.18-97.27-99.92-113.55c30.38-25.67,108.09-110.8,117.3-122.11c4.92-6.03-25.38-110.89-38.89-181.12
			C1666.13,237.42,1700.83,242.18,1729.7,282.61z"/>
		<g>
			<path class="st12" d="M1550.32,695.64c4.13-8.85-0.49-11.07-15.98-3.25c-15.69,7.89-70.15,51.96-83.93,31.59
				c-13.87-20.42,64.23-81.52,91.02-92.58c26.77-11.13,74.01-19.57,74.01-19.57C1602.64,626.79,1575.06,666,1550.32,695.64z"/>
			<g>
				<path class="st12" d="M1714.5,717.58c-37.59,40.78-81.9,93.83-141.79,111.97c-11.75,3.56-20.29-0.28-20.29-0.28
					c-26.7,8.61-38.78-1.41-38.78-1.41c-27.32,0.4-38.27-11.55-38.27-11.55s-31.45,9.76-40.51-8.27
					c-10.22-20.19,35.95-29.95,58.06-50.84c50.66-47.87,109.27-130.09,122.51-145.35L1714.5,717.58z"/>
				<g>
					<path class="st3" d="M1581.28,744.33c-15.19,13.79-29.75,27.74-46.73,39.4c-18.63,12.8-38.7,21.98-58.9,31.85
						c-0.63,0.31-0.27,1.22,0.4,1.01c39.39-12.07,79.46-40.05,105.86-71.58C1582.56,744.25,1582.04,743.64,1581.28,744.33z"/>
					<path class="st3" d="M1614.62,770.71c-15.52,12.6-42.95,34.57-101.21,56.52c-0.19,0.07-0.13,0.42,0.09,0.37
						c39.72-9.22,72.57-28.13,101.72-56.15C1616.12,770.58,1615.65,769.87,1614.62,770.71z"/>
					<path class="st3" d="M1632.27,785.21c-27.21,20.42-46.95,29.85-79.77,43.87c-0.19,0.08-0.1,0.43,0.12,0.36
						c38.97-12.01,51.75-20.79,80.49-43.39C1634.09,785.27,1633.33,784.42,1632.27,785.21z"/>
				</g>
			</g>
		</g>
	</g>
	<path class="st8" d="M1734.93,733.38l-125.58-135.7l103.08-103.99c-14.3-57.07-42.85-171.18-46.8-212.12
		c-4.64-48.03,28.41-54.39,59.51-16.32c71.14,87.09,150.12,251.24,149.11,279.33C1872.8,584.83,1734.93,733.38,1734.93,733.38z"/>
	<g>
		<g>
			<path class="st3" d="M1788.69,672.47c29.63-37.29,62.26-73.9,81.88-117.63c5.18-12.39-0.67-25.02-4.62-37.01
				c-3.03-8.12-6.33-16.17-9.88-24.11c-29.21-63.43-64.52-123.8-98.62-184.71c38.1,58.66,74.04,118.96,102.52,182.99
				c3.46,8.06,6.83,16.18,9.65,24.52c3.78,12.29,9.19,26.66,3.62,39.29c-4.83,12.35-12.08,23.52-19.37,34.48
				C1834,619.13,1811.78,646.21,1788.69,672.47L1788.69,672.47z"/>
		</g>
		<g>
			<path class="st3" d="M1680.66,357.06c9.75,38.43,22.07,82.82,31.08,121.54c1.1,4.92,2.27,9.6,2.95,14.68
				c0.19,0.69-0.25,1.81-0.66,2.37c-23.38,26.91-52.54,52.79-78.24,77.63c0,0-26.39,24.27-26.39,24.27l0.01-0.32l3.13,3.87
				l-3.48-3.56l-0.15-0.15l0.16-0.17l25.07-25.62c24.46-25.39,53.09-52.14,76.01-78.41c0.21-0.44-0.13,0.44-0.03,0.53
				c-0.25-1.72-0.64-3.48-1.04-5.36C1699.73,445.49,1687.65,400.32,1680.66,357.06L1680.66,357.06z"/>
			<path class="st3" d="M1677.99,365.48c3.34,5.82,5.6,12.43,8.61,18.4C1682.19,378.64,1679.87,371.99,1677.99,365.48
				L1677.99,365.48z"/>
		</g>
		<path class="st3" d="M1711.66,650.64c-13.44-15.12-27-30.14-39.89-45.75c-7.32-8.87-14.69-17.7-21.92-26.64
			c-0.27-0.34,0.27-0.84,0.57-0.52c14.09,14.66,28.19,29.39,41.61,44.67c13.35,15.21,26.83,30.31,39.99,45.68
			c7.48,8.74,14.67,17.68,21.61,26.86c0.14,0.18-0.13,0.44-0.3,0.28C1738.74,681.01,1725.2,665.87,1711.66,650.64z"/>
	</g>
	<g>
		<g>
			<g>
				<g>
					<polygon class="st6" points="940.62,937.44 955.48,1026.57 1056.17,1632.98 1072.4,1632.98 999.18,1026.57 988.36,937.44 					
						"/>
				</g>
			</g>
			<polygon class="st7" points="988.36,937.44 940.62,937.44 955.48,1026.57 999.18,1026.57 			"/>
		</g>
		<g>
			<g>
				<g>
					<polygon class="st6" points="624.41,1632.98 640.64,1632.98 741.33,1026.57 756.2,937.44 708.45,937.44 697.63,1026.57 					
						"/>
				</g>
			</g>
			<polygon class="st7" points="708.45,937.44 697.63,1026.57 741.33,1026.57 756.2,937.44 			"/>
		</g>
		<g>
			<g>
				<g>
					<polygon class="st6" points="322.39,1632.98 338.62,1632.98 439.31,1026.57 454.17,937.44 406.43,937.44 395.61,1026.57 					
						"/>
				</g>
			</g>
			<polygon class="st7" points="395.61,1026.57 439.31,1026.57 454.17,937.44 406.43,937.44 			"/>
		</g>
		<polygon class="st6" points="348.13,979.32 1085.97,979.32 1085.97,901.57 809.76,901.57 716.93,361.48 376.26,361.48 		"/>
		<polygon class="st7" points="348.13,979.32 388.35,979.32 414.56,361.48 376.26,361.48 		"/>
	</g>
	<g>
		<g>
			<g>
				<path class="st4" d="M1116.45,1630.23c-14.02-0.33-380.71-135-391.14-148.65c-1.29-1.53,10.19-34.95,26.64-80.43l0.32-0.9
					c10.32-28.85,107.03-250.3,107.03-250.3l221.84,74.98l-81.19,226.25c0,0,42.09,38.7,77.81,74.94c0.03,0.07,0.09,0.09,0.07,0.14
					c22.08,22.27,41.02,42.17,44.81,48.34C1132.43,1590.7,1130.43,1630.66,1116.45,1630.23z"/>
				<path class="st3" d="M725.29,1481.6c10.43,13.62,377.17,148.3,391.18,148.63c13.93,0.46,15.94-39.53,6.14-55.6
					c-3.79-6.16-22.72-26.12-44.76-48.38c0,0-0.06-0.08-0.12-0.15c-13.68-13.87-28.27-28.14-41.15-40.39
					c43.53,52.66,65.45,126.28-279.36-96.13c-2.45,4.73-4.13,8.34-4.94,10.69l-0.34,0.91C735.52,1446.61,724,1480.04,725.29,1481.6z
					"/>
			</g>
			<g>
				<path class="st3" d="M1013.05,1439.51l-250.14-79.27c0,0,172.3-414.49,165.8-437.64c-4.34-15.47-305.43-19.54-383.07-99.65
					c-92.51-95.44-17.81-263.55-17.81-263.55l274.09,2.83c0,0-5.6,57.13,4.74,66.19c6.81,6.04,312.15,39.18,368.81,117.54
					C1258.1,860.24,1013.05,1439.51,1013.05,1439.51z"/>
				<g>
					<path class="st2" d="M1010.92,1376.97c-5.79-3.43-80.44-28.13-93.61-32.44c-26.51-8.67-106.97-35.82-108.89-35.5
						c-0.92,0.15-1.25,1.85-0.46,2.18c25.64,10.66,51.79,19.8,77.94,29.03c26.1,9.22,116.54,37.18,124.62,38.03
						C1011.3,1378.36,1011.73,1377.46,1010.92,1376.97z"/>
				</g>
				<path class="st2" d="M556.05,574.76c-20.81,60.95-34.28,135.65-3.46,195.28c10.09,20.22,29.99,32.18,49.82,41.53
					c40.61,18.45,84.52,28.75,128.07,37.93c65.74,13.53,132.43,21.84,198.76,32.16c16.77,3.08,33.65,4.57,49.74,10.96
					c1.62,0.8,3.42,1.99,4.1,3.88c1.51,4.68,0.45,9.11-0.09,13.63c-4.07,22.29-11.35,43.49-18.31,64.92
					c-36.3,105.95-79.05,209.54-122.24,312.81c41.21-104.01,82.55-208.1,118.33-314.11c6.8-21.12,14.03-42.51,17.94-64.3
					c0.55-3.68,1.23-7.91,0.3-11.33c-4.24-3.87-11.68-4.48-17.56-6.13c-10.85-2.32-21.9-4.09-32.93-5.83
					c-66.43-9.96-133.09-18.68-198.93-32.43c-43.83-9.42-87.93-19.73-128.75-38.87c-20.18-9.69-40.8-22.58-50.88-43.39
					C519.11,710.58,534.02,636.14,556.05,574.76L556.05,574.76z"/>
			</g>
		</g>
		<g>
			<g>
				<path class="st4" d="M907.62,1641.89c-14.02,0.1-384.59-123.51-395.43-136.84c-1.34-1.49,9.14-35.24,24.22-81.19l0.29-0.9
					c9.45-29.14,118.74-260.07,118.74-260.07l232.84,74.58L785.8,1466.43c0,0,43.23,37.42,80.03,72.57
					c0.04,0.07,0.09,0.09,0.07,0.14c22.73,21.6,42.27,40.92,46.24,46.97C922.41,1601.9,921.6,1641.9,907.62,1641.89z"/>
				<path class="st3" d="M537.97,1418.77c-0.46,1.67-0.91,3.06-1.27,4.16l-0.3,0.96c-15.07,45.97-25.57,79.66-24.2,81.17
					c10.83,13.34,381.4,136.95,395.43,136.8c14.03,0.04,14.83-39.97,4.52-55.7c-3.98-6.07-23.51-25.47-46.26-47.03
					c0.05-0.05-0.05-0.05-0.05-0.14c-15.7-14.96-32.46-30.32-46.61-42.99C867.93,1546.13,907.28,1629.98,537.97,1418.77z"/>
			</g>
			<g>
				<path class="st3" d="M810.93,1415.72l-240.01-84.08c0,0,208.06-418.04,192.92-432.81c-9.81-9.57-169.32-10.59-251.62-85.74
					C427.82,736.03,501.84,559,501.84,559l271.48,3.04c0,0,3.67,34.41-14.24,82.42c0,0,169.77,30.86,245.46,81.79
					c15.92,10.71,52.36,58.07,47.86,96.59C1029.78,1016.33,810.93,1415.72,810.93,1415.72z"/>
				<g>
					<path class="st2" d="M704.37,673.66c15.52-10.16,31.26-19.75,47.8-28.19c8.36-4.26,25.47-11.53,36.09-13.93
						c8.71-1.97,12.53-2.55,4.32,1.17c-4.69,2.13-13.69,6.24-22.05,10.06c1.57-0.03,3.12-0.05,4.62-0.1
						c5.85-0.21,11.71-0.32,17.57-0.38c11.44-0.12,22.9,0.13,34.35,0.24c23.24,0.22,46.2,2.78,69.35,4.3
						c0.61,0.04,0.58,0.99-0.04,0.96c-23.11-1.11-46.36-0.24-69.49-0.7c-11.46-0.22-22.9-0.08-34.36-0.04
						c-5.59,0.02-11.19,0.04-16.79,0.04c-4.62,0-9.54,0.3-14.22-0.2c-2.5,1.14-4.78,2.18-6.43,2.92
						c-16.95,7.68-33.88,15.7-50.23,24.58C704.38,674.65,703.89,673.98,704.37,673.66z"/>
					<path class="st2" d="M783.83,552.41c-3.24,14-6.05,28.09-9.79,41.98c-1.71,6.37-3.4,12.84-5.68,19.03
						c-1.93,5.22-4.88,11.2-10.86,12.47c-6.9,1.46-8.98-4.43-8.52-10.15c0.51-6.39,2.03-12.81,3.17-19.11
						c1.32-7.26,2.66-14.52,3.84-21.8c0.59-3.64,1.21-7.28,1.76-10.93c0.14-0.92,0.69-7.89,1.15-9.89c0.06,0.17,0.17,0.33,0.39,0.29
						c0.08-0.01,0.16-0.03,0.24-0.04c0.19-0.03,0.39-0.16,0.42-0.37c0.06-0.55,0.05-0.66-0.37-1.04c-0.18-0.16-0.43-0.15-0.63-0.04
						c-1.31,0.75-1.37,2.57-1.78,3.91c-1.06,3.55-2.14,7.09-3.11,10.66c-1.81,6.68-3.57,13.39-5.14,20.13
						c-1.57,6.74-3.09,13.49-4.62,20.24c-1.15,5.05-2.52,10.37-1.07,15.5c1.59,5.61,6.14,8.37,11.1,8.71
						c-0.23,0.46-0.51,0.9-0.71,1.37c-0.58,1.38-1,2.85-1.49,4.27c-0.5,1.45-0.96,2.9-1.35,4.38c-0.18,0.7-0.3,1.43-0.36,2.16
						c-0.07,0.81,0.1,1.59,0.02,2.41c-0.14,1.25,1.57,1.98,2.17,0.74c0.35-0.72,0.87-1.28,1.27-1.97c0.41-0.73,0.7-1.56,0.96-2.35
						c0.45-1.4,0.82-2.8,1.15-4.23c0.32-1.41,0.73-2.84,0.97-4.27c0.14-0.85,0.16-1.71,0.21-2.57c2.82-0.34,5.64-1.36,7.98-3.2
						c4.1-3.22,6.44-8.06,8.09-12.88c2-5.84,3.52-11.87,5.04-17.85c3.77-14.79,6.94-29.81,8.07-45.06
						C786.48,551.3,784.21,550.75,783.83,552.41z"/>
					<path class="st2" d="M639.69,590.17c-1.14,6.94-1.81,13.94-3.28,20.82c-1.44,6.74-3.14,13.48-5.23,20.04
						c-2,6.28-4.49,12.62-8.17,18.12c-3.57,5.33-8.34,9.96-13.27,14.02c-9.68,7.97-20.67,14.37-32.4,18.81
						c-5.9,2.24-11.95,4.16-18.09,5.66c-3.2,0.78-6.43,1.4-9.69,1.88c-2.71,0.4-5.39,0.55-7.79,1.96c-1.03,0.6-0.82,2.23,0.2,2.71
						c4.2,1.97,10.04,0.74,14.48,0.2c5.2-0.63,10.36-1.6,15.41-3c10.18-2.8,20.03-7.29,29-12.85c8.81-5.46,17.65-12.23,24.07-20.43
						c6.66-8.5,10.29-18.41,12.55-28.88c2.7-12.54,4.47-26.14,3.55-38.97C640.98,589.5,639.82,589.4,639.69,590.17z"/>
				</g>
				<g>
					<path class="st2" d="M817.08,1355.8c-5.79-3.43-80.44-28.13-93.61-32.44c-26.51-8.67-106.97-35.82-108.89-35.5
						c-0.92,0.15-1.25,1.85-0.46,2.18c25.64,10.66,51.79,19.8,77.94,29.03c26.1,9.22,116.54,37.18,124.62,38.03
						C817.47,1357.19,817.9,1356.29,817.08,1355.8z"/>
				</g>
				<path class="st2" d="M521.99,570.93c-19.03,61.46-33.58,145.5,5.2,201.79c29.13,37.22,88.07,50.22,132.23,61.14
					c38.87,8.88,78.37,14.51,117.58,22.96c12.12,3.2,25.56,5.19,35.99,13.17c31.23,32.45-144.11,352.2-171.71,404.28
					c36.76-70.89,72.45-142.36,106.15-214.75c12.44-29.2,78.68-164.5,62.47-186.13c-9.65-7.04-22.29-8.95-33.94-11.95
					c-38.87-8.41-78.5-14.31-117.5-23.34c-45.51-11.48-104.06-24.39-133.98-63.44C485.36,716.44,501.42,633.41,521.99,570.93
					L521.99,570.93z"/>
				<path class="st2" d="M830.02,1385.08l-4.14-2.36c125.78-220.3,218.38-488.81,224.43-569.74c2.36-31.6-32.01-78.86-62.05-96.91
					c-51.96-31.23-227.9-68.9-229.67-69.28l0.99-4.66c7.26,1.55,178.5,38.21,231.14,69.85c31.18,18.74,66.83,68.13,64.35,101.35
					C1048.98,894.68,956.12,1164.21,830.02,1385.08z"/>
			</g>
		</g>
	</g>
	<path class="st3" d="M781.67,233.08c7.5,1.49,15.61-1.16,20.33-7.34c4.64-6.08,5.16-14.47,1.9-21.26
		c8.12,1.06,16.46-1.78,20.14-9.91c3.81-8.42,0.13-17.35-7.33-22.18c-0.05-0.03-0.12,0.05-0.07,0.09c6.3,5.12,9.69,13.69,6.08,21.42
		c-3.09,6.6-9.04,9.08-15.45,9.19c5.65-2.21,10.66-6.17,12.96-11.93c2.51-6.32,1.12-13.9-3.81-18.56
		c5.45-5.49,9.35-13.24,8.07-21.13c-1.07-6.64-5.9-12.44-12.43-14.02c4.24-6.4,4.54-15.2,0.13-21.65
		c-4.13-6.07-11.58-9.08-18.72-8.18c5.67-10.11-1.17-22.94-12.89-23.77c1.42-3.93,0.07-8.36-2.97-11.29
		c-3.49-3.4-8.51-4.22-13.25-4.14c-1.09-4.17-4.08-7.83-8.3-9.18c-5.64-1.8-11.37,0.96-13.97,5.97c-6.35-4.41-13.85-8.3-21.77-7.31
		c-6.51,0.82-12.8,5.08-14.5,11.57c-12.41-6.36-27.47-0.54-32.4,12.55c-5.68-1.12-11.52,1.17-15.33,5.56
		c-3.84,4.41-5.13,8.32-5.56,10.23c-5.18-0.61-10.19,2.39-12.37,7.13c-2.15,4.67-1.3,9.42,0.69,13.81c-0.18,1.3-0.59,2.5-1.45,3.85
		c-3.89,6.11-4.65,13.31-1.84,19.99c-6.66,5.34-6.88,16.14-0.45,21.73c-4.83,7.23-2.5,17.78,4.88,22.34
		c-3.16,6.07-3.7,13.3-1.14,19.71c1.96,4.91,6.27,9.55,11.71,9.53c-1.6,3.85,1.3,8.15,4.94,9.91c1.38,0.67,2.88,1.09,4.36,1.43
		c1.77,0.4,4.14,0.44,5.69,1.46c1.61,1.04,2.19,3.19,3.15,4.73c0.69,1.11,1.51,2.15,2.42,3.09c6.92,7.1,18.65,8.37,26.82,2.89
		c3.75,5.96,11.34,7.22,17.96,6.23c2.18-0.33,4.21-0.99,6.29-1.69c1.92-0.65,3.63-1.09,5.68-0.57c1.24,0.32,2.39,0.92,3.63,1.26
		c4.21,1.12,8.01-0.6,11.56-2.72C755.7,257.49,777.38,249.79,781.67,233.08z M640.8,107.76c1.57-5.45,6.06-8.84,11.6-9.37
		c-0.07,0.4-0.1,0.66-0.1,0.66s-1.67,0.62-2.45,1.01c-1.41,0.73-2.7,1.67-3.84,2.78c-2.37,2.3-4.08,5.31-4.76,8.54
		c-0.31,1.45-0.35,2.92-0.29,4.39c0.01,0.2,0,0.36,0,0.55C640.24,113.55,639.94,110.74,640.8,107.76z M757.08,63.49
		c-4.66-2.21-10.44-1.3-14.04,2.38c-0.11-0.08-0.23-0.16-0.34-0.23c3.15-4.29,7.22-7.33,13.05-5.35c4.08,1.38,6.13,4.54,7.06,8.19
		c-0.03,0-0.05,0-0.08,0C761.36,66.37,759.49,64.62,757.08,63.49z M745.77,241.53c0.05-0.03,0.11-0.06,0.16-0.1
		c9.61,8.13,23.33,6.61,31.15-2.05C769.12,249.55,756.34,253.72,745.77,241.53z"/>
	<g>
		<g>
			<path class="st9" d="M807.71,616.98l8.95-136.73c0,0,34.77-21.22,37.15-58.71c1.82-28.73-47.99-151.82-65.36-180.2
				c-17.82-29.1-57.09-35.14-88.99-8.33c-81.48,68.46-150.21,193.97-206.02,339.62L807.71,616.98z"/>
		</g>
		<g>
			<g>
				<polygon class="st1" points="808.85,622.88 482.2,576.98 502.35,539.22 810.08,582.46 				"/>
			</g>
			<g class="st26">
				<polygon class="st27" points="808.85,622.88 482.2,576.98 502.35,539.22 810.08,582.46 				"/>
			</g>
			<path class="st7" d="M799.85,626.5l-87.05-10.93l6.59-52.53l87.05,10.93L799.85,626.5z M725.12,606.01l65.16,8.17l3.84-30.63
				l-65.15-8.17L725.12,606.01z"/>
		</g>
		<g>
			<path class="st3" d="M780.88,459.83c-13.53-0.39-27.16-0.32-40.62,1.3c-6.69,0.81-13.31,1.92-19.93,3.17
				c-3.3,0.62-6.6,1.14-9.92,1.64c-3.41,0.51-7.05,0.93-10.5,0.58c-0.31-0.03-0.36,0.43-0.06,0.48c3.33,0.53,6.51,1.03,9.89,1.12
				c3.21,0.08,6.45-0.18,9.64-0.53c6.8-0.75,13.55-1.82,20.34-2.64c13.7-1.66,27.39-3.31,41.17-3.98
				C781.54,460.93,781.52,459.85,780.88,459.83z"/>
			<path class="st3" d="M812.41,476.05c-10.83-2.56-21.95-4.65-33-5.97c-5.56-0.67-11.11-1-16.71-1.2
				c-2.67-0.09-5.34-0.14-8.02-0.15c-2.94-0.01-5.89,0.37-8.83,0.31c-0.31-0.01-0.37,0.47-0.06,0.48c2.77,0.14,5.53,0.73,8.29,1.03
				c2.77,0.3,5.54,0.58,8.32,0.87c5.55,0.6,11.09,1.25,16.64,1.79c11.12,1.08,22.18,2.28,33.26,3.75
				C812.9,477.05,812.97,476.19,812.41,476.05z"/>
		</g>
	</g>
	<path class="st5" d="M305.05,1042.82l295.44,69.27c0,0,137.78-667.45,142.56-737.68c3.45-50.77-11.36-157.41-11.36-157.41
		s-36.02-5.7-130.78,116.68C412.01,577.65,305.05,1042.82,305.05,1042.82z"/>
	<path class="st6" d="M445.22,821.2c-8.16,41.69-13.98,89.42-6.48,99.59c14.04,19.05,58.73,24.93,72.68,27.1
		c13.85,2.15,63.81,10.26,79.69-13.5c7-10.49,17.93-68.76,21.17-89.49c1.32-8.41,6.18-50.09,6.31-54.82
		c0.03-1.12-2.95-1.48-3.18-0.77c-1.48,4.62-3.83,21.86-4.61,25.09c-81.86-2.8-130.09-19.52-155-28.69
		c1.28-7.73,2.25-13.75,3.38-21.51c10.57,4.57,46.96,15.06,74.77,19.6c27.8,4.54,70.33,7.22,84.25,7.69
		c0.65,0.02,0.68-3.14-0.28-3.28c-10.46-1.56-47.27-3.93-83.74-9.89c-35.29-5.76-76.86-18.8-76.99-18.82
		C455.94,759.67,449.13,801.22,445.22,821.2z M444.39,916.8c-7.19-11.61-3.49-41.06-0.63-58.53c3.95-24.11,7.18-43.35,11.2-67.44
		c59.38,24.44,128.47,28.48,155.08,27.47c-0.24,1.02-8.01,51.97-11.12,68.09c-3.98,20.59-7.71,39.2-17.4,48.65
		c-8.32,8.11-29.04,14.22-73.21,6.95C476.36,936.72,450.4,926.51,444.39,916.8z"/>
	<path class="st6" d="M730.09,217.78c-2.58,8.5-5.09,17.04-7.6,25.59l-7.5,25.66c-4.97,17.13-9.86,34.32-14.71,51.53l-0.44,1.56
		l0.75,1.12c5.09,7.63,10.23,15.18,15.38,22.69l-0.12-3.6l-16.77,33.84l-0.55,1.12l0.24,1.34c3.53,19.32,7.19,38.58,10.9,57.79
		c1.87,9.6,3.74,19.2,5.68,28.75c1.96,9.55,3.85,19.13,5.89,28.63c-1.47-9.84-3.09-19.6-4.64-29.39c-1.57-9.78-3.2-19.53-4.84-29.27
		c-3.3-19.47-6.67-38.89-10.15-58.25l-0.31,2.46l16.8-33.81l0.99-2l-1.11-1.61c-5.17-7.48-10.36-14.91-15.59-22.27l0.31,2.68
		c4.68-17.34,9.32-34.72,13.89-52.14l6.8-26.18C725.64,235.3,727.9,226.56,730.09,217.78z"/>
	<g>
		<path class="st5" d="M782.45,232.61l28.71,111.45l-6.34,280.08c0,0,1.51,3.91,2.54,4.79c1.65,1.4,8.2,2.78,8.2,2.78
			s2.56-145.61,3.21-148.11c0.65-2.5,41.72-32.91,39.41-72.15C855.41,364.3,794.33,238.31,782.45,232.61z"/>
		<path class="st6" d="M790.99,250.29c2.91,7.47,5.94,14.9,8.97,22.32c3.02,7.43,6.03,14.86,9.15,22.24
			c6.16,14.8,12.46,29.55,18.83,44.26l0.68-2.78c-7.15,5.53-17.25,18.52-17.25,18.52l12.62,34.53l-0.26-1.6
			c-2.9,18.59-5.57,37.22-8.13,55.87c-1.26,9.33-2.51,18.65-3.64,28c-1.09,9.35-2.31,18.68-3.25,28.06c2-9.21,3.73-18.47,5.57-27.7
			c1.81-9.24,3.51-18.5,5.19-27.76c3.33-18.53,6.54-37.07,9.52-55.66l0.14-0.84l-0.4-0.76l-11.61-31.06c0,0,7.64-10.13,14.56-15.94
			l1.41-1.18l-0.73-1.6c-6.68-14.58-13.45-29.12-20.34-43.61c-3.41-7.26-6.92-14.47-10.43-21.69
			C798.1,264.68,794.6,257.46,790.99,250.29z"/>
	</g>
	<g>
		<g>
			<path class="st4" d="M739.32,227.29c0.04,6.3,19.76,51.6,47.4,56.52c9,1.59,19.89-47.14,19.89-47.14l1.63-3.41l22.73-47.8
				l-50.55-51.4l-7.41-6.97c0,0-5.36,13.49-11.86,30.35c-0.31,0.78-0.61,1.56-0.93,2.4c-0.39,0.94-0.77,1.83-1.1,2.73
				c-1,2.51-2.02,5.07-2.98,7.64c-0.74,1.96-1.46,3.85-2.16,5.94c-0.75,2.07-1.44,4.1-2.2,6.17
				C744.8,202.9,739.34,224.62,739.32,227.29z"/>
			<path class="st3" d="M761.15,157.44c5.31,43.36,33.63,66.98,47.09,75.82l22.73-47.8l-50.55-51.4l-7.41-6.97
				C773.01,127.09,767.66,140.58,761.15,157.44z"/>
		</g>
		<g>
			<path class="st4" d="M922.3,130.6c-11.75,92.13-68.3,95.52-88.18,92.97c-18.04-2.31-79.19-12.49-77.03-105.34
				c2.17-92.85,48.75-116.53,90.3-113.42C888.94,7.93,934.05,38.47,922.3,130.6z"/>
			<g>
				<path class="st3" d="M907.08,114.42c-2.09-0.67-3.9-1.64-5.9-2.52c-2.25-0.99-4.15-1.55-5.53-3.72
					c-0.74-1.16-0.27-3.13,0.79-3.95c2.48-1.92,5.54-1.39,8.3-0.3c3,1.18,5,2.85,6.58,5.65
					C912.85,112.28,909.83,115.31,907.08,114.42z"/>
				<path class="st3" d="M846.08,103.84c2.19,0.18,4.24-0.02,6.42-0.07c2.46-0.05,4.43,0.15,6.53-1.32
					c1.13-0.79,1.45-2.79,0.78-3.96c-1.55-2.72-4.58-3.4-7.55-3.45c-3.22-0.06-5.72,0.72-8.25,2.7
					C841.56,99.65,843.19,103.6,846.08,103.84z"/>
				<g>
					<g>
						<path class="st3" d="M850.48,121.52c-9.89-2.51-14.2,17.45-5.03,19.77C854.47,143.58,858.77,123.63,850.48,121.52z"/>
					</g>
				</g>
				<g>
					<g>
						<path class="st3" d="M898.03,129.08c10.19,0.62,8.2,20.94-1.23,20.37C887.51,148.88,889.5,128.56,898.03,129.08z"/>
					</g>
				</g>
			</g>
			<g>
				<g>
					<path class="st3" d="M756.16,128.78c17.11,6.14,30.6-33.19,30.6-33.19s77.85,3.98,97.81-55.69c0,0,4.19,41.8,39.56,68.17
						c0,0,12.28-67.55-37.92-92.38c0,0-60.55-38.64-109.23,5.39C728.32,65.12,744.67,124.65,756.16,128.78z"/>
				</g>
				<path class="st3" d="M885.84,35.44c-1.07,9.54-4.56,18.8-9.55,27.14c-4.99,8.34-11.63,15.85-19.65,21.52
					c-1.89,1.58-4.14,2.61-6.19,3.94l-3.15,1.88c-1.1,0.54-2.22,1.02-3.34,1.51c-2.25,0.94-4.47,1.98-6.74,2.83
					c-2.33,0.71-4.68,1.36-7.02,1.99c-1.17,0.31-2.33,0.67-3.51,0.92l-3.59,0.54l-7.16,1.07c-4.81,0.25-9.63,0.26-14.39,0.2
					c4.73-0.92,9.46-1.35,14.09-2.31l6.88-1.64l3.43-0.81c1.12-0.35,2.21-0.79,3.32-1.18c2.2-0.81,4.4-1.6,6.61-2.34
					c2.14-0.91,4.21-2,6.31-2.98l3.14-1.5l2.96-1.83c1.92-1.29,4.05-2.29,5.81-3.81c7.65-5.27,13.96-12.25,19.4-19.8
					c2.71-3.81,5.05-7.89,7.11-12.13C882.74,44.43,884.44,40.01,885.84,35.44z"/>
			</g>
			<g>
				<path class="st2" d="M885.75,136.5c2.66-16.37,13.64-28.26,24.47-26.5c10.83,1.76,17.48,16.52,14.82,32.89
					c-2.66,16.38-13.65,28.26-24.48,26.5C889.74,167.63,883.09,152.87,885.75,136.5z M889.73,137.15
					c-2.31,14.18,2.84,26.86,11.48,28.26c8.64,1.4,17.54-8.99,19.85-23.17c2.31-14.18-2.85-26.86-11.49-28.26
					C900.94,112.57,892.04,122.96,889.73,137.15z"/>
				<path class="st2" d="M815.12,124.62c2.66-16.37,17.27-27.67,32.56-25.19c15.29,2.49,25.56,17.83,22.9,34.21
					c-2.66,16.38-17.27,27.67-32.56,25.19C822.73,156.34,812.45,141,815.12,124.62z M819.1,125.27
					c-2.31,14.18,6.47,27.45,19.57,29.57c13.09,2.13,25.62-7.67,27.93-21.85c2.31-14.18-6.47-27.45-19.57-29.58
					C833.93,101.28,821.4,111.09,819.1,125.27z"/>
				<path class="st2" d="M868.98,131.1c13.34-3.07,18.22,2.6,18.26,2.66l2.57-2.73c-0.23-0.3-5.96-7.33-21.34-3.79L868.98,131.1z"/>
				<path class="st2" d="M815.93,122.4l0.88-3.86c-2.91-0.51-47.68-10.12-55.12-10.59c-7.84-0.59-26.19,8.23-28.26,9.23l2.16,3.46
					c5.21-2.5,19.71-8.85,25.47-8.77c0.11,0,0.22,0.01,0.33,0.01C767.11,112.23,791.49,118.08,815.93,122.4z"/>
			</g>
			<g>
				<g>
					<path class="st4" d="M781.76,123.21c0,0-13.68-32.62-28.08-28.34c-14.4,4.28-8.39,48.58,5.49,57.47
						c13.88,8.88,22.37-3.8,22.37-3.8L781.76,123.21z"/>
				</g>
			</g>
		</g>
	</g>
	<path class="st4" d="M688.3,289.76c18.79,99.57,73.6,257.27,101.12,280.76c24.37,20.8,152.1,17.5,208.57,11.34
		c21.13-2.31-4.87-164.23-27.41-161.31c-27.04,3.5-107.31,11.02-112.43,5.99c-5.63-5.53-62.89-96.19-111.31-160.37
		C702.94,207.98,681.19,252.09,688.3,289.76z"/>
	<path class="st4" d="M1042.76,405.61c49.58-3.27,62.81,3.5,103.18-21.49c26.49-16.39,48.33-6.51,31.87,21.4
		c-26.93,45.65-90,63.31-113.63,63.13L1042.76,405.61z"/>
	<g>
		<path class="st4" d="M908.96,443.4c0,0,57.37-26.62,109.86-35.34c36.3-6.03,116.73-10.33,187.27,73.83
			c16.73,19.96,26.42,60.28-12.75,37.6c-27.82-16.11-40.6-34.74-58.49-41.16c0,0,6.23,52.74-14.42,68.72
			c-9.23,7.14-34.88,26.05-56.95,37.92c0,0-3.88-4.11-8.05-10.02c0,0-20.7,13.11-57.44,6.9L908.96,443.4z"/>
	</g>
	<g>
		<path class="st4" d="M1054.38,407.84c16.41,10.13,50.83,32.18,72.71,60.02c24.3,30.92,62.79,97.02,39.78,114.73
			c-16.87,12.98-33.78-10.96-33.78-10.96s10.15,30.68-7.66,39.07c-16.22,7.65-28.2-11.66-28.2-11.66s2.96,19.67-14.09,24.03
			c-20.51,5.24-23.34-36.83-48.69-49.47C1028.76,570.75,1054.38,407.84,1054.38,407.84z"/>
		<g>
			<g>
				<path class="st3" d="M1090.14,488.09c13.87,12.06,38.34,47.52,43.27,82.78c0.11,0.8-0.43,1.31-0.69,0.6
					c-13.66-37.66-33.59-69.96-42.87-83.15C1089.72,488.14,1089.98,487.95,1090.14,488.09z"/>
			</g>
			<g>
				<path class="st3" d="M1059.64,513.53c10.9,11.63,34.49,49.32,38.25,85.21c0.08,0.8-0.5,1.28-0.72,0.56
					c-12.66-39.94-29.36-71.83-37.84-85.56C1059.23,513.56,1059.5,513.38,1059.64,513.53z"/>
			</g>
		</g>
	</g>
	<path class="st3" d="M1133.8,423.78c17.59,9.19,34.4,20.1,49.6,33.03c14.85,13.26,29.82,27.72,37.03,46.84
		c3.91,9.79,3.46,25.91-11.09,24.3c-10.46-1.5-18.96-7.73-27.03-13.9c-15.49-12.46-30.63-25.36-48.16-34.33l1.97-2.29
		c10.63,15.53,20.02,31.84,27.89,48.91c5.6,12.78,11.07,26.46,10.55,40.66c-0.26,4.67-1.71,9.49-5,12.89
		c6.31-7.39,4.72-17.97,2.6-26.68c-8.3-28.86-25.22-54.49-42.09-79.02c0,0,5.47,2.75,5.47,2.75c22.76,10.97,40.14,29.29,60.97,42.65
		c16.42,9.97,27.6,5.12,20.93-14.92c-3.07-9.16-8.92-17.24-14.99-24.93C1183.59,456.84,1159.38,438.71,1133.8,423.78L1133.8,423.78z
		"/>
	<g>
		<path class="st5" d="M982.49,608.44l-17.03-192.17l-103.91,5.37c-34.13-51.02-94.05-137.12-122.95-168.85
			c-33.91-37.23-61.97-16.12-54.29,34.6c17.55,116.02,80.85,276.16,103.29,295.06C819.75,609.52,982.49,608.44,982.49,608.44z"/>
		<g>
			<path class="st3" d="M949.05,587.46c-3.25-11.64-8.54-61.3-9.73-73.69c-1.16-12.13-4.24-62.22-5.42-74.95
				c-0.06-0.69,0.9-0.99,0.98-0.29c1.37,12.58,8.35,62.24,9.65,74.61c1.3,12.4,5.99,61.99,5.16,74.23
				C949.67,587.79,949.15,587.84,949.05,587.46z"/>
			<g>
				<path class="st3" d="M912.95,606.57c-16.82-0.98-33.62-2.43-50.37-4.34c-24.78-3.69-51.44-5.03-73.78-17.44
					c-18.95-17.56-27.49-42.87-38.08-65.68c-25.84-62.35-45.86-126.91-63.53-191.98c20.63,64.09,41.31,128.3,66.59,190.7
					c10.19,22.26,18.63,47.84,36.3,65.17c21.88,12.26,48.21,14.06,72.63,18.23C879.39,603.47,896.15,605.26,912.95,606.57
					L912.95,606.57z"/>
				<path class="st3" d="M695.14,354.87c-3.76-5.12-7.29-10.7-8.61-16.98C689.3,343.51,692.82,349.01,695.14,354.87L695.14,354.87z"
					/>
			</g>
			<g>
				<path class="st3" d="M776.32,300.09c29.5,38.67,54.66,80.54,84.28,119.09c0.97,0.94,0.92,1.49,2.47,1.47
					c13.06,0.24,26.23-0.76,39.31-1.34c0,0,63.08-3.14,63.08-3.14l0.09,0l0.01,0.09l0.34,4.87l-0.52-4.85l0.1,0.09
					c-31.48,2.8-62.96,5.37-94.56,6.55c-3.58-0.22-7.1,0.89-10.51-0.65c-18.24-21.74-32.87-46.36-48.97-69.69
					C801.16,337.31,787,314.81,776.32,300.09L776.32,300.09z"/>
				<path class="st3" d="M786.54,307.05c3.15,5.55,6.01,11.51,6.59,17.93C791.03,319.05,788.17,313.16,786.54,307.05L786.54,307.05z
					"/>
			</g>
		</g>
	</g>
	<path class="st8" d="M1643.65,390.37c0,0,61.89-74.32,106.61-77.36l41.26,29.7c0,0,12.84,2.8,15.87-5.46
		c7.51-20.43,4.58-67.69-39.03-94.1c-39.94-24.18-100.43-15.89-149.7,2.64c-47.32,17.8-86.21,54.39-68.04,84.59
		C1568.78,360.58,1643.65,390.37,1643.65,390.37z"/>
	<path class="st14" d="M1637.24,375.96c0,0-59.86-34.11-68.04-57.17c-8.18-23.06,36.79-50.44,66.43-62.41
		c45.86-18.52,78.36-18.79,107.43,3.73C1772.12,282.63,1637.24,375.96,1637.24,375.96z"/>
	<g>
		<g>
			<path class="st12" d="M1639.09,365.49c17.82-0.73,51.86-37.08,63.84-66.28c0.81-2.01-4.3-21.57-9.39-45.63
				c-3.03-14.61-6.06-30.96-7.75-46.07l-92.22,33.62c0,0,12.86,30.64,15.64,57.01c0.21,2.21,0.22,4.28,0.04,6.28
				c0,0.29-0.04,0.64-0.02,1.04C1608.62,317.45,1611.18,366.63,1639.09,365.49z"/>
		</g>
		<path class="st3" d="M1609.26,304.41c0,0.29-0.08,0.61-0.05,1.04c3.05,0.08,6.25-0.09,9.82-0.58
			c53.75-7.25,59.61-74.4,60.08-94.95l-85.59,31.17c0,0,12.87,30.64,15.71,57.04C1609.39,300.32,1609.44,302.38,1609.26,304.41z"/>
	</g>
	<g>
		<path class="st12" d="M1678.56,98.91c14.92,32.06,10.81,131.3-9.99,156.22c-30.15,36.12-86.27,47.04-118.67,9.26
			c-31.4-36.63-23.76-165.86,0.1-189.2C1585.15,40.81,1656.52,51.56,1678.56,98.91z"/>
	</g>
	<g>
		<path class="st28" d="M1607.61,161.95c-2.93-0.77-5.51-1.97-8.34-3.03c-3.18-1.2-5.85-1.82-7.91-4.71
			c-1.11-1.55-0.61-4.3,0.79-5.52c3.27-2.84,7.53-2.34,11.43-1.06c4.22,1.4,7.12,3.55,9.51,7.29
			C1615.41,158.56,1611.48,162.97,1607.61,161.95z"/>
		<path class="st28" d="M1539.98,161.89c3-0.46,5.69-1.38,8.6-2.14c3.29-0.86,6-1.2,8.36-3.86c1.27-1.42,1.06-4.21-0.21-5.57
			c-2.95-3.16-7.25-3.11-11.25-2.24c-4.35,0.94-7.46,2.78-10.22,6.26C1532.58,157.7,1536.03,162.49,1539.98,161.89z"/>
		<g>
			<g>
				<path class="st3" d="M1598.03,171.04c10.67-1.04,11.96,20.38,2.07,21.34C1590.37,193.32,1589.08,171.91,1598.03,171.04z"/>
			</g>
		</g>
		<g>
			<g>
				<path class="st3" d="M1547.09,171.34c-10.72-0.09-10.1,21.36-0.17,21.44C1556.69,192.85,1556.08,171.41,1547.09,171.34z"/>
			</g>
		</g>
	</g>
	<path class="st28" d="M1533.65,115.53c3.6-8.79,7.77-17.65,12.98-19.48c5.21-1.83,8.02,14.52,19.97,15.1
		c16.13,0.78,25.61-18.44,48.19-17.76c27.99,0.84,42.71,21.15,44.37,67.06c1.48,41,25.07,45.95,25.07,45.95s17.79-91.61-8.28-121.07
		c-26.08-29.46-84.81-41.56-123.55-12.23C1538.29,83.8,1533.65,115.53,1533.65,115.53z"/>
	<g>
		<path class="st12" d="M1668.94,180.67c0,0,18.17-34,33.35-27.88c15.17,6.11,4.13,53.57-11.84,61.79
			c-15.97,8.22-23.87-6.41-23.87-6.41L1668.94,180.67z"/>
	</g>
	<path class="st8" d="M1637.24,375.96c0,0,45.59-98.99,113.51-115.27l-0.49,52.33c0,0-41.08,4.31-106.61,77.36L1637.24,375.96z"/>
	<g>
		<path class="st3" d="M1768.92,312.06c-12.77-0.27-25.01,3.8-36.45,8.74c-11.52,5-22.17,11.77-32.23,19.25
			c-10.17,7.35-19.51,15.81-28.64,24.45l-13.16,13.55l-12.55,14.17l-1.41,1.59l-1.83-0.71c-13.61-5.3-26.7-11.51-39.41-18.58
			c-6.33-3.56-12.61-7.22-18.48-11.52c-5.89-4.24-30.4-22.75-36.56-37.45c9.58,13.87,43.98,39.21,56.81,45.56
			c6.44,3.14,13.03,5.99,19.65,8.72c6.62,2.72,13.29,5.45,19.97,7.81l-3.23,0.88l12.52-14.58c4.36-4.69,8.85-9.29,13.35-13.87
			c4.76-4.32,9.43-8.73,14.35-12.87c5.07-3.97,9.99-8.12,15.42-11.62c10.5-7.45,22.03-13.52,34.09-18.06
			c2.99-1.19,6.12-2.06,9.19-3.01c3.14-0.73,6.27-1.53,9.45-2C1756.1,311.42,1762.62,310.96,1768.92,312.06z"/>
		<path class="st3" d="M1791.52,342.72c-7.58-3.97-14.63-8.69-21.54-13.59c-6.84-5-13.56-10.17-19.72-16.12
			c7.59,3.96,14.63,8.68,21.54,13.59C1778.64,331.6,1785.35,336.78,1791.52,342.72z"/>
	</g>
	<g>
		<g>
			<path class="st6" d="M1663.55,356.44c0,0,8.25,26.12,12.71,64.62c1.76,15.24,1.06,70.56-16.1,70.18
				c-17.16-0.38,7.15-38.33,9.28-67.68c2.16-29.79-7.59-49.77-10.25-66.97L1663.55,356.44z"/>
		</g>
	</g>
	<g>
		<g>
			<path class="st6" d="M1603.62,365.14c0,0-5.2,29.6-6.64,64.71c-0.57,13.9,3.78,63.88,19.28,62.39
				c15.49-1.49-9.04-34.19-12.94-60.58c-3.95-26.8,3.01-50.94,4.26-66.67L1603.62,365.14z"/>
		</g>
	</g>
	<g>
		<g>
			<path class="st1" d="M1362.21,547.25c0.15-35.03,43.42-51.08,63.18-51.88c19.76-0.8,48.29,8.9,50.94,26.15
				c2.65,17.25-6.95,70.21-11.67,80.24c-4.72,10.03-10.21,19.35-11.43,27.77c-1.22,8.43,0.26,37.67-5.12,41.79
				c-5.38,4.12-48.61,13.46-58.16,11.58c-9.56-1.88-11.92-14.55-1.75-21.67c10.17-7.12,16.7-5.47,21.8-10.47
				c3.05-2.99-0.87-20.59-2.37-24.9C1406.11,621.56,1361.96,602.25,1362.21,547.25z"/>
			<path class="st14" d="M1362.21,547.25c0.15-35.03,43.42-51.08,63.18-51.88c19.76-0.8,48.29,8.9,50.94,26.15
				c2.65,17.25-6.95,70.21-11.67,80.24c-4.72,10.03-10.21,19.35-11.43,27.77c-1.22,8.43,0.26,37.67-5.12,41.79
				c-5.38,4.12-48.61,13.46-58.16,11.58c-9.56-1.88-11.92-14.55-1.75-21.67c10.17-7.12,16.7-5.47,21.8-10.47
				c3.05-2.99-0.87-20.59-2.37-24.9C1406.11,621.56,1361.96,602.25,1362.21,547.25z"/>
		</g>
		<g>
			<path class="st1" d="M1285.42,193.7c-1.83-6.27,9.52-16.17-4.32-34.9c-13.84-18.73-24.64-23.86-23.6-26.16
				c1.04-2.3,41.41,6.62,56.05,25.84c14.64,19.22,9.94,36.5,8.96,38.1C1321.53,198.19,1286.17,196.27,1285.42,193.7z"/>
			<path class="st14" d="M1285.42,193.7c-1.83-6.27,9.52-16.17-4.32-34.9c-13.84-18.73-24.64-23.86-23.6-26.16
				c1.04-2.3,41.41,6.62,56.05,25.84c14.64,19.22,9.94,36.5,8.96,38.1C1321.53,198.19,1286.17,196.27,1285.42,193.7z"/>
		</g>
		<g>
			<path class="st1" d="M1293.6,297.41c0,0-49.86-61.45-63.16-68.85c-13.3-7.4-59.02-12.43-64.54-5.1
				c-5.52,7.33,4.63,24.84,9.94,29.02c5.32,4.18,37.86,9.55,40.81,10.96c1.69,0.81,1.23,41.87,20.23,76.16
				c14.13,25.48,30.98,42.1,32.54,42.73C1273.08,383.79,1291.53,302.51,1293.6,297.41z"/>
			<path class="st14" d="M1293.6,297.41c0,0-49.86-61.45-63.16-68.85c-13.3-7.4-59.02-12.43-64.54-5.1
				c-5.52,7.33,4.63,24.84,9.94,29.02c5.32,4.18,37.86,9.55,40.81,10.96c1.69,0.81,1.23,41.87,20.23,76.16
				c14.13,25.48,30.98,42.1,32.54,42.73C1273.08,383.79,1291.53,302.51,1293.6,297.41z"/>
		</g>
		<path class="st1" d="M1514.84,684.13c-3.68,2.09-52.56,15.81-60.15,8.44c-7.59-7.37-3.5-15.86,2.33-20
			c5.83-4.14,19.49-4.89,21.8-10.47c2.31-5.58,0.94-19.53-2.37-24.9c-3.31-5.37-44.66-22.29-45.41-78.62c0,0-25-4.07-45.18-7.04
			c-20.16-3-133.48-113.19-139.8-134.86c-14.89-50.9,14.32-117.89,14.32-117.89s-32.16-11.22-46.66-28.88
			c-14.5-17.66-17.1-53.04-12.65-66.59c2.55-7.77,18.44,8.55,25.41,10.61c7,2.08,31.28,3.73,36.88-0.02
			c5.57-3.72,15.92-21.58,28.2-27.27c12.28-5.69,51.74,0.84,61.66,8.01c9.92,7.16,21.44,98.89,21.44,98.89s10.77,14.08,16.86,20.53
			c17.63,18.65,97.71,125.66,124.18,157.41c12.13,14.55,21.86,27.27,26.22,35.25c6.45,11.82,3.29,81.02-9.76,109.5
			c-4.29,9.39-10.94,18.83-11.47,35.96C1520.08,669.3,1518.75,681.91,1514.84,684.13z"/>
		<g>
			<path class="st1" d="M1337.13,201c3.84-6.44,21.04-4.63,25.97-30.9c4.93-26.27,0.82-39.36,3.56-40.28
				c2.74-0.92,26.78,39.99,22.06,67.32c-4.72,27.33-22.93,36.88-25.04,37.31C1361.58,234.88,1335.56,203.64,1337.13,201z"/>
			<path class="st3" d="M1375.81,163.07c-0.9-3.5-2.12-6.87-3.39-10.25c-1.45-3.87-3.42-7.59-4.69-11.53
				c-0.12-0.37-0.67-0.15-0.49,0.18c2.11,3.77,3.26,8.33,4.24,12.52c0.9,3.81,1.51,7.72,2.01,11.6c1.04,8.03,1.43,16.2,0.56,24.26
				c-1.53,14.16-6.29,27.16-15.28,38.31c-0.34,0.42,0.35,0.98,0.72,0.6C1376.17,211.83,1381.61,185.72,1375.81,163.07z"/>
		</g>
		<path class="st1" d="M1533.25,499.32c12.75,9.63,48.97,16.93,65.63-3.13c16.66-20.06,10.58-69.41,10.58-69.41
			s37.95,58.39,25.02,84.03c-12.93,25.64-49.87,36.59-97.19,8.76L1533.25,499.32z"/>
		<path class="st3" d="M1287.22,225.61c10.13,4.92,0.15,23.57-9.23,19.01C1268.75,240.13,1278.73,221.48,1287.22,225.61z"/>
		<path class="st3" d="M1202.41,225.89c-4.12-2.06-6.93-22.38-2.51-27.38c4.43-4.99,31.23,17.72,30.34,23.22
			C1229.35,227.24,1206.91,228.13,1202.41,225.89z"/>
		<g>
			<path class="st14" d="M1462.53,403.71c-0.31,0.24-16.26,5.62-36.42-0.71c-23.48-7.37-56.46-13.33-64.6-40.66
				c-6.38-21.35,23.72-53.75,24.22-54.32C1404.49,327.16,1438.48,370.09,1462.53,403.71z"/>
		</g>
		<g>
			<path class="st14" d="M1325.18,359.72c-13.61,10.6-41.66,9.5-45.96-10.24c-2.94-13.54,7.03-27.11,19.33-27.29
				c2.7-0.68,5.62-0.92,8.55-0.53C1321.98,323.58,1341,347.44,1325.18,359.72z"/>
		</g>
		<g>
			<path class="st14" d="M1356.33,391.36c8.26,8.33,9.78,27.37-3.2,31.87c-8.91,3.08-18.88-2.56-20-10.85
				c-0.68-1.77-1.07-3.72-1.05-5.73C1332.18,396.44,1346.76,381.66,1356.33,391.36z"/>
		</g>
		<path class="st3" d="M1260.37,298.8c6.88,1.43,34.41,13.34,57.26,13.75c22.85,0.41,55.88-18.85,58.28-20.38
			c2.4-1.53,10.44,8.46,10.45,11.09c0.01,2.63-41.35,28.64-70,25.75c-28.65-2.89-60.52-14.82-61.44-16.85
			C1254.01,310.12,1257.08,298.11,1260.37,298.8z"/>
		<g>
			<path class="st1" d="M1273.24,350.1c0,0-57.19-54.69-71.32-60.36c-14.12-5.67-60.11-4.91-64.67,3.06
				c-4.55,7.96,7.71,24.06,13.51,27.54c5.8,3.48,38.76,4.71,41.86,5.74c1.78,0.59,6.48,41.38,29.65,73.01
				c17.22,23.51,36.03,37.87,37.66,38.29C1263.75,438.38,1271.84,355.42,1273.24,350.1z"/>
			<path class="st3" d="M1284.71,349.45c0.29,0.01,0.3-0.4,0.02-0.45c-2.67-0.4-5.36-0.9-7.98-1.54c-1.62-0.39-3.22-0.81-4.81-1.27
				c-7.33-5.68-14.73-11.26-21.63-17.43c-0.25-0.22-0.63,0.11-0.38,0.36c5.26,5.3,10.41,10.57,16.16,15.35
				c5.63,4.68,11.66,9.01,18.13,12.45c0.3,0.16,0.72-0.24,0.42-0.5c-3.6-3.1-7.33-6.06-11.08-8.98c1.06,0.34,2.12,0.68,3.2,0.93
				C1279.38,348.97,1282.01,349.33,1284.71,349.45z"/>
		</g>
	</g>
	<path class="st3" d="M1679.08,206.27l-4.42-1.72c0.27-0.97,6.95-23.68,24-27.28l0.99,4.66c-7.03,1.48-12.06,7.25-15.37,12.75
		c2.42-1.2,5.36-1.94,8.71-1.72l-0.31,4.76C1683.7,197.16,1679.26,205.9,1679.08,206.27z"/>
	<path class="st3" d="M877.95,172.79c-3.48,0-6.58-2.94-6.94-3.29l3.33-3.41c0.85,0.83,2.62,1.94,3.71,1.92
		c0.15-0.01,0.47-0.04,0.88-0.58c1.8-2.4,0.19-5.61-1.93-9.25c-0.55-0.95-1.04-1.81-1.37-2.54c-3.71-8.26-1.34-18-1.24-18.41
		l4.62,1.15c-0.02,0.09-2.06,8.57,0.96,15.31c0.27,0.6,0.69,1.31,1.14,2.09c2.04,3.51,5.46,9.39,1.62,14.5
		c-1.11,1.48-2.61,2.34-4.33,2.47C878.25,172.78,878.1,172.79,877.95,172.79z"/>
	<path class="st3" d="M869.58,193.31c-20.94,0-32.44-19.18-32.95-20.06l4.11-2.41c0.49,0.84,12.27,20.42,33.29,17.39l0.68,4.71
		C872.94,193.19,871.23,193.31,869.58,193.31z"/>
	<path class="st3" d="M762.2,139.17l-4.52-1.44c0.09-0.41,2.08-10.07-5.19-15.21l2.75-3.89c2.77,1.95,4.55,4.35,5.68,6.8
		c0.88-6.36,0.59-14.01-3.93-19.56l3.7-3.01C771.69,116.39,762.59,138.24,762.2,139.17z"/>
	<path class="st3" d="M1569.53,218.35c-4.42,0-9.12-0.8-10.83-3.87c-3.11-5.59,1.06-10.95,3.55-14.16c0.56-0.72,1.07-1.36,1.41-1.92
		c3.9-6.27,3.02-14.95,3.01-15.04l4.74-0.52c0.05,0.42,1.09,10.39-3.7,18.08c-0.42,0.67-1.02,1.46-1.7,2.33
		c-2.59,3.33-4.61,6.3-3.15,8.91c0.83,1.48,7.65,1.84,14.03,0.76l0.8,4.69C1576.09,217.89,1572.89,218.35,1569.53,218.35z"/>
	<path class="st3" d="M1576.69,245.86c-6.21,0-13.38-1.55-21.53-5.61l2.13-4.26c30,14.96,44.48-7.42,45.08-8.38l4.05,2.51
		C1606.28,230.33,1596.35,245.86,1576.69,245.86z"/>
	<g>
		<path class="st1" d="M1577.29,60.85c10.75-5.71,23.64-11.78,38.91-14.89c15.28-3.11,64.19-3.03,76.59,5.83
			c12.4,8.86,18.95,54.45,19.77,61.13s0.89,47.42-13.04,58.31c-13.93,10.89-20.55-57.83-45.45-78.9
			C1629.18,71.25,1577.29,60.85,1577.29,60.85z"/>
		<path class="st14" d="M1577.28,60.86c0,0,51.9,10.39,76.79,31.47c24.91,21.04,31.52,89.78,45.47,78.9
			c6.14-4.8,8.79-11.44,10.63-22.41c-4.6-19.88-15.1-50.47-33.5-70.81c-17.24-19.06-45.03-27.25-74.19-28.32
			C1593.02,52.85,1584.66,56.93,1577.28,60.86z"/>
		<g>
			<path class="st1" d="M1698.61,212.38c-2.7-18.24-25.07-65.93-46.77-92.59c-21.7-26.66-80.46-38.74-88.47-37.67
				c-19.43,2.6-23.01,12.27-26.23,10.75c-3.22-1.51,14.62-25.17,19.87-28.88c5.25-3.7,17.98-8.37,26.48-8.81
				c8.5-0.44,61.22,0.79,81.93,21.67c20.71,20.87,52.36,81.37,48.64,97.76c-0.89,3.93-5.81,6.79-7.03,12.36
				c-1.6,7.31-2.47,15.7-4.25,20.86C1701.35,212,1698.84,213.97,1698.61,212.38z"/>
			<g>
				<path class="st3" d="M1646.38,107.5c4.29-3.12,8.26-6.46,11.98-10.27c3.67-3.75,7.3-7.88,9.97-12.41
					c0.19-0.33,0.73-0.11,0.56,0.25c-2.37,5.03-5.06,9.68-8.89,13.76c-3.68,3.92-8.26,7.28-13.13,9.57
					C1646.33,108.66,1645.92,107.84,1646.38,107.5z"/>
				<path class="st3" d="M1697.4,194.05c0.41-1.36,1.19-2.6,1.72-3.92c0.61-1.51,1.09-3.06,1.37-4.67c0.53-3.07,0.21-6.12,1.41-9.06
					c0.95-2.33,2.4-4.38,3.84-6.43c1.64-2.33,3.24-4.77,3.05-7.73c-0.02-0.39,0.58-0.45,0.61-0.06c0.45,5.57-2.99,9.81-5.07,14.66
					c-1.33,3.1-1,6.49-1.79,9.72c-0.67,2.74-1.89,6.28-4.26,8.03C1697.91,194.85,1697.26,194.53,1697.4,194.05z"/>
				<path class="st3" d="M1689.57,174.71c1.58-2.22,3.31-4.23,4.68-6.62c1.31-2.29,2.43-4.72,3.42-7.16
					c0.98-2.41,1.76-4.9,2.69-7.33c1.1-2.87,2.56-5.65,3.51-8.57c0.12-0.37,0.68-0.12,0.56,0.26c-1,3.03-1.47,6.24-2.36,9.31
					c-0.77,2.64-1.81,5.23-2.92,7.75c-1.07,2.43-2.32,4.74-3.84,6.92c-1.44,2.07-3.33,4.37-5.51,5.68
					C1689.64,175.05,1689.46,174.87,1689.57,174.71z"/>
				<path class="st3" d="M1681.54,157.28c3.54-3.51,6.75-7.64,9.13-12.03c2.35-4.33,4.45-8.83,6.5-13.31
					c0.14-0.3,0.67-0.16,0.58,0.18c-1.38,4.96-2.71,9.88-5.26,14.4c-1.21,2.14-2.56,4.34-4.24,6.15c-1.83,1.96-4.03,3.6-6.27,5.07
					C1681.69,157.93,1681.27,157.55,1681.54,157.28z"/>
				<path class="st3" d="M1672.98,140.67c1.98-1.39,3.19-3.3,4.49-5.28c1.43-2.17,2.82-4.39,4.13-6.64
					c1.26-2.16,2.57-4.29,3.83-6.45c1.26-2.18,2.51-4.44,2.78-6.99c0.04-0.34,0.59-0.32,0.61,0.02c0.08,2.57-0.64,4.96-1.56,7.33
					c-1.01,2.6-2.17,5.1-3.61,7.49c-1.42,2.34-2.94,4.61-4.64,6.76c-1.48,1.87-3.26,3.81-5.61,4.5
					C1672.94,141.54,1672.56,140.96,1672.98,140.67z"/>
				<path class="st3" d="M1666.09,119.29c1.58-1.8,3.13-3.59,4.56-5.51c1.42-1.91,2.75-3.89,4.05-5.88c1.36-2.08,2.78-4.17,4-6.33
					c0.19-0.34,0.69-0.12,0.56,0.26c-0.84,2.38-1.68,4.69-2.88,6.92c-1.17,2.19-2.51,4.25-3.98,6.25c-1.44,1.96-2.96,3.9-4.65,5.66
					c-1.62,1.7-3.46,3.67-5.64,4.62c-0.32,0.14-0.73-0.25-0.54-0.58C1662.72,122.69,1664.57,121.02,1666.09,119.29z"/>
				<path class="st3" d="M1631.53,98.14c1.64-2.39,3.23-4.73,5.09-6.95c1.89-2.26,3.94-4.4,6.06-6.44
					c4.17-3.99,8.56-7.67,13.5-10.67c0.27-0.16,0.68,0.18,0.42,0.44c-8.11,8.09-16.57,15.84-24.61,24.01
					C1631.73,98.81,1631.31,98.47,1631.53,98.14z"/>
				<path class="st3" d="M1619.25,83.29c1.69-2.34,3.6-4.48,5.78-6.38c4.55-3.98,9.76-7.05,15.05-9.93
					c0.34-0.18,0.68,0.24,0.36,0.49c-4.52,3.52-9.1,6.97-13.4,10.75c-2.12,1.86-4.24,3.78-6.15,5.87c-1.92,2.1-3.33,4.55-5.14,6.71
					c-0.14,0.17-0.45,0.05-0.4-0.19C1615.93,87.96,1617.69,85.46,1619.25,83.29z"/>
				<path class="st3" d="M1603.44,77.25c1.54-2.3,3.33-4.39,5.3-6.33c3.74-3.69,8.06-6.62,12.8-8.88c0.32-0.15,0.57,0.34,0.29,0.53
					c-4.25,3.02-8.27,6.42-11.95,10.12c-1.85,1.86-3.59,3.81-5.36,5.74c-1.76,1.92-3.2,4.28-5.15,6.01
					c-0.16,0.14-0.37-0.07-0.3-0.24C1600.09,81.75,1601.96,79.45,1603.44,77.25z"/>
				<path class="st3" d="M1591.71,68.95c1.81-1.72,3.7-3.33,5.61-4.93c1.88-1.58,3.81-3.14,6.1-4.07c0.34-0.14,0.53,0.31,0.29,0.53
					c-3.53,3.27-6.99,6.62-10.45,9.97c-3.26,3.15-5.3,7.05-7.82,10.76c-0.11,0.16-0.39,0.03-0.35-0.16
					C1586.15,76.41,1588.23,72.24,1591.71,68.95z"/>
				<path class="st3" d="M1577.72,67.04c3.24-3.74,7.32-6.3,11.66-8.55c0.3-0.16,0.59,0.36,0.29,0.53
					c-4.01,2.36-7.41,5.78-10.5,9.21c-3.16,3.5-5.65,7.46-7.96,11.55c-0.11,0.19-0.47,0.13-0.4-0.13
					C1571.99,74.96,1574.57,70.67,1577.72,67.04z"/>
				<path class="st3" d="M1560.31,76.61c0.37-1,0.86-1.97,1.36-2.91c1.02-1.9,2.33-3.65,3.71-5.3c2.84-3.37,6.35-6.07,9.79-8.8
					c0.31-0.24,0.67,0.26,0.36,0.49c-3.41,2.59-6.42,5.66-9.12,8.97c-1.33,1.63-2.49,3.37-3.56,5.18c-0.53,0.88-0.99,1.79-1.43,2.72
					c-0.42,0.87-0.74,1.94-1.32,2.71c-0.15,0.2-0.53,0.1-0.54-0.16C1559.53,78.57,1559.98,77.49,1560.31,76.61z"/>
				<path class="st3" d="M1549.35,78.43c0.94-1.52,1.94-2.97,3.05-4.37c1.11-1.4,2.26-2.71,3.54-3.95c1.3-1.27,2.65-2.49,3.89-3.82
					c0.3-0.32,0.74,0.14,0.41,0.44c-1.34,1.24-2.49,2.69-3.59,4.14c-1.04,1.37-2.1,2.73-3.15,4.1c-1.05,1.37-2.09,2.73-3.13,4.11
					c-1.05,1.39-1.95,2.97-3.14,4.24c-0.2,0.21-0.5,0.01-0.41-0.26C1547.37,81.42,1548.45,79.89,1549.35,78.43z"/>
			</g>
		</g>
	</g>
	<g>
		<path class="st3" d="M875.16,192.3c0,0-7.74,4.78-19.3,7.18c-4.26,0.9-7.47-6.83-12.48-7.71c-10.29-1.79-12.6,0.54-11.27-4.3
			c1.08-3.99,5.18-15.43,5.18-15.43S851.38,191.04,875.16,192.3z"/>
		<path class="st18" d="M855.85,199.48c-4.26,0.9-8.92,1.21-13.93,0.32c-10.29-1.79-11.15-7.49-9.82-12.34
			C843.03,188.32,854.24,193,855.85,199.48z"/>
	</g>
</g>
</svg>
