<?xml version="1.0" encoding="utf-8"?>
<!-- Generator: Adobe Illustrator 27.7.0, SVG Export Plug-In . SVG Version: 6.00 Build 0)  -->
<svg version="1.1" id="Ebene_1" xmlns="http://www.w3.org/2000/svg" xmlns:xlink="http://www.w3.org/1999/xlink" x="0px" y="0px"
	 viewBox="0 0 2289.65 1977.18" style="enable-background:new 0 0 2289.65 1977.18;" xml:space="preserve">
<style type="text/css">
	.st0{fill:#FB6A55;}
	.st1{fill:#969696;}
	.st2{fill:#2B454E;}
	.st3{fill:#1A2E35;}
	.st4{fill:#FFABA1;}
	.st5{fill:#ECECEC;}
	.st6{fill:#DCDCDC;}
	.st7{fill:#A8A8A8;}
	.st8{fill:#4D6FB4;}
	.st9{fill:#375A64;}
	.st10{fill:#C8C8C8;}
	.st11{fill:#FFFFFF;}
	.st12{fill:#F7DFC4;}
	.st13{fill:#F2F2F2;}
	.st14{opacity:0.1;}
	.st15{opacity:0.3;fill:#1A2E35;}
	.st16{fill:#97BEDB;}
	.st17{fill:#771137;}
	.st18{fill:#FF9ABD;}
	.st19{fill:#F39C8C;}
	.st20{fill:#F4B3CC;}
	.st21{fill:#864240;}
	.st22{fill:#C26358;}
	.st23{fill:none;stroke:#1A2E35;stroke-miterlimit:10;}
	.st24{opacity:0.1;fill:#010000;}
	.st25{opacity:0.4;}
	.st26{opacity:0.2;}
	.st27{fill:#010000;}
	.st28{fill:#F4B85A;}
	.st29{fill:#FFC5C1;}
	.st30{fill:#BD5324;}
	.st31{fill:#D95000;}
	.st32{opacity:0.6;}
	.st33{clip-path:url(#SVGID_00000080922325951822881360000001552498914849147325_);}
	.st34{clip-path:url(#SVGID_00000007409733759281559120000002109667446762987648_);}
	.st35{fill:url(#SVGID_00000165194110077457703890000017166496868571036075_);}
	.st36{clip-path:url(#SVGID_00000038373021429960387070000006649035776362729102_);}
	.st37{clip-path:url(#SVGID_00000032639494440999953130000014966893710972307361_);}
	.st38{opacity:0.5;}
	.st39{fill:#334F7C;}
	.st40{clip-path:url(#SVGID_00000174585877731118555710000012578650760285939347_);}
	.st41{fill:none;stroke:#44555B;stroke-width:0.05;stroke-miterlimit:10;}
	.st42{fill:none;}
	.st43{clip-path:url(#SVGID_00000161597142784111111530000004598164187220972429_);}
	.st44{fill:#919191;}
	.st45{fill:#CCCCCC;}
	.st46{fill:#AFAFAF;}
	.st47{fill:#F4DFCE;}
	.st48{fill:#35271C;}
	.st49{fill:#DDC6B6;}
	.st50{clip-path:url(#SVGID_00000181056472522890339610000005176536513250766989_);}
	.st51{clip-path:url(#SVGID_00000139985425554516968760000002379879035120670629_);}
	.st52{clip-path:url(#SVGID_00000178205466188711409960000005961894006940621186_);}
	.st53{opacity:0.2;fill:#1A2E35;}
	.st54{fill:#D8BCA0;}
</style>
<g>
	<g>
		<g>
			<g>
				<g>
					<polygon class="st6" points="1029.48,1047.74 1044.34,1136.81 1144.95,1680.18 1161.17,1680.18 1088,1136.81 1077.19,1047.74 
											"/>
				</g>
			</g>
			<polygon class="st7" points="1077.19,1047.74 1029.48,1047.74 1044.34,1136.81 1088,1136.81 			"/>
		</g>
		<g>
			<g>
				<g>
					<polygon class="st6" points="713.51,1680.18 729.73,1680.18 830.35,1136.81 845.2,1047.74 797.49,1047.74 786.68,1136.81 					
						"/>
				</g>
			</g>
			<polygon class="st7" points="797.49,1047.74 786.68,1136.81 830.35,1136.81 845.2,1047.74 			"/>
		</g>
		<g>
			<g>
				<g>
					<polygon class="st6" points="411.72,1680.18 427.93,1680.18 528.55,1136.81 543.4,1047.74 495.69,1047.74 484.88,1136.81 					
						"/>
				</g>
			</g>
			<polygon class="st7" points="484.88,1136.81 528.55,1136.81 543.4,1047.74 495.69,1047.74 			"/>
		</g>
		<polygon class="st6" points="437.44,1089.59 1174.72,1089.59 1174.72,1011.9 898.72,1011.9 805.96,472.22 465.55,472.22 		"/>
		<polygon class="st7" points="437.44,1089.59 477.63,1089.59 503.82,472.22 465.55,472.22 		"/>
	</g>
	<g>
		<g>
			<g>
				<path class="st5" d="M1209.57,1801.21c-14.56,1.84-412.33-90.97-425.25-103.49c-1.57-1.38,17.25-77.78,17.25-77.78
					c2.1-10.3,14.63-44.99,30.63-86.97l248.9,58.04l-19.87,42.89c0,0,49.58,33.58,92.21,65.58c0.06,0.07,0.06,0.07,0.06,0.13
					c26.3,19.61,49.06,37.32,53.91,43.09C1220.07,1757.86,1224.13,1799.51,1209.57,1801.21z"/>
			</g>
			<g>
				<path class="st7" d="M1210.72,1802.35c-15.07,1.58-416.06-88.3-429.14-101.41c-5.06-4.9,30.53-134.07,30.68-134.81l256.67,56.68
					l-1.08,4.36c0,0,128.97,98.87,141.84,114.81C1222.44,1757.83,1225.78,1800.84,1210.72,1802.35z"/>
				<g>
					<g>
						<path class="st3" d="M1209.68,1785.81c-67.22-16.81-339.94-78.27-407.67-89.78c-0.55-0.09-0.63,0.28-0.1,0.43
							c66.26,18.11,339.48,77.36,407.52,90.46C1210.86,1787.19,1211.09,1786.17,1209.68,1785.81z"/>
						<path class="st3" d="M1088.46,1625.91c-25.48-10.92-58.93-14.13-83.51,0.24c-0.95,0.56-0.15,1.9,0.78,1.82
							c28.1-2.38,53.8-2.19,81.88,1.27C1089.58,1629.49,1090.28,1626.69,1088.46,1625.91z"/>
						<path class="st3" d="M1105.06,1641.77c-25.49-10.92-58.93-14.13-83.51,0.24c-0.95,0.56-0.15,1.9,0.78,1.82
							c28.1-2.38,53.8-2.19,81.88,1.27C1106.18,1645.35,1106.89,1642.55,1105.06,1641.77z"/>
						<path class="st3" d="M1121.66,1657.63c-25.49-10.92-58.94-14.13-83.51,0.24c-0.95,0.56-0.15,1.9,0.78,1.82
							c28.1-2.38,53.8-2.19,81.88,1.27C1122.78,1661.21,1123.49,1658.41,1121.66,1657.63z"/>
						<g>
							<path class="st3" d="M1136.07,1575.73c-7.22-16.72-28.14-14.62-41.34-7.79c-21.37,11.06-42.41,31.1-54.64,51.66
								c-0.3,0.51-0.01,0.92,0.41,1.1c-0.38,2.04,0.96,4.58,3.43,4.25c23.79-3.2,49.62-3.67,71.72-14.07
								C1128.55,1604.82,1142.9,1591.54,1136.07,1575.73z M1079,1612.74c-11.66,1.86-23.34,3.13-34.94,5.42
								c10.69-10.05,20.88-20.51,32.58-29.47c5.58-4.28,11.39-8.57,17.52-12.05c9.53-5.42,44.3-13.7,33.06,14.39
								C1121.03,1606.52,1092.9,1610.53,1079,1612.74z"/>
							<path class="st3" d="M974.04,1597.52c19.83,14.25,45.14,19.42,67.94,26.9c2.37,0.78,4.14-1.49,4.15-3.56
								c0.45-0.1,0.81-0.45,0.6-1c-8.27-22.45-25.29-45.99-44.28-60.75c-11.73-9.12-31.91-15-42.06,0.12
								C950.78,1573.53,962.47,1589.2,974.04,1597.52z M966.29,1575.89c-5.92-29.67,26.76-15.19,35.14-8.13
								c5.38,4.54,10.31,9.81,15.02,15.04c9.86,10.95,17.97,23.09,26.64,34.91c-10.98-4.36-22.23-7.74-33.36-11.69
								C996.47,1601.31,969.55,1592.24,966.29,1575.89z"/>
						</g>
					</g>
				</g>
			</g>
		</g>
		<g>
			<path class="st2" d="M1081.57,1624.99l-277.44-62.11c0,0,228.8-530.83,208.55-557.68c-10.12-13.42-267.14-17.37-348.88-86.62
				c-106.18-89.96-34.94-244.93-34.94-244.93l318.37-0.44c0,0-13.44,69.41-2.25,78.44c7.38,6.03,328.04,34.77,365.59,150.02
				C1356.63,1042.99,1081.57,1624.99,1081.57,1624.99z"/>
			<g>
				<path class="st3" d="M1089.5,1574.8c-7.33-3.07-78.96-23.39-95.01-27.49c-32.31-8.27-64.66-16.4-97.12-24.02
					c-16.92-3.97-53.2-12.61-55.37-12.43c-1.04,0.09-1.13,1.46-0.16,1.77c31.64,9.85,63.62,18.49,95.61,27.2
					c31.93,8.7,141.88,35.58,151.42,36.63C1089.79,1576.55,1090.53,1575.23,1089.5,1574.8z"/>
			</g>
			<path class="st3" d="M1061.78,981.43c-5.77-4.93-14.43-5.53-21.66-6.74c-41.43-6.92-82.86-13.91-124.29-20.84
				c-38.77-6.48-77.75-12.28-116.34-19.72c-31.96-6.16-64.45-14.47-92.09-31.79c-27.67-17.34-46.8-43.4-56.44-73.81
				c-9.65-30.41-10.33-63.11-7.3-94.59c0.74-7.71,2.16-15.39,3.6-23c0.11-0.58-0.82-0.77-0.92-0.19
				c-10.51,58.78-11.45,127.01,32.64,173.86c21.49,22.84,51.01,36.25,81.14,44.95c33.99,9.81,69.51,14.45,104.39,20.28
				c41.44,6.92,82.87,13.86,124.31,20.74c19.94,3.31,40.18,5.91,59.95,10.04c3.79,0.79,8.08,1.9,10.8,4.77
				c3.75,3.96,2.73,9.57,1.75,14.36c-2,9.76-4.63,19.41-7.43,28.98c-22.62,77.16-175.25,445.39-179.74,453.87
				c-0.47,0.89,0.93,1.59,1.42,0.71c38.01-67.7,148.62-352.07,173.72-425.07c6.41-18.65,12.33-37.52,16.3-56.81
				C1067.01,994.43,1067.84,986.61,1061.78,981.43z"/>
		</g>
	</g>
	<g>
		<g>
			<g>
				<path class="st7" d="M1759.5,1805.77c-14.38,4.76-425.34,2.79-440.93-7.22c-5.99-3.7-9.19-63.52-10.98-135.9
					c-0.01-0.76-0.02-1.51-0.03-2.27l265.15-1.68l-0.12,4.49c0,0,156.97,71.02,172.96,83.83
					C1761.39,1759.77,1773.88,1801.07,1759.5,1805.77z"/>
				<g>
					<g>
						<path class="st3" d="M1754.92,1789.83c-69.27-2.03-348.84-3.7-417.47-0.45c-0.56,0.03-0.56,0.41,0,0.44
							c68.61,3.51,348.19,2.91,417.47,1.15C1756.38,1790.93,1756.39,1789.88,1754.92,1789.83z"/>
						<path class="st3" d="M1602.21,1659.59c-27.24-5.21-60.6-1.19-81.52,18.1c-0.81,0.75,0.26,1.89,1.15,1.61
							c26.94-8.34,52.08-13.65,80.25-16.28C1604.07,1662.85,1604.16,1659.97,1602.21,1659.59z"/>
						<path class="st3" d="M1621.83,1671.53c-27.24-5.21-60.6-1.19-81.52,18.1c-0.81,0.75,0.27,1.89,1.15,1.61
							c26.94-8.34,52.08-13.65,80.25-16.28C1623.69,1674.78,1623.78,1671.9,1621.83,1671.53z"/>
						<path class="st3" d="M1641.45,1683.47c-27.24-5.21-60.6-1.19-81.52,18.1c-0.81,0.75,0.26,1.89,1.15,1.61
							c26.94-8.34,52.08-13.65,80.25-16.28C1643.31,1686.72,1643.4,1683.84,1641.45,1683.47z"/>
						<g>
							<path class="st3" d="M1637.95,1600.39c-10.64-14.79-30.62-8.25-42.05,1.24c-18.5,15.38-34.75,39.46-42.28,62.16
								c-0.19,0.56,0.19,0.9,0.64,0.98c0.07,2.07,1.92,4.27,4.26,3.42c22.55-8.22,47.68-14.21,67.03-29.09
								C1636.84,1630.41,1648.01,1614.37,1637.95,1600.39z M1590.15,1648.75c-10.99,4.31-22.13,8.05-32.96,12.77
								c8.28-12.1,16-24.5,25.5-35.76c4.53-5.37,9.29-10.81,14.52-15.52c8.14-7.33,40.33-22.86,35.38,6.98
								C1629.86,1633.68,1603.25,1643.61,1590.15,1648.75z"/>
							<path class="st3" d="M1484.36,1656.35c22.42,9.67,48.25,9.31,72.14,11.74c2.48,0.25,3.73-2.34,3.29-4.36
								c0.42-0.19,0.69-0.61,0.38-1.11c-12.89-20.16-34.57-39.51-56.29-49.87c-13.41-6.4-34.39-7.82-41.06,9.12
								C1456.49,1637.89,1471.27,1650.7,1484.36,1656.35z M1472.15,1636.88c-12.15-27.71,22.88-20.57,32.58-15.46
								c6.23,3.28,12.18,7.38,17.9,11.48c11.98,8.58,22.51,18.7,33.52,28.4c-11.66-1.91-23.37-2.81-35.09-4.28
								C1507.08,1655.25,1478.84,1652.15,1472.15,1636.88z"/>
						</g>
					</g>
				</g>
			</g>
		</g>
		<g>
			<path class="st2" d="M1597.72,1661.52l-298.87-0.23c0,0-127.92-507.49-150.56-536.4c-30.18-38.54-452.52-37.66-543.1-163.37
				c-81.36-112.9-6.31-288.32-6.31-288.32l312.16,0.05c0,0-8.68,56.81-28.34,106.68c0,0,385.28,71.01,493.21,189.03
				C1448.74,1048.61,1597.72,1661.52,1597.72,1661.52z"/>
			<g>
				<path class="st3" d="M938.47,758.04c-9.24,1.63-18.36,5.36-27.1,8.68c-9.18,3.5-18.23,7.47-27.06,11.77
					c-17.48,8.51-34.15,18.25-50.6,28.59c-0.51,0.32-0.01,1.03,0.5,0.76c17.29-8.98,35.17-17.05,53.07-24.76
					c8.61-3.71,17.23-7.4,25.84-11.12c8.66-3.74,17.9-6.91,26.13-11.54C940.34,759.82,939.75,757.82,938.47,758.04z"/>
				<path class="st3" d="M919.3,679.21c-3.66,14.58-6.87,29.27-11.05,43.72c-1.92,6.63-3.8,13.37-6.31,19.8
					c-2.12,5.43-5.33,11.62-11.61,12.84c-7.25,1.4-9.32-4.8-8.73-10.78c0.66-6.67,2.37-13.36,3.68-19.93
					c1.52-7.57,3.06-15.14,4.44-22.73c0.69-3.8,4.51-21.6,4.54-21.82c0.08-0.57,0.07-0.69-0.36-1.09c-0.19-0.18-0.45-0.16-0.66-0.05
					c-1.39,0.76-4.31,11.43-5.39,15.15c-2.02,6.96-3.99,13.94-5.76,20.96c-1.77,7.02-3.49,14.05-5.23,21.08
					c-1.3,5.26-2.83,10.8-1.41,16.2c1.55,5.9,6.27,8.87,11.46,9.32c-0.25,0.48-0.55,0.93-0.77,1.42c-0.64,1.43-1.1,2.97-1.65,4.44
					c-0.56,1.51-1.06,3.01-1.49,4.56c-0.21,0.73-0.34,1.49-0.42,2.25c-0.09,0.85,0.08,1.67-0.03,2.52c-0.17,1.3,1.61,2.1,2.26,0.81
					c0.38-0.75,0.94-1.32,1.36-2.04c0.45-0.75,0.76-1.62,1.04-2.44c0.5-1.46,0.92-2.91,1.29-4.41c0.37-1.47,0.82-2.95,1.1-4.45
					c0.16-0.89,0.2-1.79,0.27-2.69c2.97-0.3,5.93-1.32,8.42-3.2c4.36-3.29,6.9-8.31,8.72-13.32c2.2-6.07,3.91-12.35,5.62-18.57
					c4.23-15.4,7.83-31.05,9.3-46.98C922.1,678.09,919.74,677.48,919.3,679.21z"/>
				<g>
					<path class="st3" d="M1566.79,1608.02c-7.86-1.14-16.02-1.16-23.96-1.49c-8.4-0.35-16.82-0.71-25.23-0.96
						c-16.56-0.49-33.11-0.81-49.67-0.87c-33.35-0.11-66.71-0.09-100.06,0.44c-17.38,0.28-54.67,0.75-56.73,1.43
						c-0.99,0.33-0.74,1.64,0.28,1.69c33.09,1.76,66.22,2.3,99.37,2.9c33.09,0.61,66.22,1.12,99.32,0.55
						c9.17-0.16,18.32-0.5,27.48-0.74c9.59-0.25,19.49,0.01,29-1.26C1567.5,1609.6,1567.89,1608.18,1566.79,1608.02z"/>
				</g>
				<path class="st3" d="M1183.11,1129.13c-3.41-8.72-6.33-18.46-12.47-25.73c-6.25-7.39-15.48-10.14-24.48-12.6
					c-79.67-21.8-161.9-31.59-242.91-46.91c-39.87-7.54-79.56-16.42-118.24-28.8c-38.63-12.36-77.81-27.97-111.85-50.32
					c-17.11-11.23-31.08-25.58-41.14-43.44c-9.45-16.79-15.43-35.46-19.33-54.27c-8.9-42.98-8.29-88.27,0.3-131.23
					c2.16-10.8,4.9-21.45,8.19-31.95c0.21-0.66-0.81-0.89-1.03-0.26c-14.78,41.81-21.34,86.11-18.01,130.4
					c2.89,38.44,12.21,78.88,37.06,109.38c12.51,15.36,28.78,26.56,45.97,36.1c18.16,10.08,37.05,18.84,56.33,26.54
					c37.58,15,76.64,25.92,116.11,34.65c80.82,17.88,163.29,26.95,244.09,44.92c9.97,2.22,19.91,4.57,29.81,7.09
					c9.6,2.45,20.84,4.15,29.35,9.46c9.58,5.97,12.75,17.88,16.52,27.81c4.16,10.95,134.08,450.62,137.01,461.68
					c0.47,1.78,3.19,0.96,2.74-0.83C1305.79,1545.87,1191.54,1150.7,1183.11,1129.13z"/>
				<path class="st3" d="M1159.54,1140.79c-3.04-9.59-5.69-19.9-14.63-25.73c-8.31-5.42-136.82-22.96-151.21-25.17
					c-0.67-0.1-0.93,0.92-0.26,1.03c12.33,2.08,130.44,23.25,141,26.75c4.4,1.46,8.65,3.7,11.52,7.44c3.55,4.61,5,10.58,6.73,16.03
					c3.63,11.44,7.27,22.88,10.9,34.31c7.29,22.96,14.56,45.94,21.49,69.01c7.85,26.16,16.83,53.56,23.6,80.02
					c0.52,2.02,3.4,1.05,3.05-0.92C1202.74,1273.93,1163.33,1152.75,1159.54,1140.79z"/>
				<path class="st3" d="M884.23,780.74c58.93,6.44,117.49,19.68,174.48,35.76c57.46,16.22,113.89,36.41,168.36,60.87
					c30.6,13.74,60.22,29.09,89.6,45.23c0.58,0.32,0.04,1.17-0.54,0.87c-52.71-27.44-107.89-51.1-163.73-71.39
					c-55.65-20.23-112.62-36.87-170.49-49.44c-32.59-7.08-65.4-12.59-98.29-18.05C881.43,784.23,882.02,780.5,884.23,780.74z"/>
			</g>
		</g>
	</g>
	<g>
		<g>
			<path class="st12" d="M850.32,333.6c25.19,121.6,78.15,276.02,120.95,307.86c34.52,25.69,217.47,73.55,227.69,74.88
				c25.33,3.11,80.06-178.34,53.15-183c-35.52-6.15-190.45-18.17-199.22-27.57c-9.09-9.83-64.78-88.72-127.78-180.08
				C881.63,262.56,834.69,258.15,850.32,333.6z"/>
			<g>
				<path class="st4" d="M1178.79,706.05c2.99,1.6,45.47,24.11,71.85,32.38c19.68,6.17,76.83,22.4,85.77,1.4
					c6.12-14.31-26.36-27.81-49.12-37.87c-11.99-5.3-26.62-18.28-22.89-25.98c6.52-13.46,37.37,0.86,57.59,13.2
					c39.1,23.86,90.96,66.4,115.58,46.83c9.3-7.4-1.02-21.45-16.26-35.35c24.86,16.34,51.47,29.88,62.12,22.07
					c6.12-4.44,6.53-10.72,3.33-17.96c7.73,2.7,14.61,2.35,19.52-2.62c8.38-8.4,4.66-21.14-4.03-34.3c2.88-0.24,5.49-1.65,7.54-4.73
					c17.91-26.08-67.28-103.87-97.16-111.63c-87.89-22.9-182.04-17.26-182.04-17.26C1195.31,561.23,1178.72,705.99,1178.79,706.05z"
					/>
				<g>
					<path class="st3" d="M1310.44,627.51c20.73,3.7,41.05,11.92,58.44,23.95c22.08,15.26,36.56,32.88,54.98,50.71
						c0.48,0.47-0.23,1.23-0.71,0.77c-8.78-8.47-45.21-40.41-54.64-47.69c-17.29-13.35-36.72-22.87-58.15-27.37
						C1310.13,627.82,1310.21,627.47,1310.44,627.51z"/>
					<path class="st3" d="M1327.71,590.38c23.08,6.84,46.74,13.77,68.05,25.22c23.33,12.52,41.36,32.51,59.1,51.76
						c10.65,11.56,21.07,23.34,31.18,35.37c0.42,0.5-0.26,1.27-0.71,0.77c-17.99-19.87-36.58-39.23-55.76-57.97
						c-18.04-17.63-38.29-31.26-61.68-40.75c-13.18-5.35-26.74-9.68-40.28-13.99C1327.36,590.71,1327.45,590.3,1327.71,590.38z"/>
					<path class="st3" d="M1353.22,558.13c22.46,5.12,42.06,9.5,61.77,22.02c26.1,16.57,51.05,44.08,59.81,53.83
						c9.67,10.77,18.96,21.86,28.1,33.08c0.37,0.46-0.41,1.12-0.8,0.66c-20.89-24.57-43.46-47.97-67.36-69.63
						c-11.42-10.35-23.87-19.43-37.94-25.85c-13.91-6.35-28.88-10.1-43.61-13.97C1353.08,558.26,1353.12,558.11,1353.22,558.13z"/>
				</g>
			</g>
		</g>
		<path class="st5" d="M1241.57,526.67l-70.27,194.15c0,0-192.74-56.87-218.24-90.35c-25.5-33.48-89.63-201.48-103.47-291.48
			c-13.84-89.99,31.19-71.35,69.52-25.84c38.33,45.51,134.15,186.51,137.43,188.7C1059.81,504.04,1241.57,526.67,1241.57,526.67z"/>
		<path class="st3" d="M1142.01,674.94c2.57-6.49,5.38-12.89,7.81-19.43c5.06-13.61,10.11-27.22,15.14-40.84
			c5.04-13.63,10-27.3,14.88-40.99c4.88-13.7,9.22-27.64,14.3-41.26c0.23-0.62-0.68-1.02-0.95-0.4
			c-5.67,13.36-11.91,26.47-17.45,39.91c-5.63,13.67-11,27.47-16.12,41.33c-5.03,13.64-9.85,27.34-14.51,41.11
			c-2.34,6.91-4.19,13.97-6.33,20.94c-2.07,6.75-4.33,13.46-5.91,20.34c-0.11,0.47,0.6,0.63,0.78,0.22
			C1136.81,689.05,1139.24,681.93,1142.01,674.94z"/>
		<path class="st14" d="M1087.31,693.74c-55.35-19.26-120.17-44.83-134.24-63.31c-25.51-33.46-89.67-201.42-103.47-291.42
			c-6.57-42.73,0.13-61.01,13.08-63.44L1087.31,693.74z"/>
	</g>
	<g>
		<path class="st5" d="M954.66,712.81c-9.11,8.84-398.86,49.42-400.79,46.8c-5.18-7.08,67.65-372.8,223.73-498.83
			c27.5-22.21,73.38-12.89,94.15,0.47c10.38,6.67,39.11,59.17,47.36,105.88C927.3,413.78,960.39,707.18,954.66,712.81z"/>
	</g>
	<g>
		<g>
			<path class="st5" d="M857.91,416.53c0,0-59.78-47.18-73.35-60.2c-13.58-13.02-20.99-84.61-6.18-97.56
				c14.81-12.94,72.6-8.76,90.77,5.4c18.18,14.15,31.94,59.1,33.36,68.16c1.42,9.05-20.91,79.61-20.91,79.61l-12.46-16.9
				c0,0,12.93-55.81,12.46-64.85c-0.47-9.04-10-54.29-14.48-61.07s-71.28-5.95-76.38-2.98c-5.1,2.97,3.63,60.25,6.57,69.94
				c2.95,9.68,62.91,65.84,62.91,65.84L857.91,416.53z"/>
			<path class="st5" d="M849.12,391.38l11.1,10.55l-2.31,14.62c0,0-7.24-5.74-17.27-13.79L849.12,391.38z"/>
			<path class="st5" d="M886.94,394.58c-3.07,10.14-5.33,17.33-5.33,17.33l-12.46-16.86c0,0,1.1-4.69,2.61-11.59L886.94,394.58z"/>
		</g>
		<g>
			<polygon class="st5" points="849.56,409.91 869.15,395.03 885.29,400.05 879.97,430.08 858.32,431.76 			"/>
			<g>
				<polygon class="st5" points="858.32,431.76 834.39,668.91 894.92,737.44 913.5,653.8 879.97,430.08 				"/>
				<polygon class="st5" points="858.32,431.76 879.97,430.08 880.63,434.48 857.37,441.19 				"/>
			</g>
		</g>
	</g>
	<g>
		<g>
			<g>
				<rect x="299.74" y="1485.23" class="st9" width="156.33" height="27.48"/>
				<g>
					<g>
						<g>
							<polygon class="st9" points="540.85,1887.45 523.97,1887.45 386.27,1244.65 378.42,1207.99 353.69,1092.61 344.49,1049.58 
								309.84,888.1 297.74,831.56 357.88,831.56 367.68,888.1 374.11,925.22 378.42,949.95 403.09,1092.61 411.06,1138.53 							
								"/>
						</g>
					</g>
					<polygon class="st3" points="357.88,831.56 367.68,888.1 309.84,888.1 297.74,831.56 					"/>
					<polygon class="st3" points="411.06,1138.53 386.27,1244.65 378.42,1207.99 353.69,1092.61 344.49,1049.58 374.11,925.22 
						378.42,949.95 403.09,1092.61 					"/>
				</g>
				<g>
					<g>
						<g>
							<polygon class="st9" points="459.05,831.56 446.95,888.1 403.09,1092.61 378.42,1207.99 232.82,1887.45 216,1887.45 
								353.69,1092.61 378.42,949.95 389.11,888.1 398.9,831.56 							"/>
						</g>
					</g>
					<polygon class="st3" points="459.05,831.56 446.95,888.1 389.11,888.1 398.9,831.56 					"/>
				</g>
			</g>
			<g>
				<rect x="1832.54" y="1485.23" class="st9" width="156.33" height="27.48"/>
				<g>
					<g>
						<g>
							<polygon class="st9" points="2073.66,1887.45 2056.78,1887.45 1919.08,1244.65 1911.23,1207.99 1886.5,1092.61 
								1877.29,1049.58 1842.65,888.1 1830.55,831.56 1890.69,831.56 1900.49,888.1 1906.92,925.22 1911.23,949.95 1935.9,1092.61 
								1943.87,1138.53 							"/>
						</g>
					</g>
					<polygon class="st3" points="1890.69,831.56 1900.49,888.1 1842.65,888.1 1830.55,831.56 					"/>
					<polygon class="st3" points="1943.87,1138.53 1919.08,1244.65 1911.23,1207.99 1886.5,1092.61 1877.29,1049.58 1906.92,925.22 
						1911.23,949.95 1935.9,1092.61 					"/>
				</g>
				<g>
					<g>
						<g>
							<polyline class="st9" points="1926.86,1134.89 1911.23,1207.99 1765.62,1887.45 1748.8,1887.45 1886.5,1092.61 
								1911.23,949.95 1921.91,888.1 1931.71,831.56 1991.85,831.56 1979.75,888.1 1935.9,1092.61 1926.86,1134.89 							"/>
						</g>
					</g>
					<polygon class="st3" points="1991.85,831.56 1979.75,888.1 1921.91,888.1 1931.71,831.56 					"/>
				</g>
			</g>
		</g>
		<g>
			<rect x="180.64" y="748.89" class="st9" width="1928.37" height="82.64"/>
		</g>
	</g>
	<g>
		<g>
			<rect x="1030.99" y="730.52" class="st7" width="416.93" height="18.7"/>
			<rect x="1030.99" y="730.52" class="st6" width="209.85" height="18.7"/>
		</g>
		<g>
			<g>
				<polygon class="st6" points="1274.57,749.2 1680.9,749.2 1738.31,473.23 1331.98,473.23 				"/>
			</g>
			<path class="st11" d="M1474.94,617.38c-1.57,14.96,9.28,27.08,24.24,27.08c14.96,0,28.36-12.12,29.93-27.08
				c1.57-14.96-9.28-27.08-24.24-27.08C1489.91,590.3,1476.51,602.42,1474.94,617.38z"/>
		</g>
	</g>
	<g>
		<path class="st5" d="M548.06,831.61c-19.56,193.93-26.28,369.04-26.28,369.04s238.6,36.95,243.04,16.39
			c4.44-20.56,13.24-191.27,17.8-385.43H548.06z"/>
		<path class="st7" d="M747.6,831.61h-4.62c-0.02,6.05,0.06,12.23-0.08,14.09c-83.95,10.79-135.91,1.77-162.84-3.43
			c0.01-3.83,0.01-7.26-0.01-10.66h-3.96c-0.35,14.66-0.51,35.81-0.91,48.63c-1.37,43.87,0.65,93.51,9.98,102.64
			c17.49,17.09,64.05,15.64,78.63,15.53c14.49-0.11,66.78-0.17,79.01-27.05c5.4-11.86,6.83-73.1,6.68-94.79
			C749.44,870.29,748.42,846.52,747.6,831.61z M742.76,921.1c-0.63,21.66-1.33,41.26-9.64,52.51c-7.13,9.65-27.25,19.34-73.5,19.28
			c-33.44-0.04-61.62-6.12-69.37-15.03c-9.27-10.64-10.4-41.29-10.39-59.58c0.01-25.24,0.1-45.4,0.18-70.64
			c64.63,15.03,135.75,7.63,162.72,2.17C742.68,850.89,743.25,904.14,742.76,921.1z"/>
	</g>
	<polygon class="st8" points="839.97,387.18 824.43,528.92 870.16,512.91 908.07,501.21 895.61,361.98 859.18,333.26 	"/>
	<g>
		<g>
			<path class="st5" d="M887.55,349.28c1.95-0.98,3.99-1.7,6.09-2.19l-9.24-69.91l-12.13-15.47l-17.06,58.77l-77.34-64.49
				l-17.61,24.92c0,0,80,106.73,79.92,101.56l18.43-51.02l24.95,20.59C884.78,350.98,886.12,350,887.55,349.28z"/>
			<path class="st3" d="M882.97,352.52c0.53-0.49,1.11-0.94,1.7-1.39c-10.14-7.89-25.89-20.02-26.06-19.69
				c-4.28,8.24-17.83,45.41-18.68,48.75c-12.66-16.96-60.83-78.4-75.38-94.17c-0.42-0.45-1.14,0.03-0.79,0.57
				c11.49,18.1,75.38,100.93,76.21,100.59c0.62,0.39,17.5-45.41,19.22-53.92c2.97,2.98,13.52,12.38,22.88,20.34
				C882.37,353.24,882.63,352.84,882.97,352.52z"/>
			<path class="st3" d="M896.26,346.63c-1.08-9.29-2.47-18.77-3.82-26.88c-2.32-13.94-4.27-28.04-7.23-41.86
				c-0.11-0.49-0.9-0.63-0.97-0.04c-1.2,11.38,4.78,49.42,7.62,69.72C893.29,347.14,894.76,346.81,896.26,346.63z"/>
		</g>
	</g>
	<g>
		<path class="st5" d="M784.17,362.37c-15.08,62.32-92.47,283.91-111.73,303.14c-22.94,22.9-122.93,93.34-157.81-0.43
			c-24.16-64.94,140.01-292.56,217.59-365.96C770.14,263.24,809.43,258,784.17,362.37z"/>
		<path class="st3" d="M781.44,407.51c-3.83,6.09-7.81,12.12-11.36,18.38c-0.72,1.26-1.37,2.55-2.06,3.83
			c1.23-4.13,2.46-8.27,3.6-12.43c2.93-10.67,5.29-21.41,7.89-32.15c0.24-1-1.22-1.34-1.54-0.38c-3.01,9.21-6.39,18.3-9.43,27.5
			c-2.89,8.75-5.63,17.54-8.49,26.3c-5.92,18.17-12.12,36.24-18.33,54.31c-12.34,35.92-25.74,71.45-39.82,106.72
			c-7.81,19.55-15.84,39.02-23.25,58.72c-0.2,0.53,0.66,0.85,0.92,0.36c17.6-33.51,31.91-68.86,45.58-104.13
			c13.64-35.2,26.29-70.76,37.4-106.83c0.92-2.98,1.83-5.96,2.74-8.94c0.39-0.66,0.8-1.31,1.19-1.96c1.88-3.13,3.72-6.26,5.47-9.46
			c3.52-6.41,6.62-13.06,9.84-19.63C781.91,407.47,781.58,407.29,781.44,407.51z"/>
	</g>
	<g>
		<path class="st9" d="M882.57,299.44c-3.94-36.95-45.35-43.11-73.35-42.05c-33.18,1.26-55.88,15.23-65.91,49.38
			c-10.58,36.01-7.24,75.07-7.3,112.45c-0.01,6.98-10.86,7.15-10.85,0.15c0.07-43.08-7.11-125.25,30.49-155.26
			c34.61-27.62,131.1-27.44,137.77,35.17C894.16,306.23,883.31,306.34,882.57,299.44L882.57,299.44z"/>
		<g>
			<path class="st3" d="M705.95,440.15c0.19,13.76,11.5,24.76,25.27,24.57c13.76-0.19,24.76-11.5,24.57-25.27
				c-0.19-13.76-11.5-24.76-25.27-24.57C716.76,415.08,705.76,426.39,705.95,440.15z"/>
			<path class="st5" d="M715.87,440.02c0.12,8.28,6.93,14.91,15.21,14.79c8.28-0.12,14.91-6.93,14.79-15.21
				c-0.12-8.28-6.93-14.91-15.21-14.79C722.38,424.92,715.76,431.73,715.87,440.02z"/>
		</g>
		<g>
			<g>
				<g>
					<path class="st10" d="M865.14,522.95c0.38-0.29,0.78-0.57,1.19-0.82c0.82-0.5,1.64-1.05,2.53-1.42
						c0.53-0.22,1.05-0.3,1.57-0.44c-1.59-20.07-1.3-50.97,2.73-99.29l-7.54-0.63c-4.26,51.12-4.54,83.38-2.52,104.3
						C863.77,524.07,864.43,523.48,865.14,522.95z"/>
				</g>
				<g>
					<path class="st10" d="M965.07,479.97c0.03-0.01,0.07-0.03,0.1-0.04c1.21-0.49,2.51-0.89,3.79-1.12
						c0.22-0.04,0.45-0.01,0.68-0.03c-6.83-19.09-16.63-42.37-29.75-70.83l-6.87,3.17c12.7,27.55,22.37,50.58,29.13,69.44
						C963.13,480.37,964.11,480.19,965.07,479.97z"/>
				</g>
			</g>
			<path class="st3" d="M941.88,404.26c-4-10.31-14.85-35.77-22.2-48.2c-6.03-10.21-18.15-15.67-18.15-15.67
				c-1.5,0.12-3.15-13.02-4.27-23.79c-0.97-9.5-1.91-20.59-4.69-23.22c-2.69-2.54-8.39-1.73-10.32,1.28
				c-2.07,3.22-0.28,14.2,1.05,23.67c1.52,10.72,3.08,23.86,1.59,24.11c0,0-9.65,8.63-12.92,19.68c-3.66,12.33-8.51,44.4-8.87,53.6
				c-0.45,11.42,3.4,12.14,6.74,12.67c4.73,0.73,7.02-2.8,8.39-15.58c2.15-20.25,3.44-53.92,16.86-56.18l0-0.03
				c13.55-1,25,32.41,32.65,50.81c4.79,11.52,7.52,12.23,11.94,10.38C942.79,416.47,945.87,414.53,941.88,404.26z"/>
		</g>
	</g>
	<g>
		<g>
			<path class="st4" d="M859.48,323.03c-21.88,7.12-63-23.75-80.42-50.09c-1.18-1.81,0.41-78.14-0.85-93.3
				c-0.27-3.11,97.12,15.2,97.12,15.2s-6.73,32.55-4.37,58.96C871.18,256,880.62,316.13,859.48,323.03z"/>
		</g>
		<path class="st3" d="M875.37,194.81c0,0,0,0-0.06,0.07c-0.08,0.47-0.47,2.37-0.99,5.42c-0.88,5.21-2.2,13.65-2.99,23.23
			c-0.86,9.59-1.26,20.32-0.35,30.24c0.02,0.73,0.16,1.44,0.23,2.1l0.04,0.33c0.2,1.24,0.39,2.88,0.61,4.84
			c-2.78,0.64-5.86,1.05-9.22,1.29c-51.9,3.12-74.61-59.01-81.46-83.01c0.53,0.01,1.07,0.08,1.68,0.15c2.54,0.18,5.91,0.6,9.95,1.15
			c1.01,0.15,2.02,0.31,3.1,0.45c6.48,0.94,14.19,2.21,22.23,3.5c2.64,0.44,5.28,0.87,7.99,1.37c5.76,1.02,11.58,2.03,16.99,2.96
			c2.31,0.47,4.61,0.88,6.78,1.24c2.37,0.4,4.74,0.87,6.91,1.22c1.09,0.21,2.17,0.42,3.18,0.58c0.55,0.14,1.02,0.22,1.49,0.3
			c3.18,0.57,5.9,1.07,8.07,1.49c1.62,0.28,2.91,0.54,3.86,0.7c0.82,0.17,1.36,0.25,1.63,0.35c0.13-0.01,0.2-0.02,0.27,0.04
			C875.37,194.81,875.37,194.81,875.37,194.81z"/>
	</g>
	<g>
		<path class="st4" d="M766.47,64.2c-10.55,33.76,6.73,131.58,30.68,153.51c34.73,31.79,91.89,35.16,119.02-6.61
			c26.3-40.48,1.53-167.57-25.26-187.53C851.47-5.82,782.05,14.33,766.47,64.2z"/>
	</g>
	<g>
		<g>
			<path class="st3" d="M854.47,116.33c-10.72,1.32-7.29,22.66,2.65,21.44C866.89,136.56,863.45,115.23,854.47,116.33z"/>
		</g>
		<g>
			<path class="st3" d="M904.94,109.08c10.5-2.52,14.76,18.67,5.04,21C900.4,132.38,896.14,111.19,904.94,109.08z"/>
		</g>
		<path class="st3" d="M840.5,96.13c2.07-2.22,4.35-3.92,6.63-5.9c2.57-2.24,4.38-4.28,7.9-4.73c1.89-0.24,4.08,1.5,4.49,3.32
			c0.95,4.23-1.52,7.75-4.5,10.57c-3.23,3.06-6.51,4.59-10.94,4.92C839.79,104.62,837.77,99.06,840.5,96.13z"/>
		<path class="st3" d="M916.61,95.14c-2.6-1.57-5.26-2.58-7.99-3.86c-3.08-1.45-5.39-2.92-8.9-2.38c-1.89,0.29-3.51,2.57-3.41,4.42
			c0.25,4.32,3.58,7.03,7.22,8.93c3.95,2.06,7.52,2.63,11.87,1.73C919.63,103.11,920.04,97.21,916.61,95.14z"/>
	</g>
	<g>
		<g>
			<path class="st9" d="M895.26,474.44c0,0-24.2-31.91-1.1-46.64c23.09-14.73,41.83,20.66,41.83,20.66L895.26,474.44z"/>
			<g>
				<path class="st9" d="M1086.58,684.49l0.01,0.03l3.35,39.04l1.19,12.87l-11.28-6.4l-34-19.53l-0.03,0.01l-0.01-0.07
					L894.39,473.09l40.74-25.98l151.41,237.39C1086.58,684.49,1086.58,684.49,1086.58,684.49z"/>
				<polygon class="st3" points="1089.96,723.58 1091.12,736.45 1079.83,730.03 				"/>
			</g>
			
				<rect x="888.76" y="457.96" transform="matrix(0.8431 -0.5378 0.5378 0.8431 -105.4053 565.8881)" class="st3" width="56.41" height="11.19"/>
			
				<rect x="895.42" y="468.39" transform="matrix(0.8431 -0.5378 0.5378 0.8431 -109.9662 571.1475)" class="st3" width="56.41" height="11.19"/>
			<polygon class="st3" points="902.85,493.88 918.19,484.09 964.52,575.36 958.66,578.64 			"/>
		</g>
		<g>
			<path class="st4" d="M813.09,533.68c23.64-1.38,66.15,205.19,31.5,208.88c-154.43,16.47-273.4-23.89-300.42-41.78
				c-35.43-23.44-31.83-72.65-12.84-92.94C564.22,572.72,776.37,535.82,813.09,533.68z"/>
			<g>
				<path class="st4" d="M1101.18,562.9c-3.51,22.67-58.67,9.26-58.67,9.26s12.01,10.34,13.36,25.5
					c1.54,17.37-25.02,27.4-25.02,27.4s9.99,12.98,9.8,29.14c-0.2,16.77-25.55,30.71-25.55,30.71s2.67,17.2-7.52,31.05
					c-17.41,23.68-175.45,26.95-195.19,27.79L803.22,537c0,0,130.99-51.84,164.16-44.89C995.32,497.95,1106.55,528.25,1101.18,562.9
					z"/>
				<g>
					<path class="st3" d="M1042.15,571.44c-28.22-13.35-59.57-19.92-89.9-25.93c-0.67-0.13-0.88,0.93-0.2,1.05
						c30.23,5.62,59.69,19.47,89.63,26.29C1042.51,573.04,1042.91,571.8,1042.15,571.44z"/>
					<path class="st3" d="M1030.4,622.63c-6.47-2.83-13.86-3.51-20.79-4.53c-7.46-1.1-14.94-2.06-22.43-2.9
						c-15-1.7-30.04-3.06-45.12-3.97c-0.67-0.04-0.9,0.97-0.2,1.05c14.95,1.72,29.87,3.66,44.73,6.01
						c7.44,1.17,14.87,2.41,22.29,3.7c6.9,1.2,14.08,3.04,21.13,2.67C1031.05,624.6,1031.38,623.05,1030.4,622.63z"/>
					<path class="st3" d="M1014.47,684.81c-5.53-2.68-12.9-2.52-18.94-3.08c-6.85-0.63-13.7-1.3-20.54-2.01
						c-13.69-1.41-27.37-2.84-41-4.73c-0.68-0.09-0.88,0.95-0.2,1.05c13.84,1.99,27.64,4.17,41.5,6.04
						c6.8,0.92,13.61,1.8,20.42,2.64c5.79,0.72,12.95,2.27,18.71,0.77C1014.75,685.42,1014.75,684.95,1014.47,684.81z"/>
				</g>
			</g>
		</g>
		<g>
			<path class="st5" d="M790,533.12l36.08,231.11c0,0-245.12-21.92-292.08-67.13c-32.64-31.43-22.76-80.71-3.99-95.54
				C571.01,569.16,790,533.12,790,533.12z"/>
			<g>
				<path class="st3" d="M763.12,746.75c-6.23-32.31-26.91-165.46-29.43-194.53c-0.18-2.02,1.06-2.62,1.51-0.54
					c21.01,96.37,24.7,162.78,29.19,194.78C764.5,747.26,763.28,747.57,763.12,746.75z"/>
				<path class="st3" d="M790.38,530.83c-1.29-0.45-99.11,15.31-168.4,34.72c-1.48,0.41-2.92,0.94-4.39,1.4
					c-10.4,1.03-20.72,3.12-30.96,5.01c-0.29,0.05-0.22,0.5,0.07,0.44c8.19-1.51,16.45-2.46,24.71-3.47
					c-4.72,1.54-9.42,3.11-14.1,4.76c-8.26,2.93-16.4,6.17-24.63,9.19c-0.28,0.1-0.09,0.51,0.18,0.41
					c13.79-4.89,27.96-8.95,42-13.12c14.24-4.24,174.28-36.94,174.94-36.92c0.15,0.01,0.5,1.44,0.59,1.98
					c0.11,0.67,0.85,0.77,0.78,0.14C791.1,534.58,790.71,530.94,790.38,530.83z"/>
				<path class="st3" d="M792.13,760.53c-6.99-1.48-33.23-3.82-40.2-4.8c-14.07-1.97-28.14-3.78-42.16-6.1
					c-28.14-4.67-56.03-10.62-83.78-17.2c-7.7-1.82-15.36-3.76-23.03-5.68c-7.98-2-33.93-10.79-41.74-13.35
					c-0.3-0.1-0.48,0.37-0.18,0.45c6.86,2,14.96,7.47,38.13,13.86c6.89,1.9,13.67,4.19,20.54,6.15c13.8,3.94,27.76,7.31,41.76,10.44
					c27.95,6.25,56.3,10.9,84.73,14.37c8,0.98,38.01,3.86,45.98,3.4C793.1,762.02,792.93,760.7,792.13,760.53z"/>
			</g>
		</g>
	</g>
	<path class="st7" d="M769.05,139.02c18.81-3.07,30.38-30.08,30.7-50.82c0.24-15.32-5.55-46.03,9.47-56.5
		c14.96-10.43,32.26,0.59,50.58-2.84c7.74-1.45,14.53-9.9,22.92-9.9c13.49,0,27.09,36.43,27.09,36.43s-4.39-51.12-52.85-54.9
		c-46.68-3.64-80.37,13.24-89.74,47.18C755.12,91.52,769.05,139.02,769.05,139.02z"/>
	<g>
		<path class="st4" d="M787.81,143.88c0,0-22.56-31.28-36.81-23.2c-14.25,8.08,3.02,53.65,19.96,59.67
			c16.94,6.03,22.84-9.52,22.84-9.52L787.81,143.88z"/>
	</g>
	<path class="st3" d="M887.38,168.43c-3.79,0-7.32-1.24-7.9-1.45l1.64-4.47c1.72,0.63,7.18,2.02,9.81,0.37
		c0.57-0.36,0.62-0.64,0.64-0.75c0.26-1.48-2.08-4.54-3.35-6.19c-0.83-1.09-1.53-2.03-1.86-2.7c-3.57-7.07,1.11-14.62,1.31-14.94
		l4.03,2.54c-0.04,0.06-3.43,5.61-1.09,10.25c0.25,0.49,0.79,1.15,1.39,1.94c2.06,2.69,4.88,6.37,4.25,9.92
		c-0.2,1.12-0.85,2.71-2.78,3.94C891.67,168.05,889.48,168.43,887.38,168.43z"/>
	<path class="st3" d="M885.69,188.28c-14.97,0-26.57-8.04-26.74-8.16l2.75-3.89c0.9,0.64,22.47,15.5,43.73,1.18l2.66,3.95
		C900.44,186.52,892.69,188.28,885.69,188.28z"/>
	<path class="st3" d="M781.67,169.52c-0.23-0.47-5.81-11.42-17.13-10.75l-0.31-4.76c4.78-0.31,8.81,1.01,12,2.94
		c-4.08-7.27-10.63-15.47-20.07-17.46l0.99-4.66c20.54,4.34,28.61,31.8,28.94,32.97L781.67,169.52z"/>
</g>
</svg>
