<?xml version="1.0" encoding="utf-8"?>
<!-- Generator: Adobe Illustrator 27.7.0, SVG Export Plug-In . SVG Version: 6.00 Build 0)  -->
<svg version="1.1" id="Ebene_1" xmlns="http://www.w3.org/2000/svg" xmlns:xlink="http://www.w3.org/1999/xlink" x="0px" y="0px"
	 viewBox="0 0 767.26 767.26" style="enable-background:new 0 0 767.26 767.26;" xml:space="preserve">
<style type="text/css">
	.st0{fill:#FB6A55;}
	.st1{fill:#969696;}
	.st2{fill:#2B454E;}
	.st3{fill:#1A2E35;}
	.st4{fill:#FFABA1;}
	.st5{fill:#ECECEC;}
	.st6{fill:#DCDCDC;}
	.st7{fill:#A8A8A8;}
	.st8{fill:#4D6FB4;}
	.st9{fill:#375A64;}
	.st10{fill:#C8C8C8;}
	.st11{fill:#FFFFFF;}
	.st12{fill:#F7DFC4;}
	.st13{fill:#F2F2F2;}
	.st14{opacity:0.1;}
	.st15{opacity:0.3;fill:#1A2E35;}
	.st16{fill:#97BEDB;}
	.st17{fill:#771137;}
	.st18{fill:#FF9ABD;}
	.st19{fill:#F39C8C;}
	.st20{fill:#F4B3CC;}
	.st21{fill:#864240;}
	.st22{fill:#C26358;}
	.st23{fill:none;stroke:#1A2E35;stroke-miterlimit:10;}
	.st24{opacity:0.1;fill:#010000;}
	.st25{opacity:0.4;}
	.st26{opacity:0.2;}
	.st27{fill:#010000;}
	.st28{fill:#F4B85A;}
	.st29{fill:#FFC5C1;}
	.st30{fill:#BD5324;}
	.st31{fill:#D95000;}
	.st32{opacity:0.6;}
	.st33{clip-path:url(#SVGID_00000129885970685102120640000007873805222025847699_);}
	.st34{clip-path:url(#SVGID_00000013183653710079146390000007085867941260854185_);}
	.st35{fill:url(#SVGID_00000070838557614874621130000017466465245495390353_);}
	.st36{clip-path:url(#SVGID_00000169535062514785528060000005005518791002445453_);}
	.st37{clip-path:url(#SVGID_00000101803173492752662580000005303008756306793124_);}
	.st38{opacity:0.5;}
	.st39{fill:#334F7C;}
	.st40{clip-path:url(#SVGID_00000036226747870988638780000011603907898858019969_);}
	.st41{fill:none;stroke:#44555B;stroke-width:0.05;stroke-miterlimit:10;}
	.st42{fill:none;}
	.st43{clip-path:url(#SVGID_00000181768143173298161250000000221263465787217551_);}
	.st44{fill:#919191;}
	.st45{fill:#CCCCCC;}
	.st46{fill:#AFAFAF;}
	.st47{fill:#F4DFCE;}
	.st48{fill:#35271C;}
	.st49{fill:#DDC6B6;}
	.st50{clip-path:url(#SVGID_00000094609527631116612730000012072817145943303811_);}
	.st51{clip-path:url(#SVGID_00000101822149743257771640000001063020292999612305_);}
	.st52{clip-path:url(#SVGID_00000052089578348017659110000010704258446979489697_);}
	.st53{opacity:0.2;fill:#1A2E35;}
	.st54{fill:#D8BCA0;}
</style>
<g>
	<circle class="st1" cx="383.63" cy="383.63" r="383.63"/>
	<g>
		<defs>
			<circle id="SVGID_00000018922063268543750380000003667240032931079853_" cx="383.63" cy="383.63" r="383.63"/>
		</defs>
		<clipPath id="SVGID_00000167382110449437793580000017794043205867703970_">
			<use xlink:href="#SVGID_00000018922063268543750380000003667240032931079853_"  style="overflow:visible;"/>
		</clipPath>
		<g style="clip-path:url(#SVGID_00000167382110449437793580000017794043205867703970_);">
			<g>
				<path class="st8" d="M248.99,541.57c4.07,4.3,21.17,16.77,35.52,9.26c6.19-3.24,24.55-81.18,27.02-83.61
					c2.48-2.43,293.41,227.96,307.93,226.74c14.52-1.22-29.62-186.98-99.96-248.3s-224.96-88.43-249.88-49.47
					C244.71,435.15,245.24,537.61,248.99,541.57z"/>
				<path class="st11" d="M248.99,541.57c4.07,4.3,21.17,16.77,35.52,9.26c6.19-3.24,24.55-81.18,27.02-83.61
					c2.48-2.43,293.41,227.96,307.93,226.74c14.52-1.22-29.62-186.98-99.96-248.3s-224.96-88.43-249.88-49.47
					C244.71,435.15,245.24,537.61,248.99,541.57z"/>
				<g>
					<path class="st14" d="M561.59,550.79c17.52-11.37-12.33-38.99-21.46-33.07C531,523.65,551.72,557.2,561.59,550.79z"/>
					<path class="st14" d="M365.55,473.17c7.53-13.32-22.01-25.63-27.66-15.64C332.25,467.52,359.9,483.16,365.55,473.17z"/>
					<path class="st14" d="M381.83,496c5.67-10.02-12.91-17.22-17.16-9.7C360.42,493.81,377.58,503.52,381.83,496z"/>
				</g>
			</g>
			<g>
				<path class="st8" d="M624.05,252.13c-3.52,2.78-27.75-2.39-38.09,2.4c-9.1,4.17-15.58,9.28-17.09,10.48
					c-0.04,0-0.04,0-0.04,0.04c-0.18,0.13-0.27,0.22-0.27,0.22s-0.13,0.62-0.44,1.69c-1.86,7.15-9.81,35.25-21.4,49.73
					c-13.32,16.65-47.73,36.63-59.54,41.42c-11.85,4.84-60.12,19.05-86.76,42.93c-26.64,23.89-159.3,177.06-202.01,199.26
					c-42.76,22.2-151.89,63.45-213.34,70.82c-61.4,7.41-301.39-17.77-333.93-31.09c-10.7-4.4,446.44-125.01,498.21-156.09
					c51.81-31.08,145.05-125.83,153.93-146.52c8.88-20.73,8.88-124.32,27.39-159.13c18.47-34.76,100.61-92.48,136.88-82.85
					c36.27,9.59,104.74,66.32,124.32,88.87C613.78,209.59,629.61,247.75,624.05,252.13z"/>
				<path class="st11" d="M624.05,252.13c-3.52,2.78-27.75-2.39-38.09,2.4c-9.1,4.17-15.58,9.28-17.09,10.48
					c-0.04,0-0.04,0-0.04,0.04c-0.18,0.13-0.27,0.22-0.27,0.22s-0.13,0.62-0.44,1.69c-1.86,7.15-9.81,35.25-21.4,49.73
					c-13.32,16.65-47.73,36.63-59.54,41.42c-11.85,4.84-60.12,19.05-86.76,42.93c-26.64,23.89-159.3,177.06-202.01,199.26
					c-42.76,22.2-151.89,63.45-213.34,70.82c-61.4,7.41-301.39-17.77-333.93-31.09c-10.7-4.4,446.44-125.01,498.21-156.09
					c51.81-31.08,145.05-125.83,153.93-146.52c8.88-20.73,8.88-124.32,27.39-159.13c18.47-34.76,100.61-92.48,136.88-82.85
					c36.27,9.59,104.74,66.32,124.32,88.87C613.78,209.59,629.61,247.75,624.05,252.13z"/>
				<g>
					<path class="st14" d="M351.79,175.99c-17.6-7.86-24.01,29.13-14.84,33.22C346.12,213.31,361.71,180.42,351.79,175.99z"/>
					<path class="st14" d="M359.95,210.34c-12.89-5.76-21.63,22.46-11.96,26.78C357.66,241.43,369.62,214.66,359.95,210.34z"/>
					<path class="st14" d="M332.85,232.84c-10.47-1.83-10.98,16.55-3.13,17.92C337.58,252.14,340.7,234.21,332.85,232.84z"/>
				</g>
				<g>
					<path class="st3" d="M568.82,265.06c-0.18,0.13-0.27,0.22-0.27,0.22s-0.13,0.62-0.44,1.69c-23,14.52-43.33,33.12-67.13,46.44
						c-12.08,6.75-25.4,12.7-39.43,13.14c-14.96,0.44-28.64-4.88-42.18-10.61c-0.31-0.13-0.09-0.62,0.22-0.53
						c14.56,4.26,30.5,8.12,45.69,6.26c15.98-2,30.9-10.52,44.49-18.74C529.83,290.77,548.52,276.69,568.82,265.06z"/>
					<path class="st3" d="M397.54,224.37c-10.52,4.39-11.48,17.72-2.96,23.9c0.67,0.49,1.54-0.07,1.48-0.86
						c-0.32-4.56,0.41-8.88,3.11-12.7c1.14-1.61,3.49-3.47,4.18-5.44C404.66,225.54,401.02,222.92,397.54,224.37z"/>
					<g>
						<path class="st3" d="M439.58,250.65c-0.17-0.1-0.38,0.1-0.24,0.26c12.84,14.66,7.84,34.06-4.22,47.14
							c-0.47,0.51-0.06,0.51,0.46,0.22C450.84,289.49,456.84,261.13,439.58,250.65z"/>
						<path class="st3" d="M430.87,247.64c-25.55-2.32-29.2,37.39-3.61,39.71C452.82,289.67,456.46,249.97,430.87,247.64z"/>
					</g>
				</g>
			</g>
			<g>
				<path class="st8" d="M289.95,351.11c4.51,7.73-104.34,128.76-122.1,143.19C150.09,508.72,25.77,615.28-39.71,629.71
					c-65.49,14.43-324.96,11.43-333.84,9.21c-8.88-2.22,77.44-206.78,106.3-245.63c28.86-38.85,233.09-136.53,303.02-125.43
					C105.69,278.96,282.18,337.79,289.95,351.11z"/>
				<path class="st3" d="M289.95,351.11c4.51,7.73-104.34,128.76-122.1,143.19C150.09,508.72,25.77,615.28-39.71,629.71
					c-65.49,14.43-324.96,11.43-333.84,9.21c-8.88-2.22,77.44-206.78,106.3-245.63c28.86-38.85,233.09-136.53,303.02-125.43
					C105.69,278.96,282.18,337.79,289.95,351.11z"/>
			</g>
			<g>
				<path class="st8" d="M-263.11,388.5c4.18,5.34,54.68,17,68.56,15.33c13.87-1.66,147.63-56.05,154.84-62.71
					c7.22-6.66,51.67-72.67,45.51-74.13c-24.42-5.79-83.8,8.64-95.46,11.42c-11.65,2.77-106,47.73-113.22,51.61
					C-210.1,333.9-268.33,381.84-263.11,388.5z"/>
				<path class="st8" d="M-91.33,387.18c-1.42,5.2,46.8,168.9,60.12,171.86c13.32,2.96,123.58-62.16,123.58-81.4
					C92.36,455.12-17.62,359.63-26.4,357.03C-36.38,354.07-89.11,379.04-91.33,387.18z"/>
				<path class="st8" d="M-8.45,342.31c4.37,4.77,109.89,109.33,125.43,111.55c15.54,2.22,121.58-125.05,121.03-136.71
					c-0.55-11.65-184.42-52.68-195.86-51.52C27.73,267.08-15.08,335.06-8.45,342.31z"/>
				<path class="st8" d="M-24.54,581.15c-3.47,2.42,8.32,41.9,19.98,46.34c11.66,4.44,110.85-45.63,155.4-95.46
					c6.44-7.2-29.6-42.18-36.26-38.11c-3.78,2.31-29.49,24.94-61.97,46.71C27.82,557.24-9.22,570.44-24.54,581.15z"/>
				<path class="st8" d="M136.22,474.31c0.62,9.01,33.44,42.46,40.17,38.08c6.74-4.39,95.47-74.94,125.4-155.61
					c4.44-11.97-36.04-30.66-43.47-27.88c-4.45,1.67-19,28.21-47.47,64.2C191.71,417.29,135.48,463.49,136.22,474.31z"/>
			</g>
			<g>
				<path class="st8" d="M139.32,562.07c-1.06,6.62-0.48,30.57,16.14,38.29c7.17,3.33,89.86-33.85,93.75-33.3
					c3.89,0.55-2.77,420.68,8.33,432.89c11.1,12.21,147.63-155.4,154.29-260.84c6.66-105.45-75.48-263.06-127.65-258.62
					S140.29,555.98,139.32,562.07z"/>
				<path class="st11" d="M139.32,562.07c-1.06,6.62-0.48,30.57,16.14,38.29c7.17,3.33,89.86-33.85,93.75-33.3
					c3.89,0.55-2.77,420.68,8.33,432.89c11.1,12.21,147.63-155.4,154.29-260.84c6.66-105.45-75.48-263.06-127.65-258.62
					S140.29,555.98,139.32,562.07z"/>
				<g>
					<path class="st14" d="M372.03,727.29c-19.36-7.85-24.9,32.44-14.82,36.53C367.3,767.92,382.93,731.72,372.03,727.29z"/>
					<path class="st14" d="M397.37,735.67c-10.67-4.33-15.41,15.02-7.41,18.27C397.97,757.18,405.38,738.92,397.37,735.67z"/>
				</g>
				<g>
					<path class="st3" d="M249.21,567.06c-30.88,16.87-63.39,29.49-97.61,37.79C182.39,587.97,215.07,575.36,249.21,567.06
						L249.21,567.06z"/>
					<path class="st3" d="M167.81,606.88c5.57-7.27,12.6-12.81,21-16.48C183.25,597.68,176.2,603.19,167.81,606.88L167.81,606.88z"
						/>
					<path class="st3" d="M157.55,545.39c32.69-30.09,91.8-70.89,137.94-65.72c7.45,2.5,13.52,7.15,18.56,12.54
						c-5.97-4.23-12.44-8.16-19.32-9.34c-6.39-0.96-14.65,1.04-20.95,2.57C231.55,497.16,194.23,522.01,157.55,545.39L157.55,545.39
						z"/>
					<path class="st3" d="M162.8,530.78c8.19-7.11,19.24-10.71,30.04-10.63C182.9,524.64,173.24,527.69,162.8,530.78L162.8,530.78z"
						/>
				</g>
			</g>
		</g>
	</g>
</g>
</svg>
