<?xml version="1.0" encoding="utf-8"?>
<!-- Generator: Adobe Illustrator 27.7.0, SVG Export Plug-In . SVG Version: 6.00 Build 0)  -->
<svg version="1.1" id="Ebene_1" xmlns="http://www.w3.org/2000/svg" xmlns:xlink="http://www.w3.org/1999/xlink" x="0px" y="0px"
	 viewBox="0 0 767.26 765.97" style="enable-background:new 0 0 767.26 765.97;" xml:space="preserve">
<style type="text/css">
	.st0{fill:#FB6A55;}
	.st1{fill:#969696;}
	.st2{fill:#2B454E;}
	.st3{fill:#1A2E35;}
	.st4{fill:#FFABA1;}
	.st5{fill:#ECECEC;}
	.st6{fill:#DCDCDC;}
	.st7{fill:#A8A8A8;}
	.st8{fill:#4D6FB4;}
	.st9{fill:#375A64;}
	.st10{fill:#C8C8C8;}
	.st11{fill:#FFFFFF;}
	.st12{fill:#F7DFC4;}
	.st13{fill:#F2F2F2;}
	.st14{opacity:0.1;}
	.st15{opacity:0.3;fill:#1A2E35;}
	.st16{fill:#97BEDB;}
	.st17{fill:#771137;}
	.st18{fill:#FF9ABD;}
	.st19{fill:#F39C8C;}
	.st20{fill:#F4B3CC;}
	.st21{fill:#864240;}
	.st22{fill:#C26358;}
	.st23{fill:none;stroke:#1A2E35;stroke-miterlimit:10;}
	.st24{opacity:0.1;fill:#010000;}
	.st25{opacity:0.4;}
	.st26{opacity:0.2;}
	.st27{fill:#010000;}
	.st28{fill:#F4B85A;}
	.st29{fill:#FFC5C1;}
	.st30{fill:#BD5324;}
	.st31{fill:#D95000;}
	.st32{opacity:0.6;}
	.st33{clip-path:url(#SVGID_00000115506096306917810730000008615757990391385004_);}
	.st34{clip-path:url(#SVGID_00000142855606025446505170000009509031054461404298_);}
	.st35{fill:url(#SVGID_00000143615531185161267160000001473709874682626181_);}
	.st36{clip-path:url(#SVGID_00000041992079759129034700000009464858845607153300_);}
	.st37{clip-path:url(#SVGID_00000012436374800339353320000010709602960280713886_);}
	.st38{opacity:0.5;}
	.st39{fill:#334F7C;}
	.st40{clip-path:url(#SVGID_00000028296160684260265350000005167368783776127679_);}
	.st41{fill:none;stroke:#44555B;stroke-width:0.05;stroke-miterlimit:10;}
	.st42{fill:none;}
	.st43{clip-path:url(#SVGID_00000047778160478771617130000014050933731579207357_);}
	.st44{fill:#919191;}
	.st45{fill:#CCCCCC;}
	.st46{fill:#AFAFAF;}
	.st47{fill:#F4DFCE;}
	.st48{fill:#35271C;}
	.st49{fill:#DDC6B6;}
	.st50{clip-path:url(#SVGID_00000156574864485631266830000010176901612878497971_);}
	.st51{clip-path:url(#SVGID_00000097494716064696780570000002021817876164485546_);}
	.st52{clip-path:url(#SVGID_00000083796601235142273650000010773673046325286531_);}
	.st53{opacity:0.2;fill:#1A2E35;}
	.st54{fill:#D8BCA0;}
</style>
<g>
	<g>
		<defs>
			<circle id="SVGID_00000168830108722718282030000015276219555181337261_" cx="-560.4" cy="382.34" r="383.63"/>
		</defs>
		<clipPath id="SVGID_00000076573996439163592150000010115346219430937254_">
			<use xlink:href="#SVGID_00000168830108722718282030000015276219555181337261_"  style="overflow:visible;"/>
		</clipPath>
		<g style="clip-path:url(#SVGID_00000076573996439163592150000010115346219430937254_);">
			<path class="st9" d="M-143.95,506.05c45.32-8.08,138.49-41.27,139.32-135.14c0,0,54.87,157.61-63.65,207.28L-143.95,506.05z"/>
		</g>
	</g>
</g>
<circle class="st1" cx="383.63" cy="382.34" r="383.63"/>
<g>
	<defs>
		<circle id="SVGID_00000066514550668342876950000006982516568611967423_" cx="383.63" cy="382.34" r="383.63"/>
	</defs>
	<clipPath id="SVGID_00000044885034433843732030000015467216452293055889_">
		<use xlink:href="#SVGID_00000066514550668342876950000006982516568611967423_"  style="overflow:visible;"/>
	</clipPath>
	<g style="clip-path:url(#SVGID_00000044885034433843732030000015467216452293055889_);">
		<path class="st13" d="M660.47,761.95c-21.59,0.82-43.44-0.8-65.17-5.11c-9.97-1.98-19.73-4.51-29.3-7.46
			c-13.79,13.92-29.08,26.4-45.64,37.29c43.25,17.54,89.94,26.46,136.71,25.79c35.63-0.51,71.3-6.54,105.51-18.59
			c76.2-26.84,140.1-78.41,182.37-147.31c8.49-13.83,2.06-27.26-8.66-33.89c-10.9-6.74-26.23-6.45-34.87,7.62
			c-38.11,62.11-98,107.54-165.75,128.67c-19.28,6.01-39.2,10.06-59.44,11.95C671,761.4,665.75,761.75,660.47,761.95z"/>
		<path class="st13" d="M379.06,593.26c-0.15,1.36-0.25,2.36-0.29,2.84c0.48,0.02,0.92,0.12,1.42,0.1
			c11.76-0.61,23.98-15.25,32.38-27.86C399.98,584.63,388.84,593.97,379.06,593.26z"/>
		<path class="st13" d="M518.49,329.55l-50.71,11.33c7.41,0.24,14.9,2.07,21.94,5.79c22.91,12.08,31.02,40.92,17.8,63.19
			c-1.14,1.92-2.27,3.84-3.4,5.75l77.58-22.64c-1.16-1.53-2.37-3.03-3.55-4.54C561.18,366.8,541.2,346.93,518.49,329.55z"/>
		<path class="st13" d="M566,749.38c29.47-29.74,52.01-66.07,64.75-107.8c0.78-2.57,1.42-5.15,2.12-7.73
			c10.68-39.25,11.73-79.24,4.38-117.83l-203.04,33.84c-0.92,0.15-1.83,0.2-2.74,0.3c-1.21,0.22-2.4,0.44-3.63,0.65
			c0.09,0.5,0.07,1.02-0.17,1.5c-0.95,1.94-23.66,47.58-47.21,48.8l-1.12,0.03c-23.51,0-26.13-39.49-26.23-41.19
			c0-0.01,0-0.01,0-0.02c-18.5,0.94-30.37-0.04-30.88-3.19c-0.57-3.51,13.13-8.93,34.8-14.49c0.3-1.78,0.64-3.61,1.02-5.49
			c-38.64,4.86-67.32,5.21-68.12,0.26c-0.86-5.33,31-15.04,73.94-22.97c0.35-1.16,0.7-2.33,1.06-3.52c-0.51,0.08-0.99,0.17-1.5,0.25
			c-51.54,8.33-94.12,10.19-95.1,4.15c-0.98-6.04,40.02-17.69,91.57-26.03c3.87-0.63,7.66-1.2,11.41-1.75
			c0.18-1.12,0.4-2.24,0.65-3.34c-0.91,0.15-1.79,0.31-2.7,0.45c-34.7,5.61-65.27,8.27-81.89,7.58c-23.25,26.68-42.8,49.59-59,66.09
			c-0.67,2.55-1.06,4.01-1.09,4.11c-0.3,1.1-1.29,1.82-2.37,1.82l-0.64-0.09c-0.05-0.01-0.09-0.05-0.14-0.07
			c-4.05,11.7-8.51,23.09-13.16,34.16c-14.04,33.38-29.75,63.84-40.68,91.2c13.13-25.16,44.53-34.96,69.68-20.96
			c22.63,12.6,30.07,41.61,16.36,63.57c-15.89,25.46-31.38,53.39-46.2,80.92c1.11,0.49,2.25,0.97,3.4,1.45
			c7.15,2.99,15.05,5.84,23.83,8.52c9.04,2.76,18.09,5.06,27.13,7.09c6.66,1.49,13.32,2.84,19.96,3.94
			c7.54,1.25,15.05,2.18,22.55,2.94c0.02-0.15,0-0.29,0.05-0.44c2.84-9,70.75-220.26,173.61-207.18c1.34,0.17,2.3,1.4,2.13,2.75
			c-0.17,1.35-1.39,2.31-2.75,2.13c-65.08-8.3-117.19,81.93-145.34,145.03c14.33-21.89,43.49-29.77,67.13-16.61
			c22.63,12.6,30.08,41.61,16.36,63.57c-0.97,1.55-1.93,3.11-2.9,4.67c2.64-0.58,5.28-1.14,7.89-1.78c1.6-0.39,3.18-0.82,4.77-1.24
			c17.22-4.5,33.86-10.34,49.76-17.45c14.94-6.68,29.23-14.46,42.68-23.31C536.91,775.78,552.21,763.3,566,749.38z"/>
		<path class="st13" d="M363.55,581.55c-0.16,0.14-0.35,0.25-0.54,0.35c2.38,5.75,5.87,10.92,10.92,13.15c0.06-0.69,0.16-1.7,0.31-3
			C370.45,590.35,366.9,586.91,363.55,581.55z"/>
		<path class="st13" d="M341.6,369.06l13.76-39.85c-14.91,1.5-30.7,1.31-46.92-0.82c-16.5-2.18-32.06-6.19-46.27-11.65
			c-2.72,18.54-4.93,41.44-7.81,69.17c18.17-14.01,44.37-14.49,63.17,0.89c13.88,11.35,19.19,29.15,15.38,45.41
			c9.84-0.4,29.99,2.72,54.99,8.5c0.03-0.14,0.03-0.28,0.08-0.41l30.29-72.18c0.53-1.25,1.96-1.83,3.22-1.31
			c0.07,0.03,0.11,0.08,0.17,0.12c5.06-9.09,12.6-16.05,21.33-20.5L341.6,369.06z"/>
		<path class="st13" d="M330.59,439.28c-1.93,4.63-4.63,9.04-8.2,12.98c-7.35,8.12-14.37,16.02-21.15,23.71
			c16.5-4.63,39.18-9.51,64.45-13.59c5.11-0.83,10.1-1.57,15.01-2.27C356.81,452.22,338.47,444.6,330.59,439.28z"/>
		<path class="st13" d="M453.46,94.16c2.33-1.04,4.81,1.14,4.07,3.59l-10.54,34.75c4.44,4.7,8.5,9.69,12.11,14.96l15.65-58.48
			c2.38-8.89-6.45-16.65-14.96-13.15l-60.26,24.77c6.6,2.59,12.89,5.67,18.85,9.17L453.46,94.16z"/>
		<path class="st19" d="M453.46,94.16l-35.09,15.61c10.73,6.3,20.36,13.98,28.62,22.73l10.54-34.75
			C458.26,95.3,455.79,93.12,453.46,94.16z"/>
		<path class="st13" d="M263.44,121.86l-5.77-32.52c-0.39-2.2,1.99-3.84,3.91-2.7l29.22,17.41c5.27-2.54,10.75-4.73,16.41-6.56
			l-49.22-27.46c-7.04-3.92-15.52,1.91-14.38,9.89l7.75,53.93C255.08,129.59,259.12,125.58,263.44,121.86z"/>
		<path class="st19" d="M261.58,86.64c-1.92-1.14-4.3,0.5-3.91,2.7l5.77,32.52c8.18-7.04,17.39-13.02,27.35-17.81L261.58,86.64z"/>
		<path class="st13" d="M355.36,329.21l1-2.9c-6.62,0.09-13.34-0.29-20.13-1.18c-61.92-8.17-108.04-55.85-111.92-111.31l-4.49-0.13
			c-1.36-0.04-2.43-1.17-2.39-2.53c0.04-1.36,1.04-2.42,2.53-2.39l4.1,0.12c-0.14-5.59,0.14-11.25,0.89-16.95
			c1.72-13,5.72-25.18,11.53-36.29c-30.13,13.18-50.86,35.2-54.43,62.25c-5.27,39.94,28.42,78.97,80.12,98.83
			c14.21,5.46,29.77,9.47,46.27,11.65C324.65,330.52,340.45,330.71,355.36,329.21z"/>
		<path class="st13" d="M224.95,191.95c-0.75,5.7-1.02,11.36-0.89,16.95l18.55,0.56c1.36,0.04,2.43,1.17,2.39,2.53
			c-0.04,1.33-1.13,2.39-2.46,2.39h-0.07l-18.16-0.55c3.88,55.46,50,103.13,111.92,111.31c6.79,0.9,13.51,1.27,20.13,1.18
			l11.29-32.7l110.61-68.24c3.72-28.15-3.74-55.4-19.16-77.93c-3.61-5.27-7.67-10.26-12.11-14.96
			c-8.26-8.75-17.89-16.42-28.62-22.73c-5.96-3.5-12.26-6.58-18.85-9.17c-10.2-4.01-21.09-6.89-32.54-8.4
			c-20.93-2.76-41.28-0.67-59.77,5.3c-5.66,1.83-11.14,4.02-16.41,6.56c-9.96,4.79-19.17,10.77-27.35,17.81
			c-4.32,3.72-8.37,7.73-12.09,12c-5.79,6.65-10.78,13.96-14.88,21.79C230.67,166.76,226.67,178.94,224.95,191.95z"/>
		<path class="st13" d="M296.47,237.77c-0.73-0.99-1.31-2.03-1.81-3.08c-0.56,1.02-1.2,2.02-1.99,2.96
			c-3.83,4.61-9.66,6.99-17.34,7.05h-0.02c-1.35,0-2.45-1.09-2.46-2.44c-0.01-1.36,1.08-2.47,2.44-2.48
			c6.15-0.05,10.72-1.82,13.58-5.25c3.14-3.77,3.7-8.88,3.68-12.21c-8.44-1.26-14.73-6.41-14.55-12.41
			c0.2-6.73,8.45-11.94,18.42-11.64c9.97,0.3,17.89,5.99,17.69,12.72c-0.19,6.3-7.48,11.22-16.6,11.57
			c-0.21,3.33,0.06,8.39,2.94,12.31c2.64,3.6,7.1,5.64,13.24,6.06c1.36,0.09,2.38,1.27,2.29,2.62c-0.09,1.3-1.17,2.29-2.45,2.29
			l-0.17-0.01C305.69,245.32,300.01,242.6,296.47,237.77z"/>
		<path class="st13" d="M250.34,180.16c-2.27-0.07-4.02-3.31-3.9-7.24c0.12-3.93,2.06-7.07,4.33-7c2.27,0.07,4.02,3.31,3.9,7.25
			C254.55,177.1,252.61,180.23,250.34,180.16z"/>
		<path class="st13" d="M249.22,223.66l-20.58,2.95l-0.35,0.02c-1.2,0-2.25-0.88-2.43-2.11c-0.19-1.34,0.74-2.59,2.09-2.78
			l20.58-2.95c1.33-0.19,2.59,0.74,2.78,2.08C251.49,222.22,250.56,223.47,249.22,223.66z"/>
		<path class="st13" d="M356.5,222.03l20.36,4.18c1.33,0.27,2.19,1.57,1.91,2.9c-0.24,1.16-1.26,1.96-2.4,1.96l-0.5-0.05
			l-20.36-4.18c-1.33-0.27-2.19-1.57-1.91-2.91C353.87,222.62,355.18,221.77,356.5,222.03z"/>
		<path class="st13" d="M353.9,205.71c-0.19-1.34,0.74-2.59,2.08-2.78l20.58-2.95c1.32-0.19,2.59,0.74,2.78,2.08
			c0.19,1.34-0.74,2.59-2.08,2.78l-20.58,2.95l-0.35,0.02C355.12,207.82,354.07,206.94,353.9,205.71z"/>
		<path class="st13" d="M362.8,217.97c-1.36-0.04-2.43-1.18-2.39-2.53c0.04-1.36,0.92-2.49,2.53-2.38l22.65,0.68
			c1.36,0.04,2.42,1.18,2.38,2.53c-0.04,1.33-1.13,2.39-2.46,2.39h-0.07L362.8,217.97z"/>
		<path class="st13" d="M357.66,169.12c2.27,0.07,4.02,3.31,3.9,7.25c-0.12,3.93-2.05,7.07-4.33,7c-2.27-0.07-4.02-3.31-3.9-7.24
			C353.45,172.19,355.39,169.06,357.66,169.12z"/>
		<path d="M357.23,183.36c2.27,0.07,4.21-3.06,4.33-7c0.12-3.93-1.63-7.18-3.9-7.25c-2.27-0.07-4.21,3.07-4.33,7
			C353.21,180.06,354.96,183.3,357.23,183.36z"/>
		<path d="M250.77,165.92c-2.27-0.07-4.21,3.07-4.33,7c-0.12,3.93,1.63,7.18,3.9,7.24c2.27,0.07,4.21-3.06,4.33-7
			C254.78,169.23,253.04,165.99,250.77,165.92z"/>
		<path d="M296.42,198.27c-9.97-0.3-18.22,4.91-18.42,11.64c-0.18,6,6.12,11.15,14.55,12.41c0-0.03,0-0.04,0-0.06
			c0.43,0.13,0.86,0.28,1.31,0.35c0.66,0.1,1.35,0.08,2.01,0.09c0.28,0,0.57-0.02,0.85-0.06c0.3-0.02,0.54-0.19,0.81-0.28
			c0,0.06,0,0.15,0,0.21c9.12-0.35,16.41-5.27,16.6-11.57C314.32,204.27,306.39,198.57,296.42,198.27z"/>
		<path d="M286.36,205.3c0.06-2.11,2.73-3.74,5.95-3.64c3.22,0.1,5.79,1.89,5.72,3.99c-0.06,2.11-2.73,3.74-5.95,3.64
			C288.86,209.2,286.29,207.41,286.36,205.3z"/>
		<path class="st11" d="M298.03,205.65c0.06-2.11-2.5-3.9-5.72-3.99c-3.22-0.09-5.89,1.54-5.95,3.64c-0.06,2.11,2.5,3.9,5.72,3.99
			C295.3,209.39,297.97,207.76,298.03,205.65z"/>
		<path class="st13" d="M256.29,731.66c13.71-21.97,6.27-50.98-16.36-63.57c-25.15-14-56.55-4.2-69.68,20.96
			c-0.48,0.91-0.98,1.8-1.41,2.75c-3.9,8.7-8.32,19.02-13.04,30.42c-13.19,31.87-28.71,72.34-41.81,110.71
			C95.25,887.8,81.48,938.31,86.71,952.91c0.68,1.91,1.39,3.61,2.12,5.21c-0.02-0.16-0.07-0.31-0.05-0.47
			c0.09-1.05,2.4-25.91,14.64-52.23c0.57-1.23,2.03-1.77,3.27-1.19c1.23,0.58,1.76,2.04,1.19,3.27
			c-11.89,25.54-14.18,50.33-14.2,50.57c-0.11,1.28-1.19,2.25-2.45,2.25l-0.22-0.01c-0.61-0.05-1.12-0.34-1.52-0.75
			c3.9,7.9,8.45,11.66,13.57,11.99c0.98-7.52,4.37-27.88,14.29-49.2c0.57-1.23,2.03-1.78,3.27-1.2c1.23,0.57,1.77,2.03,1.19,3.27
			c-9.01,19.37-12.51,38.33-13.68,46.45c24.45-8.01,59.97-80.12,100.7-155.95c0.42-0.78,0.84-1.56,1.26-2.34
			C224.91,785.05,240.4,757.11,256.29,731.66z"/>
		<path class="st13" d="M401.8,762.2c-23.64-13.16-52.81-5.28-67.13,16.61c-14.56,32.63-22.72,58.01-22.95,58.75
			c-0.33,1.05-1.3,1.72-2.34,1.72l-0.74-0.11c-0.06-0.02-0.1-0.06-0.15-0.08c-26.08,66.34-51.72,146.03-43.85,168.04
			c0.7,1.96,1.42,3.74,2.15,5.43c-0.05-0.22-0.1-0.45-0.08-0.69c0.09-1.05,2.4-25.91,14.64-52.22c0.57-1.23,2.03-1.77,3.27-1.2
			c1.23,0.57,1.76,2.03,1.19,3.27c-11.87,25.5-14.18,50.34-14.2,50.58c-0.11,1.28-1.19,2.24-2.45,2.24l-0.22-0.01
			c-0.73-0.06-1.34-0.45-1.74-1c4.03,8.95,8.51,13.85,13.45,15.35c0-0.03-0.01-0.06-0.01-0.09c0.09-1.04,2.4-25.91,14.64-52.22
			c0.57-1.23,2.03-1.77,3.27-1.19c1.23,0.57,1.76,2.04,1.19,3.27c-11.89,25.54-14.18,50.33-14.2,50.58c0,0.02-0.02,0.04-0.02,0.07
			c28.93-3.39,71.86-105.02,129.74-198.83c0.96-1.56,1.93-3.12,2.9-4.67C431.87,803.8,424.42,774.8,401.8,762.2z"/>
		<path class="st13" d="M518.52,329.54c-37.91-33.81-40.27-104.16-40.27-104.16l-110.61,68.24l-11.29,32.7l-1,2.9l-13.76,39.85
			l101.41-22.65c7.61-3.88,16.13-5.82,24.78-5.53l50.71-11.33L518.52,329.54z"/>
		<path class="st20" d="M374.01,483.45c-0.69,0.12-1.38,0.23-2.08,0.35c-0.25,1.11-0.47,2.22-0.65,3.34
			c0.5-0.07,0.98-0.14,1.48-0.21C373.18,485.78,373.59,484.62,374.01,483.45z"/>
		<path class="st20" d="M431.46,550.16c0.91-0.1,1.82-0.15,2.74-0.3c2.01-0.32,3.97-0.77,5.89-1.3
			C437.27,549.1,434.4,549.63,431.46,550.16z"/>
		<path d="M364.43,579.85c0.02-0.25,1.76-25.13,13.05-50.89c0.54-1.25-0.02-2.69-1.27-3.24c-1.23-0.54-2.69,0.02-3.24,1.27
			c-8.27,18.89-11.53,36.89-12.76,46.12c0.7,2.86,1.6,5.88,2.8,8.78c0.2-0.09,0.38-0.21,0.54-0.35
			C364.04,581.13,364.38,580.54,364.43,579.85z"/>
		<path d="M391.79,545.56c0.54-1.24-0.02-2.69-1.27-3.24c-1.23-0.53-2.69,0.02-3.24,1.27c-9.04,20.64-12.1,40.21-13.05,48.45
			c-0.15,1.3-0.25,2.31-0.31,3c1.47,0.65,3.1,0.98,4.85,1.06c0.04-0.48,0.13-1.47,0.29-2.84
			C379.91,585.77,382.85,565.96,391.79,545.56z"/>
		<path d="M309.36,839.28c1.04,0,2.01-0.67,2.34-1.72c0.23-0.74,8.39-26.12,22.95-58.75c28.16-63.1,80.26-153.33,145.34-145.03
			c1.36,0.18,2.58-0.78,2.75-2.13c0.17-1.35-0.78-2.58-2.13-2.75c-102.86-13.08-170.77,198.18-173.61,207.18
			c-0.05,0.15-0.03,0.29-0.05,0.44c-0.13,1.1,0.45,2.14,1.5,2.56c0.05,0.02,0.09,0.06,0.15,0.08L309.36,839.28z"/>
		<path d="M418.28,368.11l-30.29,72.18c-0.06,0.14-0.05,0.28-0.08,0.41c-0.26,1.14,0.28,2.34,1.4,2.8l0.04,0.01l0.92,0.19
			c0.96,0,1.87-0.57,2.27-1.51l30.29-72.18c0.5-1.19-0.03-2.52-1.14-3.1c-0.06-0.03-0.1-0.09-0.17-0.12
			C420.25,366.28,418.81,366.86,418.28,368.11z"/>
		<path d="M426.54,549.02c-0.09-0.05-0.19-0.04-0.29-0.08c-1.16-0.41-2.45,0.07-3,1.2c-0.1,0.19-4.29,8.61-10.68,18.2
			c-8.41,12.61-20.62,27.25-32.38,27.86c-0.5,0.02-0.94-0.08-1.42-0.1c-1.75-0.09-3.38-0.41-4.85-1.06
			c-5.05-2.23-8.54-7.4-10.92-13.15c-1.2-2.9-2.1-5.92-2.8-8.78c-1.77-7.18-2.2-13.31-2.2-13.46c-0.08-1.29-1.17-2.25-2.42-2.28
			c-0.06,0-0.12-0.03-0.18-0.03c-1.34,0.09-2.37,1.24-2.3,2.58c0,0.01,0,0.01,0,0.02c0.1,1.7,2.73,41.19,26.23,41.19l1.12-0.03
			c23.55-1.22,46.26-46.85,47.21-48.8c0.24-0.49,0.26-1.01,0.17-1.5C427.7,550.07,427.27,549.38,426.54,549.02z"/>
		<path class="st13" d="M578.16,388.43c0,0,54.84,62.39,59.09,127.59s-71,49.83-71,49.83l-142.99-15.7l80.88-134.54L578.16,388.43z"
			/>
		<polygon class="st13" points="390.26,443.7 355.58,557.37 310.19,569.11 222.9,567.09 257.47,440.7 340.97,405.15 		"/>
		<path class="st13" d="M329.31,423.92c7.47-13.03,7.48-29.75-1.55-43.11c-12.24-18.11-34.96-24.45-54.23-17.05
			c-4.39,1.69-8.61,4.08-12.48,7.22c-24.74,20.05-49.04,40.49-68.13,59.33c-16.5,16.28-28.99,31.33-34.48,43.91
			c-0.13,0.21-0.3,0.38-0.42,0.58c-6.28,10.36-8.73,24.63-2.78,35.74c1.45,2.71,2.95,4.85,5.66,6.49c2.07,1.26,4.57,2.07,7.05,2.05
			c7.15,0.62,17.04-2.65,29.62-8.95c1.09-0.02,13.68-6.79,15.2-8.2c17.14-9.83,93.87-58.32,102.3-63.42
			c4.09-2.48,7.55-5.58,10.41-9.07c-2.07-2.53-2.98-4.41-2.37-5.39C323.75,423.02,325.96,423.06,329.31,423.92z"/>
		<path class="st13" d="M493.4,335.73c-7.32-3.95-15.1-5.9-22.8-6.16c-8.98-0.3-17.83,1.76-25.74,5.89
			c-9.08,4.74-16.91,12.14-22.17,21.81c1.16,0.62,1.71,2.04,1.19,3.3l-31.47,76.79c-0.41,1-1.36,1.6-2.36,1.6l-0.95-0.2
			c-2.41,6.12-4.77,12.23-7.06,18.3c-3.11,8.2-6.08,16.3-8.86,24.2c-0.44,1.24-0.87,2.47-1.29,3.7c-3.01,8.69-5.76,17.1-8.16,25.1
			c-0.38,1.26-0.74,2.5-1.1,3.74c-1.99,6.85-3.59,13.23-4.94,19.31c-2.11,7.83-2.48,10.76-2.46,11.3
			c-0.58,8.74-2.79,17.27-1.89,26.13c1.09,10.67,7.14,22.06,17.54,25.8c2.46,0.89,5.02,1.3,7.58,1.41
			c-0.01,0.09-0.03,0.23-0.04,0.32c1.79,0.13,3.64-0.18,5.51-0.69c1.93-0.38,3.84-0.92,5.66-1.82c4.33-2.15,7.96-5.03,11.51-8.29
			c6.09-5.61,11.79-11.7,16.61-18.5c4.56-6.44,8.4-13.47,11.57-20.76c4.05-6.4,8.19-13.2,12.49-20.51c1.25-2.12,2.5-4.26,3.76-6.45
			c3.46-5.98,7-12.2,10.63-18.64c6.49-11.53,13.24-23.74,20.26-36.42c10.1-18.23,20.74-37.41,31.96-56.92
			c1.17-2.04,2.35-4.08,3.53-6.12C525.62,379.26,517.2,348.59,493.4,335.73z"/>
		<path d="M297.14,218.04c-0.18-1-0.93-1.75-1.86-1.96c-0.32-0.07-0.65-0.08-0.99-0.02c-1.33,0.24-2.22,1.51-1.99,2.85
			c0.01,0.04,0.24,1.4,0.25,3.42c0.03,3.33-0.54,8.44-3.68,12.21c-2.86,3.44-7.43,5.2-13.58,5.25c-1.36,0.01-2.45,1.13-2.44,2.48
			c0.01,1.35,1.11,2.44,2.46,2.44h0.02c7.68-0.07,13.52-2.44,17.34-7.05c0.78-0.95,1.43-1.94,1.99-2.96
			C298.72,227.25,297.22,218.46,297.14,218.04z"/>
		<rect x="233.14" y="180.56" transform="matrix(0.2256 -0.9742 0.9742 0.2256 -8.0302 382.6544)" width="7.08" height="31.63"/>
		<rect x="223.24" y="192.96" transform="matrix(0.043 -0.9991 0.9991 0.043 6.0295 428.6879)" width="7.08" height="36.47"/>
		<rect x="219.51" y="223.09" transform="matrix(0.9865 -0.164 0.164 0.9865 -33.9597 41.8776)" width="34.34" height="7.09"/>
		<rect x="343.81" y="194.75" transform="matrix(0.9743 -0.2253 0.2253 0.9743 -35.4331 86.1369)" width="31.63" height="7.08"/>
		<rect x="351.29" y="209.57" transform="matrix(0.9991 -0.043 0.043 0.9991 -8.8189 16.081)" width="36.46" height="7.08"/>
		<rect x="356.09" y="211.38" transform="matrix(0.1645 -0.9864 0.9864 0.1645 75.024 545.6789)" width="7.09" height="34.34"/>
		<path d="M273.46,245.82c-0.22,0-0.43,0-0.65,0l0.1-7.09c6.89,0.2,12.38-1.68,15.66-5.29c4.8-5.3,3.99-13.1,3.98-13.17l7.03-0.83
			c0.06,0.44,1.24,10.97-5.7,18.7C289.29,243.23,282.42,245.82,273.46,245.82z"/>
		<path d="M315.9,247.1c-8.16-0.18-14.39-2.79-18.5-7.76c-6.76-8.18-4.92-19.6-4.84-20.08l6.99,1.17
			c-0.01,0.09-1.36,8.78,3.33,14.43c2.74,3.29,7.17,5.03,13.17,5.16L315.9,247.1z"/>
		<path d="M367.29,514.93l-6.86-1.76c5.8-22.67,52.58-141.32,54.56-146.36l6.59,2.6C421.09,370.64,372.99,492.68,367.29,514.93z"/>
		<path d="M365.61,590.29l-7.05-0.69c1.75-17.96,12.86-55.26,13.33-56.84l6.79,2.03C378.56,535.17,367.3,573.01,365.61,590.29z"/>
		<path d="M384.77,595.85l-7.05-0.68c1.74-17.97,12.85-55.27,13.32-56.84l6.79,2.03C397.72,540.74,386.45,578.57,384.77,595.85z"/>
		<path d="M154.74,504.52l-5.81-4.06c5.79-8.29,25.25-35.55,32.74-38.44l2.55,6.61C180.47,470.07,166,488.38,154.74,504.52z"/>
		<path d="M167.37,521.13l-5.42-4.56c2.57-3.07,25.37-30.14,32.81-35.53l4.16,5.74C193.21,490.91,174.21,512.97,167.37,521.13z"/>
		<path d="M378.16,601.61c-3.57,0-7.2-0.68-10.86-2.2c-34.49-14.3-5.53-91.93-4.28-95.23l6.49,2.46
			c-7.84,20.72-23.05,76.62,0.45,86.36c2.73,1.13,5.47,1.64,8.19,1.64c25.7,0,49.98-45.58,50.25-46.09l6.15,3.23
			C433.35,554.03,408,601.61,378.16,601.61z"/>
	</g>
</g>
</svg>
