<?xml version="1.0" encoding="utf-8"?>
<!-- Generator: Adobe Illustrator 27.7.0, SVG Export Plug-In . SVG Version: 6.00 Build 0)  -->
<svg version="1.1" id="Ebene_1" xmlns="http://www.w3.org/2000/svg" xmlns:xlink="http://www.w3.org/1999/xlink" x="0px" y="0px"
	 viewBox="0 0 767.26 767.9" style="enable-background:new 0 0 767.26 767.9;" xml:space="preserve">
<style type="text/css">
	.st0{fill:#FB6A55;}
	.st1{fill:#969696;}
	.st2{fill:#2B454E;}
	.st3{fill:#1A2E35;}
	.st4{fill:#FFABA1;}
	.st5{fill:#ECECEC;}
	.st6{fill:#DCDCDC;}
	.st7{fill:#A8A8A8;}
	.st8{fill:#4D6FB4;}
	.st9{fill:#375A64;}
	.st10{fill:#C8C8C8;}
	.st11{fill:#FFFFFF;}
	.st12{fill:#F7DFC4;}
	.st13{fill:#F2F2F2;}
	.st14{opacity:0.1;}
	.st15{opacity:0.3;fill:#1A2E35;}
	.st16{fill:#97BEDB;}
	.st17{fill:#771137;}
	.st18{fill:#FF9ABD;}
	.st19{fill:#F39C8C;}
	.st20{fill:#F4B3CC;}
	.st21{fill:#864240;}
	.st22{fill:#C26358;}
	.st23{fill:none;stroke:#1A2E35;stroke-miterlimit:10;}
	.st24{opacity:0.1;fill:#010000;}
	.st25{opacity:0.4;}
	.st26{opacity:0.2;}
	.st27{fill:#010000;}
	.st28{fill:#F4B85A;}
	.st29{fill:#FFC5C1;}
	.st30{fill:#BD5324;}
	.st31{fill:#D95000;}
	.st32{opacity:0.6;}
	.st33{clip-path:url(#SVGID_00000098902200667009097580000005647968969779875749_);}
	.st34{clip-path:url(#SVGID_00000064313958526816575440000013891645411008578224_);}
	.st35{fill:url(#SVGID_00000152946492186099010840000012733816259594930315_);}
	.st36{clip-path:url(#SVGID_00000166641092774197757990000015057985483016995767_);}
	.st37{clip-path:url(#SVGID_00000029023536331828262790000016107489213163724978_);}
	.st38{opacity:0.5;}
	.st39{fill:#334F7C;}
	.st40{clip-path:url(#SVGID_00000046334859689687790930000008021228393867782564_);}
	.st41{fill:none;stroke:#44555B;stroke-width:0.05;stroke-miterlimit:10;}
	.st42{fill:none;}
	.st43{clip-path:url(#SVGID_00000142894120209494476280000004250677436723752624_);}
	.st44{fill:#919191;}
	.st45{fill:#CCCCCC;}
	.st46{fill:#AFAFAF;}
	.st47{fill:#F4DFCE;}
	.st48{fill:#35271C;}
	.st49{fill:#DDC6B6;}
	.st50{clip-path:url(#SVGID_00000081615671159029148160000007942786070879165357_);}
	.st51{clip-path:url(#SVGID_00000164515523676873042290000006623672151645686933_);}
	.st52{clip-path:url(#SVGID_00000093150344204552283950000002677458063415542156_);}
	.st53{opacity:0.2;fill:#1A2E35;}
	.st54{fill:#D8BCA0;}
</style>
<g>
	<circle class="st1" cx="383.63" cy="383.63" r="383.63"/>
	<g>
		<defs>
			<circle id="SVGID_00000170269808132855284000000003073443117798074501_" cx="383.63" cy="383.63" r="383.63"/>
		</defs>
		<clipPath id="SVGID_00000023240614737691976140000015539235309381770175_">
			<use xlink:href="#SVGID_00000170269808132855284000000003073443117798074501_"  style="overflow:visible;"/>
		</clipPath>
		<g id="XMLID_36_" style="clip-path:url(#SVGID_00000023240614737691976140000015539235309381770175_);">
			<g>
				<g>
					<path id="XMLID_51_" class="st8" d="M641.04,460.58c-60.79-129.1-429.19-137.1-416.7-19.31c1.48,14-44.56,61.96-58.63,79.7
						c0,0-33.96,79.07-29.98,108.46c0.33,2.47,6.07,25.1,7.3,29.64c0.8-14.56,4.16-28.67,8.37-42.65
						c2.32-7.72,6.36-14.66,9.01-22.25c2.18-6.25,5.84-13.86,12.37-18.6c2.83-2.05,2.45-0.24-0.1,2.7
						c-1.42,1.64-2.87,4.47-3.71,6.33c4.9-4.08,10.84-7.44,15.34-10.9c11.32-8.71,19.29-18.22,26.97-30.19
						c1.66-2.59,4.26-6.7,3.53-3.7c-2.99,12.3-12.46,25.3-21.85,33.1c-4.81,3.99-9.85,7.67-14.9,11.35
						c-4.69,3.41-9.98,6.4-12.5,11.85c-0.28,0.62-0.71,0.97-1.18,1.13c-0.08,0.23-0.16,0.45-0.25,0.68c-2.58,6.68-6,12.91-8.1,19.78
						c-4.61,15.1-8.72,47.65-9.19,48.04c4.23,17.2,12.36,51.94,18.49,72.45c19.53,65.3,69.69,95.65,77.21,101.25
						c61.43,45.79,150.26,56.97,208.84,39.6c22.95-6.8,28.05-17.12,28.56-18.87c3.61-12.4,5.39-23.29,5.71-36.35
						c0.26-10.77-0.81-25.59-5.9-35.13c-1.45-2.72-0.22-4.14,1.23-1.42c5.06,9.46,8.49,21.85,8.67,32.59
						c0.25,14.5-2.19,27.06-7.07,40.52c-4.4,12.16-22.62,18.23-22.62,18.23c2.9,4.54,45.97-0.18,102.66-46.64
						c61.02-50.01,84.13-111.61,90.18-147.14c4.05-23.76,0.13-24.6,7.54-47.16c3.81-11.59,0.5-25.39,1.95-27.86
						C679.95,579.64,663.41,508.09,641.04,460.58z M475.07,783.74c-6.76,15.42-14.96,28.13-27.36,38.32
						c-12.36,10.15-25.01,19.93-37.41,30.04c-11.71,9.55-24.42,17.22-39.33,20.42c-14.79,3.17-30.05,2.66-45.08,2.63
						c-3.08-0.01-3.07-1.74,0-1.74c15.02,0.02,30.96-1.83,45.7-5.24c15.49-3.58,27.52-12.8,39.48-22.92
						c10.86-9.19,22.27-17.56,33.26-26.58c12.04-9.89,20.9-21.39,28.84-34.72C474.73,781.31,476.31,780.91,475.07,783.74z"/>
				</g>
			</g>
			<g>
				<path id="XMLID_38_" class="st1" d="M198.17,354.35c-36.69,10.41-96.49,32.77-96.49,44.42c0,6.19,56.59,24.25,100.64,26.98
					c58.11,3.6,79.68-25.56,76.68-45.92C275.92,358.95,225.89,346.49,198.17,354.35z"/>
				<path id="XMLID_42_" class="st38" d="M198.17,354.35c-36.69,10.41-96.49,32.77-96.49,44.42c0,6.19,56.59,24.25,100.64,26.98
					c58.11,3.6,79.68-25.56,76.68-45.92C275.92,358.95,225.89,346.49,198.17,354.35z"/>
			</g>
			<path id="XMLID_34_" class="st39" d="M419.79,436.74c24.87-20.31,42.87-24.4,77.94-79.59c8.02-12.63,16.35-25.97,18.41-48.61
				c0.19-2.15-29.02-8.07-57.55-37.97c-33.93-35.56-77-41.42-74.94-46.88c0,0,39.36,0,90.86,26.01
				c49.64,25.07,82.15,64.15,136.15,143.7c3.65,5.38,37.55,65.38,41.68,95.27c0.8,5.81-12.18-0.85-23.07,5.21
				c-14.24,7.92-13.67,12.24-19.2,10.85c-26.53-6.63-13.95-29.64-40.21-46.84c-21.2-13.89-52.07-6.63-74.62,7.46
				c-18.65,11.65-34.79,20.45-43.72,16.74c-9.34-3.89,1.85-31.25-1.88-35.39C434.59,429.97,419.79,436.74,419.79,436.74z"/>
			<g>
				<path id="XMLID_32_" class="st1" d="M188.86,359.99c5.76-25.86,13.68-84.22,96.07-122.02c85.55-39.25,168.14,6.89,177.01,11.95
					c22.71,12.95,72.21,41.18,71.7,78.42c-0.72,52.56-88.16,93.88-148.37,128.19c-4.64,2.64-26.25,14.2-41.33,16.7
					c-13.66,2.26-26.97,0.15-45.46-6.94c-30.63-11.75-33.57-15.84-45.41-18.17c-16.98-3.34-9.64,1.68-19.37,0.11
					c-18.78-3.04-33.84-18.75-31.55-23.52c0,0,9.31,2.01,18.11-1.48c13.15-5.22,43.53-32.15,44.25-37
					c1.24-8.32-32.77-28.78-51.71-28.76C198.28,357.49,188.06,363.62,188.86,359.99z"/>
				<path id="XMLID_39_" class="st11" d="M188.86,359.99c5.76-25.86,13.68-84.22,96.07-122.02c85.55-39.25,168.14,6.89,177.01,11.95
					c22.71,12.95,72.21,41.18,71.7,78.42c-0.72,52.56-88.16,93.88-148.37,128.19c-4.64,2.64-26.25,14.2-41.33,16.7
					c-13.66,2.26-26.97,0.15-45.46-6.94c-30.63-11.75-33.57-15.84-45.41-18.17c-16.98-3.34-9.64,1.68-19.37,0.11
					c-18.78-3.04-33.84-18.75-31.55-23.52c0,0,9.31,2.01,18.11-1.48c13.15-5.22,43.53-32.15,44.25-37
					c1.24-8.32-32.77-28.78-51.71-28.76C198.28,357.49,188.06,363.62,188.86,359.99z"/>
			</g>
			<path id="XMLID_33_" class="st3" d="M339.4,335.16c-17.18,2.06-29.57,16.92-28.69,32.79c1.01,18.27,19.24,31.61,36.89,28.69
				c15.17-2.51,27.55-16.65,26.35-32.79C372.7,347.13,357.29,333.77,339.4,335.16z"/>
			<path id="XMLID_45_" class="st11" d="M347.07,339.31c-7.69,0.92-13.24,7.58-12.84,14.68c0.45,8.18,8.62,14.15,16.52,12.84
				c6.79-1.12,12.33-7.45,11.8-14.68C361.98,344.67,355.08,338.69,347.07,339.31z"/>
			<path id="XMLID_37_" class="st3" d="M250.93,389.15c-48.72-1.1-101.17,1.51-149.14,10.08c-0.88,0.16,3.35,3.57,4.19,3.44
				c48.83-7.61,97.61-12.87,145.89-11.77C254.95,390.97,254.01,389.22,250.93,389.15z"/>
			<path id="XMLID_35_" class="st3" d="M212.75,375c-1.02,0.73-2.59,0.95-3.45-0.21c-0.86-1.16-0.16-2.59,0.82-3.37
				c1.1-0.87,2.53-2.41,0.11-2.41c-5.7-0.01-7.36,5.9-5.04,8.95c2.33,3.06,8.34,2.74,9.74-2.5C215.3,374.11,213.9,374.18,212.75,375
				z"/>
		</g>
	</g>
</g>
<g>
	<defs>
		<circle id="SVGID_00000066514550668342876950000006982516568611967423_" cx="-556.88" cy="383.63" r="383.63"/>
	</defs>
	<clipPath id="SVGID_00000181770516475926996780000013190745017960253063_">
		<use xlink:href="#SVGID_00000066514550668342876950000006982516568611967423_"  style="overflow:visible;"/>
	</clipPath>
	<g style="clip-path:url(#SVGID_00000181770516475926996780000013190745017960253063_);">
		<path class="st13" d="M-280.04,763.24c-21.59,0.82-43.44-0.8-65.17-5.11c-9.97-1.98-19.73-4.51-29.3-7.46
			c-13.79,13.92-29.08,26.4-45.64,37.29c43.25,17.54,89.94,26.46,136.71,25.79c35.63-0.51,71.3-6.54,105.51-18.59
			c76.2-26.84,140.1-78.41,182.37-147.31c8.49-13.83,2.06-27.26-8.66-33.89c-10.9-6.74-26.23-6.45-34.87,7.62
			c-38.11,62.11-98,107.54-165.75,128.67c-19.28,6.01-39.2,10.06-59.44,11.95C-269.5,762.69-274.76,763.04-280.04,763.24z"/>
	</g>
</g>
</svg>
