<?xml version="1.0" encoding="utf-8"?>
<!-- Generator: Adobe Illustrator 27.7.0, SVG Export Plug-In . SVG Version: 6.00 Build 0)  -->
<svg version="1.1" id="Ebene_1" xmlns="http://www.w3.org/2000/svg" xmlns:xlink="http://www.w3.org/1999/xlink" x="0px" y="0px"
	 viewBox="0 0 767.26 767.26" style="enable-background:new 0 0 767.26 767.26;" xml:space="preserve">
<style type="text/css">
	.st0{fill:#FB6A55;}
	.st1{fill:#969696;}
	.st2{fill:#2B454E;}
	.st3{fill:#1A2E35;}
	.st4{fill:#FFABA1;}
	.st5{fill:#ECECEC;}
	.st6{fill:#DCDCDC;}
	.st7{fill:#A8A8A8;}
	.st8{fill:#4D6FB4;}
	.st9{fill:#375A64;}
	.st10{fill:#C8C8C8;}
	.st11{fill:#FFFFFF;}
	.st12{fill:#F7DFC4;}
	.st13{fill:#F2F2F2;}
	.st14{opacity:0.1;}
	.st15{opacity:0.3;fill:#1A2E35;}
	.st16{fill:#97BEDB;}
	.st17{fill:#771137;}
	.st18{fill:#FF9ABD;}
	.st19{fill:#F39C8C;}
	.st20{fill:#F4B3CC;}
	.st21{fill:#864240;}
	.st22{fill:#C26358;}
	.st23{fill:none;stroke:#1A2E35;stroke-miterlimit:10;}
	.st24{opacity:0.1;fill:#010000;}
	.st25{opacity:0.4;}
	.st26{opacity:0.2;}
	.st27{fill:#010000;}
	.st28{fill:#F4B85A;}
	.st29{fill:#FFC5C1;}
	.st30{fill:#BD5324;}
	.st31{fill:#D95000;}
	.st32{opacity:0.6;}
	.st33{clip-path:url(#SVGID_00000008120751444130939210000013262079210079360410_);}
	.st34{clip-path:url(#SVGID_00000104701031366751047000000015963433969761019838_);}
	.st35{fill:url(#SVGID_00000091707169802192107540000017205379315521139597_);}
	.st36{clip-path:url(#SVGID_00000045602459539830394130000015900583516466828938_);}
	.st37{clip-path:url(#SVGID_00000110443298133759529170000010242561706792192918_);}
	.st38{opacity:0.5;}
	.st39{fill:#334F7C;}
	.st40{clip-path:url(#SVGID_00000129191632483315846590000016449208277094886045_);}
	.st41{fill:none;stroke:#44555B;stroke-width:0.05;stroke-miterlimit:10;}
	.st42{fill:none;}
	.st43{clip-path:url(#SVGID_00000103259163444819122800000014500045215150162086_);}
	.st44{fill:#919191;}
	.st45{fill:#CCCCCC;}
	.st46{fill:#AFAFAF;}
	.st47{fill:#F4DFCE;}
	.st48{fill:#35271C;}
	.st49{fill:#DDC6B6;}
	.st50{clip-path:url(#SVGID_00000048479734464120238160000016224068323549149842_);}
	.st51{clip-path:url(#SVGID_00000090974771106876620230000008566695229748909232_);}
	.st52{clip-path:url(#SVGID_00000071549600017397657060000003385916297328068514_);}
	.st53{opacity:0.2;fill:#1A2E35;}
	.st54{fill:#D8BCA0;}
</style>
<g>
	<circle class="st1" cx="383.63" cy="383.63" r="383.63"/>
	<g>
		<defs>
			<circle id="SVGID_1_" cx="383.63" cy="383.63" r="383.63"/>
		</defs>
		<clipPath id="SVGID_00000145745148145980085740000007416703980085497534_">
			<use xlink:href="#SVGID_1_"  style="overflow:visible;"/>
		</clipPath>
		<g style="clip-path:url(#SVGID_00000145745148145980085740000007416703980085497534_);">
			<g>
				<g>
					<path class="st4" d="M416.25,654.79c42.35,105.17,210.63,444.99,321.16,468.97c72.53,15.73,365.61-12.64,416.07-81.98
						c21.99-30.22-15.19-240.88-54.26-232.51c-39.07,8.37-274.06,39.42-302.91,31.04c-28.69-8.34-245.16-257.41-325.95-319.24
						C331.05,414.44,393.44,598.15,416.25,654.79z"/>
					<g>
						<g>
							<path class="st5" d="M1010.54,794.1l6.22,316.52c0,0-232.26,42.36-331.59,4c-120.61-46.58-285.68-431.2-307.92-494.25
								c-36.49-103.49-23.14-164.88,33.24-147.73c21.91,6.48,50.37,24.95,84.89,57.64c36.14,34.04,242.73,254.03,308.89,296.56
								C841.27,850.64,1010.54,794.1,1010.54,794.1z"/>
						</g>
						<path class="st7" d="M918.41,1124.2c-75.55,7.88-176.29,12.43-233.26-9.56c-120.57-46.6-285.65-431.19-307.87-494.24
							c-36.53-103.52-23.18-164.89,33.21-147.73c1.74,0.49,3.5,1.09,5.28,1.79L918.41,1124.2z"/>
					</g>
				</g>
				<path class="st8" d="M592.73,920.87l44.19,303.85c0,0-495.18,7.3-618.1-1.36c0,0,100.26-568.03,232.43-711.53
					c66.11-71.78,143.73-66.41,193.2-16.23c12.52,12.7,161.87,210.09,177.61,285.5C635.78,847.64,592.73,920.87,592.73,920.87z"/>
				<g>
					<path class="st5" d="M306.08,469.76c0,0,42.98,1631.72,2.05,1701.85c-24.97,42.78-437.49-59.69-437.49-59.69
						S-22.72,1144.99,99.81,800.93C213.4,481.97,306.08,469.76,306.08,469.76z"/>
				</g>
				<g>
					<path class="st5" d="M629.65,2141.1c16.9,20.5,152.94-46.47,152.94-46.47L595.43,915.33c0,0,39.68-58.74,26.79-132.94
						c-12.88-74.2-168.11-289.17-193.19-300.29c0,0,35.46,138.84,53.84,337.11C525.95,1283.78,605.6,2111.92,629.65,2141.1z"/>
					<path class="st3" d="M573.3,682c-13.81-22.03-28.01-43.83-41.58-66.01c-0.38-0.62,0.59-1.36,1.05-0.77
						c13.85,18.16,27.35,36.61,40.74,55.12c-4.43-9.91-8.74-19.87-12.74-29.99c-0.45-1.14,1.17-2.11,1.72-0.95
						c6.15,13.02,11.71,26.27,17.17,39.57c11.76,16.66,22.7,33.95,31.63,52.29c18.87,38.75,26.99,81.16,16.78,123.58
						c-2.82,11.72-6.93,23.01-12.34,33.79c-3.68,7.34-15.57,23.22-15.49,23.67c7.74,43.32,13.56,87.14,19.67,130.71
						c6.19,44.1,12.46,88.19,17.58,132.42c2.9,25.04,4.78,50.29,8.42,75.23c0.13,0.92-1.28,1.28-1.41,0.35
						c-3.17-21.73-7.88-43.25-11.74-64.88c-3.86-21.65-7.52-43.35-11.01-65.06c-7.06-43.89-13.34-87.91-19.69-131.9
						c-3.59-24.88-7.53-49.76-10.36-74.74c-0.31-2.74,10.94-20.5,14.26-27.3c4.46-9.15,8.08-18.83,10.87-28.61
						c5.67-19.85,7.58-40.98,5.23-61.51C617.25,754.83,595.43,717.31,573.3,682z"/>
					<path class="st7" d="M430.23,486.98c14.58,22.08,29.36,44.01,44.43,65.73c15.17,21.65,29.98,43.56,45.44,65l0.32-5.13
						l-37.11,38.88l-3.07,3.21l3.25,3.15c15.62,15.14,31.52,29.98,47.37,44.88l-1.33-3.87c-5.74,40.29-11.91,80.51-17.02,120.89
						c-5.44,40.33-10.54,80.72-15,121.2c7.67-40,14.7-80.09,21.4-120.23c7.02-40.09,12.99-80.35,19.38-120.54l0.36-2.25l-1.69-1.62
						c-15.69-15.06-31.32-30.18-47.24-45.01l0.18,6.37l36.41-39.55l2.27-2.47l-1.95-2.67c-15.59-21.35-31.82-42.23-47.69-63.36
						C462.96,528.55,446.7,507.69,430.23,486.98z"/>
				</g>
				<g>
					<g>
						<path class="st4" d="M171.72,567.3c-194.89,182.76-424.07,499.56-343.2,577.21c53.72,51.58,322.99-292.79,318.26-291.91
							c-10.13,1.89,48.28-112.52,119.89-251.17C346.53,446.79,283.11,462.83,171.72,567.3z"/>
						<path class="st5" d="M266.77,487.54c-135.64,67.24-508.97,502.4-460.14,636.23c48.83,133.82,356.99-269.19,353.85-275.04
							c-3.14-5.85,75.07-158.9,106.93-221.15C299.26,565.34,338.98,451.75,266.77,487.54z"/>
						<path class="st3" d="M248.3,700.23c-7.47,7.92-14.83,15.89-21.89,24.18c-1.3,1.53-2.5,3.15-3.78,4.71
							c2.12-4.4,4.24-8.8,6.37-13.2c7.43-15.35,16.04-30.66,21.72-46.73c0.27-0.75-0.83-1.16-1.25-0.55
							c-10.16,14.66-17.84,31.27-26.3,46.91c-8.32,15.38-16.73,30.74-24.73,46.29c-8.01,15.57-16.22,31.05-23.93,46.77
							c-7.54,15.35-15.89,30.88-21.08,47.17c-0.3,0.95,1.01,1.44,1.57,0.69c10.62-14.35,18.62-30.81,26.95-46.52
							c8.2-15.47,15.97-31.18,23.92-46.77c3.33-6.53,6.55-13.11,9.77-19.7c1.26-1.45,2.51-2.91,3.77-4.31
							c3.52-3.94,6.86-8.07,10.11-12.24c6.69-8.59,13.01-17.4,19.26-26.31C248.98,700.32,248.54,699.97,248.3,700.23z"/>
						<path class="st7" d="M305.3,488.4c-10.16,23.75-20.53,47.38-31.18,70.85c-10.76,23.4-21.15,47.02-32.2,70.25l-1.02-5.04
							l39.29,33.68l3.25,2.78l-2.52,3.55c-12.09,17.01-24.47,33.77-36.8,50.58l0.66-4c10.92,39.14,22.21,78.16,32.57,117.47
							c10.65,39.22,21,78.54,30.77,118.03c-12.63-38.6-24.7-77.38-36.46-116.25c-12.05-38.78-23.17-77.86-34.67-116.81l-0.64-2.18
							l1.31-1.82c12.16-16.95,24.26-33.95,36.67-50.69l0.73,6.33l-38.74-34.42l-2.41-2.15l1.4-2.89
							c11.18-23.16,23.01-45.94,34.49-68.92C281.37,533.8,293.23,511.04,305.3,488.4z"/>
					</g>
					<g>
						<path class="st9" d="M285.28,525.87c-3.24-48.68,36.5-65.99,72.95-70.93c43.19-5.86,71.95-2.2,92.63,39.71
							c21.8,44.19,33.19,95.47,41.7,143.8c1.59,9.02,15.66,6.8,14.07-2.25c-9.8-55.7-23.85-159.6-79.25-189.93
							c-51-27.92-161.64-0.62-156.16,81.86C271.82,537.27,285.88,534.96,285.28,525.87L285.28,525.87z"/>
						<g>
							<path class="st3" d="M536.16,658.74c2.86,17.84-9.29,34.62-27.14,37.48c-17.84,2.85-34.62-9.29-37.48-27.14
								c-2.86-17.84,9.29-34.62,27.14-37.48C516.52,628.74,533.3,640.9,536.16,658.74z"/>
							<path class="st5" d="M523.3,660.8c1.72,10.74-5.6,20.84-16.34,22.56c-10.74,1.72-20.84-5.6-22.56-16.34
								c-1.72-10.74,5.6-20.84,16.34-22.56C511.48,642.74,521.58,650.05,523.3,660.8z"/>
						</g>
						<g>
							<g>
								<g>
									<path class="st10" d="M334.48,678.44c35.77,136.8,30.16,170.19,18.76,185.9c-12,16.54-31.32,25.47-32.14,25.85l-4.12-9.03
										l2.06,4.52l-2.06-4.51c0.18-0.08,17.79-8.27,28.22-22.65c8.24-11.35,15.09-42.1-20.33-177.55L334.48,678.44z"/>
								</g>
								<g>
									<path class="st10" d="M245.22,681.69c-27.32,103-33.97,159.39-20.95,177.48c10.43,14.48,27.96,22.66,28.14,22.74
										l-4.15,9.02c-0.82-0.38-20.1-9.38-32.05-25.96c-15.51-21.53-9.89-75.37,19.41-185.83L245.22,681.69z"/>
								</g>
							</g>
							<path class="st3" d="M232.21,674.82c2.85-14.24,11.14-49.61,17.85-67.35c5.5-14.56,19.94-24.37,19.94-24.37
								c1.96-0.19,1.14-17.55,0.15-31.73c-0.89-12.51-2.18-27.06,0.82-31.09c2.9-3.89,10.47-4.13,13.63-0.67
								c3.41,3.69,3.57,18.31,3.98,30.85c0.45,14.21,1.39,31.55,3.38,31.54c0,0,14.42,8.99,21.15,22.54
								c7.51,15.13,21.02,55.51,23.56,67.33c3.16,14.66-1.66,16.47-5.86,17.9c-5.95,2.01-9.72-2.04-14.36-18.26
								c-7.35-25.71-16.61-68.97-34.48-68.86l0-0.04c-17.75,1.77-25.02,47.56-30.77,73.08c-3.6,15.98-6.97,17.51-13.11,16.11
								C233.79,690.83,229.37,689,232.21,674.82z"/>
						</g>
					</g>
					<g>
						<g>
							<g>
								<path class="st9" d="M401.09,691.74c0,0-34.4-51.55,2.65-72.16c37.05-20.6,62.69,35.82,62.69,35.82L401.09,691.74z"/>
								<g>
									<path class="st9" d="M677.06,1034.1l0,0.05l1.54,60.62l0.63,20l-16.83-10.95l-50.71-33.34l-0.05,0.01l-0.01-0.1
										L399.88,689.57l65.37-36.34L677,1034.11C677.06,1034.1,677.06,1034.1,677.06,1034.1z"/>
								</g>
								
									<rect x="391.99" y="668.29" transform="matrix(0.874 -0.486 0.486 0.874 -274.0775 297.0231)" class="st3" width="87.3" height="17.32"/>
								
									<rect x="401.3" y="685.02" transform="matrix(0.874 -0.486 0.486 0.874 -281.053 303.6839)" class="st3" width="87.3" height="17.32"/>
								<polygon class="st3" points="411.01,722.47 435.62,708.78 498.67,854.11 489.31,858.63 								"/>
							</g>
							<g>
								<path class="st0" d="M706.65,823.65c-2.71,35.4-89.42,21.31-89.42,21.31s19.77,14.51,23.66,37.75
									c4.45,26.61-35.33,45.27-35.33,45.27s16.97,18.83,18.61,43.79c1.7,25.9-35.76,50.45-35.76,50.45s6.17,26.23-7.89,48.81
									c-24.04,38.62-93.86,33.76-137.68,39.28c-46.94,5.92-116.19,23.57-144.98,33.47l-54.1-324.44c0,0,195.92-95.66,247.94-88.91
									C535.54,736.11,710.8,769.55,706.65,823.65z"/>
							</g>
						</g>
					</g>
				</g>
				<g>
					<g>
						<polygon class="st11" points="963.4,1142.94 595.36,1150.81 757.11,674.99 1125.16,667.13 						"/>
						<polygon class="st2" points="988.59,1142.41 620.55,1150.27 782.31,674.45 1150.35,666.59 						"/>
					</g>
				</g>
				<g>
					<g>
						<path class="st0" d="M318.68,503.47c2.48,9.98,51.18,74.26,96.89,71.47c14.89-0.94,13.4-82.42,13.4-82.42l1.27-6.04
							l17.65-84.57l-99.93-62.13l-14.43-8.21c0,0-3.3,23.46-7.12,52.7c-0.19,1.35-0.37,2.71-0.55,4.16c-0.26,1.65-0.53,3.2-0.7,4.75
							c-0.63,4.36-1.25,8.82-1.77,13.27c-0.41,3.39-0.83,6.68-1.14,10.25c-0.4,3.58-0.71,7.05-1.11,10.63
							C317.98,462.67,317.69,499.23,318.68,503.47z"/>
						<path class="st3" d="M326.42,384.27c25.1,66.75,79.09,93.34,103.83,102.2l17.65-84.57l-99.93-62.13l-14.43-8.21
							C333.54,331.57,330.24,355.03,326.42,384.27z"/>
					</g>
					<g>
						<path class="st0" d="M547.08,238.82c32.31,148.13-52.76,184.21-84.71,191.15C433.36,436.26,333.8,454,286.36,310
							c-47.45-144,11.21-205.85,76.78-223.75C428.72,68.34,514.77,90.69,547.08,238.82z"/>
						<g>
							<path class="st3" d="M501.38,217.27c-3.57,0.28-6.91-0.06-10.47-0.16c-4.02-0.1-7.23,0.23-10.65-2.2
								c-1.83-1.3-2.35-4.56-1.25-6.46c2.55-4.43,7.5-5.52,12.34-5.6c5.25-0.08,9.32,1.21,13.43,4.46
								C508.78,210.46,506.09,216.9,501.38,217.27z"/>
							<path class="st3" d="M398.59,237.91c3.41-1.09,6.38-2.66,9.64-4.09c3.68-1.61,6.78-2.51,9.04-6.04
								c1.21-1.89,0.46-5.11-1.27-6.46c-4.03-3.15-9.02-2.3-13.54-0.54c-4.9,1.9-8.18,4.62-10.77,9.18
								C389.18,234.38,394.09,239.34,398.59,237.91z"/>
							<g>
								<g>
									<path class="st3" d="M417.98,261.27c-16.49,2.33-10.62,35.13,4.66,32.97C437.67,292.13,431.8,259.32,417.98,261.27z"/>
								</g>
							</g>
							<g>
								<g>
									<path class="st3" d="M495.48,243.92c16.15-4.04,23.05,28.56,8.08,32.31C488.83,279.91,481.93,247.31,495.48,243.92z"/>
								</g>
							</g>
						</g>
						<path class="st3" d="M300.95,312.64c24.25-2.95,19.68-54.1,19.68-54.1s48.54-9.59,50.54-82.57c0,0,5.47,32.68-9.9,61.99
							c0,0,83.72-26.24,105.36-105.05c0,0-7.05,39.35-17.92,55.02c0,0,33.87-17.21,45.52-49.85c0,0,23.27,38.31,37.09,47.41
							c0,0-12.72-200.01-190.96-98.53c0,0-78.68,15.3-96.07,90.28C226.92,252.23,300.95,312.64,300.95,312.64z"/>
						<g>
							<g>
								<path class="st0" d="M298,364.67c2.61,0.62,4.98,0.89,7.2,0.9c2.63,0.13,4.99-0.17,7.11-0.73c3.35-0.76,6.09-2.19,8.31-3.92
									c2.06-1.51,3.77-3.34,5.11-5.12c3.46-4.64,4.62-9.18,4.62-9.18l-13.5-39.1c0,0-38.91-42.69-58.65-28.24
									C238.37,293.76,271.78,358.62,298,364.67z"/>
							</g>
							<path class="st11" d="M299.27,358.08c1.25,3.67,5.24,5.64,8.91,4.39c3.67-1.25,5.64-5.24,4.39-8.91
								c-1.25-3.67-5.24-5.64-8.91-4.39C299.99,350.42,298.03,354.4,299.27,358.08z"/>
							<path class="st11" d="M283.6,349.41c0.88,2.6,3.7,3.99,6.3,3.11c2.6-0.88,3.99-3.7,3.11-6.3c-0.88-2.6-3.7-3.99-6.3-3.11
								C284.11,343.99,282.72,346.81,283.6,349.41z"/>
						</g>
						<g>
							<path class="st3" d="M375.11,115.22c28.73-21.11,41.65-106.96,7.2-150.6C334.87-95.48,212.91-48.03,226.75,37
								C240.61,122.15,352.94,131.52,375.11,115.22z"/>
						</g>
					</g>
				</g>
				<path class="st3" d="M470.43,319.85c-6.12,0-11.61-4.15-11.92-4.38l2.9-3.78c0.08,0.06,7.56,5.67,12.81,2.35
					c1.34-0.85,2.1-1.76,2.3-2.78c0.47-2.36-1.86-5.71-3.56-8.15c-0.84-1.21-1.59-2.3-2.05-3.22c-5.34-10.58,1.72-21.96,2.02-22.44
					l4.03,2.55c-0.06,0.09-5.91,9.61-1.8,17.75c0.38,0.75,1.01,1.64,1.71,2.63c2.19,3.15,5.2,7.45,4.32,11.81
					c-0.47,2.33-1.96,4.3-4.42,5.86C474.71,319.36,472.54,319.85,470.43,319.85z"/>
				<path class="st3" d="M471.11,354.93c-24.34,0-44.03-12.39-44.32-12.57l2.58-4.01c0.4,0.26,40.26,25.26,75.08,1.79l2.66,3.95
					C495.11,352.18,482.59,354.93,471.11,354.93z"/>
				<path class="st3" d="M312.2,347.56c-0.1-0.2-9.92-19.15-28.71-17.95l-0.31-4.76c9.97-0.64,17.64,3.3,23.08,7.92
					c-6.25-12.82-17.8-30.12-35.76-33.91l0.99-4.66c31.95,6.75,44.6,49.81,45.12,51.64L312.2,347.56z"/>
			</g>
		</g>
	</g>
</g>
<g>
	<g>
		<defs>
			<circle id="SVGID_00000160181930360259158650000005489175166120866218_" cx="1520.44" cy="383.63" r="383.63"/>
		</defs>
		<clipPath id="SVGID_00000161631152271008678330000007392434072644894634_">
			<use xlink:href="#SVGID_00000160181930360259158650000005489175166120866218_"  style="overflow:visible;"/>
		</clipPath>
		<g style="clip-path:url(#SVGID_00000161631152271008678330000007392434072644894634_);">
		</g>
	</g>
</g>
</svg>
