<?xml version="1.0" encoding="utf-8"?>
<!-- Generator: Adobe Illustrator 27.7.0, SVG Export Plug-In . SVG Version: 6.00 Build 0)  -->
<svg version="1.1" id="Ebene_1" xmlns="http://www.w3.org/2000/svg" xmlns:xlink="http://www.w3.org/1999/xlink" x="0px" y="0px"
	 viewBox="0 0 2144.63 1960.48" style="enable-background:new 0 0 2144.63 1960.48;" xml:space="preserve">
<style type="text/css">
	.st0{fill:#FB6A55;}
	.st1{fill:#969696;}
	.st2{fill:#2B454E;}
	.st3{fill:#1A2E35;}
	.st4{fill:#FFABA1;}
	.st5{fill:#ECECEC;}
	.st6{fill:#DCDCDC;}
	.st7{fill:#A8A8A8;}
	.st8{fill:#4D6FB4;}
	.st9{fill:#375A64;}
	.st10{fill:#C8C8C8;}
	.st11{fill:#FFFFFF;}
	.st12{fill:#F7DFC4;}
	.st13{fill:#F2F2F2;}
	.st14{opacity:0.1;}
	.st15{opacity:0.3;fill:#1A2E35;}
	.st16{fill:#97BEDB;}
	.st17{fill:#771137;}
	.st18{fill:#FF9ABD;}
	.st19{fill:#F39C8C;}
	.st20{fill:#F4B3CC;}
	.st21{fill:#864240;}
	.st22{fill:#C26358;}
	.st23{fill:none;stroke:#1A2E35;stroke-miterlimit:10;}
	.st24{opacity:0.1;fill:#010000;}
	.st25{opacity:0.4;}
	.st26{opacity:0.2;}
	.st27{fill:#010000;}
	.st28{fill:#F4B85A;}
	.st29{fill:#FFC5C1;}
	.st30{fill:#BD5324;}
	.st31{fill:#D95000;}
	.st32{opacity:0.6;}
	.st33{clip-path:url(#SVGID_00000173878377080861561750000000458423358761424293_);}
	.st34{clip-path:url(#SVGID_00000063632605390352769210000002534460721714717853_);}
	.st35{fill:url(#SVGID_00000113324488646710725970000015895382196496758702_);}
	.st36{clip-path:url(#SVGID_00000151511931185908831710000008073894671015420087_);}
	.st37{clip-path:url(#SVGID_00000167365228957648137830000017565165525963895429_);}
	.st38{opacity:0.5;}
	.st39{fill:#334F7C;}
	.st40{clip-path:url(#SVGID_00000183250986848988441400000007077199945728457914_);}
	.st41{fill:none;stroke:#44555B;stroke-width:0.05;stroke-miterlimit:10;}
	.st42{fill:none;}
	.st43{clip-path:url(#SVGID_00000132788614058855183720000006541874902772498567_);}
	.st44{fill:#919191;}
	.st45{fill:#CCCCCC;}
	.st46{fill:#AFAFAF;}
	.st47{fill:#F4DFCE;}
	.st48{fill:#35271C;}
	.st49{fill:#DDC6B6;}
	.st50{clip-path:url(#SVGID_00000018944942880610459420000014411753262805464197_);}
	.st51{clip-path:url(#SVGID_00000103246589835430819310000015915848347550783667_);}
	.st52{clip-path:url(#SVGID_00000182506912701442294370000015156941629553027208_);}
	.st53{opacity:0.2;fill:#1A2E35;}
	.st54{fill:#D8BCA0;}
</style>
<g>
	<g>
		<g>
			<g>
				<g>
					<path class="st4" d="M1107.26,1787.27c11.13,3.59,328.49-0.52,340.46-8.36c4.6-2.9,6.7-49.18,7.63-105.16
						c0-0.59,0.01-1.17,0.01-1.75c0.22-11.54,0.37-23.42,0.38-35.46c0-1.66,0.01-3.32,0.06-4.97l-15.4-164.64l-212.29,2.13
						l20.95,163.09l0.24,6.46l1.28,33.76l0.12,3.47c0,0-120.77,55.91-133.04,65.91C1105.51,1751.71,1096.12,1783.73,1107.26,1787.27
						z"/>
					<path class="st5" d="M1107.26,1787.27c11.13,3.59,328.49-0.52,340.46-8.36c4.6-2.9,6.7-49.18,7.63-105.16
						c0-0.59,0.01-1.17,0.01-1.75c0.22-11.54,0.37-23.42,0.38-35.46c0-1.66,0.01-3.32,0.06-4.97l-206.74,0.58l0.24,6.46l1.28,33.76
						l0.12,3.47c0,0-120.77,55.91-133.04,65.91C1105.51,1751.71,1096.12,1783.73,1107.26,1787.27z"/>
					<g>
						<path class="st1" d="M1107.23,1787.25c5.73,1.84,91.95,1.65,176.23-0.05c16.94-0.34,33.79-0.73,49.86-1.17
							c60.1-1.65,109.77-4.13,114.38-7.14c4.56-2.86,6.65-47.87,7.57-102.82c0-0.78,0.05-1.55,0.05-2.33c0-0.58,0-1.21,0.05-1.8
							h-0.24l-204.53,0.39l0.1,3.49c0,0-120.79,55.88-133.02,65.88C1105.48,1751.71,1096.11,1783.71,1107.23,1787.25z"/>
						<g>
							<g>
								<path class="st3" d="M1110.69,1774.92c53.48-2.01,269.37-5.05,322.39-2.98c0.43,0.02,0.44,0.31,0,0.34
									c-52.96,3.15-268.87,4.45-322.38,3.52C1109.57,1775.78,1109.56,1774.96,1110.69,1774.92z"/>
								<path class="st3" d="M1227.81,1673.24c21-4.2,46.79-1.3,63.07,13.49c0.63,0.57-0.19,1.46-0.88,1.26
									c-20.85-6.28-40.3-10.23-62.07-12.08C1226.39,1675.77,1226.3,1673.54,1227.81,1673.24z"/>
								<path class="st3" d="M1212.73,1682.59c21-4.2,46.79-1.3,63.07,13.49c0.63,0.57-0.19,1.46-0.88,1.25
									c-20.86-6.28-40.3-10.23-62.07-12.08C1211.31,1685.12,1211.22,1682.9,1212.73,1682.59z"/>
								<path class="st3" d="M1197.65,1691.95c21-4.2,46.79-1.3,63.07,13.49c0.63,0.57-0.19,1.46-0.88,1.25
									c-20.86-6.28-40.3-10.23-62.07-12.08C1196.24,1694.48,1196.15,1692.25,1197.65,1691.95z"/>
							</g>
						</g>
						<path class="st3" d="M1283.46,1787.2c16.94-0.34,33.79-0.73,49.86-1.17c60.1-1.65,109.77-4.13,114.38-7.14
							c4.56-2.86,6.65-47.87,7.57-102.82c0-0.78,0.05-1.55,0.05-2.33c0-0.58,0-1.21,0.05-1.8h-0.24
							C1427.11,1691.61,1328.36,1757.35,1283.46,1787.2z"/>
					</g>
				</g>
				<g>
					<path class="st3" d="M1236.66,1673.07h228.56c0,0-46.02-533.82-44.23-543.15c2.28-11.94,15.78-65.98,33.74-136.56
						c5.63-22.09,11.7-45.78,18.01-70.35c17.04-66.41,35.83-138.99,52.19-202.15c24.57-94.62,43.74-168.12,43.74-168.12h-193.7
						c0,0-22.57,71.56-51.02,164.67c-46.36,151.32-108.31,359.59-114.42,410.22C1199.62,1209.39,1236.66,1673.07,1236.66,1673.07z"
						/>
					<g>
						<g>
							<path class="st2" d="M1246.78,1634.07c34.91-0.73,24.88-1.01,59.79-1.35c17.09-0.16,129.35-1.14,145.31,1.5
								c0.35,0.06,0.35,0.65,0,0.71c-15.96,2.64-128.23,1.66-145.31,1.5c-34.91-0.34-24.88-0.62-59.79-1.35
								C1246.13,1635.08,1246.13,1634.08,1246.78,1634.07z"/>
						</g>
						<path class="st2" d="M1377.99,1097.3c7.5-33.04,18.69-65.42,28.44-97.85c19.81-65.89,39.78-131.74,59.79-197.58
							c10-32.92,20.03-65.83,30.15-98.71c5.11-16.6,10.21-33.21,15.41-49.79c5.09-16.22,10.88-32.31,15.46-48.67
							c1.87-6.66,2.89-3,0.5,5.45c-4.82,17.05-9.58,34.11-14.55,51.12c-9.84,33.68-19.77,67.33-29.72,100.98
							c-19.81,66.96-39.9,133.84-59.96,200.73c-10.06,33.54-20.19,67.05-30.25,100.58c-4.81,16.02-9.52,32.14-12.36,48.65
							c-2.95,17.23-3.11,34.65-2.02,52.05c2.19,34.97,6.24,69.89,9.47,104.77c3.24,34.96,6.47,69.92,9.71,104.88
							c6.44,69.57,12.88,139.15,19.15,208.74c0.79,8.82,1.57,17.64,2.24,26.47c0.23,2.95-1.86,3.31-2.17,0.47
							c-7.53-68.8-15.68-138.4-22.14-207.31c-6.43-68.57-12.86-137.13-19.26-205.69c-1.61-17.21-3.44-34.46-3.45-51.77
							C1372.41,1128.78,1374.44,1112.94,1377.99,1097.3z"/>
					</g>
				</g>
				<path class="st2" d="M1396.96,552.74c13.45,104.04,39.08,299.1,57.77,440.61c43.69-171.47,113.94-440.61,113.94-440.61H1396.96z
					"/>
			</g>
			<g>
				<g>
					<path class="st4" d="M1349.38,1790.33c11.12,3.63,328.49,0.68,340.49-7.12c4.61-2.88,6.88-49.15,8.01-105.14
						c0.01-0.58,0.01-1.17,0.02-1.75c0.26-11.54,0.45-23.42,0.51-35.46c0.01-1.66,0.02-3.32,0.08-4.97
						c0.74-80.8-5.09-164.64-5.09-164.64l-207.44,1.35l5.79,163.11l0.22,6.46l1.16,33.76l0.11,3.47c0,0-120.97,55.47-133.28,65.43
						C1347.76,1754.77,1338.26,1786.75,1349.38,1790.33z"/>
					<path class="st5" d="M1349.38,1790.33c11.12,3.63,328.49,0.68,340.49-7.12c4.61-2.88,6.88-49.15,8.01-105.14
						c0.01-0.58,0.01-1.17,0.02-1.75c0.26-11.54,0.45-23.42,0.51-35.46c0.01-1.66,0.02-3.32,0.08-4.97l-206.74-0.17l0.22,6.46
						l1.16,33.76l0.11,3.47c0,0-120.97,55.47-133.28,65.43C1347.76,1754.77,1338.26,1786.75,1349.38,1790.33z"/>
					<g>
						<path class="st1" d="M1349.38,1790.33c11.12,3.63,328.49,0.68,340.49-7.12c4.61-2.88,6.88-49.15,8.01-105.14
							c0.01-0.58,0.01-1.17,0.02-1.75l-204.77-0.38l0.11,3.47c0,0-120.97,55.47-133.28,65.43
							C1347.76,1754.77,1338.26,1786.75,1349.38,1790.33z"/>
						<g>
							<g>
								<path class="st3" d="M1352.86,1777.99c53.49-1.81,269.39-4.07,322.39-1.8c0.43,0.02,0.43,0.31,0,0.34
									c-52.97,2.95-268.88,3.46-322.39,2.34C1351.74,1778.84,1351.73,1778.03,1352.86,1777.99z"/>
								<path class="st3" d="M1470.34,1676.74c21.01-4.12,46.79-1.13,63.02,13.72c0.63,0.58-0.2,1.46-0.88,1.25
									c-20.83-6.35-40.26-10.38-62.03-12.31C1468.92,1679.26,1468.84,1677.03,1470.34,1676.74z"/>
								<path class="st3" d="M1455.23,1686.04c21.02-4.13,46.79-1.13,63.02,13.72c0.63,0.57-0.2,1.46-0.88,1.25
									c-20.83-6.35-40.27-10.38-62.03-12.31C1453.81,1688.56,1453.73,1686.33,1455.23,1686.04z"/>
								<path class="st3" d="M1440.12,1695.34c21.02-4.13,46.79-1.13,63.02,13.72c0.63,0.58-0.2,1.46-0.88,1.25
									c-20.83-6.35-40.27-10.38-62.03-12.31C1438.7,1697.86,1438.62,1695.63,1440.12,1695.34z"/>
							</g>
						</g>
					</g>
				</g>
				<g>
					<path class="st3" d="M1381.23,552.74c0,0,4.47,92.68,25.68,166.08c1.7,6.07,3.54,12.04,5.53,17.77c0,0,22.09,8.01,55.83,28.69
						c0,0,2.23,74.57,4.47,157.73c2.48,92.97,5.05,196.66,4.51,218.66c-1.94,82.29,10.29,534.75,10.29,534.75l228.51,0.92
						c0,0-41.31-505.28-41.02-535.43c0.44-48.45-11.07-262.59-19.95-418.77c-5.44-96.22-21.35-170.4-21.35-170.4H1381.23z"/>
					<g>
						<path class="st2" d="M1495.38,1635.77c34.91-0.58,24.88-0.9,59.79-1.09c17.09-0.09,129.36-0.59,145.31,2.12
							c0.35,0.06,0.35,0.65,0,0.71c-15.98,2.58-128.23,1.12-145.32,0.88c-34.91-0.48-24.88-0.73-59.78-1.6
							C1494.72,1636.77,1494.72,1635.78,1495.38,1635.77z"/>
						<path class="st2" d="M1625.98,585.86c4.2,127.49,8.66,254.99,14.36,382.42c5.72,127.87,35.74,585.57,43.43,656.67
							c0.05,0.48-0.68,0.65-0.74,0.16c-16.64-126.47-25.91-313.65-34.1-440.92c-8.18-127.25-13.73-254.71-18.07-382.14
							c-2.45-72.08-4.33-144.19-6.49-216.28C1624.36,584.75,1625.95,584.84,1625.98,585.86z"/>
						<path class="st2" d="M1402.95,731.07c22.75,9.04,44.54,21.38,65.33,34.22c0.82,0.5,0.2,1.78-0.68,1.35
							c-22.05-10.71-44.55-21.02-65.98-32.93C1399.93,732.76,1401.2,730.38,1402.95,731.07z"/>
						<path class="st2" d="M1401.67,652.44c1.51,8.12,3.48,16.16,5.23,24.23c1.65,7.57,2.86,15.3,4.86,22.79
							c1.94,7.26,5.03,13.92,10.61,19.1c2.97,2.76,6.25,5.21,9.41,7.74c1.71,1.36,3.55,2.67,5.33,4.05
							c-0.23-1.07-0.42-2.16-0.61-3.27c-0.54-3.08-1.06-6.16-1.58-9.24c-1.15-6.84-2.24-13.69-3.29-20.55
							c-2.06-13.48-3.96-27.1-6.77-40.44c-0.11-0.54,0.7-0.75,0.84-0.21c3.36,13.22,7.06,26.3,9.99,39.63
							c1.43,6.54,6.55,38.83,6.78,41.11c0.23,2.36,0.43,4.73,0.51,7.1c0.08,2.34,0.55,4.95,0.01,7.25c-0.14,0.59-0.85,0.49-1.1,0.1
							c-0.01,0.01-0.02,0.02-0.03,0.02c-1.18-2.06-1.47-4.74-2.05-7.02c-0.59-2.3-1.11-4.64-1.53-6.99
							c-0.15-0.84-0.27-1.71-0.39-2.57c-3.18-1.93-6.14-4.49-9.11-6.64c-3.2-2.32-6.47-4.58-9.5-7.13
							c-5.8-4.89-9.43-10.88-11.6-18.12c-2.24-7.52-2.94-15.44-3.8-23.2c-1.03-9.17-1.78-18.4-3.06-27.54
							C1400.75,652.11,1401.56,651.89,1401.67,652.44z"/>
					</g>
				</g>
			</g>
		</g>
	</g>
	<g>
		<g>
			<g>
				<path class="st4" d="M1429.64,341.42c-16.63,93.18-38.46,202.91-69.33,229.87c-46.81,40.88-198.74,85.12-240.23,87.53
					c-17.27,1-25.2-155.36-6.72-156.2c39.41-1.81,160.12-12.63,169.34-19.22c8.74-6.25,53.72-91.79,89.14-158.36
					C1414.44,244.97,1439.26,287.5,1429.64,341.42z"/>
				<g>
					<g>
						<path class="st4" d="M1120.08,658.82c-14.19,5.75-81.56,26.39-101.6,27.94c-20.03,1.55-78,1.83-80.75-13.39
							c-2.74-15.22,14.22-16.66,14.22-16.66s-24.5-3.76-25.86-19.33c-1.37-15.57,25.1-16.94,25.1-16.94s-24.88-5.7-25.13-21.33
							c-0.25-15.63,26.59-12.55,26.59-12.55s-22.99-4.15-17.78-17.11c6.27-15.6,47.79-3.16,69.77-6.53
							c4.99-0.76,100.1-22.71,100.1-22.71L1120.08,658.82z"/>
						<g>
							<path class="st3" d="M950.34,586.33c30.55,9.07,45.49,7.75,75.69-0.75c0.59-0.17,0.97,0.67,0.37,0.9
								c-28.82,11.02-47.31,15.37-76.58,1.31C948.4,587.1,948.89,585.9,950.34,586.33z"/>
							<path class="st3" d="M948.77,619.67c32.56,6.65,48.77,5.36,81.06-1.22c0.46-0.09,0.66,0.67,0.21,0.8
								c-31.13,9.11-49.68,13.03-81.34,2.11C947.26,620.87,947.29,619.36,948.77,619.67z"/>
							<path class="st3" d="M953.58,656.32c31.99,4.16,49.82,3.52,80.34-6.9c0.72-0.25,1.15,0.78,0.45,1.1
								c-30.09,13.65-52.34,14.61-80.82,6.78C951.62,656.77,951.57,656.06,953.58,656.32z"/>
						</g>
					</g>
					<g>
						<path class="st4" d="M1113.36,502.62c0,0-39.75-3.8-57.59-1.61c-17.83,2.19-81.29,34.79-75.03,48.89
							c8.09,18.21,48.43,6.61,67.44-1.66c0,0,18.67,42.15,49.42,40.08C1128.36,586.26,1113.36,502.62,1113.36,502.62z"/>
						<path class="st3" d="M984.61,554.17c19.36,11.29,43.62-1.17,62.66-7.81c1.45-0.51,2.36,0.48,2.53,1.67
							c9,17.14,26.7,38.7,46.98,41.24c0.59,0.07,0.57,0.93-0.04,0.93c-22.12,0.23-41.23-19.54-49.89-38.94
							c-19.43,7.11-44.3,18.54-62.36,3.09C984.39,554.27,984.48,554.1,984.61,554.17z"/>
					</g>
				</g>
				<g>
					<path class="st1" d="M1320.35,389.03l103.64,42.04c0,0,25.42-69.79,25.51-127.81c0.09-58.02-41.87-36.05-65.81-4.06
						C1359.74,331.2,1320.35,389.03,1320.35,389.03z"/>
					<path class="st3" d="M1426.59,410.98c-44.2-14.87-80.41-34.33-88.4-37.68c-0.38-0.16-0.08-0.75,0.29-0.57
						c7.66,3.69,52.94,20.86,88.42,37.62C1427.32,410.55,1427.01,411.12,1426.59,410.98z"/>
					<path class="st3" d="M1449.49,303.25c-0.1,58.02-25.51,127.81-25.51,127.81l-79.07-32.1c22.76-33.75,67.87-100.54,89.39-131.13
						C1443.32,270.38,1449.54,280.85,1449.49,303.25z"/>
				</g>
			</g>
		</g>
		<g>
			<path class="st1" d="M1343.27,656.45c5.12,5.07,312.2,2.04,313.72,0c4.12-5.54-42.94-203.6-78.26-278.72
				c-45.28-96.33-72.84-111.82-87.13-117.18c-18.27-6.85-62.43,3.45-70.25,7c-8.86,3.98-31.4,48.98-41.94,84.73
				C1358.26,424.07,1338.82,652,1343.27,656.45z"/>
		</g>
		<g>
			<path class="st4" d="M1550.95,323.89c41.37,80.89,92.07,234.75,62.2,262.81c-24.66,23.17-153.3,36.51-185.36,36.48
				c-17.3-0.01-70.3-120.55-52.4-125.22c38.17-9.97,124.24-8.09,131.88-16.45c7.25-7.93-10.62-74.35-10.62-159.41
				C1496.65,252.85,1526.01,275.13,1550.95,323.89z"/>
			<g>
				<path class="st4" d="M1415.71,492.78c0,0-52.1-7.47-86.39-10.76c-19.13-1.83-52.22-2.05-66.9,3.04
					c-21.95,7.6-108.88,53.43-98.23,74.74c9.65,19.3,79.34-29.55,79.34-29.55s-74.68,43.08-58.79,64.18
					c15.89,21.1,87.29-44.57,87.29-44.57s-75.74,45.98-55.91,65.15c14.98,14.48,83-41.34,83-41.34s-64.83,39.97-50.06,55.53
					c16.32,17.19,82.34-30.4,82.34-30.4c44.19,33.23,79.61,34.01,104.23,22.16C1435.61,620.96,1423.5,533.96,1415.71,492.78z"/>
				<g>
					<path class="st3" d="M1268.4,513.7c-8.95,4.74-18.05,9.48-26.55,15c-8.5,5.52-16.82,11.35-24.77,17.64
						c-19.5,15.42-29.3,28.13-28.61,27.41c16.34-17.01,46.47-37.25,54.98-42.77c8.49-5.51,16.7-11.45,25.18-16.97
						C1268.83,513.88,1268.61,513.59,1268.4,513.7z"/>
					<path class="st3" d="M1288.9,544.04c-13.59,3.89-47.56,25.22-64.22,42.04c-0.7,0.71-0.21,0.83,0.61,0.26
						c10.62-7.32,52.86-35.28,63.78-42.05C1289.24,544.19,1289.09,543.99,1288.9,544.04z"/>
					<path class="st3" d="M1311.17,566.92c-16.7,6.83-33.28,18.74-48.76,34.01c-0.7,0.69,0.02,0.84,0.84,0.25
						c15.99-11.61,28.46-20.84,48.24-33.65C1311.8,567.33,1311.56,566.76,1311.17,566.92z"/>
				</g>
				<path class="st3" d="M1356.76,485.03c-23.19-2.75-46.64-4.4-69.87-2.78c-23.6,0.46-44.65,11.81-64.42,23.9
					c-9.91,6.1-19.65,12.53-29.13,19.3c-4.74,3.38-9.43,6.85-14.01,10.41c-4.57,3.48-8.63,7.45-11.45,12.23
					c-1.37,2.36-2.46,4.92-2.6,7.39c-0.17,2.45,0.73,4.69,2.68,5.75c1.96,1.14,4.75,1.3,7.45,1.1c2.73-0.23,5.51-0.8,8.24-1.57
					c10.95-3.18,22.14-6.78,32.16-12.53l0.39,0.53c-6.98,5.31-12.76,12.13-18.89,18.41c-3.05,3.15-5.96,6.45-8.43,9.98
					c-2.41,3.49-4.62,7.41-4.77,11.21c-0.05,1.87,0.54,3.54,1.82,4.85c1.35,1.4,3.03,2.44,4.91,2.99c3.79,1.12,8.12,0.52,12.19-0.71
					c8.16-2.6,16.9-6.07,23.85-11.28l0.72,0.75c-5.32,4.93-10.25,11.17-12.6,17.92c-1.15,3.35-1.11,7.01,0.81,9.84
					c1.79,3.01,5.16,4.16,8.77,3.98c7.23-0.45,14.26-3.72,20.92-7.02c6.67-3.43,13.69-6.84,19.84-11.16l0.64,0.81
					c-4.38,3.69-9.13,7.17-12.78,11.6c-1.81,2.23-3.5,4.58-4.79,7.15c-1.22,2.53-2.2,5.54-1.1,8.29c-1.19-2.73-0.3-5.82,0.86-8.41
					c1.23-2.64,2.86-5.06,4.62-7.36c3.56-4.59,8.19-8.19,12.52-12.07l0.64,0.81c-6.08,4.55-13,8.16-19.66,11.84
					c-6.68,3.57-13.67,7.03-21.62,7.7c-1.98,0.1-4.06-0.08-6.04-0.86c-2-0.76-3.68-2.3-4.81-3.99c-2.48-3.49-2.53-8.18-1.28-11.93
					c2.58-7.65,8.72-12.48,14.29-17.86l0.72,0.75c-7.2,5.54-14.7,10.82-23.55,13.66c-4.39,1.34-9.27,2.16-14.13,0.79
					c-2.4-0.68-4.66-2.05-6.41-3.85c-1.9-1.86-2.93-4.71-2.82-7.3c0.24-5.22,2.81-9.37,5.33-13.16c2.62-3.78,5.62-7.21,8.74-10.47
					c6.29-6.5,13.75-10.79,20.92-16.31l0.39,0.53c-10.2,5.89-19.79,12.33-31.37,15.58c-2.9,0.79-5.88,1.4-8.97,1.65
					c-3.07,0.17-6.42,0.14-9.61-1.65c-3.33-1.79-4.83-5.91-4.48-9.21c0.24-3.4,1.6-6.34,3.15-9.01c3.16-5.31,7.69-9.62,12.41-13.17
					c4.67-3.59,9.4-7.05,14.2-10.43c9.59-6.75,19.38-13.23,29.47-19.23c10.1-5.97,20.46-11.59,31.41-16
					c5.42-2.31,11.16-4,16.96-5.19c5.82-1.02,11.69-1.75,17.56-1.99C1310.26,479.18,1333.64,481.62,1356.76,485.03z"/>
			</g>
			<g>
				<path class="st1" d="M1497.74,442.52l105.8-36.26c0,0-26.6-69.35-64.59-113.2c-37.99-43.85-55.25,0.26-52.33,40.11
					C1489.54,373.02,1497.74,442.52,1497.74,442.52z"/>
				<path class="st3" d="M1590.48,388.44c-42.75,18.63-82.66,28.5-90.82,31.37c-0.39,0.14-0.56-0.5-0.16-0.62
					c8.16-2.4,53.25-20.05,90.81-31.44C1590.74,387.63,1590.89,388.26,1590.48,388.44z"/>
				<path class="st3" d="M1494.35,401.56c-1.46-13.34-3.11-32.59-5.33-45.82c-0.03-0.17-0.31-0.14-0.31,0.03
					c0.18,7.37,0.69,14.79,1.34,22.2c-0.12-0.4-0.2-0.81-0.32-1.22c-1.16-3.74-2.39-7.43-3.82-11.08c-0.05-0.13-0.24-0.04-0.22,0.08
					c0.74,3.89,1.62,7.74,2.71,11.55c0.68,2.37,1.46,4.71,2.24,7.05c0.38,3.92,1.09,13.54,1.49,17.43
					c0.67,6.53,2.55,42.84,3.19,42.67c0.96-0.26,6.52-1.94,10.65-3.68c0.53-0.22,0.13-1.19-0.39-0.97
					c-1.93,0.79-6.62,2.13-7.41,2.41c-0.9-6.75-1.2-13.66-1.82-20.45C1495.72,415.04,1495.09,408.29,1494.35,401.56z"/>
			</g>
		</g>
		<g>
			<g>
				<g>
					<path class="st4" d="M1429.97,316.7c17.08,5.11,48.35-19.61,61.35-40.36c0.88-1.43-0.46-17.06-1.2-36.13
						c-0.4-11.57-0.57-24.47,0.12-36.25c0.15-2.42-74.93,13.61-74.93,13.61s5.81,25.12,4.48,45.65c-0.13,1.72-0.39,3.3-0.79,4.8
						c-0.04,0.22-0.12,0.49-0.15,0.79C1416.81,277.92,1413.47,311.75,1429.97,316.7z"/>
				</g>
				<path class="st3" d="M1485.68,204.01c-4.6,19.71-19.81,67.1-59.28,65.68c-2.75-0.09-5.26-0.38-7.53-0.85
					c0-0.33,0.09-0.57,0.14-0.81c0.38-1.52,0.66-3.08,0.81-4.79c1.33-20.57-4.5-45.68-4.5-45.68S1469.48,206,1485.68,204.01z"/>
			</g>
			<g>
				<g>
					<path class="st4" d="M1494.57,109.38c10.05,25.53,2.22,102.19-15.05,120.51c-25.04,26.56-69.01,32.39-92.33,1.61
						c-22.61-29.84-10.63-129.56,8.94-146.52C1424.95,60,1479.72,71.67,1494.57,109.38z"/>
				</g>
				<g>
					<g>
						<path class="st3" d="M1440.36,156.38c8.37,0.18,7.4,16.9-0.35,16.74C1432.37,172.96,1433.34,156.23,1440.36,156.38z"/>
					</g>
					<g>
						<path class="st3" d="M1400.86,154.12c-8.3-1.12-9.92,15.56-2.23,16.59C1406.2,171.73,1407.82,155.05,1400.86,154.12z"/>
					</g>
					<path class="st3" d="M1447.4,149.11c-2.25-0.71-4.2-1.73-6.35-2.66c-2.42-1.05-4.46-1.63-5.95-3.94
						c-0.8-1.24-0.32-3.36,0.82-4.25c2.64-2.08,5.93-1.53,8.89-0.39c3.22,1.24,5.39,3.02,7.1,6.01
						C1453.57,146.77,1450.36,150.04,1447.4,149.11z"/>
					<path class="st3" d="M1394.88,145.32c2.34-0.24,4.46-0.86,6.75-1.34c2.59-0.54,4.7-0.71,6.62-2.68
						c1.03-1.06,0.98-3.23,0.05-4.33c-2.17-2.56-5.5-2.68-8.64-2.16c-3.4,0.57-5.88,1.88-8.16,4.47
						C1389.3,141.8,1391.8,145.64,1394.88,145.32z"/>
				</g>
				<g>
					<path class="st53" d="M1498.08,164.61c-5.28-2.67-15.05-20.16-19.38-27.32c-4.5-7.44-3.61-41.82-3.11-52.09
						c8.33,6.05,15.05,14.22,18.99,24.21C1499.08,120.79,1500.03,142.5,1498.08,164.61z"/>
					<g>
						<path class="st3" d="M1498.31,125.28c0,0,16.29-26.78,4.96-43.5c-6.42-9.47-29.56-9.63-29.56-9.63s-6.66-13.7-25.51-19.18
							c-19.05-5.54-42.66,4.4-42.66,4.4s-17.72-11.56-35.47-2.75c-24.74,12.29-23.87,48.94-0.45,62.07
							c16.45,9.22,40.3-4.43,40.3-4.43c2.19,0.43,24.03,15.39,42.31-3.81c0,0,13.19,13.17,26.17,5.23
							C1478.4,113.68,1483.99,126.59,1498.31,125.28z"/>
					</g>
				</g>
				<g>
					<path class="st4" d="M1483.3,172.24c0,0,15.67-25.48,27.13-20.03c11.46,5.45,0.69,41.68-12.06,47.3
						c-12.75,5.62-18.18-6.08-18.18-6.08L1483.3,172.24z"/>
				</g>
			</g>
		</g>
	</g>
</g>
<g>
	<g>
		<g>
			<path class="st3" d="M780.38,1841.79c-162.39,0-294.5-164.89-294.5-367.57s132.11-367.57,294.5-367.57
				c162.39,0,294.5,164.89,294.5,367.57S942.77,1841.79,780.38,1841.79z M780.38,1136.12c-146.14,0-265.03,151.67-265.03,338.1
				c0,186.43,118.89,338.1,265.03,338.1s265.03-151.67,265.03-338.1C1045.41,1287.79,926.52,1136.12,780.38,1136.12z"/>
			<path class="st10" d="M803.62,1800.06c-143.66,0-260.54-146.17-260.54-325.84c0-179.67,116.88-325.84,260.54-325.84
				s260.54,146.17,260.54,325.84C1064.16,1653.89,947.28,1800.06,803.62,1800.06z M803.62,1169.43
				c-132.05,0-239.49,136.73-239.49,304.79c0,168.06,107.44,304.79,239.49,304.79c132.06,0,239.49-136.73,239.49-304.79
				C1043.11,1306.16,935.68,1169.43,803.62,1169.43z"/>
		</g>
		<rect x="371.95" y="1037.38" class="st7" width="435.17" height="168.02"/>
		<path class="st10" d="M736.59,1609.56H371.95v-21.05h364.64c32.98,0,59.81-26.83,59.81-59.81V713.67
			c0-44.59,36.28-80.87,80.87-80.87h49.14v21.05h-49.14c-32.98,0-59.81,26.83-59.81,59.81v815.02
			C817.45,1573.28,781.18,1609.56,736.59,1609.56z"/>
		<path class="st10" d="M382.48,1723.28h-21.05v-694.56c0-40.15,32.66-72.81,72.81-72.81h372.7v21.05h-372.7
			c-28.54,0-51.75,23.21-51.75,51.75V1723.28z"/>
		<g>
			<ellipse class="st10" cx="793.59" cy="1474.22" rx="42.24" ry="53.27"/>
			<path class="st6" d="M849.36,1474.22c0,29.42-18.91,53.27-42.24,53.27s-42.24-23.85-42.24-53.27c0-29.42,18.91-53.27,42.24-53.27
				S849.36,1444.8,849.36,1474.22z"/>
		</g>
		<rect x="807.12" y="1463.7" class="st10" width="382.5" height="21.05"/>
		<g>
			<ellipse class="st10" cx="364.09" cy="1782.59" rx="54.95" ry="69.3"/>
			<ellipse class="st6" cx="381.7" cy="1782.59" rx="54.95" ry="69.3"/>
		</g>
		<rect x="861.2" y="621.65" class="st3" width="130.42" height="41.86"/>
		<rect x="817.82" y="718.2" class="st3" width="371.81" height="403.18"/>
	</g>
	<rect x="276.53" y="1745.85" class="st3" width="488.35" height="63.01"/>
	<g>
		<g>
			<g>
				<g>
					<path class="st4" d="M230.53,1757.52c10.91,3.65,331.47,1.58,343.32-6.06c1.42-0.82,1.84-29.82,1.78-69.5l0-0.78
						c0.05-25.14,7.17-239.98,7.17-239.98l-200.63-1.11l-11.93,211.58c0,0-43.25,18.18-80.91,36.23c-0.05,0.05-0.09,0.05-0.09,0.09
						c-23.24,11.06-43.39,21.16-48.03,24.87C229.18,1722.55,219.62,1753.96,230.53,1757.52z"/>
					<path class="st8" d="M230.54,1757.51c10.9,3.66,331.46,1.57,343.31-6.06c1.38-0.79,1.81-27.55,1.77-64.83
						c-24.52,3.66-246.56,36.41-288.71,33.18c-44.67-3.39,26.73-42.67,26.73-42.67l-1.22-0.04c-7.64,3.5-15.47,7.16-23.07,10.78
						c-0.04,0.04-0.08,0.04-0.08,0.12c-23.26,11.06-43.41,21.14-48.06,24.84C229.17,1722.56,219.64,1753.97,230.54,1757.51z"/>
					<path class="st3" d="M371.26,1759.05c91.87-0.75,195.94-3.31,202.59-7.6c1.42-0.83,1.85-29.8,1.77-69.51v-0.75
						c0.08-25.15,7.2-239.98,7.2-239.98l-15.74-0.08L371.26,1759.05z"/>
				</g>
				<g>
					<path class="st9" d="M879.07,824.57l-31.59,86.82c0,0-324.11,41.4-395.74,137.53c-82.26,110.39-103.44,592.25-103.44,592.25
						l236.98-4.53c0,0,29.28-426.44,53.38-459.27c24.09-32.83,362.01-65.11,427.17-115.63c65.16-50.52,16.65-239.5,16.65-239.5
						L879.07,824.57z"/>
					<g>
						<path class="st3" d="M582.38,1593.25c-7.12-0.92-14.33-0.9-21.5-1.08c-7.1-0.17-14.2-0.23-21.3-0.36
							c-14.54-0.26-29.1-0.09-43.65-0.02c-29.1,0.14-58.19,0.37-87.28,1.05c-8.16,0.19-16.33,0.27-24.48,0.63
							c-8.14,0.35-16.39,0.46-24.46,1.54c-0.33,0.04-0.49,0.61-0.08,0.66c14.07,1.7,28.54,1.34,42.69,1.49
							c14.55,0.16,29.1,0.28,43.65,0.27c29.1-0.02,58.19-0.26,87.29-0.67c8.16-0.11,16.32-0.43,24.48-0.68
							c8.14-0.25,16.39-0.28,24.46-1.43C582.92,1594.56,583.27,1593.36,582.38,1593.25z"/>
						<path class="st3" d="M1052.11,1030.61c-49.75,21.55-102.76,34.62-155.91,44.61c-53.48,10.05-107.49,16.89-161.28,25.02
							c-27,4.08-54.49,7.63-80.65,15.71c-11.35,3.5-23.3,7.64-32.48,15.45c-9.42,8.01-13.47,19.48-15.87,31.28
							c-5.7,27.96-9.72,56.37-14.01,84.57c-4.37,28.71-8.28,57.49-12.02,86.29c-7.53,57.99-13.84,116.12-20.17,174.24
							c-0.76,7.01-1.42,14.03-2.12,21.05c-0.07,0.73,1.04,1.01,1.14,0.26c7.45-57.21,14.01-114.54,21.52-171.74
							c7.51-57.22,15.67-114.37,25.28-171.28c2.13-12.63,3.3-26.31,8.45-38.16c5.14-11.8,15.25-18.78,26.82-23.57
							c25.25-10.46,52.84-14.41,79.65-18.68c53-8.45,106.29-15.12,159.09-24.84c52.73-9.7,104.55-22.73,154.59-42.16
							c6.09-2.37,12.14-4.84,18.15-7.41C1052.7,1031.08,1052.5,1030.44,1052.11,1030.61z"/>
					</g>
				</g>
			</g>
			<g>
				<g>
					<path class="st4" d="M395.95,1760.39c10.91,3.64,331.47,1.58,343.32-6.06c1.42-0.82,1.84-29.82,1.78-69.5l0-0.78
						c0.05-25.14,7.17-239.98,7.17-239.98l-200.63-1.11l-11.93,211.58c0,0-43.25,18.18-80.91,36.23c-0.05,0.05-0.09,0.05-0.09,0.09
						c-23.24,11.06-43.4,21.16-48.04,24.87C394.59,1725.43,385.03,1756.84,395.95,1760.39z"/>
					<path class="st8" d="M395.94,1760.39c10.9,3.66,331.5,1.57,343.35-6.06c1.38-0.83,1.85-28.58,1.77-66.95
						c-40.82,6.02-243.64,35.5-283.75,32.43c-43.57-3.31,23.38-40.82,26.61-42.59c-9.53,4.33-19.52,8.93-29.17,13.54
						c-0.04,0.04-0.08,0.04-0.08,0.12c-23.22,11.06-43.42,21.14-48.02,24.84C394.6,1725.43,385.04,1756.84,395.94,1760.39z"/>
				</g>
				<g>
					<path class="st9" d="M529.04,1643.87l231.41-0.74c0,0-26.54-454.26,16.74-485.9c37.64-27.51,229.23-34.32,324.38-103.07
						c77.27-55.83,8.86-232.46,8.86-232.46l-207.8,3.98c0,0-28.01,64.89-32.7,84.54c0,0-225.54,61.63-288.31,141.19
						C511.25,1140.6,529.04,1643.87,529.04,1643.87z"/>
					<g>
						<path class="st3" d="M755.04,1603.56c-7-0.92-14.08-0.92-21.13-1.1c-6.98-0.18-13.96-0.25-20.93-0.39
							c-14.3-0.28-28.61-0.12-42.9-0.06c-28.6,0.11-57.2,0.31-85.79,0.96c-8.02,0.18-16.05,0.26-24.06,0.6
							c-8,0.34-16.11,0.44-24.05,1.52c-0.33,0.04-0.48,0.61-0.08,0.66c13.83,1.72,28.05,1.37,41.96,1.54
							c14.3,0.17,28.6,0.31,42.91,0.32c28.6,0.01,57.2-0.2,85.8-0.57c8.02-0.11,16.04-0.42,24.06-0.66c8-0.24,16.11-0.27,24.05-1.4
							C755.57,1604.88,755.91,1603.68,755.04,1603.56z"/>
						<path class="st3" d="M869.94,910.22c-58.87,18.81-116.88,38.47-173.23,63.79c-25.39,11.41-51.29,22.66-74.51,38.17
							c-21.5,14.36-39.44,33.03-51.69,55.89c-12.18,22.74-18.91,48.01-23.32,73.29c-4.85,27.79-7.29,56.03-9.91,84.1
							c-5.91,63.18-9.95,126.56-11.39,190c-1.44,63.68-0.47,127.31,2.58,190.93c0.38,8.01,0.98,16.01,1.39,24.02
							c0.03,0.55,0.88,0.52,0.86-0.04c-2.35-62.66-1.92-125.58-0.33-188.25c1.59-62.71,4.83-125.43,10.06-187.95
							c2.5-29.94,5.16-59.93,9.1-89.72c3.35-25.33,8.03-50.86,17.45-74.71c9.51-24.08,24.01-45.48,44.22-61.83
							c20.79-16.82,45.06-28.66,69.24-39.74c55.42-25.39,183.79-73.43,190.91-75.97C875,910.89,873.63,909.04,869.94,910.22z"/>
						<path class="st3" d="M1098.59,859.16c-2.06-8.13-4.4-16.15-7.1-24.09c-0.29-0.84-1.56-0.43-1.31,0.42
							c9.27,32.71,15.79,65.89,17.51,99.9c0.82,16.17,1.27,32.89-1.81,48.86c-2.81,14.57-10.34,30.83-20.59,41.54
							c-20.46,21.39-49.06,35.28-76.72,44.03c-31.57,9.99-64.22,16.2-96.44,23.69c-33.47,7.78-140.01,35.7-147.1,38.73
							c-5.76,2.46-10.44,6.25-13.18,11.97c-3.15,6.55-4.57,14.07-6.28,21.08c-15.8,64.77-17.26,126.31-17.56,192.64
							c-0.31,70.08,0.91,140.09,4.04,210.1c0.38,8.47,0.75,16.94,1.04,25.41c0.02,0.56,0.88,0.52,0.86-0.04
							c-1.03-35.14-0.98-70.35-1.07-105.5c-0.1-35.16-0.36-70.32-0.35-105.49c0.01-67.21-0.22-129.75,12.65-195.99
							c1.63-8.4,8.57-40.38,13.7-45.73c5.4-5.62,113.06-33.1,146.79-40.91c32.16-7.44,64.74-13.6,96.45-22.84
							c27.85-8.12,58.21-21.67,80.61-40.71c10.07-8.56,17.33-21.56,22.4-33.86c5.88-14.28,6.85-29.85,6.57-45.13
							C1111.08,924.23,1106.71,891.18,1098.59,859.16z"/>
						<path class="st3" d="M1084.28,904.31c-15.5-5.11-34.16-7.25-46.63-18.76c-5.73-5.28-9.28-12.63-11.37-20.04
							c-1.23-4.38-1.97-8.89-2.55-13.39c-0.61-4.7-1.61-9.68-1.7-14.42c-0.01-0.56-0.86-0.51-0.86,0.04
							c-0.06,5.28-1.06,10.53-1,15.85c0.05,4.7,0.55,9.39,1.53,13.99c1.76,8.26,5.4,16.12,11.34,22.2
							c6.02,6.17,14.27,9.15,22.45,11.2c9.38,2.35,19.02,4.41,28.66,4.91C1085.1,905.94,1085.07,904.57,1084.28,904.31z"/>
					</g>
				</g>
			</g>
		</g>
		<g>
			<g>
				<path class="st3" d="M820.43,696.36c2.9,0.19,16.47,1.12,36.3,2.53c7.53-12.34,16.71-34.36,14.65-66.22
					c-0.38-5.28,10.66,25.44,3.79,67.52c38.33,2.67,90.47,6.28,136.05,9.01c1.69-17.76,4.07-34.16,4.07-34.16
					c0.98,12.9,3.19,24.61,5.84,34.78c6.23,0.42,12.34,0.72,18.2,1.05c-0.07-27.7,6.84-75.65,6.84-75.65
					c2.6,33.69,12.08,60.93,19.07,77.05c28.95,1.42,48.02,1.83,46.86,0.41c-41.51-52.22-8.11-79.68-18.54-124.47
					c-12.52-53.68-57.83-64.19-54.65-103.93c2.5-32.34,9.22-90.91-31.12-105.34c0,0-31.61-37.97-84.79-20.29
					c-65.79,21.81-44.76,122.86-50.1,142.97c-7.6,28.73-21.88,38.33-33.71,70.95c-12.06,33.01,2.18,55.95,2.88,78.74
					C842.66,674.08,813.17,695.96,820.43,696.36z"/>
				<path class="st3" d="M1113.72,705.58c-5.43-9.24-10.2-18.92-12.76-29c-2.86-10.03-0.96-20.07,1.51-30.41
					c2.46-10.29,5.32-20.79,6.79-31.76c1.34-10.93,1.47-22.48-1.67-33.49c-2.95-11.02-8.76-21.18-16.12-29.53
					c-7.27-8.48-15.74-15.42-23.9-22.26c-8.08-6.92-16.14-13.75-22.03-22.35c-6.04-8.47-9.48-18.75-10.28-29.48
					c-0.92,10.7,1.43,21.93,6.96,31.55c5.45,9.69,13.31,17.64,21.11,25.01c7.79,7.43,15.65,14.52,22.13,22.53
					c6.44,8,11.47,16.95,13.93,26.71c2.5,9.73,2.87,20.01,1.66,30.31c-1.07,10.34-3.48,20.66-5.36,31.35
					c-0.9,5.35-1.73,10.81-1.8,16.45c-0.11,5.65,1.06,11.44,2.91,16.62C1100.72,688.24,1106.65,697.46,1113.72,705.58z"/>
				<path class="st3" d="M884.73,394.12c-5.59,12.05-8.07,25.27-10.56,38.24c-2.24,13.06-3.85,26.2-5.31,39.3l-2.31,19.54
					c-0.78,6.53-1.89,12.64-3.81,18.6c-3.76,11.98-11.03,22.25-19.19,32.65c-3.96,5.29-7.99,10.79-11.35,16.81
					c-3.37,6-6.14,12.4-8.08,19.01c-1.76,6.7-3.03,13.29-3.76,20.07c-0.77,6.77-0.72,13.73,0.18,20.51
					c0.87,6.8,2.48,13.28,3.79,19.61c1.33,6.32,2.07,12.77,2.16,19.14c0.39,12.64-6.85,24.92-17.42,32.7
					c11.62-6.19,20.5-18.57,21.52-32.53c0.5-6.79,0.11-13.54-0.77-20.21c-0.84-6.66-2.21-13.06-2.64-19.39
					c-1.01-12.54,1.17-25.47,4.73-37.56c1.98-5.97,4.43-11.73,7.59-17.18c3.12-5.47,6.94-10.6,10.93-15.81
					c3.93-5.25,8.02-10.63,11.57-16.53c3.54-5.88,6.56-12.23,8.53-18.89c1.94-6.66,2.95-13.59,3.53-20.17
					c0.68-6.63,1.1-13.22,1.5-19.8c0.88-13.15,1.57-26.28,2.8-39.34C879.42,419.83,880.99,406.79,884.73,394.12z"/>
			</g>
			<g>
				<g>
					<path class="st4" d="M900.63,613.12c-94.45-10.4-168.79-17.73-194.43-43.61c-46.69-47.13-94.08-157.36-97.6-194.87
						c-1.52-16.19,104.8-45.74,118.16-34.61c13.36,11.13,50.79,139.93,58,147.77c15.73,17.12,74.19,47.4,119.68,62.88
						C984.67,577.98,956.78,619.3,900.63,613.12z"/>
				</g>
				<g>
					<g>
						<g>
							<g>
								<path class="st4" d="M610.82,388.62c-6.77-15.16-32.51-88.11-34.94-109.76c-2.44-21.65-4.93-84.45,11.46-88
									c16.39-3.55,18.59,14.78,18.59,14.78s3.15-26.69,19.97-28.76c16.82-2.07,19.31,26.56,19.31,26.56s5.23-27.17,22.16-28.03
									c16.93-0.86,14.61,28.34,14.61,28.34s3.62-25.07,17.87-19.91c17.13,6.2,5.24,51.66,9.72,75.36
									c1.02,5.38,28.4,107.6,28.4,107.6L610.82,388.62z"/>
								<g>
									<path class="st3" d="M682.11,201.24c-8.67,33.45-6.68,49.58,3.68,81.98c0.2,0.63-0.69,1.08-0.96,0.43
										c-13.03-30.81-18.45-50.68-4.31-82.92C681.21,199.16,682.52,199.65,682.11,201.24z"/>
									<path class="st3" d="M645.94,200.8c-5.97,35.53-3.97,53.05,4.39,87.78c0.12,0.49-0.7,0.74-0.86,0.26
										c-11.04-33.39-15.99-53.34-5.36-88.06C644.58,199.21,646.21,199.18,645.94,200.8z"/>
									<path class="st3" d="M606.4,207.4c-3.3,34.81-1.93,54.12,10.51,86.8c0.29,0.77-0.8,1.27-1.17,0.53
										c-15.92-32.09-17.81-56.16-10.4-87.31C605.84,205.29,606.61,205.21,606.4,207.4z"/>
								</g>
							</g>
							<g>
								<path class="st4" d="M744.94,387.37c0,0,18.43-39.18,22.73-58.18c4.3-19-5.74-95.69-22.43-94.47
									c-21.55,1.59-24.47,47-23,69.43c0,0-49.84,3.62-59,35.76C654.09,372.06,744.94,387.37,744.94,387.37z"/>
								<path class="st3" d="M739.46,237.11c-18.61,15.62-14.77,44.94-14.97,66.81c-0.02,1.66-1.36,2.24-2.63,1.97
									c-20.79,2.91-49.27,13.07-59.29,32.84c-0.29,0.58-1.15,0.24-0.94-0.38c7.86-22.66,35.03-34.93,58.01-36.66
									c-0.15-22.43-2.7-52,19.67-64.77C739.44,236.85,739.58,237.01,739.46,237.11z"/>
							</g>
						</g>
					</g>
				</g>
			</g>
			<g>
				<g>
					<g>
						<path class="st8" d="M852.65,851.56l281.4,26.54c0,0-58.31-249.42-118.32-310.9c-27.31-27.98-65.37-19.78-87.11-0.96
							c-5.42,4.7-60.17,89.92-65.33,120.32c-4.56,26.86,17.81,56.1,17.81,56.1L852.65,851.56z"/>
					</g>
					<g>
						<path class="st3" d="M918.21,733.29c12.47,1.39,24.98,3.22,37.13,6.44c6.04,1.6,11.97,3.48,17.89,5.49
							c2.95,1,5.92,1.9,8.9,2.78c3.06,0.91,6.35,1.76,9.56,1.89c0.29,0.01,0.28,0.44-0.01,0.45c-3.12,0.06-6.11,0.11-9.22-0.25
							c-2.96-0.34-5.9-1-8.78-1.74c-6.14-1.57-12.21-3.42-18.34-5.05c-12.36-3.29-24.72-6.58-37.29-8.98
							C917.46,734.21,917.62,733.22,918.21,733.29z"/>
						<path class="st3" d="M887.16,744.11c10.27-0.96,20.75-1.44,31.07-1.22c5.19,0.11,10.34,0.52,15.5,1.06
							c2.46,0.26,4.93,0.57,7.38,0.9c2.7,0.37,5.36,1.1,8.06,1.43c0.28,0.03,0.28,0.47-0.01,0.45c-2.56-0.23-5.17-0.04-7.74-0.13
							c-2.58-0.08-5.16-0.19-7.75-0.27c-5.17-0.17-10.34-0.28-15.51-0.51c-10.35-0.44-20.66-0.78-31.02-0.86
							C886.58,744.96,886.63,744.16,887.16,744.11z"/>
					</g>
				</g>
				<g>
					<g>
						<path class="st4" d="M984.86,560.42c-0.8,5.09-40.4,42.32-63.36,42.95c-3.63,0.09,10.31-22.28,10.31-22.28
							c-1.76-10.45-2.52-21.25-2.52-21.25l-0.9-2.96l-12.57-41.45l47.14-35.47l6.84-4.74c0,0,2.69,11.57,5.9,26
							c0.15,0.67,0.31,1.34,0.46,2.06c0.2,0.81,0.4,1.58,0.56,2.34c0.51,2.15,1.02,4.35,1.48,6.55c0.36,1.67,0.71,3.3,1.02,5.07
							c0.36,1.77,0.67,3.49,1.03,5.26C983.4,540.02,985.17,558.26,984.86,560.42z"/>
						<path class="st3" d="M975.7,501.24c-9.57,34.45-35.35,50.13-47.31,55.65l-12.57-41.45l47.14-35.47l6.84-4.74
							C969.8,475.23,972.49,486.8,975.7,501.24z"/>
					</g>
					<g>
						<path class="st4" d="M857.79,444.7c-12.74,74.95,30.71,91.04,46.88,93.77c14.67,2.48,64.95,9.05,85.36-64.18
							c20.41-73.23-10.41-102.84-43.67-110.28C913.11,356.56,870.53,369.76,857.79,444.7z"/>
						<path class="st3" d="M983.49,479.14c-7.99-2.16-24.45-28.79-16.99-68.01c0,0-4.26,35.68-2.69,41.37
							c1.57,5.69-9.18-14.97-3.61-46.69c0,0-20.07,8.98-35.82,10.07c-15.75,1.09-24.83-0.94-25.67-2.24
							c-0.84-1.3,22.49-3.66,29.83-9.26c0,0-43.41,10.2-61.95,7.81c-2.15-0.28,6.08-37.73,38.11-50.3
							c32.03-12.58,70.87,10.1,80.48,24.2c0,0,7.72,5.57,18.73,29.62C1014.92,439.75,992.1,481.46,983.49,479.14z"/>
						<g>
							<path class="st8" d="M981.3,497.69c-6.04,9.85,33.88-32.22,36.15-39.95c2.26-7.73-0.4-50-27.32-76.23
								c-22.55-21.97-58.58-23.28-64.88-23.43c-11.92-0.3-20.54,3.8-20.54,3.8s47.23,1.56,80.48,24.2
								C1001.21,396.99,1003.91,460.8,981.3,497.69z"/>
							<g>
								<g>
									<path class="st8" d="M1004.97,382.51c0,0-1.09-25.43-19.08-38.32c0,0-9.87,19.46-6.62,29.5c1.61,5,15.93,14.7,19.08,13.18
										C1001.5,385.36,1004.97,382.51,1004.97,382.51z"/>
									<path class="st24" d="M1004.96,382.52c0,0-3.47,2.82-6.6,4.34c-0.11,0.07-0.27,0.12-0.46,0.12
										c-0.16,0.06-0.35,0.05-0.59,0.04c-0.14-0.03-0.28-0.02-0.46-0.07c-2.09-0.29-5.37-2-8.56-4.21
										c1.84-2.32,4.42-5.23,6.68-7.11c1.95-1.62,5.43-2.03,8.66-2.03C1004.83,378.87,1004.96,382.52,1004.96,382.52z"/>
								</g>
								<g>
									<path class="st8" d="M1008.2,387.74c0,0,29.05,10.81,38.67,23.79c0,0-14.79,10.02-30.1,5.99
										c-6.86-1.8-18.34-22.51-15.63-25.12C1003.84,389.78,1008.2,387.74,1008.2,387.74z"/>
									<path class="st24" d="M1014.7,390.4c-0.9,2.76-2.61,6.46-5.42,8.59c-1.56,1.19-3.72,1.94-5.96,2.43
										c-2.13-4.3-3.21-7.99-2.17-9.03c2.68-2.59,7.06-4.65,7.06-4.65S1010.8,388.68,1014.7,390.4z"/>
								</g>
								<path class="st8" d="M1007.62,395.36c-4.64,3.06-10.89,1.78-13.95-2.86c-3.06-4.64-1.78-10.89,2.86-13.95
									c4.64-3.06,10.89-1.78,13.95,2.86C1013.54,386.05,1012.26,392.3,1007.62,395.36z"/>
							</g>
						</g>
						<g>
							<g>
								<path class="st4" d="M985.47,501.94c-1.29,0.37-2.47,0.56-3.58,0.62c-1.31,0.13-2.5,0.03-3.58-0.2
									c-1.69-0.3-3.1-0.96-4.25-1.77c-1.07-0.71-1.97-1.59-2.68-2.44c-1.84-2.24-2.53-4.49-2.53-4.49l5.85-19.9
									c0,0,18.5-22.29,28.72-15.51C1013.69,465.03,998.46,498.29,985.47,501.94z"/>
							</g>
							<path class="st11" d="M984.68,498.66c-0.54,1.87-2.49,2.95-4.36,2.41c-1.87-0.54-2.95-2.49-2.41-4.36
								c0.54-1.87,2.49-2.95,4.36-2.41C984.14,494.84,985.22,496.79,984.68,498.66z"/>
						</g>
						<g>
							<path class="st3" d="M879.91,433.43c1.77,0.08,3.42-0.14,5.18-0.25c1.99-0.12,3.58-0.01,5.24-1.26
								c0.89-0.67,1.09-2.3,0.52-3.22c-1.34-2.15-3.81-2.61-6.2-2.57c-2.6,0.05-4.6,0.75-6.58,2.43
								C876.14,430.18,877.57,433.32,879.91,433.43z"/>
							<path class="st3" d="M930.59,442.35c-1.71-0.48-3.2-1.21-4.84-1.87c-1.85-0.74-3.4-1.13-4.58-2.85
								c-0.63-0.92-0.31-2.52,0.52-3.22c1.94-1.62,4.43-1.28,6.7-0.49c2.46,0.86,4.13,2.16,5.49,4.38
								C935.19,440.45,932.84,442.99,930.59,442.35z"/>
							<g>
								<g>
									<path class="st3" d="M922.34,454.97c8.21,0.89,5.83,17.23-1.77,16.41C913.08,470.58,915.46,454.23,922.34,454.97z"/>
								</g>
								<path class="st3" d="M925.42,456.31c1.29,1.13,2.45,2.97,4.15,3.39c1.96,0.49,3.72-1.01,5.26-2.46
									c0.16-0.15,0.28,0.01,0.25,0.23c-0.41,3.14-2.08,6.18-5.5,6.16c-3.13-0.02-4.92-3.11-5.25-6.37
									C924.27,456.64,924.9,455.85,925.42,456.31z"/>
							</g>
							<g>
								<g>
									<path class="st3" d="M882.91,447.58c-8.07-1.74-10.95,14.52-3.48,16.13C886.78,465.3,889.67,449.04,882.91,447.58z"/>
								</g>
								<path class="st3" d="M879.33,448.05c-1.44,0.63-2.99,1.97-4.54,1.8c-1.8-0.2-2.8-2.19-3.64-4.08
									c-0.09-0.2-0.24-0.08-0.28,0.13c-0.64,3.09-0.18,6.51,2.7,7.64c2.63,1.03,5.1-1.28,6.39-4.25
									C880.19,448.75,879.91,447.79,879.33,448.05z"/>
							</g>
						</g>
					</g>
				</g>
			</g>
			<g>
				<g>
					<g>
						<g>
							<g>
								<path class="st4" d="M912.44,819.02c0,0-56.84,12.99-92.36,16.52c-19.82,1.97-53.49,8.38-67.39,16.49
									c-20.79,12.13-99.98,76.12-84.88,95.65c13.67,17.68,74.72-45.93,74.72-45.93s-67.28,58.75-46.91,77.01
									c20.37,18.26,79.8-62.78,79.8-62.78s-67.78,61.91-43.78,77.42c18.13,11.72,76.09-58.65,76.09-58.65
									s-57.89,53.62-39.76,66.47c20.03,14.21,77.6-47.39,77.6-47.39c51.58,24.93,96.23,4.31,120.17-5.19
									C971.54,946.32,912.44,819.02,912.44,819.02z"/>
								<g>
									<path class="st3" d="M760.51,883.36c-30.66,24.36-55.67,55.95-63.56,70.39c-0.96,1.76-1.76,3.35-1.67,3.24
										c13.75-15.96,58-66.04,65.51-73.35C760.99,883.46,760.71,883.21,760.51,883.36z"/>
									<path class="st3" d="M791.42,906.67c-25.85,15.09-47.91,45.66-56.85,55.6c-0.69,0.76-0.05,0.88,0.67,0.14
										c9.33-9.57,46.67-46.45,56.41-55.52C791.81,906.75,791.6,906.56,791.42,906.67z"/>
									<path class="st3" d="M816.19,927.78c-24.22,16.19-36.64,36.36-40.28,42.03c-0.55,0.86,0.19,0.85,0.9,0.08
										c13.93-15.01,22.29-24.57,39.83-41.55C816.91,928.07,816.55,927.54,816.19,927.78z"/>
								</g>
							</g>
						</g>
						<path class="st4" d="M987.01,607.08c3.83,37.7,45.82,170.6,44.85,177.8c-0.97,7.2-135.77,35.84-163.2,47.4
							c-18.62,7.85,29.29,139.8,65.14,127.92c55.56-18.42,213.42-66.8,228.31-118.63c14.88-51.83-106.6-226.87-132.62-258.74
							C1003.48,550.94,980.72,545.12,987.01,607.08z"/>
					</g>
				</g>
			</g>
		</g>
	</g>
	<g>
		<g>
			<rect x="754.64" y="1037.38" class="st7" width="435.82" height="168.02"/>
			<path class="st10" d="M1119.28,1609.56H754.64v-21.05h364.64c32.98,0,59.81-26.83,59.81-59.81V713.67
				c0-44.59,36.28-80.87,80.87-80.87h49.14v21.05h-49.14c-32.98,0-59.81,26.83-59.81,59.81v815.02
				C1200.15,1573.28,1163.87,1609.56,1119.28,1609.56z"/>
			<path class="st10" d="M765.17,1723.28h-21.05v-694.56c0-40.15,32.66-72.81,72.81-72.81h372.69v21.05H816.93
				c-28.54,0-51.75,23.21-51.75,51.75V1723.28z"/>
			<rect x="1243.89" y="621.65" class="st3" width="130.42" height="41.86"/>
		</g>
		<g>
			<path class="st3" d="M1167.22,1841.79c-162.39,0-294.5-164.89-294.5-367.57s132.11-367.57,294.5-367.57
				c162.39,0,294.5,164.89,294.5,367.57S1329.61,1841.79,1167.22,1841.79z M1167.22,1136.12c-146.14,0-265.03,151.67-265.03,338.1
				c0,186.43,118.89,338.1,265.03,338.1s265.03-151.67,265.03-338.1C1432.25,1287.79,1313.35,1136.12,1167.22,1136.12z"/>
			<path class="st10" d="M1190.46,1800.06c-143.66,0-260.54-146.17-260.54-325.84c0-179.67,116.88-325.84,260.54-325.84
				S1451,1294.55,1451,1474.22C1451,1653.89,1334.12,1800.06,1190.46,1800.06z M1190.46,1169.43
				c-132.05,0-239.49,136.73-239.49,304.79c0,168.06,107.44,304.79,239.49,304.79c132.06,0,239.49-136.73,239.49-304.79
				C1429.95,1306.16,1322.52,1169.43,1190.46,1169.43z"/>
			<g>
				<ellipse class="st10" cx="1180.49" cy="1474.22" rx="42.24" ry="53.27"/>
				<ellipse class="st6" cx="1194.02" cy="1474.22" rx="42.24" ry="53.27"/>
			</g>
		</g>
		<g>
			<ellipse class="st10" cx="760.59" cy="1782.59" rx="54.95" ry="69.3"/>
			<ellipse class="st6" cx="778.19" cy="1782.59" rx="54.95" ry="69.3"/>
		</g>
	</g>
</g>
<g>
	<path class="st9" d="M1045.14,1435.44c-1.92-9.21-17-40.54-30.91-53.02c-13.91-12.48-61.21-38.56-66.45-37.85
		c-5.23,0.71,25.89,42.67,21.3,71.19C967.07,1428.24,1045.14,1435.44,1045.14,1435.44z"/>
	<path class="st9" d="M1334.87,1598.75c29.5-5.26,90.15-26.86,90.68-87.96c0,0,35.72,102.59-41.43,134.92L1334.87,1598.75z"/>
	<path class="st2" d="M1171.4,1722.48c10.9,18.72-15.91,88.26-17.21,95.66c-1.3,7.41,25.65,28.8,20.71,37.85
		c-4.94,9.05-31.27,13.58-42.38,9.05c-11.11-4.53-29.21-33.74-31.27-44.44c-2.06-10.7-0.82-26.74,0-30.04
		c0.82-3.29-38.34-61.27-37.03-74.06C1065.53,1703.73,1158.26,1699.92,1171.4,1722.48z"/>
	<path class="st2" d="M1370.67,1736.05c1.04,6.96-12.66,63.15-22.44,79.36c-9.78,16.21-50.11,45.46-59.33,47.27
		c-9.22,1.81-32.39,8.44-36.23,2.78c-3.84-5.66,1.27-19.71,4.69-21.93c3.42-2.21,16.25-11.68,18.93-12.37
		c2.67-0.69,14.78-31.76,14.35-35.64c-0.43-3.88-34.94-43.23-27.42-62.66C1270.74,1713.43,1370.67,1736.05,1370.67,1736.05z"/>
	<path class="st9" d="M910.16,1550.29c19.75,11.11,71.59,24.05,72.19,27.16c0.59,3.11,19.75,130.84,50.61,156.17
		c30.86,25.28,104.92,49.97,141.95,56.14c37.03,6.17,95.69-11.11,112.33-12.34c16.64-1.23,41.97,3.11,41.97,3.11
		s20.39,29.62,24.05,38.22c3.75,8.69,34.56,37.03,35.85,46.91c1.19,9.87-10.52,14.81-14.81,21.03c-4.34,6.12,3.65,12.94,9.87,15.4
		c6.12,2.47,32.09-5.53,37.62-11.75c5.53-6.12,4.34-88.23,0.59-109.22c-3.65-20.98-28.34-152.47-48.73-169.75
		c-20.39-17.28-77.17-12.94-117.86-22.22c-40.78-9.23-114.84-56.78-127.78-75.89c-12.94-19.11-12.74-65.03-19.35-77.37
		c-6.57-12.34-54.51-46.16-78.55-47c-2.57-0.1-5.58,0.3-8.84,0.99c-19.9,4.39-49.92,21.77-58.66,30.51
		c-8.59,8.59-18.12,39.8-34.71,51.2c-2.96,2.07-6.22,3.51-9.73,4c-22.81,3.41-35.8-7.41-41.03-3.06
		C871.94,1476.87,890.41,1539.18,910.16,1550.29z"/>
	<path class="st9" d="M1162.35,1756.62c-3.63,21.41-61.1,72.47-79.62,83.57c-18.52,11.11-45.05,33.94-52.46,38.88
		c-7.41,4.94-53.69,0-59.25-8.64c-5.55-8.64,4.94-23.45,11.11-26.54c6.17-3.09,19.75-6.29,25.92-10.86
		c6.17-4.57,26.54-38.52,25.3-44.69c-1.23-6.17-18.17-57.28-19.27-83.88C1013,1677.87,1166.06,1734.76,1162.35,1756.62z"/>
	<path class="st9" d="M1111.27,1443.69c0.68-11.08-6.72-51.4-18.66-69.91c-11.93-18.52-76.12-56.37-82.29-57.19
		c-6.17-0.82,34.66,50.05,20.57,81.06C1024.72,1411.22,1111.27,1443.69,1111.27,1443.69z"/>
	<path class="st2" d="M927.88,1471.59c15.36,37.82,58.9,67.05,97.81,47.79c26.22-12.94,35.89-50.61,33.87-77.67
		c-1.63-21.77-17.77-43-38.31-51.84c-19.9,4.39-49.92,21.77-58.66,30.51C954,1428.98,944.47,1460.18,927.88,1471.59z"/>
	<path class="st3" d="M984.13,1468.57c14.76,1.35,11.14,28.94-2.53,27.69C968.14,1495.03,971.76,1467.44,984.13,1468.57z"/>
	<path class="st3" d="M891.46,1499c-6.04,0.52-23.14-20.37-21.6-29.01c1.54-8.64,47.21-1.54,49.99,5.25
		C922.63,1482.03,898.04,1498.43,891.46,1499z"/>
	<path class="st8" d="M981.79,1576.04c9.14-1.39,49.91-2.76,78.26-12.74c28.35-9.99,63.94-49.93,66.2-52.92
		c2.26-2.99,14.28,9.91,15.49,13.15c1.22,3.24-39.06,51.05-75.7,60.63c-36.64,9.59-82.78,12.91-84.84,10.83
		C979.15,1592.92,977.41,1576.7,981.79,1576.04z"/>
	<path class="st2" d="M1149.06,1585c18.09-14.12,80.15-0.66,98.25,24.84c18.1,25.5-29.23,72.34-67.2,68.32
		C1142.14,1674.14,1124.09,1604.49,1149.06,1585z"/>
	<path class="st2" d="M1279.72,1626.54c-9.4,8.25-6.9,35.78,10.34,43.11c17.24,7.33,37.5-2.16,40.52-21.55
		C1333.6,1628.7,1300.85,1608,1279.72,1626.54z"/>
	<path class="st2" d="M1157.12,1561.46c-0.25-6.35-11.92-14.16-20.32-9.7c-8.41,4.46-11.14,15.49-4.45,22.89
		C1139.05,1582.04,1157.69,1575.72,1157.12,1561.46z"/>
</g>
<path class="st3" d="M977.78,492.21l-3.86-1.5c0.26-0.9,6.5-22.13,22.4-25.49l0.86,4.07c-6.82,1.44-11.66,7.17-14.79,12.5
	c2.34-1.25,5.2-2.06,8.56-1.84l-0.27,4.15C982.24,483.51,977.95,491.85,977.78,492.21z"/>
<path class="st3" d="M899.75,493.22c-1.04-0.44-10.19-4.48-11.99-9.62c-1.95-5.56,2.72-9.82,5.52-12.35
	c0.63-0.58,1.21-1.1,1.62-1.56c4.68-5.24,5.23-13.43,5.23-13.52l4.15,0.25c-0.02,0.39-0.65,9.73-6.28,16.03
	c-0.5,0.55-1.17,1.18-1.93,1.87c-2.97,2.7-5.35,5.16-4.39,7.9c0.86,2.44,6.19,5.66,9.71,7.17L899.75,493.22z"/>
<path class="st3" d="M899.24,515.4c-5.72-0.99-12.08-3.57-18.95-8.61l2.47-3.35c25.46,18.73,42.52,0.26,43.23-0.54l3.1,2.76
	C928.96,505.83,917.35,518.54,899.24,515.4z"/>
<path class="st3" d="M1491.4,191.21l-3.86-1.5c0.26-0.9,6.5-22.13,22.4-25.49l0.86,4.07c-6.82,1.44-11.66,7.17-14.79,12.5
	c2.34-1.25,5.2-2.06,8.56-1.84l-0.27,4.15C1495.86,182.52,1491.58,190.86,1491.4,191.21z"/>
<path class="st3" d="M1413.38,192.22c-1.04-0.44-10.19-4.48-11.99-9.62c-1.95-5.56,2.72-9.82,5.52-12.35
	c0.63-0.58,1.21-1.1,1.62-1.56c4.68-5.24,5.23-13.43,5.23-13.52l4.15,0.25c-0.02,0.39-0.65,9.73-6.28,16.03
	c-0.5,0.55-1.17,1.18-1.93,1.87c-2.97,2.7-5.35,5.16-4.39,7.9c0.86,2.44,6.19,5.66,9.71,7.17L1413.38,192.22z"/>
<path class="st3" d="M1412.87,214.4c-5.72-0.99-12.08-3.57-18.95-8.61l2.47-3.35c25.46,18.73,42.52,0.26,43.23-0.54l3.1,2.76
	C1442.58,204.84,1430.97,217.54,1412.87,214.4z"/>
</svg>
