<?xml version="1.0" encoding="utf-8"?>
<!-- Generator: Adobe Illustrator 27.7.0, SVG Export Plug-In . SVG Version: 6.00 Build 0)  -->
<svg version="1.1" id="Ebene_1" xmlns="http://www.w3.org/2000/svg" xmlns:xlink="http://www.w3.org/1999/xlink" x="0px" y="0px"
	 viewBox="0 0 2394.88 1754.94" style="enable-background:new 0 0 2394.88 1754.94;" xml:space="preserve">
<style type="text/css">
	.st0{fill:#FB6A55;}
	.st1{fill:#969696;}
	.st2{fill:#2B454E;}
	.st3{fill:#1A2E35;}
	.st4{fill:#FFABA1;}
	.st5{fill:#ECECEC;}
	.st6{fill:#DCDCDC;}
	.st7{fill:#A8A8A8;}
	.st8{fill:#4D6FB4;}
	.st9{fill:#375A64;}
	.st10{fill:#C8C8C8;}
	.st11{fill:#FFFFFF;}
	.st12{fill:#F7DFC4;}
	.st13{fill:#F2F2F2;}
	.st14{opacity:0.1;}
	.st15{opacity:0.3;fill:#1A2E35;}
	.st16{fill:#97BEDB;}
	.st17{fill:#771137;}
	.st18{fill:#FF9ABD;}
	.st19{fill:#F39C8C;}
	.st20{fill:#F4B3CC;}
	.st21{fill:#864240;}
	.st22{fill:#C26358;}
	.st23{fill:none;stroke:#1A2E35;stroke-miterlimit:10;}
	.st24{opacity:0.1;fill:#010000;}
	.st25{opacity:0.4;}
	.st26{opacity:0.2;}
	.st27{fill:#010000;}
	.st28{fill:#F4B85A;}
	.st29{fill:#FFC5C1;}
	.st30{fill:#BD5324;}
	.st31{fill:#D95000;}
	.st32{opacity:0.6;}
	.st33{clip-path:url(#SVGID_00000054974091203283218080000018246267930684828594_);}
	.st34{clip-path:url(#SVGID_00000015336298509278967170000011275222094707633041_);}
	.st35{fill:url(#SVGID_00000049202114316611581090000002046668612976926881_);}
	.st36{clip-path:url(#SVGID_00000059288304508842108340000013009976083696996493_);}
	.st37{clip-path:url(#SVGID_00000087385104985739382190000004954089099736926887_);}
	.st38{opacity:0.5;}
	.st39{fill:#334F7C;}
	.st40{clip-path:url(#SVGID_00000034812611906822928350000012470298660732388483_);}
	.st41{fill:none;stroke:#44555B;stroke-width:0.05;stroke-miterlimit:10;}
	.st42{fill:none;}
	.st43{clip-path:url(#SVGID_00000103969826322001708030000015319678125574951046_);}
	.st44{fill:#919191;}
	.st45{fill:#CCCCCC;}
	.st46{fill:#AFAFAF;}
	.st47{fill:#F4DFCE;}
	.st48{fill:#35271C;}
	.st49{fill:#DDC6B6;}
	.st50{clip-path:url(#SVGID_00000173852374434228379650000006291819568168727713_);}
	.st51{clip-path:url(#SVGID_00000174603589308713281800000008697938906104123536_);}
	.st52{clip-path:url(#SVGID_00000036963169834749406710000007968634928535409835_);}
	.st53{opacity:0.2;fill:#1A2E35;}
	.st54{fill:#D8BCA0;}
</style>
<g>
	<g>
		<g>
			<g>
				<g>
					<g>
						<path class="st29" d="M1433.67,1359.78c0,0,0.04,194.33,0.03,194.47c-0.19,37.16,0.31,69.75,2.14,86.58
							c0,0.09-0.01,0.18,0.03,0.27c0.68,6.35,1.55,10.41,2.68,11.49c0.09,0.09,0.13,0.19,0.22,0.24
							c11.02,7.55,307.98,17.71,318.45,14.58c10.52-3.09,2.37-33.23-8.84-42.82c-11.3-9.59-123.21-64.33-123.21-64.33l-1.88-194.25
							L1433.67,1359.78z"/>
						<path class="st11" d="M1433.7,1514.35c0,0,0.01,39.76,0,39.9c-0.19,37.16,0.31,69.75,2.14,86.58c0,0.09-0.01,0.18,0.03,0.27
							c1.05,6.28,2.01,10.43,2.68,11.49c0.09,0.09,0.13,0.19,0.22,0.24c11.02,7.55,307.98,17.71,318.45,14.58
							c10.52-3.09,2.37-33.23-8.84-42.82c-11.3-9.59-123.21-64.33-123.21-64.33l0.55-40.49L1433.7,1514.35z"/>
						<g>
							<path class="st7" d="M1757.23,1667.42c-10.49,3.14-307.42-7.02-318.47-14.6c-4.25-2.8-5.29-46.16-5.04-98.57
								c0.01-0.55,0.01-1.09,0.02-1.64l191.64,4.42l-0.18,3.25c0,0,111.91,54.73,123.2,64.33
								C1759.58,1634.18,1767.73,1664.33,1757.23,1667.42z"/>
							<g>
								<path class="st3" d="M1754.27,1655.8c-50.01-2.94-252-10.09-301.66-9.2c-0.4,0.01-0.41,0.28-0.01,0.32
									c49.5,4,251.54,9.51,301.64,9.7C1755.3,1656.62,1755.32,1655.86,1754.27,1655.8z"/>
								<path class="st3" d="M1641.27,1561.41c-19.57-4.35-43.76-2.15-59.29,11.37c-0.6,0.52,0.15,1.37,0.8,1.19
									c19.64-5.46,37.92-8.77,58.33-10.07C1642.55,1563.8,1642.67,1561.72,1641.27,1561.41z"/>
								<path class="st3" d="M1655.19,1570.46c-19.57-4.35-43.76-2.15-59.29,11.37c-0.6,0.52,0.15,1.37,0.8,1.19
									c19.64-5.46,37.92-8.77,58.33-10.07C1656.47,1572.86,1656.6,1570.77,1655.19,1570.46z"/>
								<path class="st3" d="M1669.12,1579.52c-19.57-4.35-43.76-2.15-59.29,11.37c-0.6,0.52,0.15,1.37,0.8,1.19
									c19.64-5.46,37.92-8.77,58.33-10.07C1670.39,1581.91,1670.52,1579.83,1669.12,1579.52z"/>
							</g>
						</g>
					</g>
					<g>
						<polygon class="st9" points="1424.09,1220.06 1424.13,1222.23 1428.42,1562.44 1636.28,1558.29 1593.58,521.08 
							1418.04,521.08 						"/>
						<g>
							<g>
								<path class="st3" d="M1627.59,1523.62c-32.45-0.28-23.14-0.66-55.59-0.58c-15.88,0.04-120.24,0.4-135.05,3.03
									c-0.33,0.06-0.32,0.61,0.01,0.66c14.87,2.28,119.21,0.1,135.08-0.24c32.45-0.71,23.12-0.86,55.56-1.93
									C1628.21,1524.54,1628.2,1523.62,1627.59,1523.62z"/>
							</g>
						</g>
						<path class="st3" d="M1463.69,1408.26c-0.4-31.09-0.93-62.17-1.52-93.25c-1.18-62.16-2.29-124.33-3.45-186.49
							c-2.29-123.69-4.12-247.39-5.98-371.08c-1.05-69.76-1.02-139.57-2.81-209.32c0-0.18-0.28-0.17-0.28,0.01
							c-1.16,62.16-0.45,124.38-0.35,186.55c0.11,62.18,0.36,124.36,0.97,186.54c1.21,123.71,2.93,247.42,5.85,371.1
							c0.82,34.88,1.67,69.77,2.87,104.64c1.2,34.86,1.99,69.8,4.44,104.6c0.04,0.54,0.84,0.53,0.85-0.02
							C1464.85,1470.45,1464.09,1439.34,1463.69,1408.26z"/>
						<polygon class="st3" points="1418.03,523.19 1422.63,1052.8 1563.38,521.1 1418.07,521.1 						"/>
					</g>
				</g>
				<g>
					<g>
						<path class="st29" d="M1109.91,1262.57c0,0-100.27,162.97-100.33,163.09c-16.29,33.41-29.97,62.98-35.62,78.94
							c-0.04,0.08-0.09,0.16-0.09,0.26c-2.14,6.02-3.11,10.05-2.57,11.52c0.04,0.12,0.03,0.22,0.09,0.31
							c6.66,11.58,269.83,149.51,280.63,151.23c10.81,1.78,16.55-28.92,10.61-42.42c-6.02-13.54-83.12-111.39-83.12-111.39
							l98.57-163.69L1109.91,1262.57z"/>
						<path class="st11" d="M971.33,1516.41c0,0.1,0,0.19,0.05,0.29c6.68,11.58,269.84,149.51,280.66,151.24
							c10.81,1.78,16.53-28.93,10.62-42.44c-6.06-13.55-83.14-111.4-83.14-111.4l17.59-29.22c-43.01-22.92-121.2-63.2-169.74-88.14
							c-10.57,17.16-17.78,28.88-17.78,28.93c-16.29,33.4-29.99,62.96-35.61,78.91c-0.05,0.1-0.1,0.19-0.1,0.29
							C971.71,1510.88,970.75,1514.92,971.33,1516.41z"/>
						<g>
							<path class="st7" d="M1252.03,1667.93c-10.81-1.72-273.96-139.63-280.64-151.25c-2.61-4.37,15.25-43.89,38.2-91.01
								c0.25-0.49,0.49-0.98,0.73-1.47l170.77,87.08l-1.58,2.85c0,0,77.11,97.84,83.11,111.39
								C1268.56,1638.99,1262.82,1669.69,1252.03,1667.93z"/>
							<g>
								<path class="st3" d="M1254.4,1656.16c-43.79-24.34-222.7-118.37-267.83-139.1c-0.37-0.17-0.5,0.07-0.15,0.28
									c42.87,25.07,222.54,117.65,267.6,139.55C1254.97,1657.35,1255.32,1656.68,1254.4,1656.16z"/>
								<path class="st3" d="M1193.51,1522.11c-15.75-12.41-38.5-20.92-58.36-15.47c-0.77,0.21-0.46,1.3,0.2,1.42
									c20.07,3.6,37.98,8.54,56.93,16.22C1193.62,1524.82,1194.64,1523,1193.51,1522.11z"/>
								<path class="st3" d="M1202.13,1536.31c-15.75-12.41-38.5-20.92-58.36-15.47c-0.77,0.21-0.46,1.3,0.2,1.42
									c20.07,3.6,37.98,8.54,56.93,16.22C1202.24,1539.02,1203.26,1537.2,1202.13,1536.31z"/>
								<path class="st3" d="M1210.75,1550.51c-15.75-12.41-38.5-20.92-58.36-15.47c-0.77,0.21-0.46,1.3,0.2,1.42
									c20.07,3.6,37.98,8.54,56.93,16.22C1210.86,1553.21,1211.88,1551.39,1210.75,1550.51z"/>
							</g>
						</g>
					</g>
					<g>
						<path class="st9" d="M1569.88,520.92c0,0,0,0.05-0.05,0.18c-0.77,3.61-13.04,60.56-25.77,109.48
							c-9.25,35.74-18.77,67.15-24.23,70.4c-6.18,3.66-36.33,17.01-46.44,21.21c0,0-67.8,338.43-103.59,443.38
							c-33.03,96.84-169.69,355.69-169.69,355.69l-198.28-100.18c0,0,154.85-262.69,171.13-309.84
							c25.24-73.07,119.8-429.84,119.8-429.84s-0.72-111.7,36.89-160.47H1569.88z"/>
						<g>
							<path class="st3" d="M1197.2,1482.59c-28.33-15.83-19.98-11.69-48.48-27.2c-13.95-7.59-105.67-57.39-119.92-62.18
								c-0.31-0.11-0.57,0.38-0.31,0.58c11.95,9.14,104.52,57.32,118.61,64.64c28.8,14.96,20.69,10.35,49.66,24.99
								C1197.3,1483.7,1197.73,1482.89,1197.2,1482.59z"/>
							<path class="st3" d="M1343.64,650.31c5.43-1.39,11.24-1.84,16.77-2.71c4.47-0.71,8.93-1.5,13.35-2.47
								c8.33-1.84,16.75-4.62,23.56-9.92c7.67-5.97,11.57-15.03,15.28-23.73c2.2-5.17,4.47-10.3,6.78-15.43
								c1.12-2.49,2.24-4.96,3.39-7.43c1.35-2.89,3.2-5.9,4.18-8.92c0.14-0.44,0.85-0.21,0.68,0.2c-0.88,2.01-1.25,4.31-1.89,6.42
								c-0.75,2.49-1.46,4.99-2.24,7.48c-1.38,4.44-2.72,8.89-4.18,13.3c-2.63,7.92-4.97,16.23-9.44,23.35
								c-8.19,13.03-22.82,18.28-37.45,20.13c-4.19,0.53-8.42,0.83-12.64,1.07c-5.22,0.3-10.78,0.76-15.99,0.12
								C1343.01,651.67,1342.79,650.53,1343.64,650.31z"/>
							<g>
								<path class="st3" d="M1535.87,692.99c-21.52,7.4-42.29,17.92-62.14,28.94c-0.78,0.43-0.27,1.64,0.58,1.28
									c20.93-8.99,42.28-17.59,62.69-27.72C1538.61,694.69,1537.53,692.42,1535.87,692.99z"/>
								<path class="st3" d="M1542.18,549.6c-0.06-0.72-1.33-0.88-1.32-0.1c0.17,24.85-1.42,46.72-3.51,69.94
									c-0.97,10.78-9.65,70.37-28.34,66.03c-3.13-0.73-4.73-3.81-5.22-8.53c-0.59-5.67,1.54-12.63,2.48-18.28
									c2.08-12.47,3.74-24.99,4.81-37.59c2-23.52,2.1-47.04-0.76-70.49c-0.09-0.77-1.21-0.71-1.2,0.07
									c0.03,32.56-0.82,65.06-5.69,97.32c-2.34,15.5-10.15,38.83,6.06,41.22c16.51,2.43,27.19-36.66,29.21-47.35
									C1544.31,612,1544.53,579.79,1542.18,549.6z"/>
								<path class="st3" d="M1509.5,687.08c-1.69,4-3.05,8.17-4.21,12.35c-0.9,3.25-2.12,6.76-1.75,10.15
									c0.07,0.66,0.94,0.72,1.3,0.28c2.19-2.78,3.12-6.58,4.34-9.88c1.42-3.82,2.93-7.61,4.24-11.47
									C1514.29,685.94,1510.54,684.61,1509.5,687.08z"/>
							</g>
							<path class="st3" d="M1055.36,1388.18c28.22-53.13,57.32-105.78,86.52-158.38c14.4-25.93,29.42-51.56,43.16-77.84
								c13.58-25.97,22.78-53.24,31.37-81.17c17.46-56.75,34-113.78,49.61-171.06c15.61-57.29,30.19-114.85,43.97-172.6
								c3.45-14.44,7.22-28.88,10-43.47c2.89-15.16,2.02-29.32-0.07-44.51c-1.91-13.88-2.45-27.54-0.32-41.44
								c2.1-13.74,5.54-27.24,9.69-40.49c2.19-6.98,4.56-13.9,6.96-20.81c0.27-0.77,1.46-0.42,1.22,0.37
								c-8.55,27.97-17.29,56.25-15.45,85.87c0.88,14.24,4.65,28.22,4.41,42.56c-0.24,14.26-3.99,28.24-7.2,42.05
								c-13.47,58.12-28.02,115.97-43.44,173.6c-15.42,57.62-31.78,115-49.08,172.09c-8.41,27.76-16.28,55.96-28.22,82.46
								c-11.96,26.55-27.11,51.63-41.36,76.98c-29.46,52.4-59.16,104.66-89.52,156.53c-3.85,6.57-7.73,13.12-11.61,19.68
								C1055.75,1388.99,1055.14,1388.6,1055.36,1388.18z"/>
						</g>
					</g>
				</g>
			</g>
			<g>
				<g>
					<g>
						<g>
							<path class="st29" d="M1497.68,258.06c20.08,95.58,60.36,196.2,72.88,216.49c33.63,54.5,141.99,113.99,182.68,123.19
								c15.31,3.46,69.42-106.67,53.19-110.94c-29.99-7.89-149.14-76.65-155.47-84.74c-4.4-5.63-57.46-90.66-93.83-142.4
								C1511.93,195.35,1492.41,232.96,1497.68,258.06z"/>
						</g>
						<g>
							<path class="st29" d="M1937.47,626.66c-2.07,1.56-4.06,1.89-6.03,1.37c2.64,10.58,2.17,19.72-5.22,23.29
								c-4.31,2.11-8.9,0.77-13.31-2.77c0.44,5.46-1.29,9.47-6.26,10.98c-8.72,2.64-22.97-12.26-35.44-28.61
								c6.77,12.56,10.25,24.07,2.53,26.77c-20.52,7.11-44.59-32.47-64.66-56.98c-5.95-7.28-14.04-15.79-21.23-20.34
								c-1.32-0.83-2.63-1.53-3.91-2.06c-3.72-1.58-7.03-1.68-9.37,0.64c-4.15,4.17,2.39,15.99,8.98,22.19
								c12.55,11.72,18.04,37.59,10.78,45.53c-10.61,11.64-35.82-19.07-47.25-27.58c-15.31-11.39-33.55-38.38-35.17-40.12
								c0,0,5.16-10.71,13.17-25.16c15.23-27.58,40.75-68.7,59.88-74.96c0,0,62.66,17.84,114.7,52.84
								C1917.34,543.61,1955.08,613.8,1937.47,626.66z"/>
							<g>
								<path class="st3" d="M1826.83,571.46c11.35,6.44,19.03,13.4,26.71,24.07c9.75,13.54,12.14,22.73,19.22,37.03
									c0.19,0.38-0.39,0.68-0.58,0.31c-3.38-6.8-15.64-28.94-19.65-35.18c-7.34-11.43-14.24-18.98-25.83-26.03
									C1826.58,571.58,1826.7,571.39,1826.83,571.46z"/>
								<path class="st3" d="M1847.8,552.43c12.07,8.78,20.06,15.13,30.15,26.27c11.04,12.18,17.45,27.68,23.84,42.69
									c3.84,9.01,7.49,18.1,10.91,27.28c0.14,0.39-0.41,0.7-0.58,0.31c-6.41-15.42-13.27-30.66-20.6-45.66
									c-6.9-14.11-15.92-26.31-27.62-36.72c-6.6-5.86-9.22-8.61-16.24-13.94C1847.53,552.55,1847.66,552.33,1847.8,552.43z"/>
								<path class="st3" d="M1867.53,535.25c12.07,7.63,22.95,14.14,31.89,25.58c11.83,15.14,19.04,33.93,22.14,41.48
									c3.42,8.34,6.57,16.79,9.58,25.3c0.12,0.35-0.47,0.57-0.6,0.23c-7.13-18.79-15.49-37.23-24.97-54.93
									c-4.53-8.45-8.6-13.7-15.49-20.37c-6.81-6.6-14.79-11.89-22.6-17.2C1867.42,535.3,1867.48,535.21,1867.53,535.25z"/>
							</g>
							<path class="st3" d="M1873.74,657.69c1.64-0.84,3.03-2.18,3.66-3.9c0.67-1.71,0.6-3.6,0.35-5.39
								c-0.53-3.62-1.98-7.04-3.39-10.43c-0.71-1.7-1.49-3.37-2.05-5.2c-0.04-0.1-0.06-0.27-0.09-0.41c0-0.13-0.06-0.01,0-0.35
								c0.11-0.35,0.39-0.55,0.58-0.47c0.6,0.16,0.48,0.28,0.63,0.37c0.11,0.1,0.19,0.2,0.26,0.29l0.86,1.12l1.61,2.26
								c2.12,3.01,4.28,5.98,6.59,8.83c4.62,5.57,9.77,11.25,16.34,13.9c3.29,1.27,6.81,1.02,9.76-0.89
								c3.02-1.63,4.1-5.33,2.93-8.37l-1.46-3.8l3.09,2.68c2.3,1.99,5.46,3.37,8.51,3.27c3.12-0.11,6.05-1.49,7.38-4.32
								c1.44-2.74,1.96-6.06,2.04-9.3c0.06-3.24-0.25-6.62-1.22-9.6l-0.74-2.26l2.25,0.89c1.61,0.64,3.95,0.03,5.61-1.31
								c1.86-1.28,2.68-3.11,3.18-5.4c0.93-4.47,0.56-9.29-0.1-13.94c-1.45-9.36-4.79-17.85-8.58-26.58
								c-7.75-17.44-18.66-33.96-32.05-47.69c13.92,13.19,25.7,28.85,33.81,46.39c4.07,8.75,7.27,17.96,8.81,27.57
								c0.71,4.8,1.16,9.72,0.18,14.69c-0.27,1.24-0.64,2.48-1.28,3.67c-0.58,1.24-1.69,2.25-2.66,3.01
								c-2.06,1.57-4.88,2.7-7.86,1.57l1.51-1.36c1.14,3.44,1.46,6.91,1.37,10.4c-0.12,3.47-0.64,7.03-2.37,10.28
								c-0.83,1.62-2.18,3.11-3.89,4.01c-1.69,0.89-3.47,1.31-5.33,1.36c-3.74,0.05-7.19-1.48-9.95-3.9l1.63-1.12
								c0.72,2.02,0.81,4.11,0.13,6.13c-0.66,2.02-2.18,3.64-3.9,4.66c-1.7,1.03-3.58,1.73-5.62,1.9c-2.02,0.17-4.01-0.26-5.81-0.95
								c-7.19-3.1-12.17-9.01-16.77-14.74c-2.28-2.93-4.4-5.97-6.47-9.03l-1.54-2.29c-0.4-0.75-1.55-1.65-0.39-1.44
								c0.46,1.71,1.18,3.43,1.83,5.15c1.29,3.45,2.64,6.96,3.05,10.68c0.19,1.83,0.2,3.78-0.56,5.51
								C1876.87,655.6,1875.41,656.9,1873.74,657.69z"/>
						</g>
					</g>
					<g>
						<path class="st8" d="M1538.78,426.2l70.1-100.67c0,0-34.84-54.49-72.78-93.67c-37.94-39.17-51.16,6-32.52,77.37
							S1538.78,426.2,1538.78,426.2z"/>
						<g>
							<path class="st3" d="M1531.74,392.78c14.24-22.37,30.06-43.77,46.26-64.81c4.58-5.95,9.31-11.8,14.17-17.53
								c0.14-0.16,0.41-0.01,0.28,0.18c-7.35,11.02-15.14,21.74-22.87,32.5c-7.75,10.79-15.6,21.53-23.66,32.11
								c-4.55,5.97-9.09,11.94-13.76,17.82C1531.96,393.3,1531.56,393.06,1531.74,392.78z"/>
						</g>
						<path class="st3" d="M1579.52,367.7l-40.73,58.53c0,0-16.56-45.61-35.2-116.98c-10.13-38.84-10.87-69.89-3.31-83.87
							C1520.36,261.23,1557.8,328.39,1579.52,367.7z"/>
					</g>
				</g>
				<g>
					<g>
						<path class="st8" d="M1297.7,599.87c0.73,0.8,311.21-1.63,314-4.85c3.9-4.53-69.86-340.14-102.17-381.35
							c-6.92-8.81-29.43-11.04-48.52-8.45c-5.29,0.69-10.3,1.77-14.69,3.17c-0.09,0.05-0.27,0.09-0.49,0.14
							c-4.43,1.48-8.18,3.32-10.76,5.41c-52.72,43.03-95.85,191.92-105.82,236.6C1312.72,524.15,1295.11,596.98,1297.7,599.87z"/>
					</g>
					<path class="st1" d="M1509.15,213.25l-74.12,0.75l0.06-0.06c1.72-1.38,3.93-2.67,6.57-3.77l62.76-0.59
						C1506.37,210.63,1507.95,211.85,1509.15,213.25z M1515.01,222.8l-90.07,0.83c-1.15,1.21-2.25,2.48-3.4,3.81l95.34-0.85
						C1516.3,225.26,1515.65,224,1515.01,222.8z M1521.06,236.01l-107.01,1c-0.91,1.21-1.81,2.55-2.78,3.83l111.36-1.05
						C1522.04,238.46,1521.58,237.21,1521.06,236.01z M1526.19,249.26l-121.17,1.19c-0.78,1.22-1.56,2.5-2.35,3.78l124.83-1.21
						C1527.1,251.77,1526.64,250.52,1526.19,249.26z M1530.87,262.56l-133.77,1.25c-0.66,1.28-1.38,2.57-2.1,3.85l137.12-1.33
						C1531.67,265,1531.27,263.75,1530.87,262.56z M1535.19,275.78l-145.13,1.4c-0.66,1.22-1.25,2.51-1.91,3.79l148.23-1.43
						C1535.99,278.29,1535.59,277.04,1535.19,275.78z M1539.38,289.06l-155.8,1.45c-0.6,1.22-1.19,2.51-1.79,3.79l158.72-1.49
						C1540.12,291.57,1539.72,290.32,1539.38,289.06z M1543.33,302.34l-165.8,1.59c-0.6,1.22-1.13,2.51-1.67,3.8l168.59-1.63
						C1544.06,304.84,1543.73,303.59,1543.33,302.34z M1547.21,315.61l-175.36,1.67c-0.54,1.29-1.01,2.51-1.54,3.8l177.96-1.72
						C1547.94,318.12,1547.55,316.86,1547.21,315.61z M1550.91,328.82l-184.36,1.77c-0.53,1.23-1.01,2.51-1.48,3.8l186.9-1.76
						C1551.64,331.32,1551.31,330.07,1550.91,328.82z M1554.6,342.14l-193.17,1.82c-0.41,1.29-0.88,2.52-1.36,3.81l195.59-1.81
						C1555.27,344.71,1554.94,343.4,1554.6,342.14z M1558.18,355.41l-201.49,1.94c-0.47,1.23-0.88,2.52-1.29,3.75l203.78-1.93
						C1558.85,357.91,1558.51,356.66,1558.18,355.41z M1561.69,368.67l-209.56,2.01c-0.41,1.29-0.88,2.52-1.23,3.75l211.79-2
						C1562.36,371.17,1562.02,369.92,1561.69,368.67z M1565.13,381.99l-217.38,2.02c-0.41,1.29-0.82,2.52-1.17,3.81l219.49-2.08
						C1565.74,384.49,1565.47,383.24,1565.13,381.99z M1568.46,395.25l-224.83,2.11c-0.41,1.29-0.82,2.58-1.17,3.81L1569.4,399
						C1569.13,397.75,1568.79,396.5,1568.46,395.25z M1571.78,408.5l-232.09,2.2c-0.41,1.23-0.76,2.52-1.11,3.75l234.14-2.2
						C1572.45,411,1572.12,409.75,1571.78,408.5z M1575.1,421.82l-239.16,2.23c-0.35,1.29-0.7,2.59-1.05,3.82l241.09-2.3
						C1575.71,424.32,1575.38,423.07,1575.1,421.82z M1578.3,435.07l-245.93,2.34c-0.29,1.29-0.63,2.53-0.92,3.76l247.79-2.35
						C1578.91,437.57,1578.64,436.32,1578.3,435.07z M1581.44,448.32l-252.26,2.4c-0.29,1.23-0.51,2.53-0.8,3.76l253.94-2.41
						C1582.05,450.82,1581.78,449.57,1581.44,448.32z M1584.58,461.63l-258.41,2.46c-0.29,1.29-0.57,2.53-0.86,3.76l260.15-2.47
						C1585.19,464.13,1584.91,462.89,1584.58,461.63z M1587.65,474.88l-264.49,2.53c-0.29,1.29-0.57,2.53-0.86,3.76l266.23-2.54
						C1588.26,477.38,1587.99,476.13,1587.65,474.88z M1590.73,488.13l-270.58,2.59c-0.35,1.29-0.63,2.53-0.86,3.76l272.25-2.6
						C1591.28,490.63,1591,489.38,1590.73,488.13z M1593.68,501.44l-276.6,2.66c-0.29,1.23-0.57,2.53-0.86,3.76l278.33-2.61
						C1594.29,504,1594.01,502.75,1593.68,501.44z M1596.63,514.68l-282.62,2.72c-0.29,1.29-0.57,2.53-0.86,3.76l284.29-2.67
						C1597.18,517.24,1596.91,515.93,1596.63,514.68z M1599.52,527.99l-288.51,2.73c-0.29,1.23-0.57,2.53-0.86,3.76l290.19-2.75
						C1600.07,530.55,1599.79,529.3,1599.52,527.99z M1602.35,541.29L1308,544.09c-0.29,1.29-0.57,2.53-0.86,3.76l295.96-2.82
						C1602.83,543.79,1602.62,542.54,1602.35,541.29z M1605.05,554.53l-300,2.88c-0.29,1.29-0.57,2.53-0.8,3.76l301.55-2.84
						C1605.6,557.09,1605.32,555.84,1605.05,554.53z M1607.63,567.82l-305.46,2.91c-0.29,1.29-0.51,2.53-0.8,3.76l307.01-2.92
						C1608.17,570.38,1607.96,569.13,1607.63,567.82z M1610.09,581.11l-310.61,2.94c-0.23,1.36-0.45,2.65-0.67,3.83l311.98-2.96
						C1610.56,583.73,1610.35,582.49,1610.09,581.11z M1297.46,597.39c-0.04,1.36-0.01,2.23,0.24,2.49
						c0.72,0.77,311.19-1.68,314.02-4.88c0.07-0.12,0.13-0.31,0.14-0.62L1297.46,597.39z"/>
				</g>
				<g>
					<g>
						<g>
							<path class="st29" d="M1411.68,225.73c-103.23,54.95-184.06,150.31-193.19,171.36c-22.09,50.94-55.96,128.39-64.41,169.75
								c-3.13,15.29,115.5,38.79,119.35,22.55c12.07-50.85,47-160.51,47.78-162.38c5.51-13.11,45.96-68.04,87.99-128.02
								C1451.26,238.98,1455.13,202.61,1411.68,225.73z"/>
							<g>
								<g>
									<path class="st29" d="M1277.54,573.08c0,0-11.83,57.13-15.33,89.3c-1.95,17.95-8.03,48.43-15.5,60.96
										c-11.16,18.75-69.82,90.02-87.41,76.17c-15.92-12.54,42.25-67.37,42.25-67.37s-53.81,60.52-70.2,41.9
										c-16.39-18.62,57.57-71.83,57.57-71.83s-56.68,60.94-70.54,39.06c-10.48-16.53,53.79-68.5,53.79-68.5
										s-49.08,52.04-60.59,35.51c-12.72-18.27,43.6-69.97,43.6-69.97c-22.18-46.96,0.59-87.3,9.41-108.92
										C1166.73,524.15,1277.54,573.08,1277.54,573.08z"/>
									<g>
										<path class="st3" d="M1218.37,716c-22.33,27.6-51.18,50.01-64.33,57.05c-1.61,0.86-3.05,1.57-2.95,1.48
											c14.58-12.33,60.34-52.04,67.03-58.8C1218.29,715.56,1218.51,715.82,1218.37,716z"/>
										<path class="st3" d="M1197.49,687.78c-13.89,23.31-41.79,43.06-50.87,51.09c-0.7,0.62-0.8,0.04-0.12-0.61
											c8.75-8.38,42.49-41.93,50.79-50.69C1197.42,687.44,1197.59,687.62,1197.49,687.78z"/>
										<path class="st3" d="M1178.56,665.16c-14.87,21.82-33.26,32.92-38.43,36.18c-0.78,0.49-0.77-0.18-0.07-0.82
											c13.72-12.51,22.45-20.01,37.99-35.77C1178.3,664.51,1178.78,664.84,1178.56,665.16z"/>
									</g>
								</g>
							</g>
						</g>
					</g>
					<g>
						<path class="st8" d="M1266.19,329.47l120.33,23.86c0,0,35.95-53.76,56.63-104.22c20.68-50.46-26-44.46-83.91,1.23
							C1301.32,296.03,1266.19,329.47,1266.19,329.47z"/>
						<g>
							<path class="st3" d="M1372.83,350.27c0.64,0.14,13.89,1.9,13.9,1.9c0.66-1.5,13.21-24.55,16.25-29.49
								c6.19-10.07,12.98-19.81,19.62-29.59c0.21-0.31,0.7-0.04,0.51,0.29c-4.85,8.61-9.54,17.33-14.46,25.91
								c1.14-1.11,2.27-2.24,3.37-3.39c2.25-2.36,4.33-4.87,6.49-7.32c0.19-0.22,0.54,0.06,0.4,0.31c-2.09,3.6-4.89,6.83-7.82,9.76
								c-1.27,1.26-2.66,2.41-4.09,3.5c-0.41,0.71-0.82,1.43-1.24,2.14c-2.95,5-17.91,29.63-18.36,29.55
								c-0.11-0.02-13.32-2.44-14.66-2.74C1372.43,351.04,1372.5,350.2,1372.83,350.27z"/>
							<path class="st3" d="M1290.9,310.85c26.2,4.08,52.15,9.99,77.92,16.4c7.29,1.81,14.54,3.8,21.74,5.95
								c0.2,0.06,0.17,0.37-0.05,0.33c-13.04-2.31-25.98-5.15-38.94-7.92c-12.99-2.78-25.98-5.66-38.9-8.8
								c-7.29-1.77-14.58-3.54-21.84-5.46C1290.52,311.27,1290.57,310.8,1290.9,310.85z"/>
						</g>
					</g>
				</g>
				<g>
					<g>
						<g>
							<path class="st29" d="M1492.72,258.27c-16.52-0.5-39.4-26.36-50.07-46.95c-0.72-1.42,1.75-16.07,3.9-34.01
								c1.27-10.9,2.42-23.06,2.67-34.23l69.69,18.6c0,0-7.42,23.27-7.74,42.75c-0.01,1.63,0.12,3.15,0.38,4.6
								c0.02,0.21,0.07,0.47,0.08,0.76C1512.87,218.53,1516,258.97,1492.72,258.27z"/>
						</g>
						<path class="st3" d="M1518.95,161.66c0,0-0.96,2.95-2.16,7.69c-15.4,19.02-41.47,41.69-73.38,31.92
							c0.8-6.12,1.99-14.59,3.14-23.98c1.26-10.88,2.43-23.01,2.64-34.24L1518.95,161.66z"/>
					</g>
					<g>
						<path class="st30" d="M1450.79,23.3c0,0-25.21,8.46-31.43,33.03c-6.22,24.57-2.36,51.07-0.3,52.49
							C1421.13,110.25,1450.79,23.3,1450.79,23.3z"/>
						<g>
							<path class="st29" d="M1536.94,63.65c6.91,25.05-8.14,96.46-26.24,111.99c-26.24,22.51-68.24,23.59-87.12-7.73
								c-18.3-30.36,2.96-123.09,23.09-137.1C1476.32,10.18,1526.73,26.65,1536.94,63.65z"/>
						</g>
						<g>
							<g>
								<path class="st3" d="M1468.75,99.87c7.87,1.01,5.28,16.66-2.01,15.73C1459.57,114.69,1462.16,99.03,1468.75,99.87z"/>
							</g>
							<g>
								<path class="st3" d="M1432.93,95.01c-7.74-1.71-10.6,13.9-3.43,15.48C1436.56,112.05,1439.42,96.44,1432.93,95.01z"/>
							</g>
							<path class="st30" d="M1476.11,93.73c-2.04-0.89-3.78-2.05-5.71-3.14c-2.18-1.23-4.04-1.98-5.21-4.31
								c-0.63-1.25,0.04-3.19,1.2-3.92c2.69-1.69,5.73-0.85,8.42,0.52c2.91,1.49,4.77,3.38,6.09,6.37
								C1482.16,92.15,1478.81,94.91,1476.11,93.73z"/>
							<path class="st30" d="M1427.99,86.23c2.23-0.04,4.28-0.46,6.48-0.73c2.48-0.31,4.49-0.29,6.46-2
								c1.06-0.92,1.18-2.97,0.39-4.08c-1.84-2.59-4.98-2.97-7.98-2.72c-3.26,0.27-5.7,1.31-8.05,3.57
								C1423,82.46,1425.05,86.28,1427.99,86.23z"/>
						</g>
						<g>
							<path class="st30" d="M1527.82,133.51c-8.69,0.12-10.88-26.54-10.78-36.52c0.08-8.8,4.96-35.35,5.08-37.22
								c0.12-1.87-41.42,12.68-59.82,0.95c-18.39-11.74-26.57-33.7-24.4-42.2c2.18-8.5,33.37-22.61,55.29-17.4
								c21.92,5.2,43.16,41.18,43.16,41.18s-6.48-14.76-5.86-15.63c0.62-0.87,12.95,8.77,12.62,19.46c0,0,0.87-13.28,2-13.21
								c1.12,0.07,8.85,13.93,4.05,21.31c0,0,9.38,14.52,7.07,26.77C1553.93,93.25,1538.03,133.37,1527.82,133.51z"/>
							<path class="st30" d="M1449.23,52.36c5.29,4.59,10.52,9.47,17.01,12.33c7.02,3.09,15.13,3.47,22.69,2.84
								c7.73-0.64,15.17-2.66,22.29-5.71c6.23-2.67,12.15-6.37,18.59-8.49c1.61-0.53,2.6,1.86,1.42,2.85
								c-11.72,9.86-29.12,15.87-44.31,16.22c-15.98,0.37-28.78-6.9-37.82-19.91C1449.06,52.42,1449.15,52.28,1449.23,52.36z"/>
						</g>
						<g>
							<path class="st29" d="M1517.19,122.46c0,0,17.31-22.43,27.56-16.15c10.25,6.28-3.53,39.32-16.1,43.34
								c-12.57,4.02-16.52-7.55-16.52-7.55L1517.19,122.46z"/>
						</g>
					</g>
				</g>
			</g>
		</g>
		<g>
			<g>
				<g>
					<g>
						<path class="st29" d="M1497.91,1662.49c12.28-4.27,0.9-39.73-12.96-50.56c-4.41-3.43-20.69-11.48-41.1-21.01
							c-44.93-20.94-109.51-48.86-109.51-48.86l51.92-232.48l-222.98,3.92c0,0-57.63,190.88-57.63,234.5
							c0,61.48,6.31,111.68,11.4,114.78C1130.69,1671.18,1485.56,1666.8,1497.91,1662.49z"/>
						<path class="st3" d="M1386.42,1564.91c0,0,0.07,0,0.28,0.14c-0.07-0.07-0.14-0.14-0.21-0.14H1386.42z"/>
						<path class="st1" d="M1106,1573.95c1.47,49.15,6.72,86.19,11.06,88.85c13.65,8.4,368.5,3.99,380.83-0.28
							c12.32-4.27,0.91-39.77-12.95-50.55c-4.41-3.43-20.66-11.48-41.1-21.08c-15.05-7.07-32.42-14.91-48.8-22.13
							c11.69,5.6,32.91,16.8,49.01,31.65C1466.66,1621.21,1207.94,1604.26,1106,1573.95z"/>
					</g>
					<g>
						<path class="st3" d="M850.65,1161.56c0,0-38.22,145.19,32.09,187.17c46.94,28.03,252.34-14.02,260.79-39.58
							c15.96-48.27,15.78-65.9,15.78-65.9l-49.77,255.54l259.41-0.12c0,0,46.11-211.46,30.88-435.12
							c-5.63-82.7-117.17-106.38-194.05-64.27c-74.54,40.82-207.55,153.24-207.55,153.24L850.65,1161.56z"/>
						<g>
							<path class="st2" d="M1129.61,1349.16c13.56-34.38,12.3-47.8,45.92-154.39c4.49-14.25,8.22-28.73,12.22-43.12
								c4.14-14.93,9.08-29.8,12.17-44.99c0.15-0.74,1.35-0.45,1.14,0.28c-3.87,13.17-6.32,26.76-9.63,40.08
								c-3.24,13.04-6.53,26.07-10.01,39.05c-1.5,5.61-3.08,11.19-4.6,16.79c0.69-1.17,1.38-2.33,2.02-3.47
								c2.98-5.27,5.98-10.53,9.09-15.73c6.41-10.71,14.21-20.8,19.81-31.96c0.34-0.68,1.42-0.09,1.03,0.56
								c-6.46,10.69-11.01,22.52-17.05,33.46c-2.93,5.31-6.01,10.51-9.16,15.69c-2.78,4.57-5.57,9.76-9.15,13.88
								c-4.56,16.45-14.31,56.05-19.21,72.41c-15.42,51.53-10.36,34.76-21.99,62.46C1131.6,1351.61,1129.03,1350.64,1129.61,1349.16
								z"/>
							<path class="st2" d="M1249.06,1454.97c-39.05,0.06-78.06-1.67-117.1-1.95c-0.74,0-0.87-1.15-0.11-1.17
								c38.9-0.7,77.75-2.69,116.68-2.7c39.06-0.01,78.04,1.44,117.08,2.28c1,0.02,1.18,1.56,0.14,1.57
								C1326.84,1453.56,1287.98,1454.9,1249.06,1454.97z"/>
							<path class="st2" d="M1153.2,1443.09c3.36-17.28,8.14-34.29,12.49-51.34c4.35-17.07,8.71-34.14,13.21-51.17
								c8.99-34.08,18.38-68.06,27.74-102.04c5.32-19.29,11.08-38.49,16.74-57.68c0.16-0.55,1.01-0.36,0.87,0.2
								c-16.56,68.5-34.51,136.67-53.6,204.51c-5.42,19.25-10.31,38.75-16.83,57.66C1153.68,1443.61,1153.12,1443.49,1153.2,1443.09
								z"/>
						</g>
						<path class="st2" d="M882.72,1348.71c-70.29-41.97-32.09-187.15-32.09-187.15l124.38-7.59l171.24,146.82
							c-0.86,2.68-1.75,5.47-2.72,8.38C1135.1,1334.7,929.67,1376.76,882.72,1348.71z"/>
						<path class="st2" d="M1370.17,1492.8c-0.77,3.86-1.23,5.87-1.23,5.87l-259.4,0.12l38.28-196.65L1370.17,1492.8z"/>
					</g>
				</g>
			</g>
			<g>
				<g>
					<path class="st29" d="M309.84,1675.41c-3.62,12.49,31.89,23.71,48.74,18.67c5.35-1.61,21.33-10.24,40.91-21.37
						c43.07-24.55,103.2-61.08,103.2-61.08l188.43,30.87l125.76-184.18c0,0-173.35-27.93-184.69-35.32c-0.7-0.46-1.4-0.92-2.09-1.38
						c-51.64-33.35-94.76-59.44-100.23-57.08C515.13,1370.81,313.47,1662.84,309.84,1675.41z"/>
					<path class="st1" d="M358.56,1694.1c5.39-1.61,21.36-10.29,40.96-21.43c16.94-9.66,36.62-21.22,54.19-31.65
						c-8.96,4.97-39.21,21.36-65.47,27.31c-31.16,7.14,141.37-203.12,220.35-260.47c-41.73-26.47-74.01-45.3-78.7-43.34
						c-14.77,6.3-216.42,298.35-220.07,310.88C306.19,1687.87,341.76,1699.14,358.56,1694.1z"/>
				</g>
				<g>
					<path class="st3" d="M1014.31,1124.15c0,0,7.34,60.09,7.29,106.15c0,0,247.95,126.12,260.68,248.72
						c4.51,43.43-0.3,124.94-85.09,163.09c-94.74,42.64-621.44,20.48-621.44,20.48l62.81-243.14l232.15-2.73
						c0,0-163.5,28.05-182.62-80.9c-17.77-101.26,43.25-208.24,43.25-208.24L1014.31,1124.15z"/>
					<g>
						<path class="st2" d="M629.98,1650.07c5.47-27.99,10.73-56.11,16.87-83.96c6.16-27.92,12.72-55.73,19.71-83.42
							c1.97-7.82,4.01-15.62,6.03-23.43c0.96-3.72,1.92-7.44,2.96-11.14c1.05-3.73,1.85-7.6,3.26-11.18c0.16-0.4,0.6-0.18,0.57,0.2
							c-0.58,7.11-2.49,14.48-3.92,21.48c-1.38,6.76-2.7,13.52-4.09,20.28c-2.87,13.89-5.79,27.76-8.8,41.61
							c-6.03,27.78-12.75,55.31-19.61,82.86c-3.9,15.65-7.82,31.3-11.78,46.92C630.95,1651.18,629.8,1651,629.98,1650.07z"/>
						<path class="st2" d="M790.57,1417.67c18.79-1.58,37.63-2.41,56.47-3.02c18.85-0.61,37.7-0.64,56.56-0.54
							c18.85,0.38,37.72,0.9,56.54,2.36c18.8,1.48,37.65,3.34,56.09,7.4l-14.03-1.64l-14.07-1.17c-9.38-0.69-18.76-1.35-28.16-1.65
							c-18.79-0.85-37.6-1.39-56.42-1.47c-18.82-0.42-37.64-0.33-56.47-0.35L790.57,1417.67z"/>
						<path class="st2" d="M783.17,1146.84c-8.17,21.7-15.18,43.81-21.09,66.19c-5.84,22.39-10.45,45.14-12.59,68.09
							c-1.01,11.47-1.34,23.02-0.3,34.42c1.06,11.35,3.45,22.72,8.76,32.6c2.6,4.95,6.1,9.35,10.21,13
							c4.25,3.66,8.98,6.79,13.93,9.53c9.98,5.39,20.79,9.27,31.82,12.35c22.14,6.06,45.12,9.06,68.08,11.5
							c23,2.38,46.12,3.97,69.25,6.05c23.12,2.08,46.32,4.57,69.17,9.89c11.34,2.69,22.84,6.18,33.32,11.83
							c10.47,5.59,20.11,12.28,29.1,20.09l5.27,4.58l-7.04-0.01l-187.74-0.25l-93.87,0.39c-31.29,0.26-62.58,0.58-93.85,1.8
							c31.23-2.2,62.53-3.06,93.81-4c31.29-0.9,62.59-1.38,93.88-1.85l93.89-1.07l93.9-0.26l-1.77,4.57
							c-8.53-7.35-18.08-13.95-28.08-19.22c-9.98-5.34-20.89-8.61-32.08-11.2c-22.37-5.08-45.42-7.44-68.42-9.71
							c-23.04-2.18-46.18-3.88-69.29-6.39c-23.08-2.57-46.26-5.69-68.85-11.99c-11.27-3.18-22.4-7.24-32.74-13.07
							c-5.14-2.94-10.08-6.31-14.56-10.29c-4.5-4.1-8.25-8.99-10.96-14.34c-5.55-10.71-7.81-22.56-8.75-34.22
							c-0.9-11.72-0.4-23.43,0.78-35.03c2.39-23.21,7.69-45.94,14.01-68.26C766.75,1190.25,774.28,1168.26,783.17,1146.84z"/>
						<path class="st2" d="M987.44,1121.94c0-0.52,0.85-0.58,0.92-0.06c1.07,8.38,4.59,56.28,6.27,74.33
							c0.6,6.43,0.38,17.9,9.76,17.78c7.43-0.1,11.02-8.24,11.77-14.54c0.91-7.68-3.88-63.28-5.05-81.79
							c-0.03-0.53,0.82-0.56,0.92-0.06c3.64,18.52,10.97,77.46,9.11,85.76c-1.46,6.51-4.72,12.71-11.3,14.97
							c-0.13,0.05,1.17,8.66-0.05,21.88c-0.06,0.61-1.93,0.79-2.08,0.31l-0.04,0.02c0.27-4.34-2.23-21.13-2.18-21.22
							c-4.87,0.05-8.69-0.99-12.01-5.3C986.86,1205.39,987.53,1143.29,987.44,1121.94z"/>
						<path class="st2" d="M962.55,1264.43c6.66-4.71,13.55-9.01,20.5-13.23c6.92-4.26,14.01-8.23,21.12-12.15
							c7.16-3.84,14.34-7.65,21.71-11.1c7.35-3.49,14.75-6.87,22.41-9.67c-3.46,2.16-7.02,4.11-10.49,6.23l-10.56,6.04
							c-7.02,4.06-14.14,7.94-21.24,11.85c-7.15,3.83-14.27,7.71-21.53,11.35l-10.87,5.48
							C969.91,1260.96,966.29,1262.79,962.55,1264.43z"/>
						<path class="st2" d="M787.22,1228.02c13.07-0.21,53.85,1.68,73.08-14.97c15.55-13.47,21.91-58.88,24.47-71.35
							c0.13-0.62,1.02-0.42,1.05,0.16c0.59,13.94-1.23,28.17-4.77,41.66c-3.02,11.52-7.11,24.39-16.29,32.54
							c-9.66,8.58-22.87,11.72-35.34,13.42c-14.08,1.91-28.15,1.67-42.22-0.07C786.33,1229.31,786.3,1228.04,787.22,1228.02z"/>
					</g>
				</g>
			</g>
		</g>
		<g>
			<g>
				<path class="st29" d="M954.59,904.96c49.6,46.34,205.22,159.67,247.39,152.99c43.89-6.95,185.33-73.42,211.85-97.75
					c16.49-15.13-64.12-146.62-83.2-132.19c-19.08,14.43-148.58,71.26-166.36,74.02c-17.68,2.74-128.3-45.7-187.79-58.8
					C873.89,820.64,927.88,880,954.59,904.96z"/>
				<g>
					<g>
						<path class="st29" d="M1377.94,974.79c15.92-6.47,102.4-40.53,119.73-54.95c17.34-14.42,64.22-59.52,54.52-73.92
							c-9.69-14.4-24.47-2.29-24.47-2.29s16.78-22.18,5.7-35.79c-11.08-13.6-33.45,5.99-33.45,5.99s15.57-24.04,3.55-36.81
							c-12.02-12.78-31.22,10.69-31.22,10.69s15.26-21.31,0.93-27.67c-17.24-7.65-40.94,34.82-61.27,49.3
							c-4.62,3.29-98.33,59.99-98.33,59.99L1377.94,974.79z"/>
						<g>
							<path class="st3" d="M1473.99,785.73c-17.5,31.19-30.55,41.81-61.51,58.58c-0.6,0.33-0.25,1.3,0.41,1.02
								c31.81-13.66,50.1-24.62,62.66-58.82C1476.16,784.83,1474.83,784.25,1473.99,785.73z"/>
							<path class="st3" d="M1501.32,811.33c-21.01,30.81-35.06,42.45-66.19,62.4c-0.44,0.28-0.01,1.06,0.46,0.81
								c32.18-17.01,50.18-28.36,67.12-61.9C1503.48,811.12,1502.28,809.93,1501.32,811.33z"/>
							<path class="st3" d="M1526.11,844.59c-22.49,28.36-37.35,41.79-70.06,57.27c-0.77,0.37-0.31,1.53,0.5,1.23
								c34.89-12.55,53.56-29.17,70.35-57.73C1528.04,843.42,1527.52,842.81,1526.11,844.59z"/>
						</g>
					</g>
					<g>
						<path class="st29" d="M1285.45,865.56c0,0,19.7-40.25,32.26-56.02c12.56-15.77,80.98-57.33,90.8-43.06
							c12.67,18.42-22.1,50.2-41.17,63.53c0,0,29.35,42.59,9.33,70.79C1356.64,929.01,1285.45,865.56,1285.45,865.56z"/>
						<path class="st3" d="M1410.33,772.68c-0.56,25.14-26.72,41.03-44.25,55.35c-1.33,1.09-0.92,2.54,0.11,3.4
							c11.11,18.67,21.35,48.25,11.88,69.14c-0.28,0.61,0.55,1.09,0.91,0.51c13.2-21.02,5.51-50.9-7.97-70.57
							c18.21-14.4,43.74-31.49,39.56-57.83C1410.55,772.53,1410.33,772.52,1410.33,772.68z"/>
					</g>
				</g>
			</g>
			<g>
				<path class="st8" d="M1287.39,842.87l108.22,153.43c0,0-148.57,70.34-198.5,71.05c-49.93,0.7-199.14-112.83-258.62-173.29
					c-59.48-60.46-36.08-78.82,44.68-54.64c80.77,24.17,175.59,59.49,186.14,56.71C1179.87,893.34,1287.39,842.87,1287.39,842.87z"
					/>
				<path class="st3" d="M1297.76,939.49c-8.06-11.59-40.01-58.17-47.06-70.35c-0.12-0.2,0.16-0.44,0.32-0.26
					c9,10.3,41.87,55.35,49.97,66.94c16.15,23.11,32.88,46.03,46.42,70.81c0.24,0.44-0.37,1-0.72,0.57
					C1328.89,985.77,1313.66,962.33,1297.76,939.49z"/>
				<path class="st14" d="M1296.01,1039.17c-38.14,14.82-77.54,27.9-98.9,28.17c-49.91,0.71-199.15-112.84-258.6-173.27
					c-24.9-25.34-35.31-43.26-33.02-53.78L1296.01,1039.17z"/>
			</g>
		</g>
		<g>
			<g>
				<path class="st31" d="M916.15,751.59c-2.74,0.87-5.31,2.23-7.53,4.1c-10.03,8.45-12.16,22.32-11.66,34.65
					c0.59,13.19,4.25,27.17,0.39,40.12c-1.5,5.07-4.28,9.93-8.83,12.76c-5.14,3.2-11.17,2.58-16.71,0.93
					c-5.84-1.71-12.39-5.03-18.55-2.75c-5.11,1.86-8.23,7.04-9.6,12.08c-3.54,13.06,4.63,26.22,6.38,38.98
					c1.9,13.65-0.43,27.65-6.59,40c-5.74,11.53-15.07,21.12-26.16,27.56c-5.41,3.15-11.35,5.61-17.41,7.09
					c-6.82,1.63-13.88,1.75-20.77,3.08c-6.39,1.25-13.34,3.91-16.83,9.77c-2.71,4.53-2.43,23.98,12.25,42.72
					c1.05,1.34-1.44,3.15-2.99,2.18c-3.02-1.84-5.91-3.83-8.66-6.02c-23.01-18.09-36.29-46.63-34.91-75.92
					c0.76-15.66,5.5-30.75,13.47-44.18c4.43-7.42,9.54-14.6,12.68-22.71c2.79-7.24,3.31-14.84,2.51-22.51
					c-1.57-14.58-6.61-28.59-5.64-43.43c0.89-13.23,5.46-26.05,12.52-37.23c14.84-23.37,39.54-38.55,66.78-42.54
					C857.15,726.41,917.66,751.08,916.15,751.59z"/>
			</g>
			<path class="st1" d="M919.4,735.45c-4.41-1.59-11.2-0.26-12.94,2.36c-1.75,2.62,0.41,27.01,5.29,30.65
				c4.88,3.64,12.84-4.28,12.84-4.28L919.4,735.45z"/>
		</g>
		<g>
			<path class="st5" d="M1039.44,1082.85l-4.8,80.89l-317.99,0.21c0,0,92.39-251.53,143.08-303.95
				c40.29-41.66,86.3-37.35,114.94-6.84c7.25,7.72,79.3,118.09,87.55,163.09C1069.41,1055.95,1039.44,1082.85,1039.44,1082.85z"/>
			<g>
				<path class="st3" d="M931.2,1062.12c16.41,1.33,32.9,3.28,49,7.26c8.01,1.98,15.88,4.35,23.74,6.92
					c3.92,1.28,7.86,2.41,11.82,3.52c4.07,1.14,8.42,2.19,12.63,2.2c0.38,0,0.39,0.62,0.01,0.64c-4.09,0.25-8,0.48-12.09,0.13
					c-3.89-0.33-7.78-1.12-11.6-2.02c-8.14-1.92-16.19-4.26-24.31-6.27c-16.38-4.07-32.75-8.13-49.36-10.89
					C930.28,1063.48,930.42,1062.06,931.2,1062.12z"/>
				<path class="st3" d="M891.17,1079.32c13.4-1.92,27.09-3.17,40.62-3.42c6.81-0.12,13.57,0.19,20.36,0.69
					c3.24,0.24,6.48,0.55,9.72,0.9c3.56,0.38,7.08,1.29,10.64,1.62c0.37,0.03,0.39,0.67,0.01,0.64c-3.37-0.2-6.77,0.22-10.15,0.23
					c-3.39,0.02-6.78,0.01-10.16,0.02c-6.78,0.03-13.56,0.14-20.35,0.1c-13.58-0.08-27.1-0.01-40.67,0.43
					C890.46,1080.57,890.48,1079.42,891.17,1079.32z"/>
			</g>
			<g>
				<path class="st3" d="M957.55,880.63c15.87,31.74,31,63.88,43.86,96.99c15.05,38.72,25.32,68.22-14.92,95.56
					c0,0,0.58-1.06,0.58-1.06c0.37,11.41,0.69,22.82,0.86,34.24c0.28,11.41,0.29,22.84,0.38,34.26c-0.72-11.4-1.52-22.79-2.04-34.2
					c-0.64-11.62-1.14-23.25-1.58-34.88l0.6-0.4c38.89-26.68,28.21-55.23,14.04-92.74C986.7,945.31,972.36,912.83,957.55,880.63
					L957.55,880.63z"/>
				<g>
					<path class="st3" d="M977.94,932.92c0.08,2.38-1.78,4.37-4.15,4.45c-2.38,0.08-4.37-1.78-4.45-4.15
						c-0.08-2.38,1.78-4.37,4.15-4.45C975.87,928.69,977.86,930.55,977.94,932.92z"/>
					<path class="st3" d="M991.14,981c0.08,2.38-1.78,4.37-4.15,4.45c-2.38,0.08-4.37-1.78-4.45-4.15
						c-0.08-2.38,1.78-4.37,4.15-4.45C989.07,976.77,991.06,978.63,991.14,981z"/>
					<path class="st3" d="M1002.92,1025c0.08,2.38-1.78,4.37-4.15,4.45c-2.38,0.08-4.37-1.78-4.45-4.15
						c-0.08-2.38,1.78-4.37,4.15-4.45C1000.85,1020.76,1002.84,1022.62,1002.92,1025z"/>
					<path class="st3" d="M977.23,1065.88c0.08,2.37-1.78,4.36-4.15,4.45s-4.37-1.78-4.45-4.15c-0.08-2.38,1.78-4.37,4.15-4.45
						C975.16,1061.65,977.15,1063.51,977.23,1065.88z"/>
					<path class="st3" d="M976.99,1110.2c0.08,2.38-1.78,4.37-4.15,4.45c-2.38,0.08-4.37-1.78-4.45-4.16
						c-0.08-2.37,1.78-4.37,4.15-4.45C974.92,1105.97,976.91,1107.82,976.99,1110.2z"/>
				</g>
			</g>
			<g>
				<path class="st8" d="M908.92,832.94c0,0,15.2,104.46,15,187.9c-0.2,83.44-44.53,371.07-48.16,423.57
					c-3.63,52.5-232.86,217.38-276.25,200.68c-43.39-16.7-32.19-152.69,82.26-440.58c30.08-75.67,102.19-258.18,166.01-332.86
					C892.43,819.41,908.92,832.94,908.92,832.94z"/>
				<g class="st14">
					<path d="M847.7,1265.48c-11.69,6.46-23.38,13.25-34.57,20.56c-10.42,6.81-20.81,13.66-31.57,19.94
						c-10.52,6.15-21.31,11.82-32.61,16.41c-11.6,4.71-23.35,7.65-35.7,9.48c-0.44,0.06-0.55,0.78-0.05,0.83
						c39.04,3.91,75.98-20.05,106.02-42.01c10.15-7.42,20.07-15.36,29.71-23.43C850.03,1266.36,848.93,1264.8,847.7,1265.48z"/>
					<path d="M845.3,1281.79c-14.16,12.91-28.82,24.91-45.26,34.86c-16.04,9.71-33.39,17.23-51.25,22.89
						c-10.36,3.28-21.02,5.94-31.67,8.13c-0.65,0.13-0.61,1.04,0.08,1.05c38.81,0.23,77.52-16.46,106.41-41.95
						c8.32-7.34,15.99-15.29,22.32-24.43C846.25,1281.89,845.7,1281.43,845.3,1281.79z"/>
					<path d="M842.31,1302.6c-3.02,26.57-12.02,72.02-15.03,81.72c-2.75,8.85-6.04,17.77-12.08,24.95
						c-11.3,13.45-29.78,21.98-46.54,26.1c-15.73,3.87-35.11,3.96-47.7-7.76c-7.61-7.08-7.84-17.91-8.42-27.62
						c-0.72-11.97-0.76-24.01,0.4-35.96c0.05-0.53-0.75-0.7-0.82-0.16c-1.51,10.8-2.8,21.63-3.34,32.53
						c-0.48,9.79-1.53,20.65,3.11,29.66c8.3,16.11,28.24,20.88,44.97,19.7c10.35-0.73,20.54-3.79,30.01-7.94
						c8.9-3.9,17.7-8.64,25.15-14.94c7.42-6.27,12.23-14.28,16.86-22.84c7.02-13,15.46-71.74,14.05-97.32
						C842.91,1302.31,842.35,1302.2,842.31,1302.6z"/>
				</g>
			</g>
		</g>
		<g>
			<g>
				<g>
					<path class="st29" d="M908.68,842.72c0.89,5.91,25.52,45.79,52.13,46.7c8.67,0.28,12.3-46.96,12.3-46.96l1.07-3.43l14.88-47.96
						l-54.4-41.46l-7.9-5.54c0,0-3.21,13.39-7.03,30.1c-0.18,0.77-0.36,1.55-0.55,2.38c-0.24,0.94-0.48,1.82-0.66,2.71
						c-0.6,2.49-1.21,5.03-1.76,7.58c-0.43,1.94-0.85,3.82-1.22,5.87c-0.43,2.05-0.8,4.04-1.23,6.09
						C910.53,819.08,908.34,840.21,908.68,842.72z"/>
					<path class="st3" d="M919.73,774.17c10.85,40.01,40.62,58.37,54.45,64.86l14.88-47.96l-54.4-41.46l-7.9-5.54
						C926.76,744.07,923.56,757.46,919.73,774.17z"/>
				</g>
				<g>
					<path class="st29" d="M1052.84,696.73c23.28,85.01-25.01,108.54-43.34,113.54c-16.65,4.54-73.9,17.87-105.83-64.27
						c-31.93-82.15,0.23-119.84,37.75-132.23C978.93,601.38,1029.56,611.73,1052.84,696.73z"/>
					<g>
						<path class="st31" d="M1038.16,687.08c-2.03-0.44-3.99-0.5-6.04-0.73c-2.32-0.25-4.14-0.7-6.3,0.43
							c-1.16,0.6-1.71,2.45-1.23,3.62c1.12,2.75,3.89,3.77,6.67,4.19c3.02,0.46,5.46,0.03,8.09-1.52
							C1041.88,691.58,1040.84,687.66,1038.16,687.08z"/>
						<path class="st31" d="M977.66,703c1.54-1.41,3.18-2.45,4.85-3.68c1.88-1.39,3.22-2.7,5.66-2.81c1.31-0.06,2.71,1.25,2.89,2.51
							c0.42,2.94-1.45,5.22-3.64,6.99c-2.37,1.92-4.7,2.79-7.74,2.78C976.72,708.77,975.64,704.86,977.66,703z"/>
						<g>
							<g>
								<path class="st3" d="M988.89,711.54c-9.58,1.4-6.08,20.45,2.8,19.16C1000.42,729.42,996.92,710.37,988.89,711.54z"/>
							</g>
							<path class="st3" d="M985.34,713.24c-1.46,1.38-2.75,3.59-4.72,4.15c-2.28,0.66-4.4-1.02-6.27-2.66
								c-0.19-0.17-0.33,0.03-0.29,0.28c0.62,3.66,2.71,7.15,6.72,6.97c3.66-0.16,5.63-3.86,5.87-7.7
								C986.7,713.57,985.93,712.68,985.34,713.24z"/>
						</g>
						<g>
							<g>
								<path class="st3" d="M1031.96,700.55c9.38-2.39,13.47,16.54,4.78,18.76C1028.2,721.49,1024.1,702.56,1031.96,700.55z"/>
							</g>
							<path class="st3" d="M1036.18,700.94c1.71,0.68,3.59,2.18,5.4,1.92c2.1-0.31,3.19-2.69,4.09-4.94
								c0.09-0.23,0.28-0.11,0.34,0.14c0.88,3.6,0.5,7.62-2.83,9.07c-3.03,1.32-6.04-1.28-7.68-4.7
								C1035.2,701.8,1035.49,700.67,1036.18,700.94z"/>
						</g>
					</g>
					<g>
						<path class="st31" d="M904.55,750.73c18.3-11.47,16.72-31.88,16.72-31.88c22.86-13.19,33.64-33.5,34.77-35.56
							c-0.38,1.88-3.06,15.45-4.64,22.32c54.43-17.06,66.57-61.73,66.57-61.73c20.21,15.86,25.2,26.96,28.5,32.4
							c0,0-3.68-34.21-23.98-54.98c-24.84-25.44-53.54-16.61-53.54-16.61s-44.8-7.71-74.02,32.84
							C863.47,681.24,904.55,750.73,904.55,750.73z"/>
						<path class="st31" d="M992.62,691.32c-8.27,6.05-17.73,10.6-27.31,13.9c-0.08,0.03-0.11-0.09-0.04-0.12
							c15.16-6.32,28.26-16.22,37.92-29.6c4.08-5.65,7.45-11.74,10.01-18.23c2.68-6.78,5.12-14.77,4.86-22.11
							c-0.02-0.56,0.85-0.59,0.87-0.03c0.27,7.76,0.45,14.93-1.8,22.47c-2.13,7.16-5.6,14-10.17,19.91
							C1002.89,682.8,998.01,687.38,992.62,691.32"/>
					</g>
					<g>
						<g>
							<path class="st29" d="M918.96,748.83c0,0-23.87-23.61-34.91-14.61c-11.04,8.99,10.35,45.62,25.75,48.35
								c15.4,2.73,18.2-11.47,18.2-11.47L918.96,748.83z"/>
						</g>
					</g>
				</g>
			</g>
			<g>
				<path class="st5" d="M974.36,839.2l-15.84,40.06l-49.94-50.31l-13.99,16.3c0,0,49.02,80.1,49.3,76.46l16.29-34.54l23.91,23.85
					l-2.25-60.17L974.36,839.2z"/>
				<path class="st3" d="M984.66,881.21c-0.71-9.92-1.14-19.94-2.3-29.81c-0.04-0.35-0.59-0.51-0.67-0.09
					c-1.94,9.6,0.96,47.53,0.96,56.62c-0.03-0.03-0.07-0.07-0.1-0.1c-1-1.03-22.15-20.98-22.36-20.66
					c-3.54,5.49-15.5,30.64-16.31,32.93c-7.75-12.72-40.63-62.87-49.79-74.89c-0.26-0.34-0.8-0.06-0.59,0.35
					c6.86,13.44,49.35,79.62,49.94,79.44c0.41,0.31,15.27-30.67,17.03-36.52c3.59,4.35,24.95,26.87,25.02,25.39
					C985.92,903.92,985.37,891.15,984.66,881.21z"/>
			</g>
		</g>
		<g>
			<g>
				<g>
					<g>
						<path class="st12" d="M1792.02,1648.9c9.43-1.21,241.84-113.62,247.99-123.51c2.35-3.74-12.04-38.54-30.63-80.1
							c-4.01-8.98-8.21-18.22-12.53-27.58c-27.96-60.82-59.04-124.71-59.04-124.71l-155.68,74.74l63.33,122.65l13.88,26.93
							c0,0-69.73,82.84-75.32,94.41C1778.47,1623.28,1782.58,1650.11,1792.02,1648.9z"/>
						<path class="st11" d="M1792.02,1648.9c9.43-1.21,241.84-113.62,247.99-123.51c2.85-4.57-18.99-54.99-43.17-107.68
							l-151.4,72.69l13.88,26.93c0,0-69.73,82.84-75.32,94.41C1778.47,1623.28,1782.58,1650.11,1792.02,1648.9z"/>
						<g>
							<path class="st8" d="M1792.02,1648.9c9.43-1.21,241.84-113.62,247.99-123.51c2.35-3.74-12.04-38.54-30.63-80.1l-150.05,72.04
								c0,0-69.73,82.84-75.32,94.41C1778.47,1623.28,1782.58,1650.11,1792.02,1648.9z"/>
							<g>
								<g>
									<path class="st3" d="M1790.85,1637.99c38.5-19.8,195.63-96.02,235.19-112.67c0.32-0.14,0.42,0.08,0.12,0.24
										c-37.73,20.46-195.48,95.41-235,113.07C1790.33,1639,1790.04,1638.4,1790.85,1637.99z"/>
									<path class="st3" d="M1794.92,1596.14c9.06-4.85,20.21-4.82,27.91-1.76c7.4,2.95,15.13,8.38,18.77,16.59
										c0.11,0.23-0.32,0.45-0.47,0.23c-9.6-14.17-29.94-20.85-45.97-14.57C1794.83,1596.76,1794.61,1596.31,1794.92,1596.14z"/>
									<path class="st3" d="M1846.09,1528.51c15.49-7.76,36.23-11,52.09-2.93c0.61,0.31,0.16,1.18-0.42,1.17
										c-17.61-0.45-33.63,0.62-51.01,3.82C1845.53,1530.79,1844.98,1529.07,1846.09,1528.51z"/>
									<path class="st3" d="M1836.32,1539.03c15.49-7.76,36.23-11,52.09-2.93c0.61,0.31,0.16,1.18-0.42,1.17
										c-17.61-0.45-33.63,0.62-51.01,3.82C1835.76,1541.3,1835.22,1539.58,1836.32,1539.03z"/>
									<path class="st3" d="M1826.56,1549.54c15.49-7.76,36.23-11,52.09-2.93c0.61,0.31,0.16,1.18-0.42,1.17
										c-17.61-0.45-33.63,0.62-51.01,3.81C1825.99,1551.82,1825.45,1550.1,1826.56,1549.54z"/>
									<path class="st3" d="M1816.79,1560.06c15.49-7.76,36.23-11,52.09-2.93c0.61,0.31,0.16,1.18-0.42,1.17
										c-17.61-0.45-33.63,0.62-51.01,3.81C1816.22,1562.33,1815.68,1560.61,1816.79,1560.06z"/>
									<path class="st3" d="M1998.22,1493.11c17.52-8.41,30.62,18.8,13.07,27.23C1993.77,1528.75,1980.67,1501.54,1998.22,1493.11
										z"/>
								</g>
								<path class="st3" d="M1821.41,1517.31c13.67,6.79,29.79,7.42,44.61,9.73c1.54,0.24,2.4-1.34,2.2-2.61
									c0.27-0.11,0.45-0.36,0.27-0.68c-7.37-13.02-20.25-25.83-33.45-33.02c-8.15-4.44-21.19-6.03-25.92,4.33
									C1804.64,1504.85,1813.44,1513.34,1821.41,1517.31z M1814.44,1504.74c-6.65-17.72,14.95-12.09,20.83-8.57
									c3.78,2.26,7.35,5.02,10.78,7.76c7.19,5.76,13.42,12.43,19.96,18.86c-7.21-1.58-14.49-2.53-21.75-3.84
									C1835.62,1517.38,1818.11,1514.51,1814.44,1504.74z"/>
								<path class="st3" d="M1919.05,1487.01c-6.15-9.59-18.83-6.17-26.27-0.62c-12.05,8.99-22.99,23.49-28.45,37.42
									c-0.13,0.34,0.09,0.57,0.37,0.64c-0.02,1.3,1.06,2.73,2.54,2.28c14.34-4.38,30.22-7.29,42.78-15.94
									C1917.36,1505.73,1924.86,1496.08,1919.05,1487.01z M1887.63,1515.64c-7,2.33-14.07,4.3-20.99,6.88
									c5.57-7.28,10.8-14.77,17.1-21.49c3.01-3.21,6.15-6.44,9.58-9.21c5.32-4.31,25.92-12.94,21.84,5.54
									C1912.9,1507.54,1895.97,1512.86,1887.63,1515.64z"/>
							</g>
							<path class="st14" d="M2040.02,1525.37c-4.79,7.74-147.23,77.81-214.19,108.87l190.11-174.2
								C2031.19,1494.8,2042.09,1522.1,2040.02,1525.37z"/>
						</g>
					</g>
					<g>
						<path class="st1" d="M1999.58,1408.4l-165.91,72.57c0,0-113.35-210.98-103.97-294.54c10.53-93.78,104.78-367.88,104.78-367.88
							h186.96c0,0-105.75,272.43-112.25,368.74C1906.63,1225.23,1999.58,1408.4,1999.58,1408.4z"/>
						<path class="st32" d="M1999.58,1408.4l-165.91,72.57c0,0-113.35-210.98-103.97-294.54
							c10.53-93.78,104.78-367.88,104.78-367.88h186.96c0,0-105.75,272.43-112.25,368.74
							C1906.63,1225.23,1999.58,1408.4,1999.58,1408.4z"/>
						<g>
							<path class="st3" d="M1975.77,1385.01c-25.51,8.99-50.66,19.24-75.54,29.85c-12.35,5.27-24.7,10.54-37,15.95
								c-12.53,5.51-24.7,11.61-37.05,17.49c-0.46,0.22-0.18,0.92,0.31,0.74c12.83-4.73,25.69-9.17,38.39-14.28
								c12.46-5.02,24.86-10.16,37.26-15.32c24.98-10.39,49.89-21.21,74.16-33.18C1977.07,1385.88,1976.6,1384.72,1975.77,1385.01z"
								/>
							<path class="st3" d="M1898.97,1242.84c-3.15-8.93-6.23-17.89-9.25-26.87c-3.02-8.98-6.15-18.12-6.92-27.63
								c-0.83-10.19,1.38-20.22,3.84-30.05c2.32-9.27,54.48-157.45,66.08-194.34c13.09-41.63,26.92-83.05,41.47-124.19
								c0.46-1.29-1.6-1.78-2.06-0.51c-26.65,73.51-103.7,298.94-106.19,308.6c-2.37,9.2-5.02,18.41-6.13,27.87
								c-2.22,18.85,5.02,36.6,10.98,54.11c6.23,18.32,41.41,108.66,60.67,147.45c0.2,0.4,0.9,0.09,0.72-0.33
								C1937.61,1341.6,1905.4,1261.1,1898.97,1242.84z"/>
						</g>
					</g>
				</g>
				<g>
					<g>
						<path class="st12" d="M1829.5,1668.82c9.05,2.93,267.2,0.45,276.99-5.87c3.72-2.38,5.55-39.99,6.48-85.51
							c0.2-9.83,0.35-19.98,0.44-30.29c0.67-66.94-0.18-137.98-0.18-137.98l-172.69,1.16l4.93,137.94l1.06,30.28
							c0,0-98.41,45.16-108.4,53.24C1828.18,1639.88,1820.45,1665.89,1829.5,1668.82z"/>
						<path class="st11" d="M1829.5,1668.82c9.05,2.93,267.2,0.45,276.99-5.87c4.52-2.91,6.29-57.84,6.91-115.8l-167.94,1.13
							l1.06,30.28c0,0-98.41,45.16-108.4,53.24C1828.18,1639.88,1820.45,1665.89,1829.5,1668.82z"/>
						<g>
							<path class="st8" d="M1829.5,1668.82c9.05,2.93,267.2,0.45,276.99-5.87c3.72-2.38,5.55-39.99,6.48-85.51l-166.44,1.12
								c0,0-98.41,45.16-108.4,53.24C1828.18,1639.88,1820.45,1665.89,1829.5,1668.82z"/>
							<g>
								<g>
									<path class="st3" d="M1833.1,1658.46c43.26-1.48,217.9-3.36,260.78-1.53c0.35,0.01,0.35,0.25,0,0.27
										c-42.85,2.4-217.5,2.87-260.78,1.97C1832.2,1659.15,1832.19,1658.49,1833.1,1658.46z"/>
									<path class="st3" d="M1854.63,1622.35c10.26-0.52,20.33,4.26,25.99,10.32c5.43,5.82,10.11,14.03,9.89,23.01
										c-0.01,0.26-0.48,0.27-0.52,0c-2.63-16.91-18.18-31.64-35.36-32.79C1854.29,1622.87,1854.28,1622.37,1854.63,1622.35z"/>
									<path class="st3" d="M1929.78,1583.02c17.32-0.41,37.46,5.51,48.36,19.58c0.42,0.54-0.36,1.14-0.88,0.88
										c-15.74-7.92-30.68-13.79-47.76-18.32C1928.3,1584.84,1928.54,1583.05,1929.78,1583.02z"/>
									<path class="st3" d="M1916.46,1588.37c17.32-0.41,37.46,5.51,48.36,19.57c0.42,0.54-0.36,1.14-0.88,0.88
										c-15.73-7.92-30.68-13.79-47.76-18.32C1914.97,1590.18,1915.22,1588.4,1916.46,1588.37z"/>
									<path class="st3" d="M1903.13,1593.71c17.32-0.41,37.46,5.51,48.36,19.57c0.42,0.55-0.36,1.14-0.88,0.88
										c-15.73-7.92-30.68-13.79-47.76-18.32C1901.65,1595.52,1901.89,1593.74,1903.13,1593.71z"/>
									<path class="st3" d="M1889.81,1599.05c17.32-0.41,37.46,5.51,48.36,19.57c0.42,0.54-0.36,1.14-0.88,0.88
										c-15.74-7.92-30.68-13.79-47.76-18.32C1888.33,1600.86,1888.57,1599.08,1889.81,1599.05z"/>
									<path class="st3" d="M2082.47,1615.93c19.43-0.13,19.67,30.07,0.2,30.2C2063.24,1646.26,2063,1616.06,2082.47,1615.93z"/>
								</g>
								<path class="st3" d="M1912.24,1562.36c9.46,11.97,23.78,19.42,36.19,27.84c1.29,0.87,2.74-0.18,3.1-1.43
									c0.28,0.02,0.56-0.13,0.54-0.5c-1.11-14.92-7.29-32-16.16-44.14c-5.48-7.5-16.59-14.5-25.29-7.14
									C1902.39,1543.94,1906.72,1555.37,1912.24,1562.36z M1911.3,1548.02c1.54-18.86,18.68-4.55,22.5,1.14
									c2.45,3.65,4.51,7.67,6.44,11.62c4.04,8.28,6.83,16.97,10.01,25.57c-5.84-4.51-12.02-8.47-18.03-12.76
									C1925.06,1568.49,1910.45,1558.42,1911.3,1548.02z"/>
								<path class="st3" d="M2013.47,1576.63c-1.47-11.29-14.39-13.62-23.49-11.77c-14.74,2.99-30.82,11.43-41.7,21.7
									c-0.27,0.25-0.16,0.55,0.06,0.73c-0.58,1.16-0.21,2.92,1.33,3.15c14.84,2.16,30.44,6.3,45.5,3.84
									C2003.95,1592.84,2014.86,1587.31,2013.47,1576.63z M1972.83,1589.1c-7.32-0.88-14.56-2.12-21.92-2.73
									c8.15-4.21,16.07-8.75,24.63-12.14c4.09-1.62,8.31-3.2,12.59-4.24c6.65-1.63,28.96-0.64,17.39,14.33
									C1999.14,1592.57,1981.56,1590.16,1972.83,1589.1z"/>
							</g>
						</g>
					</g>
					<path class="st1" d="M2120.96,1532.54h-188.73c0,0-5.13-197.06-12-268.37c-7.3-75.83-8.01-312.86-8.01-312.86l-21.2-6.75
						c-26.59-16.78-53.49-102.42-56.56-126.01h246.77c0,0,35.96,102.74,16.71,166.28c0,0,0.96,223.34,5,263.38
						C2110.56,1323.51,2120.96,1532.54,2120.96,1532.54z"/>
					<path class="st32" d="M2120.96,1532.54h-188.73c0,0-5.13-197.06-12-268.37c-7.3-75.83-8.01-312.86-8.01-312.86l-21.2-6.75
						c-26.59-16.78-53.49-102.42-56.56-126.01h246.77c0,0,35.96,102.74,16.71,166.28c0,0,0.96,223.34,5,263.38
						C2110.56,1323.51,2120.96,1532.54,2120.96,1532.54z"/>
					<g>
						<g>
							<path class="st3" d="M1885.25,941.21c19.9,5.27,39.11,12.76,57.48,20.61c0.72,0.31,0.25,1.17-0.53,0.91
								c-19.36-6.4-39.11-12.53-57.99-19.74C1882.73,942.42,1883.73,940.8,1885.25,941.21z"/>
							<path class="st3" d="M1879.1,838.9c0.05-0.52,1.23-0.63,1.22-0.07c-0.16,17.7,1.31,33.27,3.25,49.82
								c0.9,7.68,8.92,50.12,26.22,47.03c2.9-0.52,4.37-2.71,4.83-6.07c0.55-4.04-1.43-9-2.3-13.02c-1.92-8.89-3.46-17.8-4.45-26.77
								c-1.85-16.75-1.94-33.51,0.7-50.21c0.09-0.55,1.12-0.51,1.11,0.05c-0.02,23.19,0.76,46.34,5.27,69.31
								c2.16,11.04,9.39,27.66-5.61,29.36c-15.27,1.73-25.15-26.11-27.01-33.72C1877.12,883.34,1876.92,860.4,1879.1,838.9z"/>
							<path class="st3" d="M1909.33,936.81c1.56,2.85,2.82,5.82,3.89,8.8c0.83,2.32,1.96,4.82,1.62,7.23
								c-0.07,0.47-0.87,0.51-1.2,0.2c-2.03-1.98-2.89-4.69-4.02-7.04c-1.32-2.72-2.71-5.42-3.92-8.17
								C1904.89,936.01,1908.36,935.05,1909.33,936.81z"/>
						</g>
						<path class="st3" d="M2107.68,1500.45c-27-1.65-54.15-2.01-81.2-1.93c-13.43,0.04-26.86,0.09-40.29,0.28
							c-13.68,0.19-27.27,1.08-40.94,1.67c-0.51,0.02-0.52,0.78,0,0.8c13.66,0.64,27.24,1.56,40.92,1.8
							c13.43,0.23,26.85,0.32,40.28,0.41c27.05,0.16,54.21-0.1,81.22-1.67C2108.54,1501.76,2108.56,1500.5,2107.68,1500.45z"/>
						<path class="st3" d="M1912.71,950.58c-0.11-0.77-1.23-0.79-1.24,0.03c-1.23,61.94,12.12,437.22,16.31,474.59
							c0.06,0.51,0.81,0.51,0.8-0.02C1927.97,1391.69,1915.37,969.17,1912.71,950.58z"/>
						<path class="st3" d="M2059.97,906.98c-17.21-2.27-35.56-4.5-47.3-18.84c-5.44-6.64-8.97-14.52-11.39-22.7
							c-2.73-9.27-3.72-18.97-6.45-28.21c-0.11-0.37-0.62-0.25-0.64,0.1c-0.66,10.14,0.73,21.28,3.59,31.02
							c2.46,8.39,6.3,16.44,12.08,23.06c12.57,14.42,31.95,16.63,50.01,16.44C2060.36,907.84,2060.48,907.05,2059.97,906.98z"/>
						<path class="st3" d="M2075.53,1039.93c-1.31-22.37-2.66-44.42,2.72-66.4c2.87-11.72,5.55-23.17,6.12-35.28
							c0.58-12.35-0.11-24.87-1.51-37.15c-2.76-24.07-7.35-47.56-14.76-70.65c-0.25-0.78-1.46-0.42-1.23,0.37
							c6.14,21.25,10.62,43.14,13.07,65.13c2.48,22.21,3.63,45.01-1.8,66.87c-2.56,10.28-5.32,20.34-6.27,30.94
							c-0.93,10.48-0.66,21.01-0.14,31.51c1.12,22.77,13.9,411.07,19.01,462.15c0.05,0.51,0.82,0.5,0.8-0.02
							C2089.63,1441.61,2076.87,1062.81,2075.53,1039.93z"/>
					</g>
				</g>
			</g>
			<g>
				<g>
					<g>
						<path class="st12" d="M1914.51,586.43c-1,38.6-11.64,181.01-47.48,220.62c-24.14,26.68-149.52,49.18-181.99,47.53
							c-13.28-0.68-19.08-102.55-6.02-108.17c14.21-6.11,112.16-12.13,120.25-19.03c8.1-6.89,46.44-94.94,74.33-142.25
							C1890.31,556.79,1915.07,564.71,1914.51,586.43z"/>
						<g>
							<g>
								<path class="st4" d="M1722.08,851.83c-23.59,8.74-109.03,20.8-126.46,18.91c-17.44-1.9-67.21-11-67.12-24.5
									c0.1-13.5,14.88-12,14.88-12s-22.45-7.53-19.08-20.75c2.7-10.55,23.62-9.54,23.62-9.54s-24.17-9.54-19.14-22.23
									c4.59-11.56,26.87-4.77,26.87-4.77s-19.42-10.04-12.86-20.32c7.89-12.37,41.5,4.98,60.91,5.64
									c4.41,0.15,107.16-19,107.16-19L1722.08,851.83z"/>
								<g>
									<path class="st3" d="M1555.35,775.82c26.51,10.44,37.77,13.98,65.05,11.55c0.53-0.05,0.72,0.73,0.17,0.83
										c-26.5,4.81-40.17,1.57-65.9-11.22C1553.43,776.37,1554.12,775.33,1555.35,775.82z"/>
									<path class="st3" d="M1548.13,803.75c26.86,10.95,40.75,11.79,69.51,11.35c0.41-0.01,0.46,0.68,0.05,0.72
										c-28.18,2.79-44.72,3.17-70.12-11.3C1546.42,803.88,1546.9,803.25,1548.13,803.75z"/>
									<path class="st3" d="M1544.82,834.21c26.77,8.72,42.17,11.05,70.04,7.03c0.66-0.1,0.86,0.85,0.21,1.01
										c-28.01,6.86-47.26,4.1-70.42-7.2C1543.06,834.29,1543.13,833.67,1544.82,834.21z"/>
								</g>
							</g>
							<g>
								<path class="st4" d="M1710.87,743.26c0,0-33.86-11.12-49.42-13.06c-15.56-1.94-58.75-13.5-68.24-3.93
									c-10.65,10.74,23.46,32.95,51.18,36.63c0,0,7.44,45.33,33.91,50.12c5.73,1.04,35-5.53,39.03-10.85L1710.87,743.26z"/>
								<path class="st3" d="M1647.08,764.27c2.27,17.75,11.93,39.27,28.12,46.76c0.47,0.22,0.23,0.92-0.28,0.77
									c-18.46-5.68-29.87-30.47-30.94-46.45C1643.78,762.27,1646.49,759.68,1647.08,764.27z"/>
							</g>
						</g>
					</g>
					<g>
						<path class="st9" d="M1718.22,739.87l3.86,111.96c0,0,10.19,15.97,30.6,11.08c20.42-4.89,101.2-30.03,119.89-57.53
							c18.7-27.5,43.66-143.51,43.48-208c-0.17-64.49-39.69-21.7-45.43-11.22c-5.75,10.48-71.5,136.07-75.21,138.74
							c-3.71,2.67-41.12,2.63-56.56,5.49C1723.43,733.25,1718.22,739.87,1718.22,739.87z"/>
						<path class="st14" d="M1916.04,597.36c0.18,64.54-24.75,180.49-43.44,208c-18,26.46-93.32,50.68-117.29,56.89l142.01-299.17
							C1907.16,560.43,1915.97,567.07,1916.04,597.36z"/>
						<g>
							<g>
								<path class="st3" d="M1753.53,851.76c0.34-9.34-0.61-18.75-1.17-28.03c-0.56-9.15-1.18-18.3-1.86-27.45
									c-1.37-18.45-2.31-37.08-4.85-55.36c-0.06-0.43-0.66-0.39-0.67,0.05c-0.41,18.73,1.06,37.5,2.33,56.1
									c0.63,9.33,1.4,18.65,2.28,27.95c0.84,8.95,1.43,18.1,3.25,26.88C1752.93,852.32,1753.52,852.14,1753.53,851.76z"/>
							</g>
						</g>
					</g>
				</g>
				<g>
					<g>
						<g>
							<path class="st9" d="M2083.15,821.59c0.14-0.27-257.95,15.23-257.95,15.23c-0.15-0.25-10.9-12.64-7.74-31.99
								c8.46-51.96,35.85-146.64,58.4-212.83c13.57-39.82,53.96-46.36,82.47-26.89c56.74,38.75,109.09,156.53,125.84,217.21
								C2090.23,804.34,2083.11,821.66,2083.15,821.59z"/>
						</g>
					</g>
				</g>
				<g>
					<g>
						<g>
							<path class="st12" d="M1975.16,576.86c58.76,47.37,159.52,177.39,149.59,208.75c-18.32,57.86-162.44,107.79-193,117.49
								c-13.03,4.13-48.01-118.36-34.17-123.07c12.06-4.1,98.11-22.86,100.31-33.57c0.91-4.41-29.72-65.07-51.82-134.99
								C1929.14,557.9,1957.76,562.83,1975.16,576.86z"/>
							<g>
								<g>
									<g>
										<g>
											<path class="st4" d="M1915.07,776.14c0,0-14.1,4.13-50.03,9.2c-28.07,3.96-91.28,32.82-111.56,109.88
												c-7.77,29.53,9.55,47.87,23.07,18.63c9.52-20.59,14.35-35.68,19.34-41.53c0,0,8.23,33.74,26.93,41.17
												c8.36,3.32,31.38,11.85,50.25,15.94c0,0,1.99-3.87,3.82-9.14c0,0,23.86,8.58,43.42-12.12l28.36-12.58L1915.07,776.14z"/>
										</g>
									</g>
									<g>
										<path class="st4" d="M1842.04,796.32c-9.99,11-30.78,34.67-41.04,59.94c-11.4,28.07-25.81,85.23-5,93.43
											c15.26,6.02,22.68-15.32,22.68-15.32s-0.97,24.88,14,27.3c13.65,2.2,18.39-14.64,18.39-14.64s2,15.19,15.56,14.78
											c16.3-0.49,9.43-32.25,25.51-47.01C1895.74,911.48,1842.04,796.32,1842.04,796.32z"/>
										<g>
											<path class="st3" d="M1832.67,863.36c-7.7,11.88-18.26,43.37-14.39,70.52c0.09,0.62,0.6,0.88,0.64,0.3
												c2.09-30.8,9.96-58.96,14.02-70.71C1832.99,863.31,1832.75,863.23,1832.67,863.36z"/>
										</g>
										<g>
											<path class="st3" d="M1860.67,875.7c-5.59,10.94-15.03,43.87-10.16,71.25c0.11,0.61,0.64,0.84,0.66,0.26
												c0.86-32.27,6.43-59.45,9.77-71.42C1860.99,875.63,1860.74,875.56,1860.67,875.7z"/>
										</g>
									</g>
								</g>
							</g>
						</g>
						<g>
							<path class="st9" d="M1926.03,771.9l24.79,124.96c0,0,27.67,10.08,48.45,1.85c20.78-8.23,126.76-78.65,127.73-117.33
								c0.96-38.68-94.97-158.62-139.42-197.32c-44.45-38.7-59.03-27.56-44.34,30.12c14.68,57.68,51.24,131.29,50.86,132.62
								c-0.38,1.32-28.66,1.45-40.27,3.88C1942.22,753.11,1926.03,771.9,1926.03,771.9z"/>
							<g>
								<path class="st3" d="M1949.25,653.01c2.8,4.96,5.92,9.79,9.09,14.52c1.44,2.15,2.9,4.3,4.31,6.48
									c-4.61-11.71-9.1-23.47-13.3-35.32c-0.13-0.37,0.47-0.58,0.64-0.23c8.61,17.93,16.7,36.17,24.35,54.53
									c7.53,18.05,15.97,35.99,21.24,54.85c0.15,0.54-0.64,0.79-0.9,0.33c-9.79-17.3-16.66-36.24-24.22-54.6
									c-1.85-4.48-3.59-9.01-5.39-13.51c-1.24-1.44-2.47-2.89-3.63-4.41c-1.7-2.23-3.25-4.61-4.7-7.02
									c-2.99-4.97-5.57-10.09-8.05-15.32C1948.5,652.93,1949.04,652.65,1949.25,653.01z"/>
								<path class="st3" d="M1926.03,771.9c5.45-7.35,12.52-14.26,20.52-18.81c8.35-4.75,18.05-5.47,27.41-6.58
									c10.46-1.23,20.96-1.99,31.47-2.25c0.62-0.46,1.71-0.63,2.42-0.83c1.05-0.29,2.13-0.5,3.2-0.72
									c4.17-0.86,8.4-1.31,12.65-1.46c0.23-0.01,0.25,0.34,0.02,0.36c-3.06,0.32-6.09,0.8-9.12,1.32
									c-1.58,0.27-3.16,0.55-4.73,0.89c-0.65,0.14-1.29,0.3-1.94,0.42c9.26-0.16,18.52,0.03,27.77,0.72
									c0.37,0.03,0.43,0.6,0.03,0.6c-19.57,0.33-39.12,1.42-58.58,3.69c-9.64,1.12-20.24,1.61-28.64,6.91
									c-7.71,4.87-14.88,10.62-21.98,16.32C1926.16,772.82,1925.79,772.24,1926.03,771.9z"/>
							</g>
							<g>
								<g>
									<path class="st3" d="M1971.85,874.61c-0.83-8.88-2.87-17.67-4.55-26.39c-1.65-8.6-3.36-17.18-5.13-25.75
										c-3.56-17.29-6.74-34.81-11.38-51.79c-0.11-0.4-0.67-0.29-0.62,0.13c1.91,17.77,5.61,35.36,9.09,52.81
										c1.74,8.75,3.62,17.48,5.59,26.17c1.9,8.37,3.58,16.96,6.38,25.03C1971.36,875.21,1971.89,874.97,1971.85,874.61z"/>
								</g>
							</g>
						</g>
					</g>
				</g>
				<g>
					<g>
						<g>
							<g>
								<path class="st4" d="M1936.93,557.77c-0.39,4.91-18.38,39.13-40.22,41.39c-7.11,0.72-12.8-37.92-12.8-37.92l-1.07-2.76
									l-14.97-38.6l48.56-42.22C1916.43,477.65,1937.07,555.68,1936.93,557.77z"/>
								<path class="st3" d="M1867.88,519.88l14.98,38.58l1.06,2.78c0,0,1.04,6.99,2.76,14.97c28.88-8.86,39.07-33.1,42.65-49.31
									c-5.82-22.56-12.9-49.25-12.9-49.25L1867.88,519.88z"/>
							</g>
						</g>
					</g>
					<g>
						<path class="st4" d="M1784.82,441.4c-15.49,94.1,39.12,114,59.42,117.32c18.42,3.01,81.54,10.92,106.67-81.07
							c25.13-92-13.73-128.94-55.5-138.06C1853.63,330.47,1800.3,347.29,1784.82,441.4z"/>
						<g>
							<g>
								<path class="st3" d="M1805.25,454.55c-10.5-1.25-12.23,19.85-2.5,21.01C1812.33,476.71,1814.06,455.6,1805.25,454.55z"/>
							</g>
							<g>
								<path class="st3" d="M1853.73,460.67c10.55,0.85,8.07,21.88-1.7,21.09C1842.42,480.98,1844.89,459.95,1853.73,460.67z"/>
							</g>
							<path class="st30" d="M1798.06,436.71c2.08-0.86,4.15-1.3,6.29-1.94c2.42-0.72,4.28-1.54,6.8-0.75
								c1.35,0.42,2.29,2.27,2.01,3.62c-0.66,3.15-3.41,4.76-6.3,5.74c-3.13,1.07-5.81,1.09-8.9-0.06
								C1794.96,442.21,1795.31,437.84,1798.06,436.71z"/>
							<path class="st30" d="M1865.42,445.54c-1.85-1.28-3.77-2.16-5.73-3.24c-2.21-1.22-3.85-2.42-6.48-2.19
								c-1.41,0.12-2.73,1.73-2.73,3.11c-0.03,3.21,2.31,5.38,4.92,6.96c2.83,1.71,5.44,2.31,8.71,1.85
								C1867.27,451.58,1867.86,447.24,1865.42,445.54z"/>
						</g>
						<g class="st26">
							<path d="M1888.48,487.07c0.15,0.83,0.95,1.39,1.78,1.24c0.83-0.15,1.39-0.95,1.24-1.79c-0.15-0.83-0.95-1.39-1.79-1.24
								C1888.88,485.44,1888.33,486.24,1888.48,487.07z"/>
							<path d="M1856.55,491.31c0.15,0.83,0.95,1.39,1.79,1.24c0.83-0.15,1.39-0.95,1.24-1.79c-0.15-0.83-0.95-1.39-1.78-1.24
								C1856.95,489.67,1856.4,490.47,1856.55,491.31z"/>
							<path d="M1869.71,500.41c0.15,0.83,0.95,1.39,1.79,1.24c0.83-0.15,1.39-0.95,1.24-1.78c-0.15-0.83-0.95-1.39-1.78-1.24
								C1870.11,498.77,1869.56,499.57,1869.71,500.41z"/>
							<path d="M1885.37,474.72c0.15,0.83,0.95,1.39,1.79,1.24c0.83-0.15,1.39-0.95,1.24-1.79c-0.15-0.83-0.95-1.39-1.79-1.24
								C1885.77,473.09,1885.22,473.89,1885.37,474.72z"/>
							<path d="M1871.97,485.94c0.15,0.83,0.95,1.39,1.79,1.24c0.83-0.15,1.39-0.95,1.24-1.78c-0.15-0.83-0.95-1.39-1.79-1.24
								C1872.37,484.31,1871.82,485.11,1871.97,485.94z"/>
							<path d="M1790.13,478.13c0.15,0.83,0.95,1.39,1.79,1.24c0.83-0.15,1.39-0.95,1.24-1.78c-0.15-0.83-0.95-1.39-1.79-1.24
								C1790.53,476.5,1789.97,477.3,1790.13,478.13z"/>
							<path d="M1803.48,484.59c0.15,0.83,0.95,1.39,1.79,1.24c0.83-0.15,1.39-0.95,1.24-1.78c-0.15-0.83-0.95-1.39-1.78-1.24
								C1803.88,482.96,1803.33,483.76,1803.48,484.59z"/>
							<path d="M1802.27,495.11c0.15,0.83,0.95,1.39,1.79,1.24c0.83-0.15,1.39-0.95,1.24-1.79c-0.15-0.83-0.95-1.39-1.79-1.24
								C1802.67,493.47,1802.12,494.27,1802.27,495.11z"/>
							<path d="M1790.72,490.03c0.15,0.83,0.95,1.39,1.79,1.24c0.83-0.15,1.39-0.95,1.24-1.79c-0.15-0.83-0.95-1.39-1.79-1.24
								C1791.13,488.4,1790.57,489.2,1790.72,490.03z"/>
						</g>
						<g>
							<path class="st31" d="M1956.25,487.47c-27.53,2.51-42.61-30.07-36.71-56.66c0,0-73.11,11.25-77.85-47.54
								c0,0-13.88,25.85-47.11,27.41l-7.74,21.87c-7.57-2.02-16.02-23.23,2.04-40.37c0,0,0.66-29.37,21.92-47.42
								c21.26-18.06,42.99-6.93,42.99-6.93s16.9-14.71,43.98-11.82c27.08,2.9,38.71,27.3,38.71,27.3s36.47,6.19,43.19,31.86
								c6.72,25.67-6.25,43.24-6.25,43.24s9.32,9.94,5.15,32.06C1975.89,474.68,1964.52,486.72,1956.25,487.47z"/>
						</g>
						<g>
							<g>
								<path class="st4" d="M1929.24,477.98c0,0,23.03-28.09,35.93-19.65c12.9,8.43-6.01,50.26-22.27,54.93
									c-16.26,4.67-20.88-10.3-20.88-10.3L1929.24,477.98z"/>
							</g>
						</g>
					</g>
				</g>
			</g>
		</g>
		<g>
			<g>
				<path class="st1" d="M1551.49,1427.94c10.67-52.41,80.24-63.55,110.07-58.86c29.83,4.69,69.66,27.72,68.49,54.34
					c-1.17,26.62-31.33,103.07-41.39,116.69c-10.06,13.62-21.06,25.93-25.4,38.18c-4.34,12.26-10.83,56.49-20.12,61.05
					s-76.8,5.66-90.55,0c-13.75-5.66-13.52-25.34,3.83-32.97c17.35-7.63,26.64-3.22,35.76-9.18c5.45-3.56,4.84-31.09,3.87-37.99
					C1595.09,1552.29,1534.73,1510.23,1551.49,1427.94z"/>
				<path class="st14" d="M1551.49,1427.94c10.67-52.41,80.24-63.55,110.07-58.86c29.83,4.69,69.66,27.72,68.49,54.34
					c-1.17,26.62-31.33,103.07-41.39,116.69c-10.06,13.62-21.06,25.93-25.4,38.18c-4.34,12.26-10.83,56.49-20.12,61.05
					s-76.8,5.66-90.55,0c-13.75-5.66-13.52-25.34,3.83-32.97c17.35-7.63,26.64-3.22,35.76-9.18c5.45-3.56,4.84-31.09,3.87-37.99
					C1595.09,1552.29,1534.73,1510.23,1551.49,1427.94z"/>
			</g>
			<g>
				<path class="st1" d="M1541.87,875.61c-0.87-9.94,19.08-21.38,3.93-53.55c-15.15-32.17-29.78-43.07-27.54-46.2
					c2.24-3.13,60.03,22.26,76.24,55.4c16.2,33.14,4.01,57.63,2.06,59.73S1542.23,879.68,1541.87,875.61z"/>
				<path class="st14" d="M1541.87,875.61c-0.87-9.94,19.08-21.38,3.93-53.55c-15.15-32.17-29.78-43.07-27.54-46.2
					c2.24-3.13,60.03,22.26,76.24,55.4c16.2,33.14,4.01,57.63,2.06,59.73S1542.23,879.68,1541.87,875.61z"/>
			</g>
			<g>
				<path class="st1" d="M1523.2,1033.35c0,0-56.35-106.88-74.06-121.93c-17.71-15.05-84.68-36.2-95.13-26.87
					c-10.45,9.33-0.48,38.57,6.24,46.42c6.71,7.85,53.85,25.58,57.85,28.57c2.29,1.71-10.64,63.06,7.6,120.08
					c13.56,42.37,33.85,72.28,35.99,73.68C1466.73,1156.58,1518.59,1040.37,1523.2,1033.35z"/>
				<path class="st14" d="M1523.2,1033.35c0,0-56.35-106.88-74.06-121.93c-17.71-15.05-84.68-36.2-95.13-26.87
					c-10.45,9.33-0.48,38.57,6.24,46.42c6.71,7.85,53.85,25.58,57.85,28.57c2.29,1.71-10.64,63.06,7.6,120.08
					c13.56,42.37,33.85,72.28,35.99,73.68C1466.73,1156.58,1518.59,1040.37,1523.2,1033.35z"/>
			</g>
			<path class="st1" d="M1739.25,1678.4c-6.13,2.03-83.42,8.02-92.59-5.28c-9.17-13.3-0.51-24.8,9.45-29.25
				c9.96-4.46,30.64-1.52,35.76-9.18c5.13-7.67,7.23-28.96,3.87-37.99c-3.36-9.03-60.23-46.69-44.57-131.26
				c0,0-36.23-13.55-65.57-24.01c-29.29-10.5-166.15-209.28-169.15-243.63c-7.13-80.66,56.58-172.27,56.58-172.27
				s-44.82-26.38-61.26-57.15c-16.44-30.77-9.8-84.52,0.91-103.49c6.13-10.87,25.07,18.3,34.89,23.46
				c9.86,5.2,45.73,14.91,55.23,10.96c9.45-3.91,30.28-27.58,50.36-32.44c20.08-4.86,77.23,16.69,89.95,30.37
				c12.72,13.68,2.64,154.48,2.64,154.48s11.94,24.3,19.13,35.77c20.84,33.19,108.88,217.3,139.04,272.74
				c13.84,25.4,24.61,47.35,28.75,60.61c6.14,19.62-19.21,122.31-47.26,161.07c-9.22,12.78-21.99,24.93-27.9,50.43
				C1751.52,1657.75,1745.77,1676.24,1739.25,1678.4z"/>
			<g>
				<path class="st1" d="M1617.13,901.95c7.68-8.5,32.89-0.66,48.11-38.54c15.22-37.87,12.95-58.7,17.34-59.26
					c4.38-0.56,28.19,67.87,12.98,107.39c-15.21,39.52-45.33,48.39-48.62,48.4C1643.64,959.97,1613.99,905.43,1617.13,901.95z"/>
				<path class="st3" d="M1686.35,856.67c-0.3-5.51-1.13-10.92-2.02-16.36c-1.02-6.23-2.85-12.39-3.58-18.66
					c-0.07-0.59-0.96-0.42-0.78,0.13c2.04,6.27,2.39,13.45,2.62,20.02c0.21,5.98-0.04,12.01-0.44,17.97
					c-0.84,12.34-2.68,24.68-6.4,36.5c-6.51,20.74-17.51,38.8-34.29,52.81c-0.63,0.52,0.23,1.57,0.9,1.11
					C1672.36,929.8,1688.3,892.32,1686.35,856.67z"/>
			</g>
			<path class="st1" d="M1821.92,1407.14c16.22,18.22,68.29,39.95,99.22,14.88c30.93-25.07,36.53-100.79,36.53-100.79
				s39.42,98.75,12.42,133.3c-27,34.54-85.58,39.94-148.15-15.84L1821.92,1407.14z"/>
			<path class="st3" d="M1535.06,923.92c13.71,10.39-6.8,35.34-19.49,25.72C1503.06,940.17,1523.57,915.22,1535.06,923.92z"/>
			<path class="st3" d="M1407.97,899.07c-5.56-4.31-3.71-35.59,4.4-41.74c8.12-6.16,41.49,35.84,38.51,43.82
				C1447.92,909.12,1414.04,903.77,1407.97,899.07z"/>
			<g>
				<path class="st14" d="M1744.5,1242.88c-0.54,0.27-26.03,3.57-54.33-11.91c-32.96-18.04-80.57-36.78-84.62-80.14
					c-3.19-33.88,51.54-73.42,52.46-74.12C1680.41,1110.96,1718.51,1185.37,1744.5,1242.88z"/>
			</g>
			<g>
				<path class="st14" d="M1551.93,1136.06c-23.53,11.81-65.22,1.81-65.77-29.03c-0.36-21.15,18.61-38.5,37.07-35.11
					c4.25-0.21,8.69,0.3,12.97,1.75C1557.91,1081,1579.28,1122.39,1551.93,1136.06z"/>
			</g>
			<g>
				<path class="st14" d="M1589.16,1192.73c9.88,14.94,6.49,43.91-14.29,46.77c-14.26,1.96-27.51-9.46-26.71-22.2
					c-0.49-2.85-0.5-5.89,0.13-8.9C1551.48,1193.15,1577.71,1175.36,1589.16,1192.73z"/>
			</g>
			<path class="st3" d="M1473.03,1025.52c9.87,4.2,47.55,30.23,81.65,37.65c34.09,7.42,89.3-11.58,93.36-13.15
				c4.05-1.58,13.12,15.77,12.34,19.72c-0.78,3.94-70.46,30.56-112.5,17.7c-42.04-12.86-86.21-40.24-86.98-43.54
				C1460.14,1040.59,1468.31,1023.52,1473.03,1025.52z"/>
			<g>
				<path class="st1" d="M1477.02,1106.19c0,0-69.35-98.94-88.81-111.64c-19.46-12.7-88.56-25.26-97.75-14.69
					c-9.19,10.57,4.38,38.32,12.03,45.27c7.65,6.94,56.64,18.6,60.98,21.07c2.49,1.41-2.62,63.9,22.65,118.17
					c18.78,40.33,42.67,67.45,44.98,68.57C1436.5,1235.55,1473.33,1113.74,1477.02,1106.19z"/>
				<path class="st3" d="M1494.39,1108.63c0.43,0.11,0.57-0.52,0.17-0.66c-3.88-1.4-7.75-2.95-11.49-4.68
					c-2.31-1.07-4.58-2.17-6.82-3.34c-9.28-10.68-18.71-21.26-27.2-32.55c-0.3-0.4-0.97-0.02-0.68,0.42
					c6.29,9.5,12.44,18.93,19.62,27.81c7.03,8.68,14.78,16.96,23.44,24.05c0.41,0.33,1.14-0.15,0.77-0.63
					c-4.47-5.72-9.17-11.26-13.92-16.76c1.48,0.83,2.97,1.65,4.51,2.34C1486.56,1106.32,1490.38,1107.65,1494.39,1108.63z"/>
			</g>
		</g>
		<g>
			<g>
				<path class="st29" d="M860.26,918.03c49.79,79.89,150.35,198,182.08,209.07c28.1,9.8,137.6-36.05,184.42-60.4
					c17.52-9.11-59.5-140.57-78.04-130.45c-22.24,12.14-89.21,45.67-95.34,43.04c-6.73-2.89-86.84-62.12-150.38-101.4
					C845.41,842.29,841.42,887.81,860.26,918.03z"/>
				<g>
					<path class="st29" d="M1206.19,899.01c41.83-19.53,55.56-18.12,82.11-53.34c17.42-23.12,39.66-21.91,34.8,7.8
						c-7.95,48.59-56.62,85.12-77.14,92.92L1206.19,899.01z"/>
					<g>
						<path class="st29" d="M1103.06,976.78c0,0,40.72-42.37,83.23-67.59c29.4-17.44,97.59-48.25,187.02,0.89
							c21.21,11.65,43.17,43.3,1.61,36.85c-29.52-4.58-46.85-16.41-64.51-15.95c0,0,23.15,43.57,10.65,64.36
							c-5.59,9.29-21.43,34.3-36.55,52.01c0,0-4.74-2.26-10.34-5.97c0,0-13.51,18.32-47.41,25.31L1103.06,976.78z"/>
					</g>
					<g>
						<path class="st29" d="M1217.01,897.03c17.62,3.25,54.85,10.76,83.17,27.49c31.45,18.59,87.03,62.87,73.07,85.95
							c-10.24,16.92-32.94,1.88-32.94,1.88s19.11,23.15,6.52,36.41c-11.47,12.08-28.34-0.61-28.34-0.61s9.18,16.03-4.11,25.55
							c-15.99,11.44-32.61-24.04-58.82-26.44C1249.66,1046.72,1217.01,897.03,1217.01,897.03z"/>
						<g>
							<g>
								<path class="st3" d="M1274.99,954.48c16.07,5.77,49.2,28.24,65.34,57.11c0.36,0.65,0.07,1.28-0.39,0.76
									c-24.51-28.01-52.64-49.27-65.12-57.57C1274.64,954.67,1274.81,954.42,1274.99,954.48z"/>
							</g>
							<g>
								<path class="st3" d="M1257.14,986.78c13.35,6.41,46.47,31.09,61.81,60.91c0.34,0.67,0,1.28-0.44,0.73
									c-24.41-30.32-49.61-52.32-61.57-61.35C1256.79,986.94,1256.97,986.7,1257.14,986.78z"/>
							</g>
						</g>
					</g>
				</g>
				<path class="st3" d="M1213.77,895.68c20.77-9.73,43.62-18.2,59.98-34.62c10.32-11.51,18.8-26.46,33.67-32.68
					c20.78-4.4,18.17,25.12,13.66,37.4c-2.45,7.45-5.76,14.63-10.19,21.06c4.07-6.66,6.95-13.96,8.97-21.42
					c3.37-10.95,6.48-38.43-11.73-34.82c-13.85,6.18-22.48,20.96-32.61,31.95C1258.66,879.38,1235.37,887.1,1213.77,895.68
					L1213.77,895.68z"/>
				<path class="st3" d="M1291.14,884.11c18.39,1.83,36.61,5.76,54.12,11.76c17.37,6.47,35.23,13.92,47.96,28.09
					c6.81,7.26,11.8,21.6-1.53,25.16c-9.65,2.25-19.11-0.29-28.23-2.93c-17.62-5.59-35.04-11.67-53.2-13.53l1.08-3.06
					c14.45,9.88,28.03,20.88,40.6,33.05c9.15,9.21,18.48,19.23,22.81,31.74c1.35,4.15,1.66,8.84-0.07,12.88
					c2.87-8.53-2.06-17.09-6.82-23.92c-17.07-22.41-40.74-38.85-63.75-54.62c0,0,6.47,0.61,6.47,0.61
					c18.69,1.76,36.47,7.82,54,13.21c8.34,2.44,17.66,5.02,26.15,3.09c10.25-2.48,4.92-13.98-0.09-19.48
					C1364.86,899.99,1326.29,890.65,1291.14,884.11L1291.14,884.11z"/>
			</g>
			<g>
				<path class="st8" d="M1222.29,1094.94l-79.44-160.67l-88.17,39.63c-46.73-32.69-127.6-87.07-163.31-104.82
					c-41.89-20.82-59.08,6.9-35.36,48.24c54.25,94.55,162.98,211.92,188.77,220.72C1081.73,1150.66,1222.29,1094.94,1222.29,1094.94
					z"/>
				<g>
					<path class="st3" d="M1186.27,1088.03c-6.73-8.99-28.04-50.21-33.23-60.54c-5.09-10.11-24.62-52.45-29.92-63.07
						c-0.29-0.58,0.45-1.16,0.75-0.58c5.42,10.43,28.18,51.08,33.47,61.35c5.31,10.3,26.05,51.66,29.46,62.54
						C1186.92,1088.11,1186.49,1088.32,1186.27,1088.03z"/>
					<g>
						<path class="st3" d="M1161.44,1116.74c-14.89,4.84-29.91,9.26-45.06,13.28c-22.8,5.22-46.09,13.01-69.82,9.82
							c-22.41-8.81-38.33-27.84-55.23-44.04c-21.92-22.48-42.16-46.45-62.12-70.59c-19.78-24.3-38.96-49.08-57.35-74.43
							c39.62,48.4,79.17,97,122.04,142.54c16.33,15.87,32.12,35.08,53.24,44.22c22.92,3.24,46.51-4.01,68.97-8.58
							C1131.33,1125.3,1146.45,1121.23,1161.44,1116.74L1161.44,1116.74z"/>
						<path class="st3" d="M888.1,972.1c-5.06-3.08-10-6.73-13.17-11.81C879.3,964.16,884.19,967.72,888.1,972.1L888.1,972.1z"/>
					</g>
					<g>
						<path class="st3" d="M939.95,897.34c39.16,23.55,75.23,52.16,114.61,75.27c22.43-8.08,65.52-28.83,88.24-38.44
							c0,0,0.09-0.04,0.09-0.04l0.04,0.09l1.92,4.11l-2.1-4.02l0.13,0.05c-26.27,13.11-52.65,25.97-79.61,37.64
							c-3.23,1.03-5.87,3.2-9.43,2.99C1014.39,952.36,977.9,922.39,939.95,897.34L939.95,897.34z"/>
						<path class="st3" d="M951.15,899.93c4.68,3.66,9.17,7.88,11.75,13.31C958.99,908.88,954.53,904.75,951.15,899.93
							L951.15,899.93z"/>
					</g>
				</g>
			</g>
		</g>
	</g>
	<path class="st3" d="M1935.91,500.51l-4.42-1.72c0.29-1.04,7.45-25.36,25.68-29.22l0.99,4.66c-7.82,1.65-13.37,8.22-16.95,14.33
		c2.68-1.44,5.96-2.36,9.81-2.11l-0.31,4.76C1941.03,490.54,1936.11,500.1,1935.91,500.51z"/>
	<path class="st3" d="M1835.12,510.17c-1.26-0.3-12.39-3.06-15.43-8.51c-3.29-5.9,1.15-11.62,3.81-15.03
		c0.6-0.78,1.15-1.47,1.53-2.08c4.26-6.83,3.27-16.19,3.26-16.29l4.74-0.53c0.05,0.45,1.17,11.11-3.95,19.33
		c-0.45,0.72-1.09,1.56-1.81,2.48c-2.82,3.63-5.03,6.88-3.41,9.79c1.45,2.59,8.1,5.18,12.37,6.2L1835.12,510.17z"/>
	<path class="st3" d="M1838.89,535.32c-6.65,0-14.34-1.66-23.08-6.02l2.13-4.26c32.42,16.17,48.07-8.04,48.72-9.08l4.05,2.51
		C1870.57,518.7,1859.95,535.32,1838.89,535.32z"/>
	<path class="st3" d="M1523,142.14l-4.42-1.72c0.23-0.82,5.93-20.19,20.52-23.27l0.99,4.66c-5.35,1.13-9.32,5.31-12.07,9.55
		c1.85-0.73,3.99-1.14,6.4-0.99l-0.31,4.76C1526.74,134.63,1523.15,141.83,1523,142.14z"/>
	<path class="st3" d="M1448.84,139.61c-3.85,0-7.98-0.7-9.51-3.45c-2.75-4.92,0.87-9.57,3.03-12.35c0.46-0.59,0.88-1.13,1.17-1.59
		c3.22-5.17,2.49-12.38,2.48-12.45l4.74-0.52c0.04,0.36,0.93,8.89-3.17,15.49c-0.36,0.58-0.88,1.25-1.46,2
		c-2.17,2.8-3.75,5.1-2.63,7.11c0.61,0.98,5.86,1.41,11.45,0.45l0.8,4.69C1454.38,139.22,1451.69,139.61,1448.84,139.61z"/>
	<path class="st3" d="M1455.89,154.94c-5.29,0-10.84-2.03-16.55-6.06l2.75-3.89c6.05,4.28,11.72,5.91,16.87,4.88
		c7-1.42,10.82-7.45,10.85-7.51l4.06,2.5c-0.2,0.32-4.87,7.81-13.9,9.67C1458.64,154.8,1457.27,154.94,1455.89,154.94z"/>
	<g>
		<path class="st3" d="M1448.65,152.74c0,0,2.67,5.36,7.9,9.71c1.92,1.61,5.59-3.69,8.36-3.3c5.69,0.82,6.25,3.12,6.85-0.92
			c0.5-3.32,1.44-13.07,1.44-13.07S1460.93,151.37,1448.65,152.74z"/>
		<path class="st18" d="M1456.55,162.44c1.92,1.61,4.2,2.85,6.98,3.24c5.69,0.82,7.63-3.42,8.23-7.46
			C1466,156.54,1459.08,157.76,1456.55,162.44z"/>
	</g>
	<g>
		<path class="st3" d="M991.12,760.06c0,0,6.15,7.61,17.03,14.17c4,2.43,10.01-4.27,15.41-3.38c11.08,1.86,12.59,5.04,12.97-0.35
			c0.33-4.43,0.24-17.51,0.24-17.51S1015.71,767.26,991.12,760.06z"/>
		<path class="st18" d="M1008.15,774.23c4,2.43,8.62,4.4,14.02,5.29c11.08,1.86,13.99-3.63,14.36-9.02
			C1025.15,767.47,1012.1,768.22,1008.15,774.23z"/>
	</g>
	<path class="st3" d="M1020.13,751.29l-3.87-2.77c0.03-0.04,3.26-4.6,4.49-9.29c0.84-3.22-2.11-5.81-5.76-8.62
		c-0.93-0.71-1.76-1.37-2.38-1.95c-7.01-6.68-8.6-17.28-8.67-17.73l4.72-0.68c0.01,0.09,1.44,9.44,7.24,14.96
		c0.52,0.49,1.22,1.03,2,1.63c3.42,2.64,9.16,7.06,7.45,13.6C1023.9,745.99,1020.28,751.07,1020.13,751.29z"/>
	<path class="st3" d="M917.6,769.41c-0.15-0.3-3.96-7.55-11.11-7.01l-0.32-4.76c2.44-0.16,4.56,0.25,6.41,0.99
		c-2.75-4.24-6.72-8.42-12.07-9.55l0.99-4.66c14.6,3.08,20.29,22.45,20.52,23.27L917.6,769.41z"/>
</g>
</svg>
