<?xml version="1.0" encoding="utf-8"?>
<!-- Generator: Adobe Illustrator 27.7.0, SVG Export Plug-In . SVG Version: 6.00 Build 0)  -->
<svg version="1.1" id="Ebene_1" xmlns="http://www.w3.org/2000/svg" xmlns:xlink="http://www.w3.org/1999/xlink" x="0px" y="0px"
	 viewBox="0 0 1713.35 1282.9" style="enable-background:new 0 0 1713.35 1282.9;" xml:space="preserve">
<style type="text/css">
	.st0{fill:#FB6A55;}
	.st1{fill:#969696;}
	.st2{fill:#2B454E;}
	.st3{fill:#1A2E35;}
	.st4{fill:#FFABA1;}
	.st5{fill:#ECECEC;}
	.st6{fill:#DCDCDC;}
	.st7{fill:#A8A8A8;}
	.st8{fill:#4D6FB4;}
	.st9{fill:#375A64;}
	.st10{fill:#C8C8C8;}
	.st11{fill:#FFFFFF;}
	.st12{fill:#F7DFC4;}
	.st13{fill:#F2F2F2;}
	.st14{opacity:0.1;}
	.st15{opacity:0.3;fill:#1A2E35;}
	.st16{fill:#97BEDB;}
	.st17{fill:#771137;}
	.st18{fill:#FF9ABD;}
	.st19{fill:#F39C8C;}
	.st20{fill:#F4B3CC;}
	.st21{fill:#864240;}
	.st22{fill:#C26358;}
	.st23{fill:none;stroke:#1A2E35;stroke-miterlimit:10;}
	.st24{opacity:0.1;fill:#010000;}
	.st25{opacity:0.4;}
	.st26{opacity:0.2;}
	.st27{fill:#010000;}
	.st28{fill:#F4B85A;}
	.st29{fill:#FFC5C1;}
	.st30{fill:#BD5324;}
	.st31{fill:#D95000;}
	.st32{opacity:0.6;}
	.st33{clip-path:url(#SVGID_00000074440327218879843330000011633583827102675598_);}
	.st34{clip-path:url(#SVGID_00000103246620837189992780000015059808717623459242_);}
	.st35{fill:url(#SVGID_00000023960767119113352270000016715073635056013476_);}
	.st36{clip-path:url(#SVGID_00000043449965372501133690000014433371399801473159_);}
	.st37{clip-path:url(#SVGID_00000103950889635465243080000014650692835932159911_);}
	.st38{opacity:0.5;}
	.st39{fill:#334F7C;}
	.st40{clip-path:url(#SVGID_00000171696240685340769110000003487487601034824834_);}
	.st41{fill:none;stroke:#44555B;stroke-width:0.05;stroke-miterlimit:10;}
	.st42{fill:none;}
	.st43{clip-path:url(#SVGID_00000170972320363512245270000010590506042565403791_);}
	.st44{fill:#919191;}
	.st45{fill:#CCCCCC;}
	.st46{fill:#AFAFAF;}
	.st47{fill:#F4DFCE;}
	.st48{fill:#35271C;}
	.st49{fill:#DDC6B6;}
	.st50{clip-path:url(#SVGID_00000132808431845652944330000004622777636383667850_);}
	.st51{clip-path:url(#SVGID_00000049211916743164916480000008852464949735052729_);}
	.st52{clip-path:url(#SVGID_00000158735366957210732880000007939130064449407145_);}
	.st53{opacity:0.2;fill:#1A2E35;}
	.st54{fill:#D8BCA0;}
</style>
<g>
	<g>
		<path class="st21" d="M730.26,397.12c34.55,79,83.09,187.39,109.32,199.14c68.12,30.53,206.52,56.78,255.72,46.34
			c18.51-3.93,22.24-151.79,2.32-148.28c-36.81,6.48-185.27-4.54-196.28-10.21c-7.66-3.94-70.43-76.22-120.26-120.68
			C710.38,300.36,717.88,368.8,730.26,397.12z"/>
	</g>
	<g>
		<path class="st21" d="M1299.88,542.93c-1.04,2.95-2.83,4.61-5.16,5.38c9.68,8.88,15.28,18.39,10.22,26.89
			c-2.94,4.98-8.45,6.68-15.23,6.06c4.07,5.2,4.99,10.38,1,15.2c-7.02,8.45-31.25,2.92-54.65-5.23c15.15,8.13,26.3,17.4,20.33,25.25
			c-15.92,20.78-66.42-3.03-102.88-14.35c-10.82-3.37-24.61-6.56-34.87-6.35c-1.88,0.04-3.66,0.2-5.3,0.53
			c-4.79,0.88-8.19,2.98-9,6.87c-1.41,6.95,13.03,14.49,23.78,16.36c20.41,3.45,43.12,25.83,41.09,38.63
			c-2.94,18.76-48.69,4.62-65.85,3.65c-22.96-1.28-59.24-16.31-62.03-16.99c0,0-1.92-14.2-3.46-34.05
			c-3-37.85-4.65-96.17,10.43-115.18c0,0,74.88-23.69,150.47-23.06C1224.47,472.77,1309.05,518.3,1299.88,542.93z"/>
		<g>
			<path class="st3" d="M1151.93,560.91c15.7-1.06,28.04,0.84,42.85,6.47c18.8,7.14,27.31,14.79,43.93,24.47
				c0.44,0.26,0.06,0.94-0.38,0.69c-7.92-4.6-34.96-18.72-43.13-22.33c-14.98-6.61-26.93-9.63-43.27-9.03
				C1151.76,561.19,1151.76,560.92,1151.93,560.91z"/>
			<path class="st3" d="M1160.38,527.84c17.97,0.81,30.23,1.9,47.77,6.39c19.2,4.92,35.94,16.25,52.34,27.09
				c9.84,6.51,19.56,13.23,29.1,20.19c0.4,0.29,0.05,0.98-0.38,0.69c-16.69-11.26-33.72-22.03-51.06-32.24
				c-16.31-9.61-33.49-15.89-52.17-18.58c-10.53-1.51-14.99-2.53-25.59-3.23C1160.19,528.15,1160.18,527.83,1160.38,527.84z"/>
			<path class="st3" d="M1168.81,497.45c17.21-0.34,32.48-1.02,49.07,4.54c21.96,7.37,41.69,21.48,49.83,27.01
				c8.99,6.12,17.76,12.53,26.44,19.08c0.35,0.27-0.09,0.89-0.46,0.63c-19.65-14.16-40.31-27.16-61.61-38.66
				c-10.18-5.49-17.75-8.06-29.12-10.2c-11.24-2.11-22.77-2.13-34.15-2.29C1168.74,497.57,1168.74,497.46,1168.81,497.45z"/>
		</g>
	</g>
	<g>
		<path class="st8" d="M872.35,439l-81.02,107.82c0,0-63.69-133.96-71.3-178.64c-8.57-50.29,19.02-43.67,58.81-15.97
			C818.63,379.92,872.35,439,872.35,439z"/>
		<path class="st11" d="M761.1,377.74c-2.27,13.32-8.64,24.57-18.62,33.55c-2.34,2.11-4.76,4.07-7.26,5.95
			c-0.15-0.42-0.31-0.84-0.46-1.23c7.87-5.99,15.13-12.78,19.7-21.73c7.18-14.05,7.6-30.83,5.3-46.15c-0.46-2.99-1.04-5.99-1.8-8.98
			c0.5,0.23,1,0.5,1.5,0.81C762.52,352.25,763.17,365.46,761.1,377.74z M813.46,425.2c-0.73-10.29-4.99-23.23-15.59-27.22
			c-12.86-4.8-23.96,6.95-30.18,16.74c-7.22,11.29-12.75,23.53-19.54,35.09c0.19,0.42,0.35,0.84,0.58,1.31
			c7.33-12.36,13.05-25.76,21.04-37.74c4.11-6.18,9.64-12.59,16.97-14.82c6.68-2.07,13.48,0.23,18.01,5.45
			c9.06,10.48,8.83,26.57,6.33,39.35c-2.92,15.01-9.75,29.14-19.96,40.54c-6.03,6.72-13.17,12.32-21.04,16.62
			c0.12,0.35,0.27,0.65,0.42,1c14.36-7.95,26.34-20.08,33.94-35.13C810.78,453.91,814.46,439.29,813.46,425.2z M804.9,497.37
			c-3.8,4.15-6.53,9.75-6.1,15.51c0.42,5.26,3.46,9.83,7.72,12.82c0.15,0.12,0.31,0.19,0.46,0.31l0.73-1
			c-0.23-0.12-0.42-0.23-0.61-0.38c-5.57-3.88-8.33-10.52-6.57-17.16c1.8-6.83,7.33-12.55,13.67-15.43
			c6.49-2.96,13.4-3.38,20.42-2.8l0.61-0.81C824.14,487.43,812.81,488.66,804.9,497.37z M792.04,370.18
			c-0.54,3.34-1.08,7.37-3.65,9.79c-6.68,6.37-13.28-9.71-14.36-14.32c-1.27-5.53-1.19-11.33-0.35-16.93
			c-0.38-0.27-0.77-0.54-1.15-0.77c-0.35,2-0.54,4.03-0.65,6.1c-0.31,6.3,0.5,12.78,3.26,18.54c1.92,4.11,6.64,12.02,12.29,9.52
			c5.49-2.46,5.76-11.1,6.45-15.97c0.12-0.77,0.23-1.54,0.35-2.3c-0.35-0.27-0.73-0.58-1.08-0.84
			C792.77,365.38,792.43,367.8,792.04,370.18z M861.68,427.58c-6.33,1.04-12.9,1.61-19.12-0.31c-7.56-2.34-12.17-8.91-11.79-16.82
			c0.19-3.92,1.23-7.72,2.65-11.4c-0.35-0.31-0.65-0.61-1-0.96c-2.34,6.07-4.22,13.05-2.03,19.43c4.3,12.71,19.5,13.21,30.6,11.48
			c0.58-0.08,1.15-0.19,1.73-0.31C862.38,428.34,862.03,427.96,861.68,427.58z"/>
		<g>
			<path class="st3" d="M850,428.14c-12.18,12.33-43.48,54.47-48.73,61.38c-2.77,3.65-13.16,18.67-15.94,22.28
				c-0.36,0.46,0.43,0.93,0.78,0.47c5.32-6.89,11.36-13.25,16.75-20.12c5.51-7.03,38.78-48.58,47.67-63.59
				C850.72,428.24,850.27,427.86,850,428.14z"/>
		</g>
		<path class="st14" d="M843.43,477.49l-52.11,69.35c0,0-63.7-133.98-71.32-178.66c-4.09-24.11,0.12-35.14,9.99-37.06h0.04
			L843.43,477.49z"/>
	</g>
</g>
<g>
	<g>
		<g>
			<g>
				<path class="st21" d="M1199.9,1130.59c11.67-3.9,1.31-37.57-11.68-47.97c-4.13-3.3-19.44-11.09-38.63-20.35
					c-42.27-20.33-103.03-47.48-103.03-47.48l51.79-219.32l-210.98,1.15c0,0-57.61,205.99-57.26,218.79
					c0.02,0.79,0.03,1.58,0.05,2.37c1.81,58.13,4.68,105.72,9.47,108.71C852.42,1134.58,1188.16,1134.52,1199.9,1130.59z"/>
				<path class="st5" d="M1199.91,1130.57c-11.75,3.95-347.5,4.02-360.28-4.09c-4.77-2.99-7.66-50.56-9.47-108.7
					c0-0.78-0.04-1.6-0.04-2.39c-0.07-2.74,2.49-14.31,6.59-30.8h216.97l-7.12,30.19c0,0,60.78,27.17,103.04,47.46
					c19.19,9.26,34.5,17.05,38.63,20.37C1201.23,1093.01,1211.55,1126.69,1199.91,1130.57z"/>
				<g>
					<path class="st8" d="M1203.68,1132.47c-11.95,4.01-353.81,3.62-366.81-4.67c-4.99-3.06-7.84-52.88-9.55-113.17
						c-0.01-0.63-0.02-1.26-0.04-1.89l220.56-2.21l-0.09,3.74c0,0,130.79,58.68,144.13,69.3
						C1205.12,1094.14,1215.63,1128.51,1203.68,1132.47z"/>
					<g>
						<g>
							<path class="st3" d="M1199.83,1119.2c-57.63-1.48-290.2-2.02-347.27,0.9c-0.46,0.02-0.46,0.34,0,0.36
								c57.09,2.72,289.65,1.37,347.27-0.32C1201.05,1120.11,1201.05,1119.24,1199.83,1119.2z"/>
							<path class="st3" d="M1072.4,1011.18c-22.67-4.26-50.41-0.81-67.76,15.33c-0.67,0.63,0.23,1.57,0.96,1.34
								c22.38-7.03,43.28-11.53,66.7-13.81C1073.95,1013.88,1074.02,1011.48,1072.4,1011.18z"/>
							<path class="st3" d="M1088.75,1021.06c-22.67-4.26-50.41-0.81-67.76,15.33c-0.67,0.62,0.23,1.57,0.96,1.34
								c22.38-7.03,43.28-11.53,66.7-13.8C1090.31,1023.77,1090.38,1021.37,1088.75,1021.06z"/>
							<path class="st3" d="M1105.11,1030.94c-22.67-4.26-50.41-0.81-67.76,15.33c-0.67,0.62,0.23,1.57,0.96,1.34
								c22.38-7.03,43.28-11.53,66.7-13.8C1106.67,1033.65,1106.73,1031.25,1105.11,1030.94z"/>
							<g>
								<path class="st3" d="M1101.94,961.75c-8.9-12.28-25.5-6.78-34.97,1.16c-15.34,12.86-28.79,32.97-34.98,51.91
									c-0.15,0.47,0.16,0.75,0.53,0.82c0.06,1.73,1.61,3.55,3.55,2.84c18.73-6.91,39.62-11.98,55.67-24.44
									C1101.12,986.76,1110.36,973.37,1101.94,961.75z M1062.33,1002.18c-9.13,3.62-18.38,6.78-27.38,10.74
									c6.85-10.11,13.23-20.46,21.1-29.87c3.75-4.49,7.69-9.03,12.03-12.97c6.75-6.13,33.48-19.17,29.45,5.71
									C1095.32,989.51,1073.21,997.86,1062.33,1002.18z"/>
								<path class="st3" d="M974.35,1008.83c18.68,7.99,40.17,7.61,60.04,9.56c2.06,0.2,3.09-1.96,2.72-3.64
									c0.35-0.16,0.57-0.51,0.31-0.93c-10.79-16.75-28.88-32.8-46.98-41.37c-11.18-5.29-28.63-6.41-34.13,7.72
									C951.11,993.55,963.45,1004.17,974.35,1008.83z M964.13,992.65c-10.19-23.05,18.97-17.2,27.05-12.98
									c5.19,2.71,10.15,6.11,14.92,9.5c9.99,7.11,18.78,15.51,27.97,23.56c-9.7-1.56-19.45-2.27-29.21-3.46
									C993.25,1007.85,969.75,1005.36,964.13,992.65z"/>
							</g>
						</g>
					</g>
				</g>
			</g>
			<g>
				<path class="st2" d="M593.38,649.27c0,0-37.82,136.9,28.2,177.42c44.08,27.05,238.87-10.36,247.15-34.44
					c15.66-45.48,15.69-62.15,15.69-62.15L834.4,971.26l245.39,2.88c0,0,46.05-199.5,34.22-411.25
					c-4.37-78.29-109.61-101.98-182.82-63.04c-70.98,37.76-198.1,142.57-198.1,142.57L593.38,649.27z"/>
				<g>
					<path class="st3" d="M855.11,829.94c13.22-32.36,12.19-45.07,45.21-145.52c4.41-13.43,8.11-27.08,12.05-40.65
						c4.09-14.07,8.93-28.09,12.03-42.42c0.15-0.7,1.28-0.41,1.08,0.27c-3.81,12.42-6.28,25.24-9.57,37.8
						c-3.21,12.3-6.48,24.59-9.92,36.83c-1.48,5.29-3.04,10.55-4.55,15.83c0.67-1.1,1.33-2.18,1.95-3.26
						c2.88-4.95,5.78-9.89,8.78-14.77c6.19-10.06,13.68-19.51,19.1-30.01c0.33-0.64,1.34-0.07,0.97,0.54
						c-6.24,10.03-10.67,21.18-16.51,31.46c-2.83,4.99-5.8,9.87-8.85,14.74c-2.68,4.29-5.38,9.17-8.81,13.02
						c-4.51,15.51-14.18,52.86-19,68.27c-15.18,48.57-10.2,32.76-21.52,58.83C856.96,832.29,854.54,831.34,855.11,829.94z"/>
					<path class="st3" d="M966.88,931.41c-36.94-0.39-73.82-2.48-110.75-3.19c-0.7-0.01-0.81-1.1-0.09-1.1
						c36.81-0.21,73.58-1.65,110.4-1.21c36.95,0.44,73.8,2.26,110.73,3.5c0.94,0.03,1.09,1.49,0.12,1.49
						C1040.48,930.98,1003.7,931.8,966.88,931.41z"/>
					<path class="st3" d="M876.34,919.07c3.38-16.31,8.1-32.34,12.4-48.42c4.31-16.1,8.63-32.19,13.08-48.26
						c8.9-32.14,18.17-64.17,27.42-96.2c5.25-18.19,10.92-36.28,16.49-54.37c0.16-0.51,0.96-0.33,0.82,0.2
						c-16.46,64.61-34.22,128.89-53.06,192.85c-5.35,18.14-10.2,36.54-16.58,54.35C876.79,919.56,876.26,919.45,876.34,919.07z"/>
				</g>
				<path class="st3" d="M621.57,826.68c-66.01-40.51-28.2-177.41-28.2-177.41l117.75-5.75l160.29,140.86
					c-0.84,2.53-1.72,5.16-2.67,7.89C860.46,816.33,665.66,853.76,621.57,826.68z"/>
				<path class="st3" d="M1081.01,968.59c-0.77,3.65-1.23,5.54-1.23,5.54l-245.38-2.88l38.48-185.58L1081.01,968.59z"/>
			</g>
		</g>
	</g>
	<g>
		<g>
			<path class="st21" d="M90.8,1155.88c-2.2,12.1,32.29,19.24,47.67,12.87c4.88-2.03,19.09-11.69,36.44-24.06
				c38.17-27.25,91.24-67.42,91.24-67.42l180.31,10.9l100.61-185.45c0,0-165.83-9.58-177.22-15.44c-0.7-0.37-1.4-0.73-2.1-1.1
				c-51.82-26.42-94.91-46.82-99.83-44.06C254.66,849.43,93.01,1143.7,90.8,1155.88z"/>
			<path class="st5" d="M401.5,892.06l-94.87,187.68l-40.5-2.46c0,0-53.07,40.15-91.25,67.42c-17.35,12.34-31.52,22.01-36.42,24.06
				c-15.37,6.39-49.87-0.79-47.67-12.88c2.21-12.19,163.86-306.44,177.12-313.75c4.9-2.73,48.03,17.65,99.82,44.07
				c0.73,0.34,1.41,0.73,2.09,1.07C372.64,888.72,384.76,890.39,401.5,892.06z"/>
			<g>
				<path class="st8" d="M87.33,1158.29c2.24-12.4,167.24-311.81,180.76-319.21c5.09-2.9,50.12,18.6,103.78,46.14
					c0.56,0.29,1.11,0.59,1.67,0.88l-104.29,194.36l-3.24-1.88c0,0-114.42,86.36-130.15,92.93
					C120.23,1178,85.05,1170.67,87.33,1158.29z"/>
				<g>
					<g>
						<path class="st3" d="M100.81,1161.3c29.05-49.79,141.54-253.35,166.47-304.77c0.2-0.42-0.07-0.57-0.32-0.18
							c-29.87,48.72-140.7,253.18-166.98,304.49C99.43,1161.93,100.2,1162.35,100.81,1161.3z"/>
						<path class="st3" d="M256.86,1101.65c14.65-17.82,24.99-43.79,19.2-66.77c-0.22-0.89-1.48-0.56-1.64,0.2
							c-4.62,23-10.74,43.48-20.03,65.11C253.74,1101.71,255.81,1102.93,256.86,1101.65z"/>
						<path class="st3" d="M240.32,1111.22c14.65-17.82,24.99-43.79,19.2-66.77c-0.22-0.89-1.49-0.56-1.64,0.2
							c-4.62,23-10.74,43.48-20.03,65.11C237.2,1111.29,239.27,1112.5,240.32,1111.22z"/>
						<path class="st3" d="M223.78,1120.8c14.65-17.82,24.99-43.79,19.2-66.77c-0.22-0.89-1.48-0.56-1.64,0.2
							c-4.62,23-10.74,43.48-20.03,65.1C220.66,1120.86,222.73,1122.07,223.78,1120.8z"/>
						<g>
							<path class="st3" d="M285.95,1151.35c15.05-1.88,18.22-19.08,15.83-31.21c-3.88-19.64-15.03-41.11-28.64-55.66
								c-0.33-0.36-0.73-0.22-0.97,0.07c-1.54-0.77-3.89-0.3-4.2,1.75c-2.96,19.75-8.58,40.49-5.4,60.56
								C264.42,1138.58,271.71,1153.13,285.95,1151.35z M269.59,1097.16c1.22-9.75,2.92-19.37,3.78-29.17
								c5.56,10.87,11.55,21.45,16.01,32.88c2.13,5.45,4.21,11.09,5.57,16.79c2.12,8.87,0.67,38.57-19.19,23.06
								C264.81,1132.17,268.13,1108.78,269.59,1097.16z"/>
							<path class="st3" d="M306.14,1016.86c-16,12.53-26.02,31.54-37.3,48.02c-1.17,1.71,0.23,3.65,1.88,4.14
								c-0.02,0.38,0.17,0.75,0.66,0.72c19.88-1.39,42.66-9.51,58.88-21.25c10.02-7.25,19.41-22,9.67-33.63
								C330.73,1003.85,315.48,1009.55,306.14,1016.86z M325.24,1015.7c25.11,2.17,5.94,24.91-1.66,29.96
								c-4.88,3.24-10.25,5.96-15.52,8.5c-11.05,5.33-22.64,8.99-34.11,13.16c6.04-7.75,11.36-15.96,17.1-23.93
								C297.9,1033.89,311.4,1014.5,325.24,1015.7z"/>
						</g>
					</g>
				</g>
			</g>
		</g>
		<g>
			<path class="st2" d="M748.62,615.77c0,0,6.25,56.93,5.68,100.5c0,0,233.1,122.16,243.73,238.28
				c3.77,41.13-1.72,118.18-82.36,153.3c-90.11,39.24-588.09,12.22-588.09,12.22l62.21-229.28l219.64,0.09
				c0,0-154.98,24.65-171.82-78.63c-15.65-95.99,43.31-196.49,43.31-196.49H748.62z"/>
			<path class="st3" d="M379.01,1108.85c5.49-26.41,10.8-52.96,16.93-79.23c6.14-26.34,12.67-52.57,19.61-78.69
				c1.96-7.38,3.98-14.73,5.97-22.09c0.95-3.51,1.9-7.02,2.93-10.5c1.03-3.52,1.83-7.17,3.21-10.54c0.15-0.38,0.57-0.16,0.54,0.2
				c-0.63,6.72-2.52,13.67-3.95,20.27c-1.39,6.37-2.71,12.76-4.11,19.13c-2.88,13.1-5.8,26.19-8.8,39.26
				c-6.02,26.21-12.7,52.18-19.51,78.16c-3.87,14.76-7.76,29.51-11.68,44.25C379.92,1109.91,378.83,1109.72,379.01,1108.85z"/>
			<path class="st3" d="M533.6,890.86c17.8-1.27,35.62-1.85,53.46-2.21c17.83-0.36,35.67-0.17,53.51,0.14
				c17.83,0.58,35.67,1.28,53.46,2.88c17.77,1.62,35.58,3.59,52.97,7.65l-13.26-1.72l-13.29-1.27c-8.87-0.76-17.73-1.49-26.62-1.89
				c-17.76-1.02-35.55-1.75-53.35-2.04c-17.79-0.61-35.6-0.75-53.41-0.98L533.6,890.86z"/>
			<path class="st3" d="M529.71,634.57c-7.98,20.43-14.87,41.27-20.71,62.37c-5.78,21.11-10.4,42.58-12.69,64.27
				c-1.09,10.84-1.53,21.76-0.68,32.55c0.87,10.75,3,21.53,7.91,30.94c2.4,4.71,5.66,8.91,9.5,12.42c3.98,3.51,8.42,6.53,13.07,9.18
				c9.38,5.21,19.56,9.01,29.96,12.05c20.87,5.99,42.58,9.09,64.27,11.67c21.73,2.52,43.58,4.29,65.44,6.52
				c21.84,2.24,43.77,4.86,65.32,10.16c10.7,2.67,21.53,6.11,31.38,11.57c9.84,5.41,18.88,11.85,27.3,19.34l4.93,4.39l-6.66-0.09
				l-177.6-2.4l-88.8-0.71c-29.6-0.11-59.2-0.17-88.8,0.63c29.56-1.72,59.19-2.18,88.79-2.71c29.61-0.49,59.22-0.59,88.83-0.67
				l88.83,0.06l88.82,0.83l-1.73,4.3c-7.98-7.05-16.94-13.4-26.34-18.5c-9.38-5.17-19.67-8.38-30.22-10.97
				c-21.1-5.07-42.88-7.56-64.62-9.97c-21.77-2.33-43.64-4.2-65.47-6.84c-21.81-2.7-43.69-5.92-65-12.14
				c-10.62-3.14-21.11-7.11-30.82-12.74c-4.83-2.85-9.46-6.09-13.66-9.9c-4.21-3.93-7.7-8.6-10.21-13.69
				c-5.12-10.19-7.13-21.43-7.88-32.47c-0.72-11.09-0.11-22.17,1.14-33.13c2.53-21.93,7.8-43.37,14.04-64.41
				C513.68,675.44,521.06,654.73,529.71,634.57z"/>
			<path class="st3" d="M723.23,613.36c0-0.49,0.81-0.54,0.87-0.05c0.92,7.94,3.69,53.3,5.07,70.38c0.49,6.09,0.16,16.94,9.03,16.93
				c7.03-0.01,10.52-7.67,11.3-13.62c0.95-7.26-2.94-59.9-3.84-77.43c-0.03-0.5,0.78-0.52,0.87-0.05
				c3.23,17.56,9.49,73.4,7.63,81.23c-1.46,6.14-4.61,11.97-10.86,14.03c-0.13,0.04,1.01,8.2-0.3,20.69
				c-0.06,0.57-1.84,0.72-1.97,0.27l-0.04,0.01c0.31-4.1-1.87-20.01-1.81-20.1c-4.61-0.01-8.21-1.04-11.3-5.15
				C721.72,692.3,723.07,633.57,723.23,613.36z"/>
			<path class="st3" d="M698.05,747.87c6.35-4.38,12.93-8.37,19.54-12.28c6.6-3.95,13.35-7.62,20.12-11.25
				c6.82-3.55,13.65-7.07,20.66-10.25c6.99-3.21,14.03-6.33,21.31-8.89c-3.3,2.01-6.69,3.81-9.99,5.78l-10.06,5.59
				c-6.69,3.76-13.46,7.35-20.23,10.97c-6.81,3.54-13.59,7.12-20.49,10.49l-10.35,5.06C705.05,744.67,701.6,746.36,698.05,747.87z"
				/>
			<path class="st3" d="M532.61,711.41c12.37-0.05,50.92,2.21,69.3-13.32c14.87-12.56,21.41-55.44,23.97-67.21
				c0.13-0.58,0.97-0.39,0.99,0.16c0.4,13.19-1.49,26.64-4.99,39.36c-2.99,10.86-7.01,22.99-15.78,30.6
				c-9.23,8.01-21.77,10.82-33.59,12.28c-13.34,1.65-26.65,1.26-39.93-0.55C531.76,712.62,531.75,711.42,532.61,711.41z"/>
		</g>
	</g>
</g>
<g>
	<path class="st8" d="M782.93,569.02l-18.65,94.55l-302.82-31.03c0,0,110.71-229.56,204.82-301.21
		c37.43-28.5,68.15-15.77,89.84,11.22c4.95,6.16,60.31,123.01,61.88,162.9C819.27,538.19,782.93,569.02,782.93,569.02z"/>
	<path class="st11" d="M490.01,577.11c0.42,7.95,0.77,15.86-0.23,23.76c-1.61,12.71-7.95,28.41-21.96,31.33
		c-2.19,0.46-4.3,0.54-6.33,0.27c0.04-0.12,0.15-0.31,0.27-0.58c4.22,0.54,8.64-0.35,12.98-3.26c14.21-9.56,15.4-29.22,14.9-44.61
		c-0.08-1.88-0.15-3.8-0.27-5.68C489.55,577.96,489.78,577.54,490.01,577.11z M524.29,516.03c-0.19,0.35-0.38,0.65-0.58,0.96
		c11.9,1.96,19.93,14.17,21.08,25.99c1.65,16.55-8.22,31.75-16.74,45.07c-8.14,12.63-16.51,25.91-17.05,41.39
		c-0.12,2.73,0.04,5.49,0.38,8.22l1.19,0.12c-0.58-4.3-0.58-8.68,0-12.94c2.11-15.97,12.29-29.22,20.5-42.54
		c7.68-12.4,15.13-27.1,12.4-42.12C543.49,529.08,535.85,518.07,524.29,516.03z M609.22,572.58c-7.6-9.14-20.58-14.47-31.17-6.87
		c-8.87,6.41-10.86,18.54-10.29,28.76c0.88,14.97,8.64,28.45,10.25,43.31c0.23,2.23,0.31,4.53,0.19,6.76l1.31,0.12
		c0.81-13.59-5.72-26.76-8.87-39.74c-2.73-11.13-3.19-25.65,4.57-34.98c4.22-5.03,10.86-7.64,17.39-6.57
		c7.1,1.15,13.17,6.14,17.31,11.86c10.44,14.4,7.06,32.52,5.11,48.99c-0.96,8.06-1.46,16.2-0.23,24.03l1.11,0.12
		c-1.8-11.1,0.08-22.54,1.38-33.86c0.92-8.14,1.54-16.43,0.12-24.57C616.28,583.56,613.32,577.54,609.22,572.58z M655.98,570.86
		c-7.91-9.75-18.2-17.31-30.06-21.5c-14.13-4.95-29.45-5.61-43.34-11.29c-7.03-2.84-13.28-7.18-18.12-13.01
		c-4.91-5.95-8.25-13.02-10.6-20.31c-3.03-9.44-4.91-19.93-4.34-30.1c-0.42,0.61-0.81,1.23-1.19,1.88
		c-0.19,6.14,0.5,12.36,1.69,18.27c2.73,13.82,8.48,28.06,19.7,37.16c11.17,9.06,25.76,11.33,39.39,14.13
		c7.29,1.54,14.59,3.22,21.38,6.22c6.07,2.69,11.63,6.33,16.59,10.71c19.7,17.51,28.91,45.38,27.18,71.29
		c-0.46,6.49-1.61,13.36-3.99,19.62l1.11,0.12c1.19-3.11,2.03-6.33,2.65-9.56C678.78,619.15,672.3,590.97,655.98,570.86z
		 M638.32,459.17c-3.49-6.18-7.91-11.71-12.48-17.12c-9.1-10.67-19.54-21.38-23.15-35.36c-0.61-2.38-1-4.84-1.08-7.29
		c-0.35,0.38-0.65,0.81-0.96,1.23v0.19c1.15,13.25,9.29,24.23,17.58,34.05c4.65,5.49,9.48,10.83,13.74,16.62
		c4.84,6.6,8.68,13.82,11.17,21.61c4.18,13.01,6.57,31.37-2.46,43.04c-4.45,5.72-11.79,7.91-18.51,5.03
		c-6.8-2.96-11.75-9.64-13.59-16.7c-4.22-15.89,2.57-32.33-1-48.37c-1.38-6.26-4.38-12.25-9.56-16.2
		c-4.34-3.26-9.67-4.76-15.09-4.72c-2.8,0-5.57,0.42-8.22,1.15c-0.35,0.5-0.69,1-1.04,1.5c3.11-1.04,6.45-1.57,9.91-1.54
		c6.83,0.08,13.32,2.84,17.58,8.29c4.61,5.91,6.07,13.59,6.26,20.92c0.38,15.28-5.57,32.83,3.11,46.8
		c3.22,5.18,8.29,9.71,14.36,11.06c5.61,1.27,11.33-0.65,15.28-4.76c9.06-9.41,8.6-24.99,6.37-36.86
		C645.04,473.84,642.27,466.2,638.32,459.17z M689.11,394.52c-1.42-17.43-7.26-34.25-7.29-51.83c-0.04-7.72,1.38-15.93,4.65-23.15
		c-0.54,0.19-1.04,0.42-1.57,0.65c-2.42,5.72-3.72,11.9-4.11,17.97c-1.15,17.51,4.53,34.44,6.64,51.6c1,7.99,1.27,16.2-0.15,24.15
		c-0.69,3.92-1.8,7.79-3.46,11.44c-1.46,3.3-3.61,8.1-7.22,9.52c-3.88,1.5-7.41-1.57-9.44-4.61c-2.34-3.53-3.07-7.52-3.38-11.67
		c-0.65-8.98,0.84-17.93,1-26.91c0.23-12.44-3.15-27.26-15.74-32.71c-3.53-1.54-7.29-2.23-11.02-2.15
		c-0.35,0.35-0.69,0.69-1.04,1.07c6.26-0.38,12.44,1.27,17.39,5.76c12.09,10.94,9.18,29.45,8.29,43.84
		c-0.42,7.45-0.92,16.16,3.11,22.81c2.57,4.18,7.68,8.18,12.59,4.99c2.73-1.77,4.45-5.14,5.84-7.99c1.61-3.19,2.76-6.57,3.61-10.06
		C689.53,409.84,689.73,402.12,689.11,394.52z M719.56,481.25c12.55-5.22,21.15-17.01,28.06-28.26
		c7.87-12.9,13.74-27.03,22.15-39.62c3.46-5.22,7.95-10.6,13.67-13.48c-0.12-0.23-0.19-0.46-0.31-0.69
		c-6.41,3.3-11.79,9.75-15.43,15.51c-8.1,12.67-14.09,26.61-22.11,39.35c-7.45,11.79-17.08,24.11-31.21,27.68
		c-6.03,1.54-13.09,1.31-17.74-3.3c-5.49-5.41-5.3-13.86-3.22-20.77c3.3-10.98,12.09-18.97,21-25.65
		c9.33-6.95,19.39-12.94,28.06-20.73c9.98-8.98,16.36-20.23,18.62-33.55c1.38-8.06,1.54-16.55,0.61-24.92
		c-0.65-1.31-1.23-2.46-1.8-3.53c2.11,15.01,1.54,31.29-5.45,45c-5.8,11.33-15.93,19.23-26.11,26.41c-9.25,6.49-19.12,12.59-26.8,21
		c-7.29,7.91-13.09,19.7-9.87,30.64C695.37,484.86,709.31,485.51,719.56,481.25z M806.59,458.71c-3.61,9.21-8.83,17.78-15.47,25.19
		c-10.4,11.59-24.11,19.85-39.08,24.03c-7.37,2.03-15.01,3.07-22.65,3.07c-8.52-0.04-16.66-2.03-25.03-3.19
		c-7.14-1-14.17-0.61-20.73,2.5c-5.8,2.76-10.79,7.29-14.01,12.82c-3.65,6.26-5.14,14.17-2.61,21.04
		c1.84,5.07,5.76,9.02,10.56,11.36c11.06,5.41,23.84,3.03,34.02-3.11c6.41-3.88,12.02-8.91,17.55-13.94
		c5.87-5.34,11.9-11.82,19.43-14.74c13.44-5.22,24.99,7.14,26.64,19.73c1.88,14.55-9.75,26.26-21.61,32.56
		c-12.29,6.53-26.34,7.68-39.01,13.17c-11.1,4.84-19.66,14.01-19.58,26.72c0.23,26.64,32.33,49.56,57.24,38.43
		c6.68-2.99,12.13-7.91,16.59-13.71l0.5-2.61c-6.91,9.48-16.39,17.24-28.56,17.97c-15.28,0.92-30.52-8.18-38.55-20.89
		c-7.22-11.44-9.02-26.76,1.04-37.16c9.44-9.75,24.26-11.67,36.7-15.32c12.32-3.61,24.96-10.1,31.98-21.31
		c6.3-10.02,5.87-22.5-1.54-31.83c-3.15-3.95-7.52-7.1-12.55-7.95c-6.72-1.11-12.9,2.15-18.04,6.18
		c-12.02,9.33-21.92,22.08-36.55,27.57c-10.94,4.11-26.72,2.73-33.52-8.02c-9.14-14.55,3.76-32.63,17.93-37.36
		c8.33-2.76,16.85-1.04,25.26,0.54c7.37,1.34,14.74,2,22.27,1.5c29.33-1.96,55.98-19.27,69.26-45.57c0.96-1.92,1.88-3.92,2.73-5.91
		C806.98,459.86,806.78,459.29,806.59,458.71z M814.19,492.04c0.61-0.27,1.19-0.54,1.8-0.77c-0.08-0.35-0.15-0.73-0.23-1.07
		c-3.99,1.42-7.72,3.69-10.87,7.18c-3.8,4.15-6.53,9.75-6.1,15.51c0.42,5.26,3.46,9.83,7.72,12.82c2.07,1.42,4.26,2.53,6.57,3.42
		c0.15-0.38,0.35-0.77,0.5-1.15c-2.3-0.84-4.49-1.92-6.49-3.34c-5.57-3.88-8.33-10.52-6.57-17.16
		C802.33,500.64,807.86,494.92,814.19,492.04z"/>
	<g>
		<g>
			<g>
				<path class="st3" d="M742.61,546.61c-15.19-0.91-30.56-1.16-45.94,0.82c-7.65,0.98-15.25,2.41-22.88,4.04
					c-3.81,0.81-7.6,1.47-11.4,2.09c-3.91,0.64-8.07,1.15-11.91,0.56c-0.35-0.05-0.47,0.61-0.13,0.69c3.68,0.85,7.2,1.65,10.99,1.86
					c3.6,0.2,7.29-0.09,10.93-0.52c7.76-0.9,15.52-2.26,23.28-3.27c15.66-2.03,31.31-4.05,46.93-4.66
					C743.2,548.2,743.33,546.65,742.61,546.61z"/>
				<path class="st3" d="M775.92,570.73c-11.85-3.96-24.09-7.25-36.37-9.44c-6.18-1.1-12.39-1.73-18.67-2.15
					c-3-0.2-6-0.33-9.01-0.42c-3.31-0.09-6.68,0.38-9.99,0.22c-0.34-0.02-0.48,0.66-0.13,0.69c3.1,0.27,6.13,1.19,9.2,1.69
					c3.08,0.5,6.17,0.97,9.25,1.47c6.17,1,12.32,2.08,18.51,3.01c12.38,1.85,24.68,3.84,36.96,6.24
					C776.35,572.17,776.54,570.94,775.92,570.73z"/>
			</g>
		</g>
	</g>
</g>
<g>
	<g>
		<path class="st21" d="M638.61,408.36c-15.73,86.85-53.72,266.21-18.84,321.55c45.77,72.61,204.44,125.86,245.96,141.52
			c18.09,6.82,70.54-110.76,61.01-129.1c-9.54-18.34-173.68-91.38-184.62-102.3c-10.95-10.92-21.16-154.25-33.58-228.14
			C692.87,318.69,651.93,334.85,638.61,408.36z"/>
		<g>
			<path class="st21" d="M939.64,759.77c-7.39-6.53-4.01-10.45,13.48-9.45c17.71,0.97,85.91,19.81,90.46-4.61
				c4.6-24.5-92.36-49.57-121.63-49c-29.27,0.5-76.41,11.74-76.41,11.74C863.42,717.12,904.78,742.3,939.64,759.77z"/>
			<path class="st21" d="M796.48,846.31c51.25,22.59,113.68,53.84,176.45,46.47c12.31-1.44,18.67-8.45,18.67-8.45
				c28.19-2.8,35.33-16.95,35.33-16.95c25.46-10.65,30.77-26.13,30.77-26.13s33.06-3.65,34.17-24
				c1.32-22.82-45.37-13.22-74.27-23.65c-66.21-23.89-153.65-76.37-172.06-85.16L796.48,846.31z"/>
			<g>
				<path class="st3" d="M930.62,817.34c19.63,6.64,38.73,13.68,59.16,17.63c22.41,4.33,44.7,4.75,67.38,5.73
					c0.71,0.03,0.74,1.02,0.04,1.1c-41.34,4.72-89.73-5.03-126.89-23.57C929.4,817.78,929.63,817,930.62,817.34z"/>
				<path class="st3" d="M910.39,855.21c19.46,5.4,53.71,14.68,116.51,11.51c0.2-0.01,0.29,0.33,0.06,0.38
					c-40.5,7.49-78.53,3.23-116.83-10.96C908.95,855.69,909.1,854.85,910.39,855.21z"/>
				<path class="st3" d="M899.9,875.76c33.43,7.93,55.51,8.7,91.55,8.43c0.2,0,0.26,0.35,0.04,0.38c-40.93,4.6-56.3,1.63-92.03-7.7
					C898.24,876.55,898.6,875.45,899.9,875.76z"/>
			</g>
		</g>
	</g>
	<g>
		<path class="st8" d="M729.66,513.02l-129.2,38.71c0,0,28.22-145.62,48.61-186.1c22.94-45.56,41.22-23.87,56.81,22.05
			C721.48,433.59,729.66,513.02,729.66,513.02z"/>
		<path class="st11" d="M602.08,543.56c5.03,1.04,10.06,2,15.01,3.19l-2.11,0.65c-1.96-0.46-3.92-0.88-5.87-1.31
			c-2.38-0.5-4.8-0.96-7.22-1.46C601.92,544.29,602,543.94,602.08,543.56z M638.32,459.17c-3.49-6.18-7.91-11.71-12.48-17.12
			l-0.81-0.92c-0.12,0.42-0.23,0.84-0.35,1.27c2.53,2.96,4.99,5.95,7.29,9.1c4.84,6.6,8.68,13.82,11.17,21.61
			c4.18,13.01,6.57,31.37-2.46,43.04c-4.45,5.72-11.79,7.91-18.51,5.03c-5.84-2.53-10.29-7.79-12.59-13.71
			c-0.15,0.73-0.31,1.5-0.46,2.23c0.42,0.88,0.88,1.77,1.42,2.61c3.22,5.18,8.29,9.71,14.36,11.06c5.61,1.27,11.33-0.65,15.28-4.76
			c9.06-9.41,8.6-24.99,6.37-36.86C645.04,473.84,642.27,466.2,638.32,459.17z M689.11,394.52c-1.38-17.2-7.1-33.79-7.29-51.1
			c-0.38-0.35-0.81-0.61-1.19-0.81c-0.04,15.93,4.88,31.44,6.8,47.15c1,7.99,1.27,16.2-0.15,24.15c-0.69,3.92-1.8,7.79-3.46,11.44
			c-1.46,3.3-3.61,8.1-7.22,9.52c-3.88,1.5-7.41-1.57-9.44-4.61c-2.34-3.53-3.07-7.52-3.38-11.67c-0.65-8.98,0.84-17.93,1-26.91
			c0.23-11.48-2.65-24.95-12.94-31.21c-0.19,0.31-0.35,0.61-0.5,0.92c1.04,0.65,2.07,1.38,3.03,2.27
			c12.09,10.94,9.18,29.45,8.29,43.84c-0.42,7.45-0.92,16.16,3.11,22.81c2.57,4.18,7.68,8.18,12.59,4.99
			c2.73-1.77,4.45-5.14,5.84-7.99c1.61-3.19,2.76-6.57,3.61-10.06C689.53,409.84,689.73,402.12,689.11,394.52z M719.56,481.25
			c2-0.84,3.88-1.8,5.68-2.96c-0.08-0.42-0.12-0.84-0.19-1.27c-3.26,2.11-6.8,3.76-10.67,4.72c-6.03,1.54-13.09,1.31-17.74-3.3
			c-5.49-5.41-5.3-13.86-3.22-20.77c3.3-10.98,12.09-18.97,21-25.65c0.81-0.61,1.65-1.23,2.5-1.8c-0.08-0.46-0.15-0.92-0.27-1.34
			c-5.41,3.8-10.63,7.95-15.09,12.82c-7.29,7.91-13.09,19.7-9.87,30.64C695.37,484.86,709.31,485.51,719.56,481.25z M729.42,511
			h-0.04c-8.52-0.04-16.66-2.03-25.03-3.19c-7.14-1-14.17-0.61-20.73,2.5c-5.8,2.76-10.79,7.29-14.01,12.82
			c-1.61,2.73-2.8,5.76-3.38,8.91l1.04-0.31c2.3-9.83,11.1-18.74,20.39-21.81c8.33-2.76,16.85-1.04,25.26,0.54
			c5.53,1,11.06,1.61,16.66,1.65C729.54,511.85,729.5,511.46,729.42,511z"/>
		<g>
			<path class="st3" d="M718.11,491.02c-17.12,2.7-67.32,18.04-75.64,20.49c-4.39,1.29-21.67,7.22-26.05,8.47
				c-0.56,0.16-0.21,1,0.35,0.84c8.37-2.39,17.01-3.92,25.42-6.26c8.6-2.39,60.04-16.09,76.1-22.89
				C718.64,491.52,718.5,490.96,718.11,491.02z"/>
			<path class="st3" d="M630.46,422.29c0.12-0.62-0.76-0.75-0.94-0.18c-3.79,12.03-7.26,24.15-10.55,36.33
				c0.14-6.61,1.08-13.09,2.42-19.64c0.06-0.29-0.37-0.36-0.45-0.08c-2.01,7.3-2.7,15.07-2.76,22.68
				c-2.27,8.49-4.46,17.01-6.55,25.54c-5.32,21.72-10.91,43.43-14.97,65.42c-0.22,1.17,0.93,2.09,2.04,1.72
				c4.44-1.49,8.82-3.09,13.16-4.88c0.45-0.19,0.34-0.97-0.19-0.88c-3.83,0.64-7.61,1.48-11.39,2.34
				c5.7-20.84,10.33-41.97,15.43-62.96C620.98,465.99,626.06,444.21,630.46,422.29z"/>
			<path class="st3" d="M723.87,455.42c-0.27-7.11-0.55-14.23-1.06-21.33c-0.01-0.15-0.23-0.13-0.23,0.02
				c-0.01,5.24,0.11,10.47,0.26,15.71c-1.95-10.27-4.09-20.5-6.69-30.57c-0.04-0.15-0.28-0.09-0.26,0.06
				c1.66,15.73,4.18,31.36,6.21,47.05c1.99,15.39,4.24,30.73,6.51,46.09c-2.8,1.34-5.63,2.61-8.48,3.85
				c-0.55,0.24-0.25,0.99,0.31,0.85c3.3-0.83,6.6-1.64,9.93-2.31c0.79-0.16,1.46-0.73,1.37-1.62
				C729.89,493.95,727.31,474.59,723.87,455.42z"/>
		</g>
	</g>
</g>
<g>
	<g>
		<path class="st1" d="M1409.61,970.04c-12.32-21.28-101.65-91.23-136.66-71c-35,20.23-51.39,121.58,15.23,199.31
			c0,0-33.69,4.37-40.5,8.11c-6.81,3.73-15.65,18-13.03,21.97c2.63,3.97,28.56,12.32,35.27,13.18c6.72,0.86,88.99-9.74,95.2-12.08
			c6.21-2.34-0.88-11.11-0.88-11.11s61.45,2.59,78.46-10.92C1459.72,1093.98,1428.46,1002.62,1409.61,970.04z"/>
		<path class="st14" d="M1409.61,970.04c-12.32-21.28-101.65-91.23-136.66-71c-35,20.23-51.39,121.58,15.23,199.31
			c0,0-33.69,4.37-40.5,8.11c-6.81,3.73-15.65,18-13.03,21.97c2.63,3.97,28.56,12.32,35.27,13.18c6.72,0.86,88.99-9.74,95.2-12.08
			c6.21-2.34-0.88-11.11-0.88-11.11s61.45,2.59,78.46-10.92C1459.72,1093.98,1428.46,1002.62,1409.61,970.04z"/>
		<g>
			<path class="st3" d="M1253.68,1109.57c-2.11,1.09-4.38,1.84-6.12,3.51c-1.78,1.72-3.27,3.8-4.28,6.01
				c-1.13,2.49-1.87,5.19-2.05,7.91c-0.14,2.18-0.31,4.86,1.1,6.72c0.3,0.39,1,0.03,0.87-0.42c-0.63-2.13,2.58-11,3.47-13.1
				c0.79-1.86,1.63-3.62,2.81-5.28c1.23-1.73,2.48-3.82,4.47-4.85C1254.29,1109.91,1254.02,1109.4,1253.68,1109.57z"/>
			<path class="st3" d="M1271.6,1114.04c-2.49,1.02-4.83,1.93-6.95,3.64c-2.09,1.68-3.78,3.79-5,6.18
				c-2.31,4.52-3.37,10.93,0.08,15.18c0.17,0.21,0.58,0.03,0.49-0.25c-0.78-2.33-0.44-5.04,0.13-7.4c0.53-2.2,1.23-4.43,2.24-6.46
				c0.99-1.98,2.25-3.89,3.68-5.59c1.53-1.83,3.41-3.75,5.59-4.77C1272.22,1114.4,1271.95,1113.89,1271.6,1114.04z"/>
		</g>
	</g>
	<path class="st1" d="M1496.28,1072.15c11.14-8.44,67.96-4.49,103.56-42.03c35.6-37.54,29.88-77.44,29.88-77.44
		s25.76,51.35-10.5,105.25s-85.33,56.24-85.33,56.24L1496.28,1072.15z"/>
	<g>
		<path class="st1" d="M1241.77,742.28c-11.22,6.9-83.54,69.46-87.85,77.28c-4.3,7.82-19.62,30.22-25.39,30.28
			c-5.76,0.06-31.78-57.92-38.85-63.37c-7.07-5.45-45.44-9.32-50.36-6.82c-4.92,2.51-21.7,8.97-19.87,16.17
			c1.83,7.2,39.9,20.69,41.97,25.87c2.07,5.17,12.47,64.21,21.48,71.28c9,7.07,56,28.59,66.63,29.02
			c10.63,0.42,120.69-35,123.74-42.97C1276.31,871.03,1246.89,739.13,1241.77,742.28z"/>
		<path class="st14" d="M1241.77,742.28c-11.22,6.9-83.54,69.46-87.85,77.28c-4.3,7.82-19.62,30.22-25.39,30.28
			c-5.76,0.06-31.78-57.92-38.85-63.37c-7.07-5.45-45.44-9.32-50.36-6.82c-4.92,2.51-21.7,8.97-19.87,16.17
			c1.83,7.2,39.9,20.69,41.97,25.87c2.07,5.17,12.47,64.21,21.48,71.28c9,7.07,56,28.59,66.63,29.02
			c10.63,0.42,120.69-35,123.74-42.97C1276.31,871.03,1246.89,739.13,1241.77,742.28z"/>
		<g>
			<path class="st3" d="M1044.23,789.69c-3.72,0.54-7.59,1.46-10.79,3.53c-3.17,2.05-6.06,5.02-7.12,8.73
				c-0.16,0.57,0.54,1,0.98,0.61c5.16-4.71,10.03-10.43,17.06-12.29C1044.74,790.17,1044.6,789.64,1044.23,789.69z"/>
			<path class="st3" d="M1055.16,796.44c-3.7,0.57-7.35,1.58-10.42,3.79c-3.04,2.2-5.33,5.12-6.75,8.59
				c-0.21,0.51,0.54,0.93,0.9,0.56c2.41-2.45,5.02-4.76,7.76-6.84c2.76-2.09,5.49-4.19,8.71-5.55
				C1055.7,796.86,1055.47,796.39,1055.16,796.44z"/>
		</g>
	</g>
	<g>
		<g>
			<path class="st1" d="M1207.16,495.61c-20.08,14.27-53.91,45.95-68.63,73.56c-13.63,25.57-32,69.87,2.65,86.82
				c37.17,18.18,71.88-6.73,83.32-43.91c11.44-37.18,12.49-85.39,12.49-85.39"/>
			<path class="st14" d="M1207.16,495.61c-20.08,14.27-53.91,45.95-68.63,73.56c-13.63,25.57-32,69.87,2.65,86.82
				c37.17,18.18,71.88-6.73,83.32-43.91c11.44-37.18,12.49-85.39,12.49-85.39"/>
		</g>
		<g>
			<path class="st1" d="M1540.58,1119.2c-7.25,17.8-134.97,6.89-154.54,0.33c-10.53-3.47-37.4-55.05-64.37-102.6
				c-23.44-41.11-48.07-84.4-65.62-105.36c-17.08-20.34-46.92-35.31-54.3-73.84c-0.11-37.28,17.54-130.48,15.41-132.1
				c-2.44-1.91-73.71-9.8-97.46-16.69c-23.73-6.96-52.25-76.6-47.12-87.61c5.36-11.41,79.48-13.59,89.45-21.31
				c9.91-7.81,28.77-71.69,48.65-87.23c19.95-15.52,89.41-2.85,126.78,20.11c25.41,15.56,58.34,179.73,74.28,215.98
				c0,0-0.01,0.07,0.04,0.16c1.4,1.92,3.38,4.63,5.69,7.92c20.86,29.21,74.44,104.02,103.64,143.48
				c11.99,16.11,18.3,60.97,20.94,107.1C1545.32,1044.05,1544.64,1109.39,1540.58,1119.2z"/>
			<path class="st14" d="M1259.14,822.77c-2.1,2.66-4.14,5.38-6.19,8.09c0.57-3.29,0.72-6.67,0.59-9.86
				c-0.14-3.48-0.68-6.94-1.32-10.36c-0.68-3.65-1.88-7.1-2.8-10.66c-0.2-0.77-1.34-0.7-1.53,0.04c-1.2,4.72-4.47,9.26-7.41,13.07
				c-1.57,2.04-3.32,3.91-5.19,5.65c3.35-11.06,5.59-22.42,6.1-34.01c0.29-6.75,0.05-13.48-0.94-20.17
				c-0.96-6.51-2.31-13.07-5.24-19.01c-0.15-0.3-0.69-0.15-0.64,0.19c0.95,6.45,2.22,12.81,2.58,19.34
				c0.37,6.57,0.21,13.21-0.4,19.76c-1.25,13.32-4.13,26.52-7.59,39.42c-0.43,1.61,1.65,3.46,3.12,2.28
				c4.15-3.34,7.76-7.18,10.76-11.59c2.29-3.38,3.63-6.99,4.96-10.68c0.03,2.06,0.05,4.12,0.12,6.17c0.12,3.28,0.18,6.55,0.16,9.84
				c-0.02,3.28-0.19,6.55-0.59,9.8c-0.42,3.38-1.14,6.58-1.79,9.9c-0.37,1.9,2.24,3.06,3.22,1.27c3.35-6.11,7.27-11.9,10.84-17.88
				C1260.25,822.89,1259.51,822.31,1259.14,822.77z"/>
			<path class="st14" d="M1493.41,868.07c-2.9-2.96-6.68-5.13-9.9-7.75c-1.61-1.31-3.31-2.67-4.93-4.12
				c4.05,0.59,8.31,0.05,12.01-1.43c2.17-0.87,2.17-3.8-0.11-4.54c-16.14-5.23-31.99-15.53-42.21-29.25
				c-0.23-0.3-0.72-0.02-0.51,0.32c4.93,7.81,10.45,14.68,17.63,20.56c5.06,4.14,10.69,7.47,16.65,10.1
				c-2.99,0.15-5.98-0.35-9.1-1.36c-1.66-0.54-2.94,1.86-1.64,2.98c3.53,3.02,6.65,6.45,10.31,9.35c3.27,2.59,6.89,5.48,10.92,6.73
				C1493.48,869.93,1494.03,868.69,1493.41,868.07z"/>
		</g>
		<g>
			<g>
				<g>
					<path class="st3" d="M1249.72,576.35c17.63,2.62,12,34.68-4.33,32.25C1229.32,606.22,1234.94,574.16,1249.72,576.35z"/>
				</g>
			</g>
			<g>
				<g>
					<path class="st3" d="M1183.8,554.95c-14.39-6.33-26.53,23.88-13.19,29.73C1183.73,590.45,1195.86,560.25,1183.8,554.95z"/>
				</g>
			</g>
			<g>
				<path class="st3" d="M1114.96,630.22c5.47,0.73,33.84-8.82,32.34-15.87c-2.57-12.08-52.53-21.01-59.05-13.28
					C1084.01,606.11,1107.93,629.29,1114.96,630.22z"/>
			</g>
		</g>
		<path class="st3" d="M1277.36,696.83c0.3-0.1,0.19-0.59-0.12-0.55c-4.88,0.71-9.76,1.66-14.59,2.61c-5.05,1-10.14,1.52-15.23,2.24
			c-10.02,1.42-19.98,3.23-30.03,4.43c-0.33,0.04-0.36,0.53-0.02,0.59c9.96,1.77,19.95,1.19,29.78-0.99
			c5.15-0.34,10.31-0.69,15.45-1.19c0.48-0.05,0.41-0.77-0.07-0.74c-3.75,0.22-7.49,0.52-11.23,0.85c3.65-0.99,7.27-2.09,10.93-3.04
			C1267.29,699.74,1272.38,698.4,1277.36,696.83z"/>
		<g>
			<path class="st1" d="M1339.23,514.93c19.63,14.88,52.46,47.6,66.32,75.65c12.83,25.98,29.82,70.83-5.33,86.7
				c-37.71,17.03-71.64-8.95-81.92-46.47c-10.28-37.52-9.84-85.73-9.84-85.73"/>
			<path class="st3" d="M1397.11,678.04c-18.83,10.51-42.46,1.7-56.08-13.16c-15.73-17.16-21.74-41.26-26.08-63.5
				c-2.91-14.9-4.24-29.98-5.26-45.11c-0.05-0.75-1.07-0.69-1.14,0.03c-0.7,7.71-0.73,15.43-0.34,23.13
				c-0.48-1.27-0.97-2.53-1.43-3.81c-1.45-4.09-2.7-8.28-3.59-12.53c-0.04-0.18-0.33-0.13-0.32,0.05c0.28,4.41,0.91,8.76,2.1,13.02
				c0.59,2.11,1.3,4.19,2.21,6.19c0.4,0.89,0.9,1.73,1.4,2.57c0.36,4.67,0.82,9.34,1.45,13.99c1.75,12.94,4.55,25.81,9.04,38.1
				c4.03,11.03,9.48,21.67,17.44,30.39c7.46,8.17,16.97,13.92,27.73,16.58c11.42,2.82,23.44,1.37,33.2-5.44
				C1397.75,678.33,1397.45,677.85,1397.11,678.04z"/>
		</g>
	</g>
	<g>
		<path class="st1" d="M1243.95,874.72c2,14.93,8.68,232.89,8.59,235.9c-0.09,3.01-18.86,9.41-22.72,15.57
			c-3.86,6.17-8.08,16.98-5.82,19.98c2.26,3.01,23.93,8.77,30.46,10.03c6.53,1.26,39.43-5.82,44.45-8.12
			c5.03-2.31,8.3-22.99,9-25.58c0.7-2.59,42.19-158.07,41.8-171.88C1349.33,936.8,1243.95,874.72,1243.95,874.72z"/>
		<g>
			<path class="st3" d="M1246.42,891.94c-0.73-13.46-2.07-26.87-2.95-40.31c-0.02-0.32-0.5-0.36-0.51-0.02
				c-0.08,9.04-0.22,18.09-0.14,27.13c-0.47-1.95-0.94-3.89-1.34-5.86c-1.01-4.99-1.81-10.05-2.34-15.11
				c-0.02-0.2-0.35-0.17-0.35,0.03c0.01,5.18,0.41,10.29,1.33,15.39c0.65,3.65,1.54,7.4,2.79,10.96c0.05,2.71,0.11,5.41,0.23,8.12
				c0.57,13.29,1.09,26.8,3.72,39.87c0.07,0.33,0.57,0.28,0.59-0.05C1248.25,918.74,1247.15,905.28,1246.42,891.94z"/>
			<path class="st3" d="M1370.17,921.62c-2.75,6.28-5.59,12.58-8.72,18.69c-1.12,2.18-2.43,4.33-3.64,6.52
				c2.96-10.74,5.82-21.5,8.44-32.33c0.06-0.26-0.31-0.38-0.4-0.13c-6.35,17.77-12.04,35.77-17.67,53.78
				c-2.79,8.92-5.6,17.88-8.03,26.9c-2.38,8.83-5.45,17.87-6.52,26.98c-0.03,0.28,0.42,0.44,0.55,0.17
				c4.08-8.18,6.47-17.4,9.31-26.07c2.91-8.88,5.47-17.91,8.03-26.9c1.61-5.65,3.21-11.31,4.78-16.98c0.77-1.49,1.7-2.91,2.54-4.34
				c1.67-2.83,3.25-5.72,4.74-8.66c2.87-5.65,5.22-11.42,7.04-17.5C1370.71,921.47,1370.29,921.35,1370.17,921.62z"/>
			<g>
				<path class="st3" d="M1239.83,1125.56c-2.09,1.12-4.35,1.91-6.06,3.61c-1.76,1.75-3.21,3.85-4.19,6.08
					c-1.1,2.5-1.79,5.22-1.93,7.94c-0.11,2.18-0.23,4.86,1.2,6.71c0.3,0.39,1,0.02,0.87-0.43c-0.66-2.12,2.41-11.04,3.27-13.15
					c0.76-1.87,1.58-3.64,2.73-5.32c1.2-1.75,2.43-3.86,4.4-4.92C1240.44,1125.89,1240.16,1125.38,1239.83,1125.56z"/>
				<path class="st3" d="M1257.82,1129.75c-2.47,1.06-4.8,2-6.89,3.74c-2.07,1.72-3.72,3.85-4.91,6.25
					c-2.24,4.55-3.21,10.98,0.31,15.18c0.17,0.21,0.58,0.02,0.48-0.25c-0.82-2.32-0.51-5.03,0.02-7.4c0.5-2.21,1.16-4.45,2.15-6.49
					c0.96-2,2.2-3.92,3.59-5.65c1.5-1.85,3.36-3.8,5.52-4.86C1258.44,1130.11,1258.17,1129.61,1257.82,1129.75z"/>
			</g>
		</g>
		<path class="st14" d="M1296.53,1063.03c-0.04-1.1-1.84-1.36-2.18-0.31c-1.06,3.32-2.79,6.28-5.12,8.74
			c1.33-11.73,1.69-23.88-3.97-34.58c-0.18-0.34-0.68-0.14-0.56,0.23c4.16,12.54,2.03,26,0.13,38.75c-0.26,1.75,1.7,2.64,3.04,1.8
			c2.93-1.84,5.27-4.43,6.79-7.44c0.25,4.6,0.52,9.2,1.08,13.75c0.09,0.73,1.32,0.79,1.34,0.01
			C1297.25,1077.01,1296.76,1069.99,1296.53,1063.03z"/>
	</g>
	<g>
		<path class="st1" d="M1487.75,983.17c-12.64-21.09-103.03-89.68-137.72-68.92c-34.69,20.76-49.54,122.35,18.26,199.05
			c0,0-33.62,4.88-40.37,8.72c-6.75,3.84-15.38,18.24-12.69,22.17c2.69,3.93,28.74,11.88,35.47,12.64
			c6.73,0.76,88.83-11.09,95.01-13.52c6.17-2.43-1.05-11.09-1.05-11.09s61.49,1.65,78.29-12.11
			C1539.74,1106.33,1507.09,1015.46,1487.75,983.17z"/>
		<g>
			<path class="st3" d="M1333.95,1125.05c-2.1,1.12-4.35,1.91-6.06,3.61c-1.76,1.75-3.22,3.85-4.19,6.08
				c-1.09,2.5-1.79,5.22-1.93,7.94c-0.11,2.18-0.23,4.86,1.2,6.71c0.3,0.39,1,0.02,0.87-0.43c-0.66-2.12,2.41-11.04,3.27-13.15
				c0.76-1.87,1.58-3.64,2.73-5.32c1.2-1.75,2.43-3.86,4.4-4.92C1334.56,1125.37,1334.29,1124.87,1333.95,1125.05z"/>
			<path class="st3" d="M1351.94,1129.24c-2.47,1.06-4.8,2-6.89,3.74c-2.07,1.71-3.72,3.85-4.91,6.25
				c-2.24,4.55-3.2,10.98,0.31,15.18c0.17,0.21,0.58,0.02,0.48-0.25c-0.82-2.32-0.51-5.03,0.02-7.4c0.5-2.21,1.16-4.45,2.15-6.49
				c0.96-2,2.2-3.92,3.59-5.65c1.5-1.85,3.36-3.8,5.52-4.86C1352.57,1129.6,1352.29,1129.09,1351.94,1129.24z"/>
		</g>
		<g>
			<path class="st3" d="M1476.63,969.97c-7.46-8.54-15.6-16.33-24.28-23.43c0.69,0.3,1.39,0.59,2.07,0.92
				c4.11,2.01,8.17,4.11,12.21,6.27c0.27,0.15,0.63-0.2,0.38-0.46c-3.3-3.38-7.24-6.03-11.59-7.74c-2.2-0.86-4.47-1.61-6.76-2.2
				c-0.1-0.03-0.22-0.06-0.32-0.09c-10.22-7.94-21.19-14.87-32.76-20.73c-21.03-10.64-49.92-23.01-70.17-4.03
				c-9,8.44-14.37,20.46-18.17,32.13c-4.35,13.38-6.53,27.52-6.79,41.6c-0.54,28.31,6.61,56.19,17.69,81.9
				c5.63,13.06,13.12,24.9,23.79,34.15c5.03,4.36,10.52,8.05,16.41,11.08c6.04,3.12,12.35,4.87,18.85,6.61
				c0.36,0.1,0.55-0.47,0.18-0.57c-10.74-2.96-21.12-9.53-29.65-16.73c-9.02-7.61-16.46-17.11-21.83-27.75
				c-6.05-11.99-10.59-24.97-14.15-37.96c-3.48-12.7-5.9-25.79-6.64-38.98c-0.77-13.66,0.13-27.54,3.21-40.88
				c2.79-12.1,7.09-24.45,14.36-34.53c7.01-9.73,16.84-15.67,28.77-15.35c12.39,0.32,24.41,5.59,35.62,10.54
				c25.37,11.19,48.93,27.35,69.09,46.71C1476.44,970.73,1476.92,970.3,1476.63,969.97z"/>
			<path class="st3" d="M1440.94,1121.12c0.11-1.93,0-3.83-0.49-5.76c-0.63-2.44-1.45-4.79-2.5-7.08c-0.12-0.27-0.54-0.06-0.46,0.21
				c0.66,2.37,1.23,4.79,1.6,7.23c0.13,0.87,0.3,1.72,0.46,2.58c-0.16-0.3-0.28-0.61-0.45-0.9c-2.65-4.81-5.46-9.57-8.32-14.26
				c-0.09-0.15-0.37-0.04-0.3,0.13c2.12,5.15,4.19,10.33,6.4,15.44c1.08,2.51,2.28,4.98,3.54,7.41c1.05,2.03,2.14,4.47,4.04,5.82
				c0.2,0.14,0.43-0.07,0.44-0.27c0.13-2.36-1.22-4.88-2.19-6.97C1442.15,1123.49,1441.53,1122.31,1440.94,1121.12z"/>
		</g>
		<path class="st14" d="M1486.95,999.25c-5.3-1.12-10.55-2.18-15.42-4.7c-4.92-2.55-8.79-6.42-12.4-10.54
			c-0.26-0.29-0.65,0.14-0.41,0.43c3.58,4.36,7,8.88,11.74,12.05c2.78,1.87,5.93,3.29,9.16,4.43c-1.48,0.26-2.96,0.44-4.44,0.45
			c-2.71,0.03-6.46-0.62-7.97-3.17c-0.35-0.59-1.37-0.16-1.12,0.5c2.16,5.84,6.39,11.84,11.89,15.38c-2.06-0.05-4.13-0.44-6.01-1.09
			c-0.54-0.19-0.83,0.64-0.36,0.91c3.81,2.2,7.73,2.74,12.05,2.7c1.73-0.02,2.15-2.31,0.77-3.16c-3.32-2.04-6.7-3.77-9.69-6.33
			c-1.36-1.16-2.61-2.46-3.78-3.82c4.83,2.17,11.47,1.23,16.08-0.5C1488.65,1002.21,1488.85,999.65,1486.95,999.25z"/>
	</g>
</g>
<g>
	<g>
		<path class="st3" d="M610.32,236.11c-6.92,3.24-11.52,10.4-11.13,18.51c0.5,10.24,8.88,18.18,18.94,18.47
			c-0.94,2.52-1.37,5.3-1.23,8.13c0.54,11.15,9.53,19.92,20.45,20.38c-0.74,2.16-1.06,4.44-0.94,6.84
			c0.52,10.73,9.7,19.06,20.43,18.54c4.59-0.22,8.74-2.05,11.93-4.9c1.33,9.98,10.04,17.34,20.28,16.85
			c2.82-0.14,5.55-0.91,7.89-2.15c-0.04,0.57-0.01,1.2,0.01,1.77c0.52,10.73,9.63,18.99,20.43,18.47c6.5-0.32,12.13-3.77,15.42-8.89
			c2.19,8.74,10.35,14.92,19.67,14.47c7.34-0.36,13.5-4.69,16.53-10.78c3.81,2.72,8.56,4.25,13.64,4.01
			c6-0.29,11.32-3.03,14.93-7.23c4.07,3.69,9.48,5.84,15.41,5.55c9.74-0.47,17.69-7.37,19.79-16.46c2.3,0.81,4.87,1.25,7.56,1.12
			c9.88-0.48,17.72-8.22,18.45-17.81c2.82,1.21,5.96,1.83,9.28,1.67c11.86-0.58,21-10.57,20.42-22.43c-0.12-2.4-0.66-4.78-1.54-6.86
			c1.07,0.23,2.21,0.25,3.41,0.19c10.73-0.52,19.06-9.63,18.54-20.36c-0.18-3.74-1.41-7.15-3.39-10.03
			c10.82-1.52,18.92-11.04,18.38-22.19c-0.2-4.16-1.59-7.99-3.8-11.14c7.97-3.43,13.45-11.55,13-20.8
			c-0.33-6.85-3.88-12.83-9.15-16.47c3.78-3.72,5.93-8.99,5.66-14.64c-0.28-5.79-3-10.82-7.2-14.16c4.96-4.13,7.98-10.44,7.64-17.42
			c-0.47-9.6-7.14-17.41-15.96-19.67c1.28-2.75,1.98-5.9,1.82-9.15c-0.48-9.88-8.22-17.64-17.81-18.45
			c1.21-2.75,1.77-5.89,1.61-9.07c-0.58-11.86-10.64-20.92-22.43-20.35c-1.69,0.08-3.38,0.38-4.91,0.88
			c0.16-1.14,0.17-2.27,0.11-3.47c-0.57-11.79-10.64-20.92-22.43-20.35c-1.84,0.09-3.59,0.39-5.26,0.96
			c0.54-1.94,0.73-3.93,0.63-6.04c-0.58-11.86-10.64-20.99-22.5-20.42c-6.07,0.3-11.45,3.1-15.2,7.46
			c-3.98-6.1-11.03-9.94-18.79-9.56c-5.79,0.28-10.9,2.79-14.54,6.65c-2.59-8.15-10.44-13.86-19.4-13.42
			c-6.99,0.34-12.95,4.31-16.14,10.05c-3.81-4.13-9.31-6.55-15.31-6.26c-8.54,0.42-15.47,6.27-17.71,14.09
			c-4.1-4.19-9.87-6.6-16.16-6.29c-10.38,0.5-18.7,8.27-20.21,18.11c-2.23-0.74-4.58-1.12-7.05-1c-10.73,0.52-18.99,9.7-18.47,20.43
			c0.12,2.4,0.65,4.71,1.6,6.79c-0.43-0.05-0.85-0.03-1.27-0.01c-11.86,0.58-20.99,10.65-20.42,22.5c0.1,2.12,0.49,4.22,1.22,6.1
			c-1.65-0.41-3.42-0.54-5.19-0.45c-10.73,0.52-18.99,9.63-18.47,20.36c0.26,5.36,2.69,10.2,6.46,13.55
			c-5.84,3.54-9.62,10.16-9.27,17.51c0.26,5.29,2.61,9.99,6.24,13.35c-8.63,3.04-14.65,11.54-14.18,21.21
			c0.45,9.25,6.77,16.94,15.24,19.43c-5.41,3.66-8.79,9.91-8.45,16.9C597.83,226.74,603.11,233.49,610.32,236.11z"/>
	</g>
	<g>
		<g>
			<path class="st21" d="M703.28,356.64c-0.09,7.06,21.07,58.27,51.93,64.38c10.06,1.97,23.27-52.44,23.27-52.44l1.9-3.79
				l26.47-53.12l-55.58-58.71l-8.16-7.97c0,0-6.28,15.01-13.92,33.78c-0.36,0.87-0.72,1.74-1.09,2.67
				c-0.46,1.05-0.91,2.04-1.29,3.04c-1.18,2.79-2.37,5.64-3.49,8.51c-0.87,2.18-1.72,4.29-2.54,6.61c-0.89,2.31-1.7,4.56-2.59,6.87
				C709.92,329.41,703.36,353.65,703.28,356.64z"/>
			<path class="st3" d="M806.89,311.65l-25.46,51.04c-37.11-24.17-49.98-59.29-54.42-78.64l2.18-5.28
				c7.66-18.74,13.94-33.74,13.94-33.74l8.15,7.91L806.89,311.65z"/>
		</g>
		<g>
			<path class="st21" d="M903.68,249.46c-22.72,101.66-86.17,99.53-108.09,94.6c-19.89-4.47-87.07-22.21-74.97-125.68
				c12.1-103.46,66.54-125.03,112.59-117.22C879.24,108.98,926.4,147.8,903.68,249.46z"/>
			<g>
				<path class="st3" d="M894.8,228.74c-2.17-1.17-4.36-1.89-6.62-2.82c-2.55-1.05-4.48-2.16-7.3-1.59
					c-1.52,0.3-2.75,2.21-2.59,3.71c0.37,3.49,3.17,5.56,6.19,6.95c3.28,1.51,6.19,1.84,9.68,0.95
					C897.54,235.08,897.65,230.29,894.8,228.74z"/>
				<path class="st3" d="M823.65,215.26c2.38-0.61,4.68-0.78,7.1-1.14c2.73-0.41,4.86-1.02,7.47,0.21c1.4,0.66,2.13,2.81,1.62,4.22
					c-1.19,3.3-4.41,4.63-7.68,5.26c-3.55,0.68-6.45,0.3-9.62-1.41C819.46,220.75,820.51,216.08,823.65,215.26z"/>
				<g>
					<g>
						<path class="st3" d="M830.93,227.29c-10.83-3.68-17.4,18.25-7.36,21.66C833.45,252.31,840.01,230.37,830.93,227.29z"/>
					</g>
				</g>
				<g>
					<g>
						<path class="st3" d="M882.11,239.55c11.21,2.31,5.77,24.55-4.61,22.41C867.28,259.86,872.72,237.62,882.11,239.55z"/>
					</g>
				</g>
			</g>
			<g>
				<path class="st3" d="M871.55,134.63c0,0-1.15,16.15-9.91,25.11c-18.01,18.41-42.56,3.59-54.59,9.2
					c-11.28,5.26-14.07,23.17-24.55,28.71c-14.5,7.67-27.5-1.65-31.85,5.35c-4.35,7.01-17.66,29.5-28.4,29.27
					c-10.75-0.22-0.34-176.42,124.67-128.17c0,0,19.82-1.17,42.16,21.61c24.66,25.14,20.92,78.51,20.92,78.51s-0.41-0.88-3.44-6.18
					c-4.28-7.48-4.94-13.27-8.23-18.29c-5.17-7.89-9.74-7.13-15.24-14.97C874.7,152.84,871.55,134.63,871.55,134.63z"/>
			</g>
			<g>
				<g>
					<path class="st21" d="M735.02,229.8c0,0-11.87-37.86-28.38-34.58c-16.51,3.28-14.43,53.37,0.14,64.74
						c14.57,11.37,25.36-1.91,25.36-1.91L735.02,229.8z"/>
				</g>
				<path class="st11" d="M719.6,263.62c-0.84,2.71-3.71,4.23-6.42,3.39c-2.71-0.84-4.23-3.71-3.39-6.42
					c0.84-2.71,3.71-4.23,6.42-3.39C718.92,258.04,720.44,260.91,719.6,263.62z"/>
			</g>
		</g>
	</g>
</g>
<g>
	<path class="st3" d="M860.93,294.66c0,0-7.4,7.54-18.78,10.71c-4.19,1.18-8.82,1.79-13.88,1.25c-10.39-1.1-11.62-6.73-10.61-11.66
		c0.81-4.05,3.24-7.63,3.24-7.63S837.12,294.98,860.93,294.66z"/>
	<path class="st18" d="M842.16,305.36c-4.19,1.18-8.82,1.79-13.88,1.25c-10.39-1.1-11.62-6.73-10.61-11.66
		C828.62,295.07,840.12,299,842.16,305.36z"/>
</g>
<path class="st3" d="M847.5,281.68c-3.9,0-7.78-2.08-8.32-2.38l2.32-4.16c1.88,1.04,5.57,2.38,7.5,1.53
	c0.72-1.26-0.84-4.13-1.51-5.35c-0.55-1.01-1-1.89-1.2-2.49c-2.06-6.4,2.84-12.08,3.05-12.32l3.58,3.14l-1.79-1.57l1.8,1.56
	c-0.03,0.04-3.33,3.92-2.1,7.73c0.13,0.4,0.47,0.99,0.84,1.67c1.36,2.51,3.23,5.94,2.2,8.91c-0.33,0.96-1.12,2.28-2.99,3.09
	C849.81,281.49,848.66,281.68,847.5,281.68z"/>
<path class="st3" d="M846.83,297.76c-14.98,0-25.86-10.39-26-10.53l3.32-3.42c0.65,0.63,16,15.17,34.7,6.44l2.01,4.32
	C855.94,296.87,851.21,297.76,846.83,297.76z"/>
<path class="st3" d="M721.74,248.34c-0.13-0.4-3.24-9.76-12.1-10.57l0.43-4.75c3.38,0.31,6.12,1.49,8.32,3.05
	c-2.42-5.95-6.5-12.42-13.19-14.97l1.7-4.45c16.28,6.21,19.34,29.68,19.46,30.68L721.74,248.34z"/>
<path class="st3" d="M1154.28,663.31c-48.57-2.68-67.25-17.31-68.02-17.93l2.98-3.71c0.18,0.14,18.48,14.31,65.3,16.89
	L1154.28,663.31z"/>
<rect x="1112.91" y="625.05" transform="matrix(0.9994 -0.0336 0.0336 0.9994 -20.8499 37.7792)" class="st3" width="4.77" height="30.23"/>
</svg>
