<?xml version="1.0" encoding="utf-8"?>
<!-- Generator: Adobe Illustrator 27.7.0, SVG Export Plug-In . SVG Version: 6.00 Build 0)  -->
<svg version="1.1" id="Ebene_1" xmlns="http://www.w3.org/2000/svg" xmlns:xlink="http://www.w3.org/1999/xlink" x="0px" y="0px"
	 viewBox="0 0 2226.27 2104.56" style="enable-background:new 0 0 2226.27 2104.56;" xml:space="preserve">
<style type="text/css">
	.st0{fill:#FB6A55;}
	.st1{fill:#969696;}
	.st2{fill:#2B454E;}
	.st3{fill:#1A2E35;}
	.st4{fill:#FFABA1;}
	.st5{fill:#ECECEC;}
	.st6{fill:#DCDCDC;}
	.st7{fill:#A8A8A8;}
	.st8{fill:#4D6FB4;}
	.st9{fill:#375A64;}
	.st10{fill:#C8C8C8;}
	.st11{fill:#FFFFFF;}
	.st12{fill:#F7DFC4;}
	.st13{fill:#F2F2F2;}
	.st14{opacity:0.1;}
	.st15{opacity:0.3;fill:#1A2E35;}
	.st16{fill:#97BEDB;}
	.st17{fill:#771137;}
	.st18{fill:#FF9ABD;}
	.st19{fill:#F39C8C;}
	.st20{fill:#F4B3CC;}
	.st21{fill:#864240;}
	.st22{fill:#C26358;}
	.st23{fill:none;stroke:#1A2E35;stroke-miterlimit:10;}
	.st24{opacity:0.1;fill:#010000;}
	.st25{opacity:0.4;}
	.st26{opacity:0.2;}
	.st27{fill:#010000;}
	.st28{fill:#F4B85A;}
	.st29{fill:#FFC5C1;}
	.st30{fill:#BD5324;}
	.st31{fill:#D95000;}
	.st32{opacity:0.6;}
	.st33{clip-path:url(#SVGID_00000040539382510663038780000002039230390382908295_);}
	.st34{clip-path:url(#SVGID_00000089562966638937559500000018279287406599593128_);}
	.st35{fill:url(#SVGID_00000078024419001207522940000009622534990068147644_);}
	.st36{clip-path:url(#SVGID_00000074438904151444142190000002456966222257462965_);}
	.st37{clip-path:url(#SVGID_00000143604309328438295500000002572105333674597016_);}
	.st38{opacity:0.5;}
	.st39{fill:#334F7C;}
	.st40{clip-path:url(#SVGID_00000116233487886722901480000014073319585967772597_);}
	.st41{fill:none;stroke:#44555B;stroke-width:0.05;stroke-miterlimit:10;}
	.st42{fill:none;}
	.st43{clip-path:url(#SVGID_00000023280239501254914010000000230213928129367458_);}
	.st44{fill:#919191;}
	.st45{fill:#CCCCCC;}
	.st46{fill:#AFAFAF;}
	.st47{fill:#F4DFCE;}
	.st48{fill:#35271C;}
	.st49{fill:#DDC6B6;}
	.st50{clip-path:url(#SVGID_00000044142209097782175120000013035690652436022421_);}
	.st51{clip-path:url(#SVGID_00000173156762303091365990000013487038350706442415_);}
	.st52{clip-path:url(#SVGID_00000143613608752669994680000014975050731580624514_);}
	.st53{opacity:0.2;fill:#1A2E35;}
	.st54{fill:#D8BCA0;}
</style>
<g>
	<g>
		<g>
			<g>
				<path class="st12" d="M1135.36,1617.14c0,0-31.79,233.8-31.78,233.96c-0.58,44.72-1.88,83.91-4.44,104.12
					c0,0.11,0.01,0.22-0.05,0.33c-0.96,7.63-2.1,12.49-3.48,13.77c-0.11,0.11-0.16,0.22-0.27,0.28
					c-13.42,8.84-370.91,14.66-383.44,10.67c-12.59-3.94-2.14-40.04,11.55-51.33c13.8-11.3,149.62-74.74,149.62-74.74l34-233.66
					L1135.36,1617.14z"/>
				<path class="st3" d="M1103.08,1879.87c-0.71,32.42-1.95,59.62-3.96,75.37c0,0.11,0,0.22-0.05,0.33
					c-0.92,7.6-2.06,12.49-3.48,13.74c-0.11,0.11-0.11,0.22-0.22,0.27c-13.47,8.85-370.93,14.66-383.47,10.7
					c-12.6-3.96-2.12-40.02,11.57-51.32c6.57-5.38,41.11-22.7,75.32-39.31c-10.81,8.53-21.72,19.01-16.78,23.24
					C790.8,1920.33,1007.57,1912.51,1103.08,1879.87z"/>
				<path class="st3" d="M818.93,1879.87c0,0,63.26-28.81,171.73,23.27"/>
			</g>
			<g>
				<g>
					<polygon class="st3" points="1188.77,1778.28 877.27,1773.28 1034.02,604.39 1245.19,604.39 					"/>
				</g>
				<polygon class="st2" points="1245.19,604.39 1205.17,1437.04 1100.16,604.39 				"/>
				<g>
					<path class="st9" d="M1173.8,1724.15c-9.39-1.05-19.04-1.02-28.49-1.38c-9.04-0.35-18.09-0.51-27.13-0.65
						c-18.77-0.31-37.53-0.65-56.3-0.83c-37.08-0.36-74.17-0.6-111.25-0.51c-21.07,0.05-42.06,0.68-63.1,1.61
						c-0.68,0.03-0.69,1.02,0,1.06c37.28,2.22,74.56,2.82,111.92,3.28c37.08,0.45,74.17,0.61,111.25,0.57
						c10.4-0.01,20.8-0.1,31.21-0.21c10.55-0.1,21.39,0.03,31.89-0.98C1175.05,1725.98,1175.05,1724.29,1173.8,1724.15z"/>
					<path class="st9" d="M1073.89,665.33c-18.37,132.73-35.37,265.65-53.41,398.42c-17.97,132.22-37.02,264.29-56.22,396.34
						c-10.77,74.09-22.12,148.11-32.06,222.32c-0.15,1.14,1.55,1.61,1.77,0.44c24.31-131.76,43.55-264.54,62.77-397.12
						c19.14-132.07,36.92-264.34,53.26-396.78c9.18-74.39,18.08-148.85,25.61-223.43C1075.7,664.55,1074.03,664.36,1073.89,665.33z"
						/>
				</g>
			</g>
		</g>
		<g>
			<g>
				<path class="st12" d="M1245.49,1620.57c0,0,29.94,222.89,29.94,223.05c0.29,44.72,1.34,83.92,3.77,104.15
					c0,0.11-0.01,0.22,0.04,0.33c0.91,7.63,2.02,12.5,3.39,13.79c0.11,0.11,0.16,0.22,0.26,0.28
					c13.37,8.93,332.55,17.05,345.11,13.14c12.61-3.86,2.4-40.02-11.22-51.4c-13.73-11.39-110.88-75.7-110.88-75.7l-37.53-233.54
					L1245.49,1620.57z"/>
				<path class="st3" d="M1628.01,1975.33c-12.54,3.91-331.73-4.24-345.14-13.14c-0.11-0.05-0.11-0.22-0.22-0.33
					c-1.41-1.25-2.5-6.14-3.42-13.79c-0.05-0.11-0.05-0.22-0.05-0.33c-2.17-18.57-2.98-30.56-3.37-70.74
					c52.16,33.03,187.1,47.76,230,38.36c38.01-8.36,29.67-38.98,21.68-52.77c29.43,19.6,79.66,53.32,89.27,61.31
					C1630.4,1935.26,1640.61,1971.42,1628.01,1975.33z"/>
				<path class="st3" d="M1527.5,1862.6c0,0-107.42-17.49-180.87,40.54"/>
			</g>
			<g>
				<path class="st3" d="M1055.47,604.17c0,0,0,0.05,0.05,0.22c0.92,4.34,15.69,72.87,31.01,131.73
					c11.13,43.01,22.59,80.8,29.16,84.71c7.44,4.4,43.71,20.47,55.88,25.52l47.43,929.73l322.32-7.22L1372.97,754.75l-28.45-150.58
					H1055.47z"/>
				<g>
					<g>
						<path class="st9" d="M1096.39,811.22c25.89,8.91,50.88,21.56,74.77,34.82c0.94,0.52,0.32,1.97-0.7,1.54
							c-25.19-10.82-50.88-21.17-75.44-33.36C1093.1,813.27,1094.4,810.54,1096.39,811.22z"/>
						<path class="st9" d="M1088.81,638.69c0.07-0.87,1.6-1.06,1.59-0.12c-0.2,29.9,1.7,56.22,4.22,84.16
							c1.17,12.98,11.61,84.68,34.11,79.45c3.77-0.87,5.69-4.58,6.28-10.26c0.71-6.83-1.86-15.2-2.99-21.99
							c-2.5-15.01-4.5-30.07-5.79-45.23c-2.41-28.3-2.53-56.61,0.92-84.82c0.11-0.93,1.45-0.86,1.45,0.08
							c-0.03,39.18,0.99,78.29,6.85,117.1c2.82,18.65,12.21,46.73-7.3,49.6c-19.87,2.92-32.72-44.11-35.14-56.97
							C1086.24,713.77,1085.97,675.01,1088.81,638.69z"/>
						<path class="st9" d="M1128.13,804.11c2.03,4.81,3.67,9.83,5.06,14.86c1.08,3.91,2.55,8.14,2.1,12.22
							c-0.09,0.79-1.13,0.87-1.56,0.33c-2.64-3.35-3.75-7.92-5.23-11.89c-1.71-4.6-3.52-9.16-5.1-13.8
							C1122.36,802.75,1126.88,801.14,1128.13,804.11z"/>
					</g>
					<path class="st9" d="M1522.91,1724.45c-9.42-0.78-19.06-0.48-28.51-0.57c-9.04-0.09-18.1,0.01-27.14,0.12
						c-18.77,0.23-37.54,0.42-56.3,0.78c-37.08,0.7-74.15,1.52-111.22,2.67c-21.06,0.65-42.03,1.88-63.02,3.41
						c-0.68,0.05-0.66,1.04,0.03,1.06c37.33,1.16,74.61,0.69,111.97,0.08c37.08-0.61,74.15-1.51,111.22-2.61
						c10.4-0.31,20.79-0.7,31.19-1.1c10.54-0.41,21.38-0.58,31.85-1.89C1524.21,1726.25,1524.16,1724.56,1522.91,1724.45z"/>
					<path class="st9" d="M1381.72,1599.28c-2.79-28.41-5.8-56.79-8.75-85.19c-5.85-56.23-11.94-112.44-18.12-168.63
						c-12.36-112.44-25.07-224.84-37.94-337.22c-7.22-63.05-13.2-126.32-21.39-189.25c-0.07-0.56-0.94-0.56-0.89,0.02
						c4.89,56.87,11.82,113.59,17.59,170.37c5.71,56.22,11.29,112.45,17.12,168.66c11.67,112.46,23.74,224.87,35.98,337.27
						c3.44,31.55,6.93,63.11,10.64,94.63c3.72,31.58,8.07,63.05,12.02,94.59c0.1,0.77,1.3,0.77,1.23-0.03
						C1386.64,1656.09,1384.51,1627.67,1381.72,1599.28z"/>
				</g>
			</g>
		</g>
		<path class="st3" d="M1031.53,732.6l55.01,3.53l160.35,10.43l126.09,8.2l-28.45-150.58h-289.05c0,0,0,0.05,0.05,0.22h-21.5
			L1031.53,732.6z"/>
	</g>
	<g>
		<path class="st3" d="M1108.51,16.14c-52.66,45.14-38,110.98-59.99,146.69c-13.45,21.84-57.25,44.9-65.96,70.06
			c-14.31,41.34,20.74,56.19,12.9,78.66c-11.1,31.84-53.73,29.36-61.41,81.44c-7.68,52.08,49.63,107.48,185.63,122.49
			c136,15.01,196.42-38.87,215.6-78.97c28.97-60.57-25.5-60.71-28.58-93.71c-1.97-21.09,11.1-33.95,12.51-72.76
			c1.41-38.81-36.4-51.43-41.82-84.38c-5.44-33.11,12.03-113.05-36.4-153.94C1192.57-9.18,1134.49-6.14,1108.51,16.14z"/>
	</g>
	<g>
		<g>
			<path class="st22" d="M1184.95,279.57c-22.81,33.73-259.35,341.25-282.46,338.15c-68.04-9.13-147.3-26.72-127.08-77.81
				c31.72-80.19,262.62-236.64,361.64-280.39C1202.24,230.71,1207.46,246.29,1184.95,279.57z"/>
			<path class="st5" d="M768.09,558.27c7.9-101.27,328.13-289.02,383.7-307.42c55.57-18.4,57.2-5.59,32.41,34.48
				S933.65,614.78,907.24,618.5C880.83,622.22,764.5,604.18,768.09,558.27z"/>
		</g>
	</g>
	<path class="st8" d="M1037.08,509.04l-25.81,177.47c0,0,289.21,4.27,361-0.79c0,0-58.56-331.76-135.75-415.58
		c-38.61-41.92-83.95-38.79-112.84-9.48c-7.31,7.42-94.54,122.7-103.73,166.75C1011.94,466.27,1037.08,509.04,1037.08,509.04z"/>
	<g>
		<path class="st5" d="M1204.5,245.57c0,0-33.67,925.06-15.78,968.99c17.89,43.92,286.7,87.52,286.7,87.52
			s-78.88-662.14-150.44-863.09C1258.63,252.7,1204.5,245.57,1204.5,245.57z"/>
		<path class="st7" d="M1384.12,814.38c-0.12-0.01-40.29,5.73-73.59,5.73c-34.42,0-68.6-3.35-78.46-3.48
			c-0.91-0.01-1.35,2.9-0.75,2.97c12.86,1.65,52.35,5.58,78.59,5.58c26.24,0,61.26-4.18,71.67-6.79c-0.13,7.3-0.14,12.98-0.12,20.27
			c-24.28,4.69-71.11,12.81-146.78,3.09c-0.23-3.08,0.19-19.28-0.47-23.75c-0.1-0.68-2.9-0.8-3.04,0.23
			c-0.59,4.37-2.38,43.41-2.43,51.33c-0.13,19.55,1.16,74.75,6.02,85.44c11.02,24.23,58.16,24.27,71.21,24.38
			c13.15,0.1,55.11,1.41,70.88-13.99c8.41-8.22,10.23-52.97,9-92.51C1385.27,853.94,1385.25,814.73,1384.12,814.38z M1309.75,974.42
			c-41.69,0.05-59.82-8.68-66.25-17.38c-7.49-10.14-8.13-27.8-8.69-47.33c-0.44-15.29,0.07-63.28,0-64.25
			c24.31,4.92,88.42,11.59,146.67-1.96c0.07,22.75,0.15,40.92,0.16,63.67c0.01,16.49-1.02,44.11-9.37,53.7
			C1365.29,968.91,1339.89,974.38,1309.75,974.42z"/>
	</g>
	<g>
		<path class="st5" d="M1027.25,1218.67c-14.9,35.21-103.84,59.09-103.84,59.09l112.09-771.95c0,0-23.17-34.31-15.65-77.65
			c7.52-43.34,98.19-168.89,112.83-175.38c0,0-20.71,81.09-31.45,196.89C1076.08,721,1043.49,1180.29,1027.25,1218.67z"/>
		<path class="st3" d="M1048.43,369.53c8.06-12.87,16.36-25.6,24.28-38.56c0.22-0.36-0.35-0.8-0.61-0.45
			c-8.09,10.61-15.97,21.38-23.79,32.19c2.59-5.79,5.11-11.61,7.44-17.51c0.26-0.67-0.68-1.23-1-0.55
			c-3.59,7.6-6.84,15.34-10.03,23.11c-6.87,9.73-13.26,19.83-18.47,30.54c-11.02,22.63-15.76,47.4-9.8,72.18
			c1.65,6.85,4.05,13.44,7.21,19.73c2.15,4.29,9.09,13.56,9.05,13.82c-4.52,25.3-7.92,50.89-11.49,76.34
			c-3.61,25.76-7.28,51.51-10.27,77.34c-1.69,14.63-2.79,29.37-4.92,43.94c-0.08,0.54,0.74,0.74,0.82,0.21
			c1.85-12.69,4.6-25.26,6.85-37.89c2.25-12.65,4.39-25.32,6.43-38c4.12-25.63,7.79-51.34,11.5-77.04
			c2.1-14.53,4.4-29.06,6.05-43.65c0.18-1.6-6.39-11.97-8.33-15.95c-2.61-5.34-4.72-11-6.35-16.71
			c-3.31-11.59-4.42-23.93-3.05-35.93C1022.76,412.07,1035.51,390.15,1048.43,369.53z"/>
		<path class="st7" d="M1131.99,255.63c-8.51,12.9-17.15,25.7-25.95,38.39c-8.86,12.65-17.51,25.44-26.54,37.96l-0.19-3l21.68,22.71
			l1.79,1.88l-1.9,1.84c-9.12,8.84-18.41,17.51-27.66,26.21l0.78-2.26c3.35,23.53,6.95,47.02,9.94,70.61
			c3.18,23.56,6.16,47.14,8.76,70.79c-4.48-23.36-8.59-46.78-12.5-70.22c-4.1-23.42-7.59-46.93-11.32-70.4l-0.21-1.32l0.99-0.95
			c9.16-8.8,18.29-17.63,27.59-26.29l-0.11,3.72l-21.26-23.1l-1.33-1.44l1.14-1.56c9.1-12.47,18.58-24.66,27.86-37.01
			C1112.88,279.9,1122.37,267.72,1131.99,255.63z"/>
	</g>
	<g>
		<g>
			<path class="st1" d="M792.55,727.23c0,0,0.59-67.61,3.23-81.36c1.83-9.5,11.56-34.28,18.41-52.61
				c1.38-3.69,12.39-13.89,17.81-17.98c7.29-5.5,23.4-1.13,27.3,16.02c1.62,7.14-9.31,17.33-11.52,25.46
				c-3.1,11.41-1.18,25.31-1.22,27.59c-0.06,3.91,31.26,29.03,31.9,40.42c0.65,11.39-23.95,54.83-30.26,58.11
				C841.88,746.18,794.47,738.06,792.55,727.23z"/>
			<path class="st5" d="M828.95,604.98c6.7,3.44,16.72,4.53,22.08,4.9c3.91-6.5,9.45-13.34,8.26-18.58
				c-3.89-17.15-20-21.52-27.29-16.03c-3.73,2.82-10.09,8.52-14.15,13C817.84,588.28,819.4,600.09,828.95,604.98z"/>
			<g>
				<path class="st3" d="M849.91,576.63c0.11-0.09,0.26,0.06,0.18,0.18c-2.26,2.94-4.42,5.99-6.39,9.13
					c-1.79,2.86-3.41,5.83-3.15,9.32c0.02,0.21-0.29,0.25-0.33,0.04c-0.59-3.33-0.25-7,1.29-10.05
					C843.38,581.57,846.73,579.11,849.91,576.63z"/>
				<path class="st3" d="M840.8,571.88c0.11-0.09,0.26,0.06,0.18,0.18c-1.72,2.27-3.59,5.39-5.67,9.09
					c-1.49,2.64-4.2,6.64-2.35,9.67c0.32,0.52,0.01,0.64-0.41,0.19c-2.51-2.71-1.06-6.94,0.31-9.83
					C834.66,577.36,837.58,574.51,840.8,571.88z"/>
			</g>
			<path class="st14" d="M848.21,742.89c6.31-3.3,30.89-46.72,30.25-58.11c-0.49-8.71-18.85-25.39-27.49-34.55l-56.87,14.99
				c-1.24,24.82-1.56,61.99-1.56,61.99C794.47,738.07,841.88,746.17,848.21,742.89z"/>
		</g>
		<g>
			<path class="st1" d="M687.94,768.61c0,0-56.89,4.02-58.25,8.35c-0.89,2.83,16.87,34.24,25.7,44.18
				c8.83,9.94,60.87,45.24,74.34,52.69L687.94,768.61z"/>
			<path class="st14" d="M672.45,817.95c5.99,6.74,31.51,24.21,48.95,34.9l-31.31-78.79c-14.33,0.43-43.67,1.65-44.43,4.6
				C645,781.19,663.99,808.42,672.45,817.95z"/>
		</g>
		<g>
			<path class="st1" d="M731.88,698.73c-0.19-1.39-19.15-39.98-4.89-68.2c2.64-5.23,73.62,42.03,73.62,42.03L731.88,698.73z"/>
			<path class="st14" d="M743.2,694.42l55.06-20.96c-6.83-4.52-56.76-37.4-58.76-33.47C728.8,661.15,741.22,689.52,743.2,694.42z"/>
		</g>
		<path class="st1" d="M1029.52,664.91c-28.65,4.63-116.79,67.05-116.79,67.05s-28.56-49.93-67.35-70.01
			c-4.81-2.49-87.57,13.78-103.44,20.57c-4.52,1.94-50.9,60.08-61.27,94.44c-1.72,5.68,20.31,62.11,46.23,93.67
			c4.82,5.87,63.88,42.89,118.87,62.54l223.38-36.06c3.94-2.38,7.29-4.78,9.82-7.2c30.09-28.79,75.42-123.13,75.21-147.39
			C1153.96,718.27,1058.18,660.28,1029.52,664.91z"/>
		<g>
			<g>
				<path class="st3" d="M774.61,689.12c5.14-11.3,19.01-11.86,32.19-5.87c10.68,4.85,18.53,16.52,13.6,27.37
					c-4.93,10.85-20.8,11.73-30.82,7.18C779.56,713.24,769.03,701.4,774.61,689.12z"/>
				<path class="st11" d="M776.88,691.47c4.83-10.63,17.87-11.15,30.26-5.51c10.04,4.56,17.42,15.53,12.79,25.73
					c-4.64,10.2-19.55,11.03-28.97,6.74C781.53,714.14,771.64,703,776.88,691.47z"/>
				<path class="st3" d="M786.69,693.81c3.78-8.32,13.99-8.73,23.69-4.32c7.86,3.57,13.64,12.16,10.01,20.14
					c-3.63,7.98-15.3,8.63-22.68,5.28C790.33,711.55,782.58,702.84,786.69,693.81z"/>
				<path class="st11" d="M779.95,697.65c1.72-3.78,6.35-3.96,10.76-1.96c3.57,1.62,6.19,5.52,4.55,9.14
					c-1.65,3.63-6.95,3.92-10.3,2.4C781.6,705.71,778.09,701.75,779.95,697.65z"/>
			</g>
			<g>
				<path class="st3" d="M740.54,767.77c-9.96,12.72-5.21,26.76,6.2,35.69c9.24,7.23,24.58,7.07,34.14-5.14
					c9.56-12.21,4.39-28.43-4.29-35.22C767.91,756.3,751.35,753.96,740.54,767.77z"/>
				<path class="st11" d="M743.89,768.42c-9.36,11.95-4.89,25.15,5.82,33.55c8.68,6.8,23.1,6.64,32.09-4.83
					c8.98-11.47,4.12-26.73-4.03-33.11C769.62,757.64,754.05,755.44,743.89,768.42z"/>
				<path class="st3" d="M753.21,771.28c-7.33,9.36-3.83,19.69,4.56,26.26c6.8,5.32,18.08,5.2,25.12-3.78
					c7.03-8.98,3.23-20.92-3.15-25.92C773.35,762.84,761.17,761.12,753.21,771.28z"/>
				<path class="st11" d="M744.4,778.14c-3.33,4.25-1.74,8.94,2.07,11.92c3.09,2.42,8.21,2.36,11.41-1.72
					c3.19-4.08,1.47-9.5-1.43-11.77C753.55,774.31,748.02,773.53,744.4,778.14z"/>
			</g>
			<g>
				<g>
					<path class="st3" d="M785.33,743.32c1.27,0.48,9.42-4.38,9.85-5.21c0.43-0.82-0.19-10.41-1.28-11.22
						c-1.08-0.81-5,5.64-5.89,7.35C787.11,735.95,784.07,742.86,785.33,743.32z"/>
				</g>
			</g>
			<g>
				<path class="st3" d="M817.91,684.13c2.84-6.18,5.88-12.25,9.05-18.24c3.18-5.99,6.43-11.94,9.95-17.74
					c1.68-2.94,3.49-5.81,5.26-8.71c1.82-2.86,3.65-5.71,5.53-8.54c3.69-5.69,7.68-11.18,11.63-16.72
					c-2.17,2.61-4.37,5.21-6.44,7.91c-2.06,2.71-4.11,5.42-6.05,8.22c-3.95,5.54-7.58,11.31-11.09,17.14
					c-3.43,5.88-6.71,11.85-9.71,17.96c-1.49,3.06-2.93,6.14-4.32,9.25C820.39,677.8,819.05,680.92,817.91,684.13z"/>
				<path class="st3" d="M822.7,683.63c1.62-2.6,3.22-5.21,4.89-7.78c1.64-2.58,3.3-5.15,4.99-7.7c3.37-5.1,6.78-10.18,10.36-15.14
					c1.73-2.52,3.54-4.98,5.33-7.46l5.52-7.32l2.79-3.64l2.87-3.58c1.85-2.44,3.88-4.73,5.77-7.15c-4.27,4.39-8.39,8.95-12.25,13.72
					c-3.9,4.74-7.57,9.66-11.14,14.65c-3.5,5.04-6.93,10.13-10.12,15.36C828.5,672.83,825.43,678.14,822.7,683.63z"/>
				<path class="st3" d="M825.21,687.02c1.6-1.99,3.18-3.99,4.82-5.95c1.61-1.98,3.23-3.95,4.88-5.88c3.3-3.88,6.6-7.77,9.99-11.57
					c3.37-3.82,6.78-7.6,10.23-11.36c3.43-3.77,6.97-7.44,10.44-11.2c-1.93,1.68-3.82,3.39-5.7,5.12c-1.84,1.77-3.7,3.53-5.49,5.35
					c-3.64,3.59-7.09,7.37-10.5,11.18c-3.38,3.84-6.65,7.77-9.77,11.82C830.98,678.58,827.94,682.7,825.21,687.02z"/>
			</g>
			<g>
				<path class="st3" d="M760.54,822.91c-2.4,3.47-4.58,7.08-6.78,10.69c-2.13,3.64-4.21,7.32-6.21,11.03
					c-4.01,7.43-7.69,15.03-11.15,22.73c-3.38,7.74-6.61,15.54-9.4,23.51c-1.44,3.97-2.73,7.99-4,12.01
					c-0.65,2.01-1.21,4.04-1.77,6.07l-1.67,6.1c2.7-7.99,5.36-15.98,8.44-23.82c1.49-3.94,3.07-7.84,4.64-11.74
					c1.65-3.87,3.25-7.76,5.02-11.58c3.35-7.72,7.04-15.29,10.83-22.8C752.29,837.6,756.27,830.18,760.54,822.91z"/>
				<path class="st3" d="M763.47,828.11c-3.53,6.74-6.67,13.67-9.64,20.68c-2.98,7-5.65,14.13-8.23,21.29
					c-2.49,7.19-4.82,14.44-6.84,21.78c-2.08,7.32-3.75,14.75-5.19,22.21c1.05-3.66,1.89-7.36,3-10.99l1.54-5.48l1.66-5.45
					c1.1-3.63,2.27-7.24,3.42-10.86c1.22-3.59,2.4-7.2,3.7-10.76c2.46-7.18,5.14-14.28,7.91-21.35c1.38-3.54,2.79-7.06,4.25-10.57
					C760.47,835.09,761.97,831.6,763.47,828.11z"/>
				<path class="st3" d="M768.71,828.21c-2.35,5.89-4.3,11.93-6.12,18c-1.81,6.08-3.4,12.22-4.89,18.38
					c-1.38,6.19-2.74,12.39-3.8,18.64c-0.56,3.12-1.02,6.26-1.51,9.39c-0.43,3.14-0.82,6.29-1.17,9.44
					c1.24-6.22,2.38-12.44,3.71-18.63c1.27-6.2,2.62-12.38,4.1-18.52c1.38-6.17,2.98-12.29,4.57-18.41
					c0.78-3.06,1.63-6.11,2.49-9.16C766.91,834.29,767.8,831.25,768.71,828.21z"/>
			</g>
			<path class="st14" d="M810.69,784.57c2.96-2.21,5.99-4.2,8.96-6.18c1.46-1.04,2.96-1.97,4.34-3.03c1.36-1.03,2.77-2.12,3.66-3.2
				c0.83-0.96,1.34-2.55,1.81-4.18c0.5-1.63,0.81-3.37,1.2-5.11c0.7-3.49,1.32-7.05,2.17-10.65c0.74,3.64,0.94,7.31,0.78,11.01
				c-0.04,1.86-0.3,3.7-0.64,5.59c-0.4,1.84-0.88,3.87-2.35,5.73c-1.45,1.69-3.01,2.75-4.6,3.78c-1.61,0.98-3.23,1.88-4.91,2.64
				C817.76,782.51,814.31,783.79,810.69,784.57z"/>
		</g>
		<path class="st1" d="M1153.11,750.93c11.77-38.71,22.7-95.3-1.06-133.5c-23.77-38.2-127.5-91.21-148.41-129.71
			c-20.91-38.5-9.57-61.65-22.85-61.98c-6.8-0.17-15.45,37.03-2.92,70.23c17.09,45.28,126.39,115.42,142.26,140.34
			c15.88,24.91,7.35,49.66-4.25,75.56L1153.11,750.93z"/>
	</g>
	<g>
		<path class="st1" d="M1017.77,845.11c0,0-63.43-90.81-44.64-128.4c13.84-27.69,80.93-66.9,80.93-66.9s-31.66-41.02-32.08-49.34
			c-0.42-8.32,20.52-8.69,31.76-5.97c11.25,2.72,57.22,58.55,57.78,65.58c0.56,7.03-14.77,32.38-12.67,43.27
			c2.1,10.89,18.17,23.49,19.28,25.35c1.11,1.86,11.68,47.61,2.23,62.71C1110.92,806.51,1031.38,852.22,1017.77,845.11z"/>
		<path class="st11" d="M1039.18,629.81c17.63,2.02,27.28-17.38,29.93-23.74c-6.4-6.23-12.09-10.78-15.38-11.58
			c-11.23-2.72-32.18-2.35-31.76,5.97C1022.24,605.63,1031.89,619.77,1039.18,629.81z"/>
		<g>
			<path class="st3" d="M1035.69,592.53c0.02-0.15,0.24-0.15,0.26,0c0.56,3.85,1.28,7.7,2.2,11.49c0.84,3.44,1.9,6.83,4.71,9.19
				c0.17,0.14-0.02,0.4-0.21,0.28c-2.94-1.99-5.45-4.93-6.62-8.31C1034.63,601.06,1035.23,596.74,1035.69,592.53z"/>
			<path class="st3" d="M1025.4,593.73c0.01-0.15,0.24-0.15,0.26,0c0.45,2.95,1.43,6.64,2.7,10.91c0.9,3.05,1.93,8.02,5.55,8.84
				c0.62,0.14,0.48,0.46-0.16,0.44c-3.88-0.1-6-4.27-7.17-7.42C1025.03,602.35,1025.02,598.08,1025.4,593.73z"/>
		</g>
		<g>
			<path class="st3" d="M976.67,769.03c4.24,7.88,8.36,15.78,12.47,23.68c4.14,7.88,8.22,15.78,12.44,23.61
				c4.19,7.84,8.48,15.61,12.85,23.35c4.44,7.7,9,15.32,13.75,22.9c-6.02-6.63-11.34-13.89-16.29-21.35
				c-4.93-7.48-9.4-15.25-13.68-23.11c-4.18-7.91-8.14-15.94-11.75-24.12C982.85,785.83,979.47,777.54,976.67,769.03z"/>
			<path class="st3" d="M1100.34,707.69c4.95,5.82,9.93,11.56,15.36,16.7c0.69,0.63,1.38,1.25,2.08,1.85
				c0.73,0.63,1.33,1.04,2.27,2.07c1.54,1.87,2.14,3.87,2.71,5.8c1.06,3.9,1.36,7.78,1.65,11.64c0.38,7.72,0.07,15.38-0.64,23
				c-0.71,7.61-1.76,15.18-3.4,22.66c0.07-7.65,0.28-15.24,0.43-22.82c0.1-7.57,0.24-15.15-0.19-22.62
				c-0.2-3.72-0.5-7.47-1.33-10.95c-0.39-1.71-0.94-3.47-1.8-4.58c-0.29-0.42-1.19-1.2-1.86-1.85c-0.69-0.69-1.36-1.4-2.03-2.11
				C1108.37,720.74,1104,714.41,1100.34,707.69z"/>
			<path class="st3" d="M1008.44,832.54c1.84,3.52,3.19,7.16,4.5,10.82c1.26,3.68,2.44,7.35,3.37,11.2
				c-2.32-3.24-3.85-6.9-5.17-10.58C1009.88,840.28,1008.84,836.5,1008.44,832.54z"/>
			<path class="st3" d="M1122.54,763.14c1.92,2.4,3.24,5.11,4.31,7.92c0.51,1.41,0.96,2.86,1.25,4.35c0.29,1.48,0.48,3.04,0.22,4.57
				c-0.52-1.44-1.1-2.78-1.64-4.15c-0.56-1.36-1.07-2.74-1.6-4.11C1124.07,768.95,1123.09,766.16,1122.54,763.14z"/>
		</g>
	</g>
	<g>
		<g>
			<g>
				<rect x="291.44" y="1626.24" class="st9" width="152" height="26.72"/>
				<g>
					<g>
						<g>
							<polygon class="st9" points="525.88,2017.31 509.47,2017.31 375.58,1392.31 367.95,1356.67 343.9,1244.48 334.95,1202.64 
								301.26,1045.63 289.5,990.65 347.98,990.65 357.5,1045.63 363.76,1081.73 367.95,1105.77 391.94,1244.48 399.68,1289.12 
															"/>
						</g>
					</g>
					<polygon class="st3" points="347.98,990.65 357.5,1045.63 301.26,1045.63 289.5,990.65 					"/>
					<polygon class="st3" points="399.68,1289.12 375.58,1392.31 367.95,1356.67 343.9,1244.48 334.95,1202.64 363.76,1081.73 
						367.95,1105.77 391.94,1244.48 					"/>
				</g>
				<g>
					<g>
						<g>
							<polygon class="st9" points="446.34,990.65 434.57,1045.63 391.94,1244.48 367.95,1356.67 226.37,2017.31 210.02,2017.31 
								343.9,1244.48 367.95,1105.77 378.33,1045.63 387.86,990.65 							"/>
						</g>
					</g>
					<polygon class="st3" points="446.34,990.65 434.57,1045.63 378.33,1045.63 387.86,990.65 					"/>
				</g>
			</g>
			<g>
				<rect x="1781.82" y="1626.24" class="st9" width="152" height="26.72"/>
				<g>
					<g>
						<g>
							<polygon class="st9" points="2016.25,2017.31 1999.84,2017.31 1865.96,1392.31 1858.32,1356.67 1834.28,1244.48 
								1825.33,1202.64 1791.64,1045.63 1779.87,990.65 1838.35,990.65 1847.88,1045.63 1854.13,1081.73 1858.32,1105.77 
								1882.31,1244.48 1890.06,1289.12 							"/>
						</g>
					</g>
					<polygon class="st3" points="1838.35,990.65 1847.88,1045.63 1791.64,1045.63 1779.87,990.65 					"/>
					<polygon class="st3" points="1890.06,1289.12 1865.96,1392.31 1858.32,1356.67 1834.28,1244.48 1825.33,1202.64 
						1854.13,1081.73 1858.32,1105.77 1882.31,1244.48 					"/>
				</g>
				<g>
					<g>
						<g>
							<polyline class="st9" points="1873.52,1285.59 1858.32,1356.67 1716.75,2017.31 1700.39,2017.31 1834.28,1244.48 
								1858.32,1105.77 1868.71,1045.63 1878.24,990.65 1936.71,990.65 1924.95,1045.63 1882.31,1244.48 1873.52,1285.59 							"/>
						</g>
					</g>
					<polygon class="st3" points="1936.71,990.65 1924.95,1045.63 1868.71,1045.63 1878.24,990.65 					"/>
				</g>
			</g>
		</g>
		<g>
			<rect x="175.64" y="910.28" class="st9" width="1874.99" height="80.35"/>
		</g>
	</g>
	<g>
		<path class="st12" d="M992.86,738.08c-8.49,10.89-21.88,5.88-21.88,5.88s-0.83,10.99-8.76,18.01c-9.09,8.03-25.67-2.7-25.67-2.7
			s-3.14,10.95-12.27,17.52c-9.47,6.81-27.75-1.63-27.75-1.63s-8.53,8.59-20.49,8.61c-20.45,0.02-37.03-26.44-47.74-43.15
			c-10.71-16.71-25.44-74.16-29.36-84.82l106.69-69.68c0,0,69.36,61.29,79.17,82.73C993.04,686.91,1002.39,725.86,992.86,738.08z"/>
		<path class="st22" d="M913.69,593.37c-17.39-18.63-82.82-73.21-111.73-56.06c-28.92,17.15-21.13,65.38,0.93,131.24L913.69,593.37z
			"/>
		<g>
			<path class="st5" d="M913.69,593.37c-17.39-18.63-81.7-76.5-119.04-56.62c-29.68,15.79-27.86,73.28-5.8,139.14L913.69,593.37z"/>
			<path class="st3" d="M784.37,641.33c48.02-25.95,94.54-60.51,103.08-65.96c0.4-0.26-0.06-0.88-0.45-0.6
				c-8.1,5.78-65.55,39.5-103.13,65.9C783.44,640.98,783.91,641.58,784.37,641.33z"/>
		</g>
		<g>
			<path class="st3" d="M972.21,742.11c-4.17-21.31-14.42-40.23-23.58-59.69c-0.2-0.43-0.88-0.11-0.67,0.32
				c9.33,19.25,14.72,40.1,23.27,59.69C971.46,742.97,972.32,742.68,972.21,742.11z"/>
			<path class="st3" d="M937.71,758.02c-1.09-4.79-3.76-9.21-6.05-13.51c-2.47-4.63-5.02-9.21-7.64-13.76
				c-5.24-9.1-10.69-18.09-16.4-26.9c-0.25-0.39-0.91-0.1-0.67,0.32c5.21,9.08,10.28,18.24,15.1,27.53
				c2.41,4.65,4.79,9.32,7.13,14.01c2.18,4.36,4.12,9.14,7.23,12.93C936.88,759.2,937.88,758.74,937.71,758.02z"/>
			<path class="st3" d="M896.31,774.77c-0.78-4.2-3.91-8.26-6.09-11.87c-2.47-4.1-4.93-8.21-7.36-12.33
				c-4.86-8.25-9.71-16.5-14.28-24.91c-0.23-0.42-0.9-0.1-0.67,0.32c4.6,8.57,9.08,17.2,13.75,25.73c2.29,4.19,4.61,8.36,6.95,12.53
				c1.99,3.54,4.08,8.19,7.29,10.79C896.09,775.18,896.35,774.98,896.31,774.77z"/>
		</g>
		<path class="st3" d="M912.42,590.82c-6.56-6.72-11.39-12.33-18.96-18.34c-1.77-1.41-3.55-2.82-5.34-4.23
			c-0.5-0.65-1.01-1.29-1.51-1.92c-2.16-2.68-4.4-5.3-6.8-7.76c-4.65-4.78-9.7-9.14-14.93-13.27c-0.38-0.3-0.82,0.27-0.46,0.59
			c5.1,4.39,9.77,9.23,14.15,14.33c0.57,0.67,1.11,1.36,1.68,2.03c-3.18-2.35-6.4-4.63-9.73-6.7c-8.92-5.55-17.82-10.69-27.36-15.12
			c-0.44-0.2-0.72,0.47-0.29,0.68c16.71,8.27,63.01,46.96,68.51,51.13C917.04,596.53,915.63,594.1,912.42,590.82z"/>
	</g>
	<g>
		<g>
			<path class="st12" d="M1305,380.87c44.12,86.73,92.57,233.65,77.31,260.49c-38.24,67.23-126.26,136.22-166.92,158.56
				c-23.73,13.04-98.68-108.81-78.18-121.43c32.34-19.91,117.82-89.23,128.13-98.6c5.5-5-8.18-108.31-10.94-176.55
				C1251.4,329.16,1283.49,338.59,1305,380.87z"/>
			<g>
				<path class="st12" d="M1076.85,745.32c5.16-7.77,1.11-10.53-14.62-5.34c-15.93,5.21-73.63,39.08-83.75,17.88
					c-10.19-21.25,72.25-67.83,99.12-74.46c26.86-6.7,72.66-7.94,72.66-7.94C1136.04,687.75,1104.42,720.85,1076.85,745.32z"/>
				<g>
					<path class="st12" d="M1228.74,789.4c-41.29,33.15-90.68,76.94-149.81,85.54c-11.6,1.69-19.11-3.15-19.11-3.15
						c-26.43,4.33-36.41-6.85-36.41-6.85c-25.85-3.51-34.49-16.35-34.49-16.35s-31.09,4.74-37.07-13.57
						c-6.77-20.52,38.21-23.16,62.06-39.74c54.64-37.99,121.69-107.28,136.36-119.8L1228.74,789.4z"/>
					<g>
						<path class="st3" d="M1099.15,795.69c-16.3,10.86-32.04,21.95-49.72,30.55c-19.41,9.43-39.67,15.25-60.14,21.69
							c-0.64,0.2-0.43,1.11,0.24,1.01c38.91-5.79,80.73-26.51,110.14-52.52C1100.36,795.8,1099.96,795.15,1099.15,795.69z"/>
						<path class="st3" d="M1126.87,825.34c-16.45,9.69-45.47,26.53-103.61,38.96c-0.19,0.04-0.18,0.38,0.03,0.36
							c38.82-3.05,72.52-16.23,104.03-38.54C1128.31,825.43,1127.96,824.7,1126.87,825.34z"/>
						<path class="st3" d="M1141.47,841.55c-28.6,15.41-48.58,21.5-81.56,30.06c-0.19,0.05-0.15,0.39,0.06,0.35
							c38.51-5.8,51.82-12.26,82.17-29.51C1143.18,841.87,1142.59,840.95,1141.47,841.55z"/>
					</g>
				</g>
			</g>
		</g>
		<g>
			<path class="st5" d="M1245.77,807.22l-99.26-146l112.13-83.52c-5.38-55.91-16.09-167.72-14-206.94
				c2.46-46.01,5.73-87.99,29.67-47.61c54.77,92.35,134.82,299.25,129.87,325.63C1397.09,686.58,1245.77,807.22,1245.77,807.22z"/>
			<g>
				<path class="st3" d="M1257.31,772.99c-4.44-10.13-29.46-48.38-35.8-57.84c-6.21-9.27-33.03-46.53-39.58-56.23
					c-0.36-0.53-1.21-0.18-0.86,0.37c6.31,9.7,30.14,48.93,36.38,58.44c6.26,9.54,31.67,47.38,39.34,55.57
					C1257.07,773.58,1257.45,773.31,1257.31,772.99z"/>
				<g>
					<path class="st3" d="M1248.09,444.18c3.82,37.66,9.15,81.33,12.15,119.17c0.34,4.81,0.78,9.39,0.69,14.3
						c0.08,0.69-0.51,1.71-0.98,2.2c-25.92,22.09-57.14,42.36-84.97,62.13c0,0-28.39,19.13-28.39,19.13l0.06-0.32l2.4,4.11
						l-2.79-3.86l-0.13-0.18l0.19-0.14l27.29-20.66c26.68-20.51,57.52-41.71,82.88-63.24c0.07-0.08,0.08-0.13,0.08-0.09
						c-0.18,0.2-0.24,0.97-0.22,0.42c0.02-1.55-0.11-3.23-0.22-4.97C1253.41,530.4,1248.45,486.03,1248.09,444.18L1248.09,444.18z"
						/>
					<path class="st3" d="M1244.38,451.75c2.36,5.97,3.55,12.52,5.51,18.6C1246.43,464.8,1245.19,458.18,1244.38,451.75
						L1244.38,451.75z"/>
				</g>
			</g>
			<path class="st3" d="M1233.37,788.98c4.52,5.81,8.85,11.76,13.26,17.65l-1.49-0.24c33.9-28.21,67.52-56.78,100.06-86.56
				c10.74-10.03,21.33-20.21,31.63-30.77c-9,11.69-18.97,22.63-29.28,33.19c-31.05,31.56-65.31,59.85-101.15,85.8
				c0,0-0.93,0.67-0.93,0.67C1241.44,802.14,1237.3,795.63,1233.37,788.98L1233.37,788.98z"/>
		</g>
	</g>
	<g>
		<path class="st9" d="M1233.34,291.3c2.84-31.51-35.13-44.88-58.69-48.64c-27.92-4.45-46.62-2.52-60.66,24.34
			c-14.81,28.32-22.97,61.39-29.22,92.6c-1.17,5.82-10.26,4.17-9.09-1.67c7.2-35.97,17.89-103.12,54.27-121.95
			c33.49-17.33,117.28,3.6,112.47,56.99C1241.89,298.89,1232.81,297.18,1233.34,291.3L1233.34,291.3z"/>
		<g>
			<path class="st3" d="M1056.19,372.09c-2.12,11.53,5.5,22.59,17.03,24.71c11.53,2.12,22.59-5.5,24.71-17.03
				c2.12-11.53-5.5-22.59-17.03-24.71C1069.38,352.94,1058.31,360.56,1056.19,372.09z"/>
			<path class="st5" d="M1064.49,373.62c-1.28,6.94,3.31,13.6,10.25,14.88c6.94,1.28,13.6-3.31,14.88-10.25
				c1.28-6.94-3.31-13.6-10.25-14.88C1072.43,362.09,1065.77,366.68,1064.49,373.62z"/>
		</g>
		<g>
			<g>
				<g>
					<path class="st10" d="M1199.12,389.47c-25.27,88.15-22.14,109.89-14.99,120.25c7.53,10.91,19.92,16.99,20.44,17.25l2.81-5.79
						l-1.4,2.9l1.41-2.9c-0.11-0.05-11.41-5.63-17.96-15.11c-5.17-7.48-9.14-27.53,15.88-114.81L1199.12,389.47z"/>
					<path class="st3" d="M1200.29,513.99l-5.78,9.93c-0.31,0.53-0.13,1.21,0.4,1.52l17.35,10.09c0.53,0.31,1.21,0.13,1.52-0.4
						l5.78-9.93c0.31-0.53,0.13-1.21-0.4-1.52l-17.34-10.09C1201.28,513.28,1200.6,513.46,1200.29,513.99z"/>
				</g>
				<g>
					<path class="st10" d="M1256.94,392.93c16.15,67.2,19.61,103.87,10.88,115.39c-6.98,9.23-18.48,14.27-18.59,14.32l2.55,5.91
						c0.53-0.23,13.17-5.77,21.17-16.34c10.38-13.73,7.56-48.72-9.76-120.78L1256.94,392.93z"/>
					<path class="st3" d="M1256.64,515.78l5.34,10.17c0.28,0.54,0.07,1.22-0.47,1.5l-17.77,9.33c-0.54,0.28-1.22,0.07-1.5-0.47
						l-5.34-10.17c-0.28-0.54-0.07-1.22,0.47-1.5l17.77-9.33C1255.68,515.03,1256.35,515.24,1256.64,515.78z"/>
				</g>
			</g>
			<path class="st3" d="M1265.48,388.68c-1.63-9.28-6.47-32.34-10.55-43.94c-3.35-9.52-12.56-16.1-12.56-16.1
				c-1.27-0.15-0.47-11.4,0.38-20.57c0.76-8.1,1.82-17.51-0.06-20.17c-1.82-2.56-6.72-2.84-8.83-0.64
				c-2.27,2.34-2.59,11.82-3.05,19.94c-0.51,9.21-1.38,20.44-2.67,20.4c0,0-9.49,5.61-14.06,14.29c-5.1,9.69-14.47,35.67-16.3,43.29
				c-2.27,9.46,0.82,10.7,3.52,11.7c3.83,1.4,6.33-1.18,9.59-11.62c5.16-16.56,11.82-44.46,23.41-44.13l0-0.03
				c11.48,1.42,15.5,31.22,18.84,47.85c2.09,10.41,4.25,11.46,8.25,10.65C1264.21,399.03,1267.1,397.91,1265.48,388.68z"/>
		</g>
	</g>
	<g>
		<g>
			<g>
				<path class="st12" d="M1197.91,251.1c-2.12,5.44-22.94,41.87-48.96,41.87c-16.36,0-12.37-56.07-12.37-56.07l-0.27-3.49
					l-3.79-48.92l60.81-27.72l8.73-3.57c0,0,0.15,13.45,0.18,30.2c0.01,0.78,0.01,1.55,0.01,2.39c0.03,0.95,0.06,1.84,0.05,2.73
					c0.04,2.5,0.06,5.06,0.03,7.6c-0.01,1.94-0.02,3.82-0.1,5.86c-0.04,2.04-0.11,4.02-0.15,6.07
					C1201.27,228.17,1198.78,248.78,1197.91,251.1z"/>
				<path class="st3" d="M1202.23,183.4c-19,35.77-51.34,46.82-65.92,50.01l-3.79-48.92l60.81-27.72l8.73-3.57
					C1202.05,153.19,1202.2,166.64,1202.23,183.4z"/>
			</g>
			<g>
				<path class="st12" d="M1071.36,111.68c-8,85.74,42.45,100.21,60.94,101.91c16.79,1.55,74.13,4.68,90.95-79.77
					c16.81-84.45-20.52-115.27-58.72-120.84C1126.33,7.41,1079.36,25.94,1071.36,111.68z"/>
				<g>
					<path class="st3" d="M1099.1,92.57c2.03-0.16,3.87-0.64,5.86-1.01c2.25-0.41,4.08-0.51,5.78-2.17
						c0.92-0.89,0.92-2.77,0.13-3.74c-1.82-2.26-4.69-2.44-7.42-2.05c-2.95,0.42-5.12,1.5-7.15,3.68
						C1094.35,89.4,1096.43,92.78,1099.1,92.57z"/>
					<path class="st3" d="M1158.14,94.87c-2.01-0.31-3.81-0.93-5.77-1.44c-2.21-0.58-4.03-0.81-5.6-2.6
						c-0.85-0.96-0.71-2.83,0.14-3.74c1.98-2.12,4.86-2.08,7.55-1.49c2.92,0.64,5,1.88,6.85,4.21
						C1163.11,92.07,1160.79,95.28,1158.14,94.87z"/>
					<g>
						<g>
							<path class="st3" d="M1150.62,110.36c9.46-0.14,9.04,18.78,0.28,18.91C1142.29,129.4,1142.7,110.48,1150.62,110.36z"/>
						</g>
					</g>
					<g>
						<g>
							<path class="st3" d="M1104.49,108.25c-9.42-0.85-10.42,18.05-1.7,18.84C1111.39,127.86,1112.39,108.96,1104.49,108.25z"/>
						</g>
					</g>
				</g>
				<path class="st3" d="M1076.41,81.34c10.13,3.28,46.11-19.09,60.58-51.29c0,0,1.97,27,25.42,48.74
					c23.45,21.74,45.7,23.34,45.7,23.34s6.98,38.81,13.38,39.64s46.73-131.89-66.13-133.39c0,0-33.02-3.31-53.64,15.95
					C1081.09,43.6,1076.41,81.34,1076.41,81.34z"/>
				<g>
					<g>
						<path class="st12" d="M1209.02,130.68c0,0,18.97-26.76,31.12-19.98c12.15,6.78-2.23,45.65-16.58,50.89
							c-14.35,5.24-19.46-7.95-19.46-7.95L1209.02,130.68z"/>
					</g>
				</g>
			</g>
		</g>
		<path class="st12" d="M1136.15,250.32c-3.77,1.96,1.75,71.81,4.13,75.72c0.89,1.46,46.68-34.76,61.94-81.28
			C1202.23,244.77,1175.22,230.04,1136.15,250.32z"/>
	</g>
	<g>
		<path class="st1" d="M831.39,803.55c0,0,34.38-58.22,43.56-68.8c6.34-7.31,29.8-20.25,44.91-32.68
			c3.04-2.51,8.06-13.42,14.8-14.24c9.07-1.11,22.67,17.74,17.45,34.54c-5.23,16.8-30.43,33.16-32.45,36.51
			c-2.02,3.35,12.51,40.79,7.36,50.97c-5.15,10.18-48.19,35.45-55.31,35.14S827.62,813.89,831.39,803.55z"/>
		<path class="st11" d="M932.12,725.39c5,4.1,11.05,5.06,16.18,4.85c1.66-2.59,2.98-5.22,3.8-7.88
			c5.22-16.78-8.37-35.63-17.44-34.52c-6.75,0.82-11.77,11.74-14.81,14.25C919.85,702.09,921.04,716.3,932.12,725.39z"/>
		<g>
			<path class="st3" d="M946.04,693.6c0.11-0.09,0.27,0.05,0.18,0.17c-2.14,3.03-4.17,6.16-6.01,9.39
				c-1.68,2.93-3.17,5.97-2.77,9.44c0.02,0.21-0.28,0.26-0.32,0.06c-0.73-3.31-0.53-6.98,0.88-10.09
				C939.72,698.8,942.97,696.21,946.04,693.6z"/>
			<path class="st3" d="M938.14,687.67c0.11-0.09,0.27,0.05,0.18,0.17c-1.63,2.33-3.36,5.53-5.29,9.31
				c-1.38,2.7-3.93,6.81-1.96,9.75c0.34,0.51,0.03,0.64-0.4,0.2c-2.62-2.61-1.34-6.89-0.09-9.83
				C932.23,693.4,935.03,690.43,938.14,687.67z"/>
		</g>
		<g>
			<g>
				<path class="st3" d="M848.27,775.5c-0.92,2.53-2.05,4.92-3.26,7.26c-1.19,2.35-2.52,4.62-3.85,6.87
					c-1.38,2.23-2.77,4.45-4.28,6.6c-1.49,2.17-3.04,4.28-4.73,6.38c0.63-2.63,1.66-5.1,2.8-7.49c1.13-2.4,2.42-4.7,3.77-6.97
					c1.39-2.24,2.82-4.45,4.41-6.57C844.69,779.46,846.35,777.4,848.27,775.5z"/>
			</g>
			<g>
				<path class="st3" d="M925.44,812.14c-4.13,5.18-9.2,9.5-14.36,13.6c-5.19,4.09-10.7,7.75-16.38,11.13
					c-5.72,3.31-11.66,6.26-17.78,8.76c-6.12,2.5-12.47,4.44-18.93,5.74c5.98-2.81,11.91-5.48,17.7-8.44
					c5.77-3,11.5-6.03,17.09-9.34c5.62-3.26,11.11-6.71,16.58-10.25C914.79,819.73,920.24,816.16,925.44,812.14z"/>
				<path class="st3" d="M886.89,839.05c-0.93,1.71-2.08,3.27-3.32,4.75c-1.23,1.48-2.6,2.85-4.02,4.15
					c-2.87,2.55-6.09,4.84-9.76,6.17c1.42-1.34,2.86-2.55,4.27-3.81c1.4-1.27,2.83-2.49,4.21-3.77
					C881.1,844.03,883.86,841.47,886.89,839.05z"/>
			</g>
		</g>
	</g>
	<path class="st3" d="M1123.82,156.16c-0.44,0-0.89-0.04-1.34-0.13c-1.69-0.36-3.06-1.41-3.96-3.03
		c-3.11-5.58,1.06-10.95,3.55-14.16c0.56-0.72,1.07-1.36,1.41-1.92c3.9-6.27,3.02-14.95,3.01-15.04l4.74-0.52
		c0.05,0.42,1.09,10.39-3.7,18.08c-0.42,0.67-1.02,1.46-1.7,2.33c-2.59,3.33-4.61,6.3-3.15,8.91c0.33,0.59,0.64,0.66,0.79,0.69
		c1.07,0.25,2.98-0.7,3.93-1.41l2.84,3.82C1129.89,154.05,1126.96,156.16,1123.82,156.16z"/>
	<path class="st3" d="M1134.26,177.63c-6.21,0-13.38-1.55-21.53-5.61l2.13-4.26c30.01,14.96,44.47-7.43,45.08-8.38l4.05,2.51
		C1163.85,162.1,1153.92,177.63,1134.26,177.63z"/>
	<path class="st3" d="M1213.37,152.3l-4.42-1.71c0.28-0.97,6.95-23.67,24-27.28l0.99,4.66c-7,1.48-12.04,7.24-15.35,12.74
		c2.42-1.19,5.32-1.91,8.7-1.71l-0.31,4.76C1218.09,143.17,1213.42,152.21,1213.37,152.3z"/>
	<path class="st3" d="M805.63,763.88l-4.21-2.24c2.36-4.44,6.16-12.21,6.83-15.1c-2.56-2.61-11.36-6.1-16.45-7.77l1.48-4.53
		c1.49,0.49,14.67,4.89,18.41,8.97c1.07,1.17,1.53,2.39,1.34,3.63C812.44,750.98,806.32,762.57,805.63,763.88z"/>
	<path class="st3" d="M810.73,747.07l-1.57-4.5c2.61-0.91,4.7-7.48,5.3-11.64l4.72,0.67C818.86,733.81,816.99,744.89,810.73,747.07z
		"/>
</g>
</svg>
