<?xml version="1.0" encoding="utf-8"?>
<!-- Generator: Adobe Illustrator 27.7.0, SVG Export Plug-In . SVG Version: 6.00 Build 0)  -->
<svg version="1.1" id="Ebene_1" xmlns="http://www.w3.org/2000/svg" xmlns:xlink="http://www.w3.org/1999/xlink" x="0px" y="0px"
	 viewBox="0 0 767.26 767.26" style="enable-background:new 0 0 767.26 767.26;" xml:space="preserve">
<style type="text/css">
	.st0{fill:#FB6A55;}
	.st1{fill:#969696;}
	.st2{fill:#2B454E;}
	.st3{fill:#1A2E35;}
	.st4{fill:#FFABA1;}
	.st5{fill:#ECECEC;}
	.st6{fill:#DCDCDC;}
	.st7{fill:#A8A8A8;}
	.st8{fill:#4D6FB4;}
	.st9{fill:#375A64;}
	.st10{fill:#C8C8C8;}
	.st11{fill:#FFFFFF;}
	.st12{fill:#F7DFC4;}
	.st13{fill:#F2F2F2;}
	.st14{opacity:0.1;}
	.st15{opacity:0.3;fill:#1A2E35;}
	.st16{fill:#97BEDB;}
	.st17{fill:#771137;}
	.st18{fill:#FF9ABD;}
	.st19{fill:#F39C8C;}
	.st20{fill:#F4B3CC;}
	.st21{fill:#864240;}
	.st22{fill:#C26358;}
	.st23{fill:none;stroke:#1A2E35;stroke-miterlimit:10;}
	.st24{opacity:0.1;fill:#010000;}
	.st25{opacity:0.4;}
	.st26{opacity:0.2;}
	.st27{fill:#010000;}
	.st28{fill:#F4B85A;}
	.st29{fill:#FFC5C1;}
	.st30{fill:#BD5324;}
	.st31{fill:#D95000;}
	.st32{opacity:0.6;}
	.st33{clip-path:url(#SVGID_00000151502215234822496650000007437085913361659065_);}
	.st34{clip-path:url(#SVGID_00000110433926070573728200000012502445379279366543_);}
	.st35{fill:url(#SVGID_00000103255146994628683790000000770020862597104036_);}
	.st36{clip-path:url(#SVGID_00000040537892574549133140000018212266801394646660_);}
	.st37{clip-path:url(#SVGID_00000163777914067397998740000004097095201748959117_);}
	.st38{opacity:0.5;}
	.st39{fill:#334F7C;}
	.st40{clip-path:url(#SVGID_00000158726798235814590320000002301119777143042969_);}
	.st41{fill:none;stroke:#44555B;stroke-width:0.05;stroke-miterlimit:10;}
	.st42{fill:none;}
	.st43{clip-path:url(#SVGID_00000065072009053642269880000017776614026519796379_);}
	.st44{fill:#919191;}
	.st45{fill:#CCCCCC;}
	.st46{fill:#AFAFAF;}
	.st47{fill:#F4DFCE;}
	.st48{fill:#35271C;}
	.st49{fill:#DDC6B6;}
	.st50{clip-path:url(#SVGID_00000108995090200856355980000001324391765816945536_);}
	.st51{clip-path:url(#SVGID_00000073710320183221010370000018070818288496758434_);}
	.st52{clip-path:url(#SVGID_00000181782952513101437670000001917892500865877425_);}
	.st53{opacity:0.2;fill:#1A2E35;}
	.st54{fill:#D8BCA0;}
</style>
<g>
	<circle class="st1" cx="383.63" cy="383.63" r="383.63"/>
	<g>
		<defs>
			<circle id="SVGID_00000164487840659200888280000005529660485938889866_" cx="383.63" cy="383.63" r="383.63"/>
		</defs>
		<clipPath id="SVGID_00000137811329094586609840000014539535754273107382_">
			<use xlink:href="#SVGID_00000164487840659200888280000005529660485938889866_"  style="overflow:visible;"/>
		</clipPath>
		<g style="clip-path:url(#SVGID_00000137811329094586609840000014539535754273107382_);">
			<path class="st8" d="M210.38,501.18c14.69,21,37.18,79.62,70.79,100.44c52.31,32.43,248.79,58.33,267.23,21.06
				c13.35-27.01-30.4-62.91-33.7-130.04c62.04,13.01,108.13,90.89,123.93,80.94c16.4-10.33-7.2-62.91-3.07-81.18
				c4.18-18.36,92.96-130.32,70.87-140.92c-22.09-10.68-75.5,37.41-98.44,49.04c-15.21,7.67-48.29,7.2-69.91,6.5
				c39.8-65.09,116.33-122.06,114.64-184.3c-2.23-81.18-317.56-106.98-361.17-32.65c-43.66,74.33-67.69,181.57-90.7,202.3
				c-22.96,20.81-109.84,30.65-114.82,55.52C81.05,472.76,195.7,480.1,210.38,501.18z"/>
			<g>
				<path class="st3" d="M355.65,615.1c1.68-85.73,26.4-376,36.15-456.81c0.29-2.37,2.34-1.28,2.25,1.06
					c-3.2,86.12-23.98,376.85-35.09,456.45C358.15,621.67,355.54,620.8,355.65,615.1z"/>
				<g>
					<path class="st3" d="M271.02,441.1c0.21-0.21,0.49,0.2,0.31,0.53c-16.36,30.15-9.84,69.83,5.69,96.49
						c0.6,1.04,0.08,1.05-0.59,0.45C256.83,520.75,248.97,462.73,271.02,441.1z"/>
					<path class="st3" d="M282.16,434.86c32.72-5,37.63,76.28,4.86,81.28C254.3,521.14,249.39,439.87,282.16,434.86z"/>
				</g>
				<g>
					<path class="st3" d="M695.76,391.38c-26.49,4.1-52.72,12.1-78.28,23.95C643.97,411.26,670.2,403.2,695.76,391.38L695.76,391.38
						z"/>
					<path class="st3" d="M643.24,546.87c-24.04-18.24-49.11-32.94-74.85-43.77C592.42,521.37,617.51,536.01,643.24,546.87
						L643.24,546.87z"/>
					<path class="st3" d="M635.77,510.19c-24.92-14.95-50.67-26.22-76.88-33.55C583.8,491.62,609.56,502.83,635.77,510.19
						L635.77,510.19z"/>
					<path class="st3" d="M648.51,466.43c-26.25-7.01-52.88-10.15-79.49-9.28C595.27,464.18,621.9,467.26,648.51,466.43
						L648.51,466.43z"/>
					<path class="st3" d="M672.63,432.44c-26.55-2.94-53.24-1.98-79.68,2.97C619.51,438.39,646.2,437.36,672.63,432.44
						L672.63,432.44z"/>
				</g>
				<path class="st3" d="M419.76,469.1c10.53-95.39,6.94-194.62-7.06-288.64C420.14,276.18,423.72,372.74,419.76,469.1L419.76,469.1
					z"/>
				<path class="st3" d="M446.4,180.69c9.17,79.09,15.04,159.67,13.95,240.2c0.16,11.56-0.66,23-0.74,34.61
					C469.47,364.23,463.44,268.88,446.4,180.69L446.4,180.69z"/>
				<path class="st3" d="M479.38,180.92c12.76,76.13,23,155.46,18.55,234.54c-0.31,11.38-1.96,22.38-2.95,33.73
					C512.1,361.31,500.27,264.59,479.38,180.92L479.38,180.92z"/>
				<g>
					<path class="st3" d="M412.63,472.04c26.71-6.84,54.15-19.9,81.19-19.08c0.38,0.06,0.75,0.72,1.03,1.07
						c3.41,4.92,4.73,14.16,5.4,22.64c1.18,17.5,0.09,35.6-1.91,53.17c-1.97,17.57-4.82,35.19-9.73,50.92
						c-2.32,6.72-5.3,15.5-10.09,17.2c-16.26,2.43-33.11-8.44-48.69-16.12c-10.79-5.65-21.42-12.11-32.04-18.64
						c20.51,15.78,41.46,30.41,63.9,39.08c7.97,3.03,20.12,6.65,25.84-6.27c14.18-27.41,26.55-119.37,9.98-147.08
						c-5.03-5.96-12.52-1.87-18.24-1.28C456.64,453.36,434.56,462.23,412.63,472.04L412.63,472.04z"/>
					<path class="st3" d="M501.83,470.29c-24.92-0.14-49.83,3.63-74.28,11.35C452.48,481.81,477.38,477.97,501.83,470.29
						L501.83,470.29z"/>
					<path class="st3" d="M485.74,590.08c-23.25-14.33-47.37-24.98-71.93-31.7C437.05,572.73,461.18,583.33,485.74,590.08
						L485.74,590.08z"/>
					<path class="st3" d="M491.86,563.01c-23.93-11.15-48.51-18.52-73.35-21.91C442.43,552.28,467.03,559.6,491.86,563.01
						L491.86,563.01z"/>
					<path class="st3" d="M498.03,534.81c-24.42-7.94-49.31-12.03-74.23-12.11C448.22,530.66,473.11,534.69,498.03,534.81
						L498.03,534.81z"/>
					<path class="st3" d="M500.93,503.8c-24.74-4.76-49.76-5.63-74.6-2.5C451.07,506.1,476.08,506.9,500.93,503.8L500.93,503.8z"/>
				</g>
			</g>
		</g>
	</g>
</g>
</svg>
