<?xml version="1.0" encoding="utf-8"?>
<!-- Generator: Adobe Illustrator 27.7.0, SVG Export Plug-In . SVG Version: 6.00 Build 0)  -->
<svg version="1.1" id="Ebene_1" xmlns="http://www.w3.org/2000/svg" xmlns:xlink="http://www.w3.org/1999/xlink" x="0px" y="0px"
	 viewBox="0 0 765.5 767.26" style="enable-background:new 0 0 765.5 767.26;" xml:space="preserve">
<style type="text/css">
	.st0{fill:#FB6A55;}
	.st1{fill:#969696;}
	.st2{fill:#2B454E;}
	.st3{fill:#1A2E35;}
	.st4{fill:#FFABA1;}
	.st5{fill:#ECECEC;}
	.st6{fill:#DCDCDC;}
	.st7{fill:#A8A8A8;}
	.st8{fill:#4D6FB4;}
	.st9{fill:#375A64;}
	.st10{fill:#C8C8C8;}
	.st11{fill:#FFFFFF;}
	.st12{fill:#F7DFC4;}
	.st13{fill:#F2F2F2;}
	.st14{opacity:0.1;}
	.st15{opacity:0.3;fill:#1A2E35;}
	.st16{fill:#97BEDB;}
	.st17{fill:#771137;}
	.st18{fill:#FF9ABD;}
	.st19{fill:#F39C8C;}
	.st20{fill:#F4B3CC;}
	.st21{fill:#864240;}
	.st22{fill:#C26358;}
	.st23{fill:none;stroke:#1A2E35;stroke-miterlimit:10;}
	.st24{opacity:0.1;fill:#010000;}
	.st25{opacity:0.4;}
	.st26{opacity:0.2;}
	.st27{fill:#010000;}
	.st28{fill:#F4B85A;}
	.st29{fill:#FFC5C1;}
	.st30{fill:#BD5324;}
	.st31{fill:#D95000;}
	.st32{opacity:0.6;}
	.st33{clip-path:url(#SVGID_00000090282278414943418470000001484283100198272672_);}
	.st34{clip-path:url(#SVGID_00000082333011671176913820000009506563319888766386_);}
	.st35{fill:url(#SVGID_00000089565511487313623300000014857755317569162416_);}
	.st36{clip-path:url(#SVGID_00000001657311871350831580000014007848155376206753_);}
	.st37{clip-path:url(#SVGID_00000105421657206904290380000012342321184939089058_);}
	.st38{opacity:0.5;}
	.st39{fill:#334F7C;}
	.st40{clip-path:url(#SVGID_00000080887702267688861370000007342297816529938569_);}
	.st41{fill:none;stroke:#44555B;stroke-width:0.05;stroke-miterlimit:10;}
	.st42{fill:none;}
	.st43{clip-path:url(#SVGID_00000076599228396971567240000014231023559695715221_);}
	.st44{fill:#919191;}
	.st45{fill:#CCCCCC;}
	.st46{fill:#AFAFAF;}
	.st47{fill:#F4DFCE;}
	.st48{fill:#35271C;}
	.st49{fill:#DDC6B6;}
	.st50{clip-path:url(#SVGID_00000000205261479856912060000004883897419309968284_);}
	.st51{clip-path:url(#SVGID_00000104670508957260825420000009752362183911659962_);}
	.st52{clip-path:url(#SVGID_00000031179471687489483780000000667268424085936042_);}
	.st53{opacity:0.2;fill:#1A2E35;}
	.st54{fill:#D8BCA0;}
</style>
<g>
	<g>
		<defs>
			<circle id="SVGID_1_" cx="-753.18" cy="383.63" r="383.63"/>
		</defs>
		<clipPath id="SVGID_00000099637576387016949350000000316033704251613617_">
			<use xlink:href="#SVGID_1_"  style="overflow:visible;"/>
		</clipPath>
		<g style="clip-path:url(#SVGID_00000099637576387016949350000000316033704251613617_);">
			<g>
				<g>
					<path class="st4" d="M-720.56,654.79c42.35,105.17,210.63,444.99,321.16,468.97c72.53,15.73,365.61-12.64,416.07-81.98
						c21.99-30.22-15.19-240.88-54.26-232.51c-39.07,8.37-274.06,39.42-302.91,31.04c-28.69-8.34-245.16-257.41-325.95-319.24
						C-805.77,414.44-743.37,598.15-720.56,654.79z"/>
				</g>
				<g>
					<g>
						<polygon class="st2" points="-148.22,1142.41 -516.26,1150.27 -354.51,674.45 13.54,666.59 						"/>
						<g>
							<path class="st10" d="M1.46,666.89c-2.02,7.46-7.45,15.21-15.36,19.56c-3.47,1.96-4.5-2.62-1.07-4.47
								c5.01-2.82,8.6-7.61,10.42-12.35c0.29-0.84,0.61-1.79,0.79-2.63c0.86-3.15,1.1-6.3,0.36-9c-0.37-1.35-1.06-2.38-2.13-3.19
								c0,0-0.17-0.1-0.24-0.2c-0.17-0.1-0.38-0.1-0.45-0.2c-0.21,0-0.7-0.09-0.7-0.09c-0.87-0.19-1.64-0.07-2.58,0.26
								c-1.5,0.45-2.9,1.53-4.17,2.81c-1.62,1.71-2.5,3.08-3.56,4.99c-0.6,0.85-1.03,1.8-1.56,2.75l-0.21,0.63
								c-0.21,0.32-0.32,0.63-0.43,0.95c-0.07,0.21-0.25,0.42-0.21,0.63l-5.22,0.11c1.04-3.05,2.74-6.23,4.79-9.2
								c3.53-4.88,8.44-8.96,13.95-9.29c4.95-0.21,7.59,3.28,8.39,7.34C2.92,659.54,2.61,663.21,1.46,666.89z"/>
						</g>
					</g>
					<g>
						<g>
							<path class="st0" d="M24.56,833.7c-13.09-39.96,37.6-86.66,30.57-126.67c-9.51-54.13-71.99-3.91-88.5,73.5l-2.25,62.35
								L24.56,833.7z"/>
						</g>
					</g>
				</g>
			</g>
		</g>
	</g>
</g>
<g>
	<circle class="st1" cx="383.63" cy="383.63" r="383.63"/>
	<g>
		<defs>
			<circle id="SVGID_00000160181930360259158650000005489175166120866218_" cx="383.63" cy="383.63" r="383.63"/>
		</defs>
		<clipPath id="SVGID_00000000221394231321788360000004835618727060914566_">
			<use xlink:href="#SVGID_00000160181930360259158650000005489175166120866218_"  style="overflow:visible;"/>
		</clipPath>
		<g style="clip-path:url(#SVGID_00000000221394231321788360000004835618727060914566_);">
			<path class="st12" d="M359.22,545.86c9.38,105.38,84.04,434.84,139.94,470.95c58.18,37.57,324.93,113.34,381.01,112.68
				c34.87-0.41,44.61-242.72,7.45-245.81c-37.16-3.09-246.59-71.79-270.09-87.09c-23.37-15.2-113.28-222.55-168.71-299.63
				C353.23,364.06,354.17,489.11,359.22,545.86z"/>
			<g>
				<path class="st8" d="M821.99,855.95l-33.93,290.64c0,0-245.62-72.85-304.31-123.96c-58.69-51.1-125.7-374.15-131.87-506.19
					c-6.16-132.04,40.08-129.02,108.7-16.96c68.62,112.05,153.83,287.73,168.97,295.49C644.69,802.72,821.99,855.95,821.99,855.95z"
					/>
				<path class="st8" d="M714.12,1123.1c-77.36-25.65-192.6-67.51-230.39-100.46c-58.68-51.12-125.68-374.16-131.88-506.21
					c-2.97-63.95,6.37-96.21,24.54-99.87L714.12,1123.1z"/>
			</g>
			<g>
				<g>
					<path class="st8" d="M551.6,1057.03l-553.94,8.73c0,0-4.1-45.26,2.88-72.91c33.14-131.38,144-488.4,230.95-581.11
						c36.29-38.7,108.88-35.64,144.89-3.6c41.27,36.71,169.96,474.55,188.16,590.23C569.87,1032.2,551.6,1057.03,551.6,1057.03z"/>
				</g>
			</g>
			<g>
				<g>
					<path class="st12" d="M354.04,486.57c-29.09,2-90.39-49.9-103.75-93.21c-0.9-2.97,24.08-93.66,28.45-115.06
						c0.87-4.4,127.52,60.04,127.52,60.04s-22.36,42.15-29.76,79.5c-0.58,3.13-0.87,6.09-0.87,8.97c-0.04,0.41-0.02,0.92-0.1,1.49
						C374.84,445.53,385.17,484.43,354.04,486.57z"/>
				</g>
				<path class="st3" d="M375.68,426.8c-0.07,0.43-0.07,0.97-0.16,1.48c-4.31-0.29-8.91-0.98-13.88-2.09
					c-78.63-17.89-79.26-121.02-78.15-146.89c23.14,8.29,122.79,59.02,122.79,59.02s-22.38,42.19-29.79,79.54
					C375.95,420.98,375.63,423.95,375.68,426.8z"/>
			</g>
			<g>
				<path class="st12" d="M272.84,125.37c-19.8,46.76-8.93,188.96,22.17,223.67c45.08,50.32,126.16,63.19,170.76,7.34
					c43.23-54.14,25.78-239.21-9.63-271.51C403.97,37.3,302.09,56.3,272.84,125.37z"/>
			</g>
			<path class="st15" d="M465.79,356.4c-44.58,55.81-125.68,42.98-170.77-7.39c-12.57-14.05-21.86-45.83-27.16-81.7l35.68-52.28
				c0,0,11.7,43.76,29.75,56.43c24.75,17.46,73.64,24.88,91.71-1.96l16.64-0.12c0,0,33.11,22.96,48.91-3
				C488.23,304.15,480.58,337.92,465.79,356.4z"/>
			<g>
				<path class="st3" d="M386.97,212.74c-15.49-0.06-14.49,30.93-0.13,30.99C400.96,243.8,399.96,212.8,386.97,212.74z"/>
			</g>
			<g>
				<path class="st3" d="M458.9,211.2c15.41-1.67,17.62,29.26,3.35,30.81C448.2,243.53,445.98,212.6,458.9,211.2z"/>
			</g>
			<path class="st3" d="M374.28,198.97c4.19-1.2,7.85-3,11.87-4.62c4.53-1.82,8.33-2.81,11.21-7.02c1.54-2.26,0.74-6.2-1.31-7.9
				c-4.78-3.97-10.89-3.12-16.43-1.14c-6.02,2.14-10.11,5.32-13.42,10.77C362.97,194.35,368.76,200.55,374.28,198.97z"/>
			<path class="st3" d="M470.37,195.2c-4.32-0.56-8.21-1.8-12.42-2.8c-4.76-1.13-8.66-1.53-12.13-5.27c-1.86-2-1.66-6.01,0.12-8.01
				c4.14-4.63,10.3-4.7,16.08-3.58c6.27,1.21,10.79,3.76,14.88,8.65C480.87,188.95,476.07,195.94,470.37,195.2z"/>
			<g>
				<path class="st3" d="M458.99,288.37c0,0-10.65,14.93-29.32,23.44c-6.87,3.15-14.64,5.46-23.47,5.89
					c-18.11,0.92-21.76-8.41-21.36-17.13c0.3-7.17,3.49-13.96,3.49-13.96S418.23,295.35,458.99,288.37z"/>
				<path class="st18" d="M429.67,311.81c-6.87,3.15-14.64,5.46-23.47,5.89c-18.11,0.92-21.76-8.41-21.36-17.13
					C403.66,297.81,424.45,301.44,429.67,311.81z"/>
			</g>
			<g>
				<g>
					<path class="st5" d="M378.61,408.51l-28.31,70.98l-95.76-105.59l-27.9,34.49c0,0,91.32,160.86,92.12,153.73l34.31-66.95
						l45.53,48.49l-0.54-118.61L378.61,408.51z"/>
					<path class="st3" d="M401.65,485.01c-0.74-19.58-0.95-39.32-2.6-58.84c-0.06-0.7-1.13-1.03-1.32-0.22
						c-4.44,18.77-1.19,93.63-1.77,111.54c-0.07-0.07-0.14-0.14-0.2-0.21c-1.9-2.1-42.26-42.73-42.69-42.11
						c-7.33,10.58-32.5,59.33-34.25,63.78c-14.44-25.55-69.91-118.52-87.17-142.78c-0.49-0.69-1.57-0.16-1.19,0.65
						c12.63,26.91,85.99,152.06,87.17,151.75c0.79,0.64,32.05-59.4,35.9-70.8c6.78,8.8,47.39,54.52,47.61,51.61
						C402.65,529.8,402.39,504.62,401.65,485.01z"/>
				</g>
			</g>
			<path class="st3" d="M429.03,268.22c-5.45,0-10.59-1.86-10.91-1.97l1.64-4.48c2.73,1.01,10.72,3.02,14.82,0.43
				c1.06-0.67,1.28-1.32,1.36-1.74c0.45-2.55-2.79-6.78-4.94-9.58c-1.14-1.48-2.03-2.65-2.55-3.67c-4.82-9.55,1.54-19.81,1.81-20.24
				l4.03,2.55c-0.05,0.08-5.18,8.43-1.59,15.55c0.31,0.62,1.17,1.74,2.08,2.92c2.81,3.67,6.67,8.7,5.85,13.31
				c-0.36,2-1.57,3.71-3.5,4.93C434.77,267.72,431.86,268.22,429.03,268.22z"/>
			<path class="st13" d="M858.92,1005.98c26.8-27.05,47.31-60.1,58.89-98.04c0.71-2.34,1.29-4.69,1.93-7.03
				c9.71-35.7,10.66-72.07,3.98-107.17l-184.67,30.78c-0.84,0.14-1.66,0.18-2.49,0.28c-1.1,0.2-2.19,0.4-3.3,0.59
				c0.08,0.45,0.06,0.92-0.16,1.37c-0.87,1.77-21.52,43.27-42.94,44.38l-1.01,0.03c-21.38,0-23.77-35.91-23.86-37.46
				c0-0.01,0-0.01,0-0.02c-16.82,0.86-27.62-0.04-28.09-2.9c-0.52-3.2,11.94-8.12,31.65-13.18c0.27-1.62,0.58-3.28,0.93-5
				c-35.15,4.42-61.23,4.74-61.96,0.24c-0.78-4.85,28.2-13.68,67.25-20.89c0.31-1.06,0.63-2.12,0.96-3.2
				c-0.46,0.08-0.9,0.15-1.37,0.23c-46.88,7.58-85.6,9.27-86.49,3.77c-0.89-5.49,36.4-16.09,83.28-23.67
				c3.52-0.57,6.97-1.09,10.38-1.59c0.16-1.02,0.36-2.03,0.59-3.04c-0.83,0.14-1.63,0.28-2.46,0.41
				c-31.56,5.1-59.36,7.52-74.48,6.89c-21.15,24.26-38.93,45.11-53.66,60.11c-0.61,2.32-0.97,3.64-0.99,3.74
				c-0.27,1-1.17,1.66-2.16,1.66l-0.58-0.08c-0.05-0.01-0.08-0.05-0.13-0.07c-3.68,10.64-7.74,21-11.97,31.07
				c-12.77,30.36-27.06,58.06-37,82.95c11.94-22.88,40.5-31.8,63.38-19.07c20.58,11.46,27.35,37.84,14.88,57.82
				c-14.46,23.15-28.54,48.56-42.02,73.6c1.01,0.45,2.05,0.89,3.1,1.32c6.51,2.72,13.69,5.31,21.68,7.75
				c8.22,2.51,16.45,4.6,24.68,6.45c6.06,1.35,12.11,2.58,18.15,3.58c6.85,1.13,13.69,1.99,20.51,2.67c0.02-0.14,0-0.27,0.04-0.4
				c2.58-8.19,64.35-200.33,157.9-188.43c1.22,0.16,2.09,1.28,1.94,2.5c-0.16,1.23-1.27,2.1-2.5,1.94
				c-59.19-7.55-106.58,74.52-132.19,131.91c13.03-19.91,39.55-27.08,61.06-15.11c20.58,11.46,27.35,37.84,14.88,57.82
				c-0.88,1.41-1.76,2.83-2.63,4.25c2.4-0.53,4.8-1.04,7.17-1.62c1.45-0.36,2.89-0.75,4.34-1.13c15.66-4.09,30.8-9.41,45.26-15.87
				c13.59-6.08,26.58-13.15,38.82-21.2C832.47,1030,846.38,1018.64,858.92,1005.98z"/>
			<path class="st13" d="M654.83,660.08l12.51-36.24c-13.56,1.36-27.93,1.19-42.67-0.75c-15-1.98-29.16-5.63-42.08-10.6
				c-2.47,16.87-4.48,37.69-7.11,62.91c16.52-12.74,40.36-13.18,57.46,0.81c12.62,10.32,17.45,26.52,13.99,41.3
				c8.95-0.36,27.28,2.47,50.02,7.73c0.03-0.13,0.02-0.25,0.08-0.38l27.55-65.65c0.48-1.14,1.79-1.67,2.93-1.2
				c0.06,0.03,0.1,0.08,0.15,0.11c4.6-8.27,11.46-14.6,19.4-18.65L654.83,660.08z"/>
			<path class="st13" d="M644.82,723.95c-1.76,4.21-4.21,8.22-7.46,11.8c-6.69,7.38-13.07,14.57-19.23,21.56
				c15-4.21,35.64-8.65,58.61-12.36c4.65-0.75,9.19-1.43,13.65-2.06C668.67,735.71,651.99,728.79,644.82,723.95z"/>
			<path class="st13" d="M756.56,410.05c2.12-0.95,4.37,1.04,3.7,3.26l-9.59,31.61c4.04,4.28,7.73,8.81,11.01,13.6l14.23-53.18
				c2.16-8.08-5.87-15.14-13.61-11.96l-54.81,22.53c6,2.36,11.72,5.16,17.15,8.34L756.56,410.05z"/>
			<path class="st19" d="M756.56,410.05l-31.92,14.2c9.76,5.73,18.52,12.71,26.03,20.67l9.59-31.61
				C760.94,411.09,758.68,409.1,756.56,410.05z"/>
			<path class="st13" d="M583.74,435.25l-5.25-29.58c-0.36-2,1.81-3.5,3.55-2.46l26.57,15.84c4.79-2.31,9.78-4.3,14.93-5.96
				l-44.77-24.97c-6.4-3.57-14.12,1.74-13.08,8.99l7.05,49.05C576.14,442.28,579.81,438.63,583.74,435.25z"/>
			<path class="st19" d="M582.05,403.22c-1.75-1.04-3.91,0.45-3.55,2.46l5.25,29.58c7.44-6.4,15.82-11.84,24.88-16.2L582.05,403.22z
				"/>
			<path class="st13" d="M667.34,623.84l0.91-2.64c-6.02,0.08-12.14-0.26-18.31-1.08c-56.32-7.43-98.26-50.8-101.79-101.24
				l-4.09-0.12c-1.23-0.04-2.21-1.07-2.17-2.3c0.04-1.23,0.95-2.2,2.3-2.17l3.73,0.11c-0.12-5.09,0.12-10.23,0.81-15.41
				c1.56-11.83,5.2-22.9,10.49-33.01c-27.4,11.99-46.26,32.02-49.5,56.62c-4.79,36.32,25.85,71.83,72.87,89.89
				c12.92,4.96,27.08,8.61,42.08,10.6C639.41,625.03,653.78,625.2,667.34,623.84z"/>
			<path class="st13" d="M548.73,498.99c-0.68,5.18-0.93,10.33-0.81,15.41l16.87,0.51c1.24,0.04,2.21,1.07,2.17,2.3
				c-0.04,1.21-1.03,2.17-2.24,2.17h-0.07l-16.52-0.5c3.53,50.44,45.47,93.8,101.79,101.24c6.17,0.81,12.29,1.16,18.31,1.08
				l10.27-29.74l100.6-62.06c3.38-25.6-3.4-50.39-17.43-70.88c-3.28-4.79-6.98-9.33-11.01-13.6c-7.51-7.96-16.27-14.94-26.03-20.67
				c-5.42-3.18-11.15-5.98-17.15-8.34c-9.28-3.65-19.19-6.27-29.6-7.64c-19.04-2.51-37.54-0.61-54.36,4.82
				c-5.15,1.66-10.13,3.66-14.93,5.96c-9.06,4.36-17.43,9.79-24.88,16.2c-3.93,3.38-7.61,7.03-10.99,10.91
				c-5.27,6.05-9.8,12.7-13.53,19.82C553.93,476.09,550.29,487.17,548.73,498.99z"/>
			<path class="st13" d="M613.78,540.67c-0.66-0.9-1.19-1.84-1.64-2.8c-0.51,0.93-1.09,1.84-1.81,2.7
				c-3.48,4.2-8.79,6.35-15.77,6.41h-0.02c-1.23,0-2.23-0.99-2.24-2.22c-0.01-1.23,0.98-2.24,2.22-2.26
				c5.6-0.05,9.75-1.65,12.35-4.78c2.86-3.43,3.37-8.07,3.34-11.1c-7.67-1.15-13.4-5.83-13.23-11.29
				c0.18-6.12,7.69-10.86,16.76-10.59c9.07,0.27,16.27,5.45,16.09,11.57c-0.17,5.73-6.8,10.2-15.1,10.52
				c-0.2,3.03,0.05,7.63,2.68,11.2c2.41,3.27,6.46,5.13,12.04,5.51c1.23,0.08,2.16,1.15,2.08,2.38c-0.08,1.18-1.06,2.09-2.23,2.09
				l-0.15-0.01C622.17,547.54,617,545.06,613.78,540.67z"/>
			<path class="st13" d="M571.83,488.27c-2.07-0.06-3.65-3.01-3.55-6.59c0.11-3.58,1.87-6.43,3.94-6.37
				c2.07,0.06,3.65,3.01,3.55,6.59C575.65,485.49,573.89,488.34,571.83,488.27z"/>
			<path class="st13" d="M570.8,527.84l-18.72,2.69l-0.32,0.02c-1.09,0-2.05-0.8-2.21-1.92c-0.18-1.22,0.67-2.36,1.9-2.53
				l18.72-2.69c1.21-0.17,2.36,0.67,2.53,1.9C572.87,526.53,572.03,527.66,570.8,527.84z"/>
			<path class="st13" d="M668.38,526.36l18.52,3.8c1.21,0.25,1.99,1.43,1.74,2.64c-0.22,1.06-1.15,1.78-2.19,1.78l-0.45-0.04
				l-18.52-3.8c-1.21-0.25-1.99-1.43-1.74-2.64C665.99,526.89,667.18,526.11,668.38,526.36z"/>
			<path class="st13" d="M666.01,511.51c-0.18-1.22,0.67-2.36,1.9-2.53l18.72-2.69c1.2-0.18,2.36,0.67,2.53,1.9
				c0.17,1.22-0.67,2.36-1.9,2.53l-18.72,2.69l-0.32,0.02C667.13,513.43,666.17,512.62,666.01,511.51z"/>
			<path class="st13" d="M674.11,522.66c-1.24-0.04-2.21-1.07-2.17-2.3c0.04-1.23,0.84-2.27,2.3-2.17l20.6,0.61
				c1.24,0.04,2.21,1.07,2.17,2.3c-0.04,1.21-1.03,2.17-2.24,2.17h-0.06L674.11,522.66z"/>
			<path class="st13" d="M669.43,478.23c2.07,0.06,3.65,3.01,3.55,6.59c-0.11,3.58-1.87,6.43-3.93,6.36
				c-2.07-0.06-3.65-3.01-3.55-6.59C665.61,481.02,667.37,478.17,669.43,478.23z"/>
			<path d="M669.04,491.19c2.07,0.06,3.83-2.79,3.93-6.36c0.11-3.58-1.48-6.53-3.55-6.59c-2.06-0.06-3.83,2.79-3.93,6.37
				C665.39,488.18,666.98,491.13,669.04,491.19z"/>
			<path d="M572.21,475.32c-2.07-0.06-3.83,2.79-3.94,6.37c-0.11,3.58,1.48,6.53,3.55,6.59c2.07,0.06,3.83-2.79,3.93-6.36
				C575.87,478.33,574.28,475.38,572.21,475.32z"/>
			<path d="M613.74,504.75c-9.07-0.27-16.57,4.47-16.76,10.59c-0.16,5.46,5.56,10.14,13.23,11.29c0-0.02,0-0.03,0-0.06
				c0.39,0.12,0.79,0.26,1.19,0.32c0.6,0.09,1.23,0.08,1.83,0.08c0.26,0,0.51-0.02,0.77-0.06c0.27-0.02,0.49-0.17,0.74-0.25
				c0,0.06,0,0.14,0,0.19c8.3-0.32,14.93-4.79,15.1-10.52C630.01,510.2,622.81,505.02,613.74,504.75z"/>
			<path d="M604.59,511.14c0.06-1.92,2.48-3.4,5.41-3.31c2.93,0.09,5.26,1.72,5.2,3.63c-0.06,1.92-2.48,3.4-5.41,3.31
				C606.86,514.68,604.53,513.05,604.59,511.14z"/>
			<path class="st11" d="M615.2,511.46c0.06-1.92-2.27-3.54-5.2-3.63c-2.93-0.09-5.36,1.4-5.41,3.31c-0.06,1.92,2.27,3.54,5.2,3.63
				C612.72,514.86,615.15,513.37,615.2,511.46z"/>
			<path class="st13" d="M815.74,624.13c-34.48-30.75-36.62-94.74-36.62-94.74l-100.6,62.06l-10.27,29.74l-0.91,2.64l-12.51,36.24
				l92.23-20.6c6.92-3.53,14.67-5.29,22.53-5.03l46.12-10.3L815.74,624.13z"/>
			<path class="st20" d="M684.31,764.12c-0.63,0.11-1.26,0.21-1.89,0.32c-0.22,1.01-0.43,2.02-0.59,3.04
				c0.45-0.07,0.89-0.13,1.34-0.19C683.55,766.24,683.93,765.18,684.31,764.12z"/>
			<path d="M724.57,659.21l-27.55,65.65c-0.05,0.12-0.05,0.25-0.08,0.38c-0.24,1.04,0.26,2.12,1.27,2.55l0.03,0.01l0.83,0.17
				c0.87,0,1.7-0.52,2.06-1.37l27.55-65.65c0.45-1.08-0.02-2.29-1.04-2.82c-0.06-0.03-0.09-0.08-0.15-0.11
				C726.36,657.55,725.05,658.08,724.57,659.21z"/>
			<path class="st13" d="M869.98,677.69c0,0,49.87,56.74,53.75,116.05c3.87,59.3-64.58,45.32-64.58,45.32l-130.05-14.28
				l73.56-122.37L869.98,677.69z"/>
			<polygon class="st13" points="699.08,727.96 667.55,831.35 626.26,842.02 566.66,802.37 578.31,725.24 654.26,692.91 			"/>
			<g>
				<g>
					<path class="st12" d="M176.07,479.15c-36.44,127.15-110.02,414.07-44.8,450.93c107.22,60.6,319.78,71.19,383.98,67.8
						c27.71-1.46,52.17-215.36,23.23-221.86c-34.73-7.8-241.52-14.12-245.55-22.58c-4.43-9.29-15.02-145.83-39.01-248
						C224.12,378.63,191.27,426.09,176.07,479.15z"/>
					<g>
						<g>
							<path class="st12" d="M495.67,777c0,0,91.31-0.09,146.65-6.71c30.87-3.69,84.38-5.3,108.3,2.36
								c35.78,11.46,178.12,82.25,161.7,117.13c-14.86,31.58-129.43-44.77-129.43-44.77s122.42,66.82,97.53,101.54
								c-24.89,34.73-142.86-68.74-142.86-68.74s124.24,71.47,92.91,103.22c-23.68,24-135.81-63.7-135.81-63.7
								s106.36,62.17,83.08,87.9c-25.73,28.43-134.31-46.02-134.31-46.02c-70.2,55.43-145.32,36.78-185.03,30.37
								C448.79,988.03,495.67,777,495.67,777z"/>
						</g>
					</g>
				</g>
				<g>
					<path class="st8" d="M537.66,763.97l-25.26,265.95c0,0-354.16-51.88-394.6-106.95c-40.44-55.07,28.02-385.24,58.49-458.51
						c30.46-73.27,54.9-56.46,76.06,7.12c21.15,63.58,41.97,277.89,44.49,281.14C299.35,755.97,537.66,763.97,537.66,763.97z"/>
					<g>
						<path class="st3" d="M540.2,760.86c0.11-1.44-228.67-10.16-243.38-11.4c-1.8-32.52-6.07-65.01-10.47-97.26
							c-1.42-10.41-3.03-20.8-4.59-31.19c0.21-5.12,0.4-10.24,0.27-15.38c-0.22-8.88-0.93-17.65-1.98-26.47
							c-0.05-0.39-0.61-0.36-0.61,0.03c0.03,8.86,0.04,17.71,0.17,26.56c0,0.29,0.02,0.59,0.03,0.88c-0.16-1.02-0.29-2.05-0.45-3.07
							c-1.22-7.77-2.5-15.52-3.96-23.25c-0.71-3.77-1.41-7.54-2.16-11.3c-0.5-2.49-1.06-4.89-1.3-7.41
							c-0.31-3.36-0.57-1.44-1.61-5.66c-0.11-0.44-0.81-0.29-0.77,0.14c0.58,6.85-0.53,0.76,0.74,7.63c0.35,1.87,0.4,3.84,0.63,5.72
							c0.46,3.81,0.96,7.62,1.42,11.44c1.01,8.28,2.18,16.53,3.31,24.79c2.17,15.9,4.23,31.81,6.21,47.73
							c4.03,32.51,7.09,65.16,11.62,97.6c0.12,0.83,0.68,1.24,1.3,1.44c0.23,0.33,0.57,0.59,1.13,0.65
							c14.62,1.58,228.58,11.29,241.38,12.2c-0.09,0.68-0.31,3.97-0.32,4.94c-0.02,1.95-0.09,3.9-0.2,5.84
							c-0.04,0.78,1.14,1.01,1.22,0.2c0.22-1.99,0.4-3.99,0.53-5.99C538.42,769.3,539.86,765.16,540.2,760.86z"/>
					</g>
				</g>
			</g>
			<path class="st13" d="M643.65,709.97c6.79-11.85,6.81-27.05-1.41-39.21c-11.13-16.47-31.79-22.24-49.32-15.51
				c-4,1.53-7.83,3.71-11.35,6.56c-22.5,18.24-44.6,36.82-61.97,53.96c-15,14.81-26.36,28.49-31.36,39.93
				c-0.12,0.19-0.27,0.34-0.38,0.53c-5.71,9.42-7.94,22.4-2.53,32.5c1.32,2.47,2.69,4.41,5.15,5.91c1.88,1.14,4.15,1.88,6.41,1.86
				c6.5,0.57,15.5-2.41,26.94-8.14c0.99-0.02,12.44-6.18,13.83-7.46c15.59-8.94,85.38-53.04,93.04-57.68
				c3.72-2.25,6.87-5.07,9.47-8.25c-1.89-2.3-2.71-4.02-2.15-4.91C638.6,709.15,640.6,709.19,643.65,709.97z"/>
			<path class="st13" d="M789.55,639.71c-6.41-3.38-13.22-5.04-19.96-5.27c-7.86-0.26-15.61,1.5-22.53,5.03
				c-7.95,4.05-14.8,10.38-19.4,18.65c1.02,0.53,1.49,1.74,1.04,2.82l-27.55,65.65c-0.36,0.86-1.19,1.37-2.06,1.37l-0.83-0.17
				c-2.11,5.23-4.17,10.46-6.18,15.64c-2.72,7.01-5.32,13.93-7.76,20.69c-0.38,1.06-0.76,2.11-1.13,3.16
				c-2.64,7.43-5.05,14.62-7.14,21.46c-0.33,1.08-0.65,2.14-0.96,3.2c-1.74,5.86-3.14,11.31-4.33,16.51
				c-1.85,6.69-2.17,9.2-2.15,9.66c-0.51,7.48-2.45,14.76-1.65,22.34c0.96,9.12,6.25,18.86,15.35,22.06
				c2.16,0.76,4.4,1.11,6.64,1.21c-0.01,0.08-0.03,0.2-0.03,0.27c1.57,0.11,3.18-0.16,4.83-0.59c1.69-0.32,3.36-0.78,4.96-1.56
				c3.79-1.84,6.97-4.3,10.07-7.09c5.33-4.8,10.32-10,14.54-15.82c3.99-5.51,7.35-11.51,10.13-17.75
				c3.54-5.47,7.17-11.29,10.93-17.54c1.09-1.81,2.19-3.64,3.3-5.51c3.03-5.11,6.13-10.43,9.3-15.93
				c5.68-9.86,11.59-20.3,17.74-31.13c8.84-15.59,18.15-31.98,27.97-48.66c1.02-1.74,2.06-3.49,3.09-5.23
				C817.76,676.92,810.39,650.7,789.55,639.71z"/>
			<path d="M614.39,522.73c-0.16-0.91-0.84-1.59-1.69-1.78c-0.29-0.06-0.59-0.08-0.9-0.02c-1.21,0.22-2.02,1.38-1.81,2.59
				c0.01,0.03,0.21,1.28,0.23,3.11c0.02,3.03-0.49,7.67-3.34,11.1c-2.6,3.13-6.75,4.73-12.35,4.78c-1.23,0.01-2.23,1.02-2.22,2.26
				c0.01,1.23,1.01,2.22,2.24,2.22h0.02c6.99-0.06,12.29-2.22,15.77-6.41c0.71-0.86,1.3-1.77,1.81-2.7
				C615.82,531.1,614.46,523.11,614.39,522.73z"/>
			<rect x="557.62" y="488.64" transform="matrix(0.2256 -0.9742 0.9742 0.2256 -56.8476 934.5297)" width="3.57" height="28.77"/>
			<rect x="548.61" y="499.92" transform="matrix(0.0429 -0.9991 0.9991 0.0429 10.7497 1044.2197)" width="3.58" height="33.17"/>
			<rect x="543.78" y="528.76" transform="matrix(0.9865 -0.164 0.164 0.9865 -79.4253 98.9103)" width="31.23" height="3.58"/>
			<rect x="656.84" y="502.98" transform="matrix(0.9743 -0.2253 0.2253 0.9743 -96.4776 164.2331)" width="28.77" height="3.57"/>
			<rect x="663.65" y="516.45" transform="matrix(0.9991 -0.0429 0.0429 0.9991 -21.6205 29.6794)" width="33.17" height="3.58"/>
			<rect x="669.44" y="516.67" transform="matrix(0.1646 -0.9864 0.9864 0.1646 35.7181 1106.7399)" width="3.58" height="31.23"/>
			<path d="M592.86,546.55c-0.19,0-0.38,0-0.57,0l0.05-3.57c6.81,0.1,12.07-1.69,15.34-5.3c4.8-5.32,3.97-13.01,3.96-13.09
				l3.55-0.42c0.05,0.38,1.05,9.33-4.83,15.88C606.47,544.36,600.58,546.55,592.86,546.55z"/>
			<path d="M631.49,547.72c-6.99-0.15-12.29-2.35-15.75-6.54c-5.73-6.94-4.16-16.7-4.09-17.11l3.52,0.59
				c-0.01,0.09-1.36,8.6,3.34,14.26c2.77,3.34,7.16,5.1,13.06,5.23L631.49,547.72z"/>
			<path d="M676.8,792.39l-3.46-0.88c5.26-20.53,47.76-128.36,49.57-132.95l3.32,1.31C725.79,660.99,682,772.08,676.8,792.39z"/>
			<path d="M483.7,782.46l-2.93-2.05c2.27-3.25,22.37-31.85,29.11-34.44l1.28,3.33C506.86,750.96,492.03,770.52,483.7,782.46z"/>
			<path d="M495.27,797.46l-2.74-2.3c0.93-1.11,22.84-27.19,29.59-32.08l2.1,2.89C517.82,770.61,495.49,797.19,495.27,797.46z"/>
			<path class="st3" d="M269.42,217.12c34.54,3.15,53.45-37.72,46.04-71.07c0,0,91.71,14.11,97.65-59.63
				c0,0,17.41,32.42,59.09,34.38l9.71,27.43c9.49-2.53,20.09-29.13-2.55-50.64c0,0-0.83-36.84-27.49-59.49
				c-26.67-22.65-53.93-8.69-53.93-8.69s-21.2-18.45-55.17-14.82c-33.97,3.63-48.56,34.24-48.56,34.24s-45.74,7.76-54.17,39.96
				c-8.43,32.2,7.84,54.24,7.84,54.24s-11.69,12.47-6.46,40.21C244.79,201.08,259.05,216.18,269.42,217.12z"/>
			<g>
				<path class="st12" d="M299.02,239.94c0,0-27.79-47.88-49.25-38.34c-21.47,9.54-3.24,77.08,20.08,88.08
					c23.32,11,33.93-10.39,33.93-10.39L299.02,239.94z"/>
			</g>
			<path class="st3" d="M287.69,273.89c-0.34-0.69-8.64-16.91-25.29-15.82l-0.31-4.76c8.41-0.54,14.98,2.54,19.8,6.34
				c-5.65-11.22-15.73-25.7-31.11-28.95l0.99-4.66c28.59,6.04,39.89,44.5,40.36,46.13L287.69,273.89z"/>
		</g>
	</g>
</g>
</svg>
